G04*
G04 #@! TF.GenerationSoftware,Altium Limited,Altium Designer,24.3.1 (35)*
G04*
G04 Layer_Color=8388736*
%FSLAX44Y44*%
%MOMM*%
G71*
G04*
G04 #@! TF.SameCoordinates,254911FF-814D-4673-B187-D90DD251410E*
G04*
G04*
G04 #@! TF.FilePolarity,Negative*
G04*
G01*
G75*
%ADD15C,0.1500*%
G04:AMPARAMS|DCode=25|XSize=0.8mm|YSize=0.7mm|CornerRadius=0.125mm|HoleSize=0mm|Usage=FLASHONLY|Rotation=270.000|XOffset=0mm|YOffset=0mm|HoleType=Round|Shape=RoundedRectangle|*
%AMROUNDEDRECTD25*
21,1,0.8000,0.4500,0,0,270.0*
21,1,0.5500,0.7000,0,0,270.0*
1,1,0.2500,-0.2250,-0.2750*
1,1,0.2500,-0.2250,0.2750*
1,1,0.2500,0.2250,0.2750*
1,1,0.2500,0.2250,-0.2750*
%
%ADD25ROUNDEDRECTD25*%
%ADD26R,1.3000X1.2000*%
G04:AMPARAMS|DCode=27|XSize=1.5mm|YSize=1.05mm|CornerRadius=0.1688mm|HoleSize=0mm|Usage=FLASHONLY|Rotation=0.000|XOffset=0mm|YOffset=0mm|HoleType=Round|Shape=RoundedRectangle|*
%AMROUNDEDRECTD27*
21,1,1.5000,0.7125,0,0,0.0*
21,1,1.1625,1.0500,0,0,0.0*
1,1,0.3375,0.5813,-0.3563*
1,1,0.3375,-0.5813,-0.3563*
1,1,0.3375,-0.5813,0.3563*
1,1,0.3375,0.5813,0.3563*
%
%ADD27ROUNDEDRECTD27*%
G04:AMPARAMS|DCode=28|XSize=1.1mm|YSize=0.7mm|CornerRadius=0.125mm|HoleSize=0mm|Usage=FLASHONLY|Rotation=0.000|XOffset=0mm|YOffset=0mm|HoleType=Round|Shape=RoundedRectangle|*
%AMROUNDEDRECTD28*
21,1,1.1000,0.4500,0,0,0.0*
21,1,0.8500,0.7000,0,0,0.0*
1,1,0.2500,0.4250,-0.2250*
1,1,0.2500,-0.4250,-0.2250*
1,1,0.2500,-0.4250,0.2250*
1,1,0.2500,0.4250,0.2250*
%
%ADD28ROUNDEDRECTD28*%
G04:AMPARAMS|DCode=29|XSize=2.5mm|YSize=2mm|CornerRadius=0.2875mm|HoleSize=0mm|Usage=FLASHONLY|Rotation=180.000|XOffset=0mm|YOffset=0mm|HoleType=Round|Shape=RoundedRectangle|*
%AMROUNDEDRECTD29*
21,1,2.5000,1.4250,0,0,180.0*
21,1,1.9250,2.0000,0,0,180.0*
1,1,0.5750,-0.9625,0.7125*
1,1,0.5750,0.9625,0.7125*
1,1,0.5750,0.9625,-0.7125*
1,1,0.5750,-0.9625,-0.7125*
%
%ADD29ROUNDEDRECTD29*%
%ADD30C,2.0000*%
G04:AMPARAMS|DCode=31|XSize=1.1mm|YSize=1.9mm|CornerRadius=0.175mm|HoleSize=0mm|Usage=FLASHONLY|Rotation=180.000|XOffset=0mm|YOffset=0mm|HoleType=Round|Shape=RoundedRectangle|*
%AMROUNDEDRECTD31*
21,1,1.1000,1.5500,0,0,180.0*
21,1,0.7500,1.9000,0,0,180.0*
1,1,0.3500,-0.3750,0.7750*
1,1,0.3500,0.3750,0.7750*
1,1,0.3500,0.3750,-0.7750*
1,1,0.3500,-0.3750,-0.7750*
%
%ADD31ROUNDEDRECTD31*%
G04:AMPARAMS|DCode=32|XSize=0.3816mm|YSize=1.9016mm|CornerRadius=0.0858mm|HoleSize=0mm|Usage=FLASHONLY|Rotation=270.000|XOffset=0mm|YOffset=0mm|HoleType=Round|Shape=RoundedRectangle|*
%AMROUNDEDRECTD32*
21,1,0.3816,1.7300,0,0,270.0*
21,1,0.2100,1.9016,0,0,270.0*
1,1,0.1716,-0.8650,-0.1050*
1,1,0.1716,-0.8650,0.1050*
1,1,0.1716,0.8650,0.1050*
1,1,0.1716,0.8650,-0.1050*
%
%ADD32ROUNDEDRECTD32*%
G04:AMPARAMS|DCode=33|XSize=0.3816mm|YSize=1.9016mm|CornerRadius=0.0858mm|HoleSize=0mm|Usage=FLASHONLY|Rotation=180.000|XOffset=0mm|YOffset=0mm|HoleType=Round|Shape=RoundedRectangle|*
%AMROUNDEDRECTD33*
21,1,0.3816,1.7300,0,0,180.0*
21,1,0.2100,1.9016,0,0,180.0*
1,1,0.1716,-0.1050,0.8650*
1,1,0.1716,0.1050,0.8650*
1,1,0.1716,0.1050,-0.8650*
1,1,0.1716,-0.1050,-0.8650*
%
%ADD33ROUNDEDRECTD33*%
%ADD34C,1.7000*%
%ADD35R,1.7000X1.7000*%
%ADD36R,1.7000X1.7000*%
%ADD37C,1.6240*%
%ADD38C,0.3000*%
D15*
X398750Y326996D02*
X406747D01*
X402748D01*
Y315000D01*
X412745D02*
X416744D01*
X418743Y316999D01*
Y320998D01*
X416744Y322998D01*
X412745D01*
X410746Y320998D01*
Y316999D01*
X412745Y315000D01*
X422742Y311001D02*
Y322998D01*
X428740D01*
X430740Y320998D01*
Y316999D01*
X428740Y315000D01*
X422742D01*
X454732Y324997D02*
X452732Y326996D01*
X448734D01*
X446734Y324997D01*
Y322998D01*
X448734Y320998D01*
X452732D01*
X454732Y318999D01*
Y316999D01*
X452732Y315000D01*
X448734D01*
X446734Y316999D01*
X460730Y315000D02*
X464729D01*
X466728Y316999D01*
Y320998D01*
X464729Y322998D01*
X460730D01*
X458730Y320998D01*
Y316999D01*
X460730Y315000D01*
X470727D02*
X474725D01*
X472726D01*
Y326996D01*
X470727D01*
X488721D02*
Y315000D01*
X482723D01*
X480723Y316999D01*
Y320998D01*
X482723Y322998D01*
X488721D01*
X498717Y315000D02*
X494719D01*
X492719Y316999D01*
Y320998D01*
X494719Y322998D01*
X498717D01*
X500717Y320998D01*
Y318999D01*
X492719D01*
X504715Y322998D02*
Y315000D01*
Y318999D01*
X506715Y320998D01*
X508714Y322998D01*
X510714D01*
X743750Y327246D02*
X735752D01*
X739751D01*
Y315250D01*
X729754D02*
X725756D01*
X723756Y317250D01*
Y321248D01*
X725756Y323247D01*
X729754D01*
X731754Y321248D01*
Y317250D01*
X729754Y315250D01*
X719758Y311251D02*
Y323247D01*
X713760D01*
X711760Y321248D01*
Y317250D01*
X713760Y315250D01*
X719758D01*
X687768Y325247D02*
X689767Y327246D01*
X693766D01*
X695765Y325247D01*
Y323247D01*
X693766Y321248D01*
X689767D01*
X687768Y319249D01*
Y317250D01*
X689767Y315250D01*
X693766D01*
X695765Y317250D01*
X681770Y315250D02*
X677771D01*
X675772Y317250D01*
Y321248D01*
X677771Y323247D01*
X681770D01*
X683769Y321248D01*
Y317250D01*
X681770Y315250D01*
X671773D02*
X667774D01*
X669774D01*
Y327246D01*
X671773D01*
X653779D02*
Y315250D01*
X659777D01*
X661776Y317250D01*
Y321248D01*
X659777Y323247D01*
X653779D01*
X643782Y315250D02*
X647781D01*
X649780Y317250D01*
Y321248D01*
X647781Y323247D01*
X643782D01*
X641783Y321248D01*
Y319249D01*
X649780D01*
X637784Y323247D02*
Y315250D01*
Y319249D01*
X635785Y321248D01*
X633785Y323247D01*
X631786D01*
D25*
X269000Y185000D02*
D03*
X279000D02*
D03*
X211000Y99000D02*
D03*
X201000D02*
D03*
X211000Y134000D02*
D03*
X201000D02*
D03*
X211000Y112000D02*
D03*
X201000D02*
D03*
X211000Y121000D02*
D03*
X201000D02*
D03*
X200000Y158000D02*
D03*
X210000D02*
D03*
D26*
X297000Y58500D02*
D03*
Y79500D02*
D03*
D27*
X275000Y78500D02*
D03*
Y59500D02*
D03*
D28*
Y170500D02*
D03*
Y155500D02*
D03*
Y131500D02*
D03*
Y116500D02*
D03*
X248000Y55500D02*
D03*
Y70500D02*
D03*
X186000D02*
D03*
Y55500D02*
D03*
X297000Y124800D02*
D03*
Y139800D02*
D03*
Y110800D02*
D03*
Y95800D02*
D03*
D29*
X249000Y164500D02*
D03*
Y123500D02*
D03*
D30*
X95000Y176000D02*
D03*
X350000Y216000D02*
D03*
Y26000D02*
D03*
D31*
X229500Y77000D02*
D03*
X204500D02*
D03*
D32*
X180500Y98500D02*
D03*
Y103500D02*
D03*
Y108500D02*
D03*
Y113500D02*
D03*
Y118500D02*
D03*
Y123500D02*
D03*
Y128500D02*
D03*
Y133500D02*
D03*
Y138500D02*
D03*
Y143500D02*
D03*
Y148500D02*
D03*
Y153500D02*
D03*
X99500D02*
D03*
Y148500D02*
D03*
Y143500D02*
D03*
Y138500D02*
D03*
Y133500D02*
D03*
Y128500D02*
D03*
Y123500D02*
D03*
Y118500D02*
D03*
Y113500D02*
D03*
Y108500D02*
D03*
Y103500D02*
D03*
Y98500D02*
D03*
D33*
X167500Y166500D02*
D03*
X162500D02*
D03*
X157500D02*
D03*
X152500D02*
D03*
X147500D02*
D03*
X142500D02*
D03*
X137500D02*
D03*
X132500D02*
D03*
X127500D02*
D03*
X122500D02*
D03*
X117500D02*
D03*
X112500D02*
D03*
Y85500D02*
D03*
X117500D02*
D03*
X122500D02*
D03*
X127500D02*
D03*
X132500D02*
D03*
X137500Y85500D02*
D03*
X142500D02*
D03*
X147500D02*
D03*
X152500Y85500D02*
D03*
X157500D02*
D03*
X162500D02*
D03*
X167500D02*
D03*
D34*
X297000Y157200D02*
D03*
X68400Y131800D02*
D03*
Y81000D02*
D03*
Y106400D02*
D03*
Y157200D02*
D03*
Y182600D02*
D03*
X43000Y131800D02*
D03*
Y81000D02*
D03*
Y106400D02*
D03*
Y157200D02*
D03*
Y182600D02*
D03*
X322400Y26200D02*
D03*
X297000D02*
D03*
X271600D02*
D03*
X220800D02*
D03*
X195400D02*
D03*
X144600D02*
D03*
X93800D02*
D03*
X68400D02*
D03*
X119200D02*
D03*
X170000D02*
D03*
X246200D02*
D03*
X323400Y131800D02*
D03*
Y81000D02*
D03*
Y106400D02*
D03*
Y157200D02*
D03*
Y182600D02*
D03*
X43000Y212000D02*
D03*
X68400D02*
D03*
X93800D02*
D03*
X144600D02*
D03*
X170000D02*
D03*
X220800D02*
D03*
X271600D02*
D03*
X297000D02*
D03*
X246200D02*
D03*
X195400D02*
D03*
X119200D02*
D03*
D35*
X297000Y182600D02*
D03*
X68400Y55600D02*
D03*
X43000D02*
D03*
X323400D02*
D03*
D36*
X43000Y26200D02*
D03*
X322400Y212000D02*
D03*
D37*
X17600Y26200D02*
D03*
Y212000D02*
D03*
D38*
X261000Y185000D02*
D03*
X26985Y117005D02*
D03*
X157500Y181864D02*
D03*
X126191Y123485D02*
D03*
X26485Y63600D02*
D03*
X30300Y93549D02*
D03*
X128331Y133051D02*
D03*
X117500Y132819D02*
D03*
X152500Y115800D02*
D03*
X157210Y128519D02*
D03*
X146202Y101538D02*
D03*
X137500D02*
D03*
X85000Y109000D02*
D03*
X163797Y117158D02*
D03*
X308000Y61000D02*
D03*
X222753Y94999D02*
D03*
X219700Y102700D02*
D03*
X224450Y142450D02*
D03*
X259504Y88215D02*
D03*
X310438Y96450D02*
D03*
X285854Y151542D02*
D03*
X162100Y99900D02*
D03*
X163797Y150258D02*
D03*
X162137Y136931D02*
D03*
X198767Y56452D02*
D03*
X236496Y56375D02*
D03*
X102000Y163000D02*
D03*
X83850Y157626D02*
D03*
X175500Y91250D02*
D03*
X115975Y147811D02*
D03*
X123712Y142183D02*
D03*
X164850Y128500D02*
D03*
X121725Y153811D02*
D03*
X275000Y144000D02*
D03*
X219700Y112700D02*
D03*
Y158000D02*
D03*
X228700Y163750D02*
D03*
X219700Y127000D02*
D03*
M02*
