G04*
G04 #@! TF.GenerationSoftware,Altium Limited,Altium Designer,24.3.1 (35)*
G04*
G04 Layer_Color=65535*
%FSLAX44Y44*%
%MOMM*%
G71*
G04*
G04 #@! TF.SameCoordinates,254911FF-814D-4673-B187-D90DD251410E*
G04*
G04*
G04 #@! TF.FilePolarity,Positive*
G04*
G01*
G75*
%ADD10C,0.3000*%
%ADD11C,0.4000*%
%ADD12C,0.2000*%
%ADD13C,0.2540*%
%ADD14C,0.1270*%
%ADD15C,0.1500*%
D10*
X184250Y91500D02*
G03*
X184250Y91500I-1500J0D01*
G01*
D11*
X162250Y105750D02*
G03*
X162250Y105750I-2000J0D01*
G01*
D12*
X284500Y51500D02*
Y86500D01*
X265500Y51500D02*
Y86500D01*
X284500D01*
X265500Y51500D02*
X284500D01*
X282500Y150000D02*
Y176000D01*
X267500Y150000D02*
Y176000D01*
X282500D01*
X267500Y150000D02*
X282500D01*
X267500Y137000D02*
X282500D01*
X267500Y111000D02*
X282500D01*
Y137000D01*
X267500Y111000D02*
Y137000D01*
X240500Y50000D02*
Y76000D01*
X255500Y50000D02*
Y76000D01*
X240500Y50000D02*
X255500D01*
X240500Y76000D02*
X255500D01*
X178500D02*
X193500D01*
X178500Y50000D02*
X193500D01*
Y76000D01*
X178500Y50000D02*
Y76000D01*
X289500Y119300D02*
X304500D01*
X289500Y145300D02*
X304500D01*
X289500Y119300D02*
Y145300D01*
X304500Y119300D02*
Y145300D01*
Y90300D02*
Y116300D01*
X289500Y90300D02*
Y116300D01*
X304500D01*
X289500Y90300D02*
X304500D01*
X224997Y106600D02*
X233903Y97694D01*
X238849D01*
X196500Y65000D02*
X210050D01*
X196500Y89000D02*
X210050D01*
X223950D02*
X237500D01*
Y65000D02*
Y89000D01*
X196500Y65000D02*
Y89000D01*
X223950Y65000D02*
X237500D01*
X167500Y98500D02*
Y153500D01*
X112500Y98500D02*
Y153500D01*
Y98500D02*
X167500D01*
X112500Y153500D02*
X167500D01*
D13*
X265000Y177250D02*
X265000Y110750D01*
X256000Y177250D02*
X265000D01*
X256000Y110750D02*
X265000D01*
X233000Y177250D02*
X242000D01*
X233000Y110750D02*
X242000D01*
X233000Y177250D02*
X233000Y110750D01*
D14*
X297265Y50030D02*
Y43500D01*
X294000Y46765D02*
X300530D01*
D15*
X919250Y338746D02*
Y330749D01*
X923249Y326750D01*
X927247Y330749D01*
Y338746D01*
X933245Y334748D02*
X937244D01*
X939243Y332748D01*
Y326750D01*
X933245D01*
X931246Y328750D01*
X933245Y330749D01*
X939243D01*
X943242Y334748D02*
Y326750D01*
Y330749D01*
X945241Y332748D01*
X947241Y334748D01*
X949240D01*
X955238Y326750D02*
X959237D01*
X957237D01*
Y334748D01*
X955238D01*
X967234D02*
X971233D01*
X973232Y332748D01*
Y326750D01*
X967234D01*
X965235Y328750D01*
X967234Y330749D01*
X973232D01*
X977231Y326750D02*
Y334748D01*
X983229D01*
X985229Y332748D01*
Y326750D01*
X991227Y336747D02*
Y334748D01*
X989227D01*
X993226D01*
X991227D01*
Y328750D01*
X993226Y326750D01*
X999224Y334748D02*
X1001223D01*
Y332748D01*
X999224D01*
Y334748D01*
Y328750D02*
X1001223D01*
Y326750D01*
X999224D01*
Y328750D01*
X398750Y366996D02*
X406747D01*
X402748D01*
Y355000D01*
X412745D02*
X416744D01*
X418743Y357000D01*
Y360998D01*
X416744Y362998D01*
X412745D01*
X410746Y360998D01*
Y357000D01*
X412745Y355000D01*
X422742Y351002D02*
Y362998D01*
X428740D01*
X430740Y360998D01*
Y357000D01*
X428740Y355000D01*
X422742D01*
X452732Y366996D02*
X448734D01*
X446734Y364997D01*
Y357000D01*
X448734Y355000D01*
X452732D01*
X454732Y357000D01*
Y364997D01*
X452732Y366996D01*
X458730Y362998D02*
X462729Y355000D01*
X466728Y362998D01*
X476725Y355000D02*
X472726D01*
X470727Y357000D01*
Y360998D01*
X472726Y362998D01*
X476725D01*
X478724Y360998D01*
Y358999D01*
X470727D01*
X482723Y362998D02*
Y355000D01*
Y358999D01*
X484722Y360998D01*
X486721Y362998D01*
X488721D01*
X494719Y355000D02*
X498717D01*
X496718D01*
Y366996D01*
X494719D01*
X506715Y362998D02*
X510714D01*
X512713Y360998D01*
Y355000D01*
X506715D01*
X504715Y357000D01*
X506715Y358999D01*
X512713D01*
X516712Y362998D02*
Y357000D01*
X518711Y355000D01*
X524709D01*
Y353001D01*
X522710Y351002D01*
X520710D01*
X524709Y355000D02*
Y362998D01*
X743750Y367246D02*
X735752D01*
X739751D01*
Y355250D01*
X729754D02*
X725756D01*
X723756Y357249D01*
Y361248D01*
X725756Y363247D01*
X729754D01*
X731754Y361248D01*
Y357249D01*
X729754Y355250D01*
X719758Y351251D02*
Y363247D01*
X713760D01*
X711760Y361248D01*
Y357249D01*
X713760Y355250D01*
X719758D01*
X689767Y367246D02*
X693766D01*
X695765Y365247D01*
Y357249D01*
X693766Y355250D01*
X689767D01*
X687768Y357249D01*
Y365247D01*
X689767Y367246D01*
X683769Y363247D02*
X679771Y355250D01*
X675772Y363247D01*
X665775Y355250D02*
X669774D01*
X671773Y357249D01*
Y361248D01*
X669774Y363247D01*
X665775D01*
X663776Y361248D01*
Y359249D01*
X671773D01*
X659777Y363247D02*
Y355250D01*
Y359249D01*
X657778Y361248D01*
X655778Y363247D01*
X653779D01*
X647781Y355250D02*
X643782D01*
X645781D01*
Y367246D01*
X647781D01*
X635785Y363247D02*
X631786D01*
X629787Y361248D01*
Y355250D01*
X635785D01*
X637784Y357249D01*
X635785Y359249D01*
X629787D01*
X625788Y363247D02*
Y357249D01*
X623789Y355250D01*
X617791D01*
Y353251D01*
X619790Y351251D01*
X621789D01*
X617791Y355250D02*
Y363247D01*
X19975Y230452D02*
X18642Y231785D01*
X15976D01*
X14643Y230452D01*
Y225121D01*
X15976Y223788D01*
X18642D01*
X19975Y225121D01*
Y227787D01*
X17309D01*
X19438Y15774D02*
X18105Y17107D01*
X15439D01*
X14107Y15774D01*
Y10443D01*
X15439Y9110D01*
X18105D01*
X19438Y10443D01*
Y13108D01*
X16772D01*
X4503Y48669D02*
X12500D01*
Y52667D01*
X11167Y54000D01*
X5835D01*
X4503Y52667D01*
Y48669D01*
X12500Y56666D02*
Y59332D01*
Y57999D01*
X4503D01*
X5835Y56666D01*
X334836Y57666D02*
X333503Y56333D01*
Y53667D01*
X334836Y52334D01*
X340167D01*
X341500Y53667D01*
Y56333D01*
X340167Y57666D01*
X337501D01*
Y55000D01*
X341500Y147204D02*
X336168D01*
X333503Y149869D01*
X336168Y152535D01*
X341500D01*
X337501D01*
Y147204D01*
X341500Y155201D02*
Y157867D01*
Y156534D01*
X333503D01*
X334836Y155201D01*
Y161866D02*
X333503Y163199D01*
Y165864D01*
X334836Y167197D01*
X336168D01*
X337501Y165864D01*
Y164531D01*
Y165864D01*
X338834Y167197D01*
X340167D01*
X341500Y165864D01*
Y163199D01*
X340167Y161866D01*
X341500Y173004D02*
X336168D01*
X333503Y175669D01*
X336168Y178335D01*
X341500D01*
X337501D01*
Y173004D01*
X341500Y181001D02*
Y183667D01*
Y182334D01*
X333503D01*
X334836Y181001D01*
X341500Y191664D02*
X333503D01*
X337501Y187665D01*
Y192997D01*
X334836Y113338D02*
X333503Y114671D01*
Y117337D01*
X334836Y118670D01*
X336168D01*
X337501Y117337D01*
Y116004D01*
Y117337D01*
X338834Y118670D01*
X340167D01*
X341500Y117337D01*
Y114671D01*
X340167Y113338D01*
X333503Y121336D02*
X338834D01*
X341500Y124002D01*
X338834Y126667D01*
X333503D01*
X334836Y129333D02*
X333503Y130666D01*
Y133332D01*
X334836Y134665D01*
X336168D01*
X337501Y133332D01*
Y131999D01*
Y133332D01*
X338834Y134665D01*
X340167D01*
X341500Y133332D01*
Y130666D01*
X340167Y129333D01*
X341500Y137331D02*
X336168D01*
X333503Y139996D01*
X336168Y142662D01*
X341500D01*
X337501D01*
Y137331D01*
X341500Y78852D02*
X333503D01*
Y82851D01*
X334836Y84184D01*
X337501D01*
X338834Y82851D01*
Y78852D01*
Y81518D02*
X341500Y84184D01*
X334836Y108666D02*
X333503Y107333D01*
Y104667D01*
X334836Y103335D01*
X340167D01*
X341500Y104667D01*
Y107333D01*
X340167Y108666D01*
X337501D01*
Y106000D01*
X89653Y53026D02*
X86987D01*
X85654Y54359D01*
Y57024D01*
X86987Y58357D01*
X89653D01*
X90986Y57024D01*
Y55691D01*
X85654D01*
X93652Y58357D02*
Y53026D01*
Y55691D01*
X94985Y57024D01*
X96318Y58357D01*
X97651D01*
X101649Y61023D02*
Y53026D01*
X105648D01*
X106981Y54359D01*
Y55691D01*
Y57024D01*
X105648Y58357D01*
X101649D01*
X109647Y57024D02*
X114978D01*
X117644Y50360D02*
Y58357D01*
X121643D01*
X122976Y57024D01*
Y54359D01*
X121643Y53026D01*
X117644D01*
X130973Y58357D02*
X126974D01*
X125642Y57024D01*
Y54359D01*
X126974Y53026D01*
X130973D01*
X133639Y61023D02*
Y53026D01*
X137638D01*
X138971Y54359D01*
Y55691D01*
Y57024D01*
X137638Y58357D01*
X133639D01*
X141636Y59690D02*
X142969Y61023D01*
X145635D01*
X146968Y59690D01*
Y54359D01*
X145635Y53026D01*
X142969D01*
X141636Y54359D01*
Y59690D01*
X149634D02*
X150967Y61023D01*
X153633D01*
X154965Y59690D01*
Y54359D01*
X153633Y53026D01*
X150967D01*
X149634Y54359D01*
Y59690D01*
X157631D02*
X158964Y61023D01*
X161630D01*
X162963Y59690D01*
Y54359D01*
X161630Y53026D01*
X158964D01*
X157631Y54359D01*
Y59690D01*
X170960Y53026D02*
X165629D01*
X170960Y58357D01*
Y59690D01*
X169627Y61023D01*
X166962D01*
X165629Y59690D01*
X79158Y198904D02*
X77658Y200403D01*
X74659D01*
X73160Y198904D01*
Y192906D01*
X74659Y191406D01*
X77658D01*
X79158Y192906D01*
Y195905D01*
X76159D01*
X82157D02*
X88155D01*
X91154Y200403D02*
Y191406D01*
X95653D01*
X97152Y192906D01*
Y194405D01*
X95653Y195905D01*
X91154D01*
X95653D01*
X97152Y197404D01*
Y198904D01*
X95653Y200403D01*
X91154D01*
X101651Y191406D02*
X104650D01*
X106149Y192906D01*
Y195905D01*
X104650Y197404D01*
X101651D01*
X100151Y195905D01*
Y192906D01*
X101651Y191406D01*
X110648Y197404D02*
X113647D01*
X115146Y195905D01*
Y191406D01*
X110648D01*
X109148Y192906D01*
X110648Y194405D01*
X115146D01*
X118145Y197404D02*
Y191406D01*
Y194405D01*
X119645Y195905D01*
X121144Y197404D01*
X122644D01*
X133140Y200403D02*
Y191406D01*
X128642D01*
X127142Y192906D01*
Y195905D01*
X128642Y197404D01*
X133140D01*
X151135Y198904D02*
X149635Y200403D01*
X146636D01*
X145136Y198904D01*
Y192906D01*
X146636Y191406D01*
X149635D01*
X151135Y192906D01*
Y195905D01*
X148135D01*
X154134Y198904D02*
X155633Y200403D01*
X158632D01*
X160132Y198904D01*
Y192906D01*
X158632Y191406D01*
X155633D01*
X154134Y192906D01*
Y198904D01*
X163131Y200403D02*
X169129D01*
Y198904D01*
X163131Y192906D01*
Y191406D01*
X172128Y198904D02*
X173627Y200403D01*
X176626D01*
X178126Y198904D01*
Y192906D01*
X176626Y191406D01*
X173627D01*
X172128Y192906D01*
Y198904D01*
X190122Y191406D02*
Y200403D01*
X194620D01*
X196120Y198904D01*
Y195905D01*
X194620Y194405D01*
X190122D01*
X193121D02*
X196120Y191406D01*
X203618D02*
X200618D01*
X199119Y192906D01*
Y195905D01*
X200618Y197404D01*
X203618D01*
X205117Y195905D01*
Y194405D01*
X199119D01*
X208116Y197404D02*
X211115Y191406D01*
X214114Y197404D01*
X226110Y198904D02*
X227610Y200403D01*
X230609D01*
X232108Y198904D01*
Y192906D01*
X230609Y191406D01*
X227610D01*
X226110Y192906D01*
Y198904D01*
X235107Y191406D02*
Y192906D01*
X236607D01*
Y191406D01*
X235107D01*
X248603D02*
X242605D01*
X248603Y197404D01*
Y198904D01*
X247104Y200403D01*
X244104D01*
X242605Y198904D01*
X355500Y172604D02*
X350168D01*
X347503Y175269D01*
X350168Y177935D01*
X355500D01*
X351501D01*
Y172604D01*
X355500Y180601D02*
Y183267D01*
Y181934D01*
X347503D01*
X348835Y180601D01*
X355500Y191264D02*
X347503D01*
X351501Y187265D01*
Y192597D01*
X348835Y146537D02*
X347503Y147870D01*
Y150536D01*
X348835Y151869D01*
X350168D01*
X351501Y150536D01*
Y149203D01*
Y150536D01*
X352834Y151869D01*
X354167D01*
X355500Y150536D01*
Y147870D01*
X354167Y146537D01*
X347503Y154535D02*
X352834D01*
X355500Y157200D01*
X352834Y159866D01*
X347503D01*
X348835Y162532D02*
X347503Y163865D01*
Y166531D01*
X348835Y167864D01*
X350168D01*
X351501Y166531D01*
Y165198D01*
Y166531D01*
X352834Y167864D01*
X354167D01*
X355500Y166531D01*
Y163865D01*
X354167Y162532D01*
X4003Y74336D02*
X12000D01*
Y78335D01*
X10667Y79668D01*
X9334D01*
X8001Y78335D01*
Y74336D01*
Y78335D01*
X6668Y79668D01*
X5336D01*
X4003Y78335D01*
Y74336D01*
Y87665D02*
X5336Y84999D01*
X8001Y82333D01*
X10667D01*
X12000Y83666D01*
Y86332D01*
X10667Y87665D01*
X9334D01*
X8001Y86332D01*
Y82333D01*
X12000Y99736D02*
X6668D01*
X4003Y102402D01*
X6668Y105068D01*
X12000D01*
X8001D01*
Y99736D01*
X5336Y107733D02*
X4003Y109066D01*
Y111732D01*
X5336Y113065D01*
X6668D01*
X8001Y111732D01*
X9334Y113065D01*
X10667D01*
X12000Y111732D01*
Y109066D01*
X10667Y107733D01*
X9334D01*
X8001Y109066D01*
X6668Y107733D01*
X5336D01*
X8001Y109066D02*
Y111732D01*
X4003Y121804D02*
X12000D01*
Y125802D01*
X10667Y127135D01*
X9334D01*
X8001Y125802D01*
Y121804D01*
Y125802D01*
X6668Y127135D01*
X5336D01*
X4003Y125802D01*
Y121804D01*
X12000Y129801D02*
Y132467D01*
Y131134D01*
X4003D01*
X5336Y129801D01*
X4003Y141797D02*
Y136466D01*
X8001D01*
X6668Y139131D01*
Y140464D01*
X8001Y141797D01*
X10667D01*
X12000Y140464D01*
Y137799D01*
X10667Y136466D01*
X4003Y149454D02*
X12000D01*
Y153452D01*
X10667Y154785D01*
X9334D01*
X8001Y153452D01*
Y149454D01*
Y153452D01*
X6668Y154785D01*
X5336D01*
X4003Y153452D01*
Y149454D01*
X12000Y157451D02*
Y160117D01*
Y158784D01*
X4003D01*
X5336Y157451D01*
Y164116D02*
X4003Y165448D01*
Y168114D01*
X5336Y169447D01*
X6668D01*
X8001Y168114D01*
Y166781D01*
Y168114D01*
X9334Y169447D01*
X10667D01*
X12000Y168114D01*
Y165448D01*
X10667Y164116D01*
X4003Y175936D02*
X12000D01*
Y179935D01*
X10667Y181268D01*
X9334D01*
X8001Y179935D01*
Y175936D01*
Y179935D01*
X6668Y181268D01*
X5336D01*
X4003Y179935D01*
Y175936D01*
Y189265D02*
Y183933D01*
X8001D01*
X6668Y186599D01*
Y187932D01*
X8001Y189265D01*
X10667D01*
X12000Y187932D01*
Y185266D01*
X10667Y183933D01*
X16503Y175936D02*
X24500D01*
Y179935D01*
X23167Y181268D01*
X21834D01*
X20501Y179935D01*
Y175936D01*
Y179935D01*
X19168Y181268D01*
X17836D01*
X16503Y179935D01*
Y175936D01*
X24500Y187932D02*
X16503D01*
X20501Y183933D01*
Y189265D01*
X16503Y149454D02*
X24500D01*
Y153452D01*
X23167Y154785D01*
X21834D01*
X20501Y153452D01*
Y149454D01*
Y153452D01*
X19168Y154785D01*
X17836D01*
X16503Y153452D01*
Y149454D01*
X24500Y157451D02*
Y160117D01*
Y158784D01*
X16503D01*
X17836Y157451D01*
X24500Y169447D02*
Y164116D01*
X19168Y169447D01*
X17836D01*
X16503Y168114D01*
Y165448D01*
X17836Y164116D01*
X16503Y121804D02*
X24500D01*
Y125802D01*
X23167Y127135D01*
X21834D01*
X20501Y125802D01*
Y121804D01*
Y125802D01*
X19168Y127135D01*
X17836D01*
X16503Y125802D01*
Y121804D01*
X24500Y129801D02*
Y132467D01*
Y131134D01*
X16503D01*
X17836Y129801D01*
X24500Y140464D02*
X16503D01*
X20501Y136466D01*
Y141797D01*
X16503Y99736D02*
X24500D01*
Y103735D01*
X23167Y105068D01*
X21834D01*
X20501Y103735D01*
Y99736D01*
Y103735D01*
X19168Y105068D01*
X17836D01*
X16503Y103735D01*
Y99736D01*
Y107733D02*
Y113065D01*
X17836D01*
X23167Y107733D01*
X24500D01*
Y71004D02*
X19168D01*
X16503Y73669D01*
X19168Y76335D01*
X24500D01*
X20501D01*
Y71004D01*
X24500Y79001D02*
Y81667D01*
Y80334D01*
X16503D01*
X17836Y79001D01*
X16503Y90997D02*
Y85666D01*
X20501D01*
X19168Y88331D01*
Y89664D01*
X20501Y90997D01*
X23167D01*
X24500Y89664D01*
Y86999D01*
X23167Y85666D01*
X15723Y48936D02*
X23720D01*
Y52935D01*
X22387Y54268D01*
X17055D01*
X15723Y52935D01*
Y48936D01*
X17055Y56933D02*
X15723Y58266D01*
Y60932D01*
X17055Y62265D01*
X22387D01*
X23720Y60932D01*
Y58266D01*
X22387Y56933D01*
X17055D01*
X36000Y230998D02*
Y223000D01*
X39999D01*
X41332Y224333D01*
Y225666D01*
X39999Y226999D01*
X36000D01*
X39999D01*
X41332Y228332D01*
Y229665D01*
X39999Y230998D01*
X36000D01*
X43997Y229665D02*
X45330Y230998D01*
X47996D01*
X49329Y229665D01*
Y228332D01*
X47996Y226999D01*
X46663D01*
X47996D01*
X49329Y225666D01*
Y224333D01*
X47996Y223000D01*
X45330D01*
X43997Y224333D01*
X61736Y230998D02*
Y223000D01*
X65734D01*
X67067Y224333D01*
Y225666D01*
X65734Y226999D01*
X61736D01*
X65734D01*
X67067Y228332D01*
Y229665D01*
X65734Y230998D01*
X61736D01*
X75065Y223000D02*
X69733D01*
X75065Y228332D01*
Y229665D01*
X73732Y230998D01*
X71066D01*
X69733Y229665D01*
X88469Y230998D02*
Y223000D01*
X92467D01*
X93800Y224333D01*
Y225666D01*
X92467Y226999D01*
X88469D01*
X92467D01*
X93800Y228332D01*
Y229665D01*
X92467Y230998D01*
X88469D01*
X96466Y223000D02*
X99132D01*
X97799D01*
Y230998D01*
X96466Y229665D01*
X137936Y223450D02*
Y228782D01*
X140601Y231448D01*
X143267Y228782D01*
Y223450D01*
Y227449D01*
X137936D01*
X149932Y223450D02*
Y231448D01*
X145933Y227449D01*
X151265D01*
X112536Y230998D02*
Y223000D01*
X116534D01*
X117867Y224333D01*
Y225666D01*
X116534Y226999D01*
X112536D01*
X116534D01*
X117867Y228332D01*
Y229665D01*
X116534Y230998D01*
X112536D01*
X120533Y229665D02*
X121866Y230998D01*
X124532D01*
X125865Y229665D01*
Y224333D01*
X124532Y223000D01*
X121866D01*
X120533Y224333D01*
Y229665D01*
X214136Y223450D02*
Y228782D01*
X216801Y231448D01*
X219467Y228782D01*
Y223450D01*
Y227449D01*
X214136D01*
X222133Y231448D02*
X227465D01*
Y230115D01*
X222133Y224783D01*
Y223450D01*
X239536D02*
Y228782D01*
X242201Y231448D01*
X244867Y228782D01*
Y223450D01*
Y227449D01*
X239536D01*
X247533Y230115D02*
X248866Y231448D01*
X251532D01*
X252865Y230115D01*
Y228782D01*
X251532Y227449D01*
X250199D01*
X251532D01*
X252865Y226116D01*
Y224783D01*
X251532Y223450D01*
X248866D01*
X247533Y224783D01*
X188736Y223450D02*
Y228782D01*
X191401Y231448D01*
X194067Y228782D01*
Y223450D01*
Y227449D01*
X188736D01*
X202065Y231448D02*
X199399Y230115D01*
X196733Y227449D01*
Y224783D01*
X198066Y223450D01*
X200732D01*
X202065Y224783D01*
Y226116D01*
X200732Y227449D01*
X196733D01*
X163336Y223450D02*
Y228782D01*
X166001Y231448D01*
X168667Y228782D01*
Y223450D01*
Y227449D01*
X163336D01*
X176665Y231448D02*
X171333D01*
Y227449D01*
X173999Y228782D01*
X175332D01*
X176665Y227449D01*
Y224783D01*
X175332Y223450D01*
X172666D01*
X171333Y224783D01*
X264936Y223450D02*
Y228782D01*
X267601Y231448D01*
X270267Y228782D01*
Y223450D01*
Y227449D01*
X264936D01*
X278265Y223450D02*
X272933D01*
X278265Y228782D01*
Y230115D01*
X276932Y231448D01*
X274266D01*
X272933Y230115D01*
X315736Y223450D02*
Y228782D01*
X318401Y231448D01*
X321067Y228782D01*
Y223450D01*
Y227449D01*
X315736D01*
X323733Y230115D02*
X325066Y231448D01*
X327732D01*
X329065Y230115D01*
Y224783D01*
X327732Y223450D01*
X325066D01*
X323733Y224783D01*
Y230115D01*
X291668Y223450D02*
Y228782D01*
X294334Y231448D01*
X297000Y228782D01*
Y223450D01*
Y227449D01*
X291668D01*
X299666Y223450D02*
X302332D01*
X300999D01*
Y231448D01*
X299666Y230115D01*
X285436Y8508D02*
Y16505D01*
X289434D01*
X290767Y15172D01*
Y12507D01*
X289434Y11174D01*
X285436D01*
X293433Y8508D02*
Y13839D01*
X296099Y16505D01*
X298765Y13839D01*
Y8508D01*
Y12507D01*
X293433D01*
X301430Y8508D02*
X304096D01*
X302763D01*
Y16505D01*
X301430Y15172D01*
X308095D02*
X309428Y16505D01*
X312094D01*
X313426Y15172D01*
Y9841D01*
X312094Y8508D01*
X309428D01*
X308095Y9841D01*
Y15172D01*
X318438Y8504D02*
Y16502D01*
X322436D01*
X323769Y15169D01*
Y12503D01*
X322436Y11170D01*
X318438D01*
X326435Y8504D02*
Y13836D01*
X329101Y16502D01*
X331767Y13836D01*
Y8504D01*
Y12503D01*
X326435D01*
X334432Y9837D02*
X335765Y8504D01*
X338431D01*
X339764Y9837D01*
Y15169D01*
X338431Y16502D01*
X335765D01*
X334432Y15169D01*
Y13836D01*
X335765Y12503D01*
X339764D01*
X234705Y9044D02*
Y14376D01*
X237370Y17041D01*
X240036Y14376D01*
Y9044D01*
Y13043D01*
X234705D01*
X242702Y9044D02*
X245368D01*
X244035D01*
Y17041D01*
X242702Y15709D01*
X254698Y9044D02*
X249367D01*
X254698Y14376D01*
Y15709D01*
X253365Y17041D01*
X250700D01*
X249367Y15709D01*
X163336Y16948D02*
Y8950D01*
X167334D01*
X168667Y10283D01*
Y11616D01*
X167334Y12949D01*
X163336D01*
X167334D01*
X168667Y14282D01*
Y15615D01*
X167334Y16948D01*
X163336D01*
X171333Y10283D02*
X172666Y8950D01*
X175332D01*
X176665Y10283D01*
Y15615D01*
X175332Y16948D01*
X172666D01*
X171333Y15615D01*
Y14282D01*
X172666Y12949D01*
X176665D01*
X185403Y16948D02*
Y8950D01*
X189402D01*
X190735Y10283D01*
Y11616D01*
X189402Y12949D01*
X185403D01*
X189402D01*
X190735Y14282D01*
Y15615D01*
X189402Y16948D01*
X185403D01*
X193401Y8950D02*
X196067D01*
X194734D01*
Y16948D01*
X193401Y15615D01*
X200065D02*
X201398Y16948D01*
X204064D01*
X205397Y15615D01*
Y10283D01*
X204064Y8950D01*
X201398D01*
X200065Y10283D01*
Y15615D01*
X261627Y8659D02*
Y13990D01*
X264293Y16656D01*
X266959Y13990D01*
Y8659D01*
Y12657D01*
X261627D01*
X269625Y8659D02*
X272290D01*
X270957D01*
Y16656D01*
X269625Y15323D01*
X276289Y8659D02*
X278955D01*
X277622D01*
Y16656D01*
X276289Y15323D01*
X212136Y16948D02*
Y8950D01*
X216135D01*
X217468Y10283D01*
Y11616D01*
X216135Y12949D01*
X212136D01*
X216135D01*
X217468Y14282D01*
Y15615D01*
X216135Y16948D01*
X212136D01*
X220134Y8950D02*
X222799D01*
X221467D01*
Y16948D01*
X220134Y15615D01*
X226798Y8950D02*
X229464D01*
X228131D01*
Y16948D01*
X226798Y15615D01*
X117867D02*
X116534Y16948D01*
X113869D01*
X112536Y15615D01*
Y10283D01*
X113869Y8950D01*
X116534D01*
X117867Y10283D01*
X125865Y16948D02*
X123199Y15615D01*
X120533Y12949D01*
Y10283D01*
X121866Y8950D01*
X124532D01*
X125865Y10283D01*
Y11616D01*
X124532Y12949D01*
X120533D01*
X138336Y16948D02*
Y8950D01*
X142334D01*
X143667Y10283D01*
Y11616D01*
X142334Y12949D01*
X138336D01*
X142334D01*
X143667Y14282D01*
Y15615D01*
X142334Y16948D01*
X138336D01*
X146333Y15615D02*
X147666Y16948D01*
X150332D01*
X151664Y15615D01*
Y14282D01*
X150332Y12949D01*
X151664Y11616D01*
Y10283D01*
X150332Y8950D01*
X147666D01*
X146333Y10283D01*
Y11616D01*
X147666Y12949D01*
X146333Y14282D01*
Y15615D01*
X147666Y12949D02*
X150332D01*
X92467Y15615D02*
X91134Y16948D01*
X88469D01*
X87136Y15615D01*
Y10283D01*
X88469Y8950D01*
X91134D01*
X92467Y10283D01*
X95133Y16948D02*
X100465D01*
Y15615D01*
X95133Y10283D01*
Y8950D01*
X61736Y16948D02*
Y8950D01*
X65734D01*
X67067Y10283D01*
Y15615D01*
X65734Y16948D01*
X61736D01*
X75065Y8950D02*
X69733D01*
X75065Y14282D01*
Y15615D01*
X73732Y16948D01*
X71066D01*
X69733Y15615D01*
X36500Y16948D02*
Y8950D01*
X40499D01*
X41832Y10283D01*
Y15615D01*
X40499Y16948D01*
X36500D01*
X44497Y15615D02*
X45830Y16948D01*
X48496D01*
X49829Y15615D01*
Y14282D01*
X48496Y12949D01*
X47163D01*
X48496D01*
X49829Y11616D01*
Y10283D01*
X48496Y8950D01*
X45830D01*
X44497Y10283D01*
X219118Y179499D02*
Y178166D01*
X221784Y175500D01*
X224450Y178166D01*
Y179499D01*
X221784Y175500D02*
Y171502D01*
X227116D02*
X229782D01*
X228449D01*
Y179499D01*
X227116Y178166D01*
X284811Y91086D02*
X276814D01*
Y95084D01*
X278147Y96417D01*
X280812D01*
X282145Y95084D01*
Y91086D01*
Y93752D02*
X284811Y96417D01*
X278147Y99083D02*
X276814Y100416D01*
Y103082D01*
X278147Y104415D01*
X279480D01*
X280812Y103082D01*
Y101749D01*
Y103082D01*
X282145Y104415D01*
X283478D01*
X284811Y103082D01*
Y100416D01*
X283478Y99083D01*
X270219Y41002D02*
Y48999D01*
X274217D01*
X275550Y47666D01*
Y45000D01*
X274217Y43667D01*
X270219D01*
X272884D02*
X275550Y41002D01*
X278216D02*
X280882D01*
X279549D01*
Y48999D01*
X278216Y47666D01*
X211214Y60649D02*
Y59316D01*
X213880Y56650D01*
X216546Y59316D01*
Y60649D01*
X213880Y56650D02*
Y52652D01*
X224543D02*
X219212D01*
X224543Y57983D01*
Y59316D01*
X223210Y60649D01*
X220544D01*
X219212Y59316D01*
X197750Y172477D02*
X196417Y173810D01*
X193751D01*
X192418Y172477D01*
Y167146D01*
X193751Y165813D01*
X196417D01*
X197750Y167146D01*
X200416Y165813D02*
X203082D01*
X201749D01*
Y173810D01*
X200416Y172477D01*
X291668Y48999D02*
Y41002D01*
X295667D01*
X297000Y42334D01*
Y47666D01*
X295667Y48999D01*
X291668D01*
X299666Y41002D02*
X302332D01*
X300999D01*
Y48999D01*
X299666Y47666D01*
X246841Y107127D02*
X245508Y108460D01*
X242842D01*
X241509Y107127D01*
Y101796D01*
X242842Y100463D01*
X245508D01*
X246841Y101796D01*
X254838Y100463D02*
X249507D01*
X254838Y105794D01*
Y107127D01*
X253505Y108460D01*
X250840D01*
X249507Y107127D01*
X246666Y86522D02*
X245333Y87855D01*
X242667D01*
X241334Y86522D01*
Y81191D01*
X242667Y79858D01*
X245333D01*
X246666Y81191D01*
X253330Y79858D02*
Y87855D01*
X249331Y83856D01*
X254663D01*
X222367Y136666D02*
X221034Y137999D01*
X218368D01*
X217036Y136666D01*
Y131335D01*
X218368Y130002D01*
X221034D01*
X222367Y131335D01*
X230365Y137999D02*
X225033D01*
Y134000D01*
X227699Y135333D01*
X229032D01*
X230365Y134000D01*
Y131335D01*
X229032Y130002D01*
X226366D01*
X225033Y131335D01*
X246867Y96866D02*
X245534Y98199D01*
X242868D01*
X241535Y96866D01*
Y91535D01*
X242868Y90202D01*
X245534D01*
X246867Y91535D01*
X249533Y96866D02*
X250866Y98199D01*
X253532D01*
X254865Y96866D01*
Y95533D01*
X253532Y94200D01*
X252199D01*
X253532D01*
X254865Y92867D01*
Y91535D01*
X253532Y90202D01*
X250866D01*
X249533Y91535D01*
M02*
