G04*
G04 #@! TF.GenerationSoftware,Altium Limited,Altium Designer,24.3.1 (35)*
G04*
G04 Layer_Physical_Order=1*
G04 Layer_Color=255*
%FSLAX44Y44*%
%MOMM*%
G71*
G04*
G04 #@! TF.SameCoordinates,254911FF-814D-4673-B187-D90DD251410E*
G04*
G04*
G04 #@! TF.FilePolarity,Positive*
G04*
G01*
G75*
%ADD11C,0.4000*%
%ADD12C,0.2000*%
%ADD15C,0.1500*%
G04:AMPARAMS|DCode=16|XSize=0.7mm|YSize=0.6mm|CornerRadius=0.075mm|HoleSize=0mm|Usage=FLASHONLY|Rotation=270.000|XOffset=0mm|YOffset=0mm|HoleType=Round|Shape=RoundedRectangle|*
%AMROUNDEDRECTD16*
21,1,0.7000,0.4500,0,0,270.0*
21,1,0.5500,0.6000,0,0,270.0*
1,1,0.1500,-0.2250,-0.2750*
1,1,0.1500,-0.2250,0.2750*
1,1,0.1500,0.2250,0.2750*
1,1,0.1500,0.2250,-0.2750*
%
%ADD16ROUNDEDRECTD16*%
%ADD17R,1.2000X1.1000*%
G04:AMPARAMS|DCode=18|XSize=1.4mm|YSize=0.95mm|CornerRadius=0.1188mm|HoleSize=0mm|Usage=FLASHONLY|Rotation=0.000|XOffset=0mm|YOffset=0mm|HoleType=Round|Shape=RoundedRectangle|*
%AMROUNDEDRECTD18*
21,1,1.4000,0.7125,0,0,0.0*
21,1,1.1625,0.9500,0,0,0.0*
1,1,0.2375,0.5813,-0.3563*
1,1,0.2375,-0.5813,-0.3563*
1,1,0.2375,-0.5813,0.3563*
1,1,0.2375,0.5813,0.3563*
%
%ADD18ROUNDEDRECTD18*%
G04:AMPARAMS|DCode=19|XSize=1mm|YSize=0.6mm|CornerRadius=0.075mm|HoleSize=0mm|Usage=FLASHONLY|Rotation=0.000|XOffset=0mm|YOffset=0mm|HoleType=Round|Shape=RoundedRectangle|*
%AMROUNDEDRECTD19*
21,1,1.0000,0.4500,0,0,0.0*
21,1,0.8500,0.6000,0,0,0.0*
1,1,0.1500,0.4250,-0.2250*
1,1,0.1500,-0.4250,-0.2250*
1,1,0.1500,-0.4250,0.2250*
1,1,0.1500,0.4250,0.2250*
%
%ADD19ROUNDEDRECTD19*%
G04:AMPARAMS|DCode=20|XSize=2.4mm|YSize=1.9mm|CornerRadius=0.2375mm|HoleSize=0mm|Usage=FLASHONLY|Rotation=180.000|XOffset=0mm|YOffset=0mm|HoleType=Round|Shape=RoundedRectangle|*
%AMROUNDEDRECTD20*
21,1,2.4000,1.4250,0,0,180.0*
21,1,1.9250,1.9000,0,0,180.0*
1,1,0.4750,-0.9625,0.7125*
1,1,0.4750,0.9625,0.7125*
1,1,0.4750,0.9625,-0.7125*
1,1,0.4750,-0.9625,-0.7125*
%
%ADD20ROUNDEDRECTD20*%
%ADD21C,1.0000*%
G04:AMPARAMS|DCode=22|XSize=1mm|YSize=1.8mm|CornerRadius=0.125mm|HoleSize=0mm|Usage=FLASHONLY|Rotation=180.000|XOffset=0mm|YOffset=0mm|HoleType=Round|Shape=RoundedRectangle|*
%AMROUNDEDRECTD22*
21,1,1.0000,1.5500,0,0,180.0*
21,1,0.7500,1.8000,0,0,180.0*
1,1,0.2500,-0.3750,0.7750*
1,1,0.2500,0.3750,0.7750*
1,1,0.2500,0.3750,-0.7750*
1,1,0.2500,-0.3750,-0.7750*
%
%ADD22ROUNDEDRECTD22*%
G04:AMPARAMS|DCode=23|XSize=0.28mm|YSize=1.8mm|CornerRadius=0.035mm|HoleSize=0mm|Usage=FLASHONLY|Rotation=270.000|XOffset=0mm|YOffset=0mm|HoleType=Round|Shape=RoundedRectangle|*
%AMROUNDEDRECTD23*
21,1,0.2800,1.7300,0,0,270.0*
21,1,0.2100,1.8000,0,0,270.0*
1,1,0.0700,-0.8650,-0.1050*
1,1,0.0700,-0.8650,0.1050*
1,1,0.0700,0.8650,0.1050*
1,1,0.0700,0.8650,-0.1050*
%
%ADD23ROUNDEDRECTD23*%
G04:AMPARAMS|DCode=24|XSize=0.28mm|YSize=1.8mm|CornerRadius=0.035mm|HoleSize=0mm|Usage=FLASHONLY|Rotation=180.000|XOffset=0mm|YOffset=0mm|HoleType=Round|Shape=RoundedRectangle|*
%AMROUNDEDRECTD24*
21,1,0.2800,1.7300,0,0,180.0*
21,1,0.2100,1.8000,0,0,180.0*
1,1,0.0700,-0.1050,0.8650*
1,1,0.0700,0.1050,0.8650*
1,1,0.0700,0.1050,-0.8650*
1,1,0.0700,-0.1050,-0.8650*
%
%ADD24ROUNDEDRECTD24*%
%ADD39C,0.2500*%
%ADD40C,1.6000*%
%ADD41R,1.6000X1.6000*%
%ADD42R,1.6000X1.6000*%
%ADD43C,1.5240*%
%ADD44C,0.6000*%
D11*
X210700Y134000D02*
X211000D01*
X211700Y119500D02*
X218046D01*
X219317Y118229D01*
Y113083D02*
Y118229D01*
X219700Y112700D02*
X225507D01*
X228200Y115394D01*
Y129500D01*
X211000Y134000D02*
X223700D01*
X219317Y113083D02*
X219700Y112700D01*
X210700Y120500D02*
X211700Y119500D01*
X223700Y134000D02*
X228200Y129500D01*
X211050Y112350D02*
X219350D01*
D12*
X270238Y81114D02*
X270285D01*
X269000Y82352D02*
Y82399D01*
X270285Y81114D02*
X274251Y77147D01*
X259504Y88215D02*
X262963Y84756D01*
X266643D01*
X269000Y82399D01*
Y82352D02*
X270238Y81114D01*
X297000Y79500D02*
X297500D01*
X297000D02*
X297000D01*
X308000Y61000D02*
Y69000D01*
X297500Y79500D02*
X308000Y69000D01*
X297000Y79500D02*
X300500Y83000D01*
X236496Y56375D02*
X247498D01*
X274700Y57500D02*
X293700D01*
D15*
X247333Y183000D02*
X257583Y193250D01*
X190510Y172374D02*
X201136Y183000D01*
X247333D01*
X171050Y166500D02*
X192050Y187500D01*
X162500Y178392D02*
X174858Y190750D01*
X192050Y187500D02*
X247100D01*
X228950Y190750D02*
X246200Y208000D01*
X174858Y190750D02*
X228950D01*
X247100Y187500D02*
X271600Y212000D01*
X202389Y178000D02*
X246576D01*
X194200Y169812D02*
X202389Y178000D01*
X190510Y156260D02*
Y172374D01*
X294601Y185000D02*
X297000Y182600D01*
X279000Y185000D02*
X294601D01*
X246576Y178000D02*
X258826Y190250D01*
X261875D01*
X267625Y196000D01*
X261000Y185000D02*
X269000D01*
X259125Y193250D02*
X265987Y200112D01*
X257583Y193250D02*
X259125D01*
X275362Y200112D02*
X281379Y206129D01*
X265987Y200112D02*
X275362D01*
X267625Y196000D02*
X310400D01*
X281379Y206129D02*
X295129D01*
X28098Y15728D02*
X33876Y9950D01*
X28098Y15728D02*
Y60769D01*
X26485Y62383D02*
X28098Y60769D01*
X26485Y62383D02*
Y63600D01*
X33876Y9950D02*
X121758D01*
X32118Y15950D02*
Y65392D01*
X35118Y12950D02*
X100602D01*
X121758Y9950D02*
X131350Y19543D01*
X32118Y15950D02*
X35118Y12950D01*
X25050Y72460D02*
X32118Y65392D01*
X7730Y97750D02*
X26985Y117005D01*
X7730Y18942D02*
Y97750D01*
X19721Y6950D02*
X123000D01*
X7730Y18942D02*
X19721Y6950D01*
X25050Y98809D02*
X32235Y105993D01*
X25050Y72460D02*
Y98809D01*
X123000Y6950D02*
X134350Y18300D01*
Y44044D01*
X131350Y19543D02*
Y45287D01*
X134350Y44044D02*
X157500Y67194D01*
X162500Y44100D02*
Y85500D01*
X144600Y26200D02*
X162500Y44100D01*
X100602Y12950D02*
X108950Y21298D01*
X99360Y15950D02*
X104050Y20641D01*
X53250Y15950D02*
X99360D01*
X43000Y26200D02*
X53250Y15950D01*
X30300Y93549D02*
X45740D01*
X55700Y103509D02*
Y114244D01*
X45740Y93549D02*
X55700Y103509D01*
X32235Y105993D02*
Y171835D01*
X41900Y181500D01*
X239879Y77000D02*
X243750Y73129D01*
Y72750D02*
Y73129D01*
Y72750D02*
X246000Y70500D01*
X229500Y77000D02*
X239879D01*
X246000Y70500D02*
X248000D01*
X188100Y153500D02*
X188750Y154150D01*
Y154500D02*
X190510Y156260D01*
X188750Y154150D02*
Y154500D01*
X180200Y153500D02*
X188100D01*
X157500Y166500D02*
Y181864D01*
X162500Y166500D02*
Y178392D01*
X124250Y194000D02*
X132500Y185750D01*
Y166500D02*
Y185750D01*
X99500Y98500D02*
X113775D01*
X122175Y106900D02*
X155100D01*
X113775Y98500D02*
X122175Y106900D01*
X142500Y85500D02*
Y97836D01*
X146202Y101538D01*
X155100Y106900D02*
X162100Y99900D01*
X145200Y113500D02*
X147500Y115800D01*
X152500D01*
X99500Y113500D02*
X145200D01*
X112375Y103625D02*
X118650Y109900D01*
X156999D02*
X163797Y116699D01*
X118650Y109900D02*
X156999D01*
X114924Y116610D02*
X139390D01*
X99500Y123500D02*
X126176D01*
X126191Y123485D01*
X55700Y42900D02*
X82650D01*
X43000Y55600D02*
X55700Y42900D01*
X108950Y21298D02*
Y42277D01*
X104050Y20641D02*
Y43200D01*
X131350Y45287D02*
X152500Y66437D01*
Y85500D01*
X147500Y65679D02*
Y85500D01*
X118324Y51651D02*
X133471D01*
X147500Y65679D01*
X108950Y42277D02*
X118324Y51651D01*
X103722Y55600D02*
X117500Y69378D01*
X104015Y51651D02*
X122200Y69836D01*
Y85201D01*
X127500Y70893D02*
Y85500D01*
X117500Y69378D02*
Y85500D01*
X132200Y71350D02*
Y85500D01*
X94950Y46250D02*
X102857D01*
X104050Y43200D02*
X132200Y71350D01*
X102857Y46250D02*
X127500Y70893D01*
X68400Y55600D02*
X103722D01*
X91400Y51651D02*
X104015D01*
X157500Y67194D02*
Y85500D01*
X55700Y114244D02*
X60557Y119100D01*
X70525D02*
X84925Y133500D01*
X60557Y119100D02*
X70525D01*
X128331Y133051D02*
X129018Y132365D01*
X135067D01*
X137500Y134798D01*
X113182Y128500D02*
X117500Y132819D01*
X99500Y128500D02*
X113182D01*
X139390Y116610D02*
X151299Y128519D01*
X157210D01*
X113034Y118500D02*
X114924Y116610D01*
X137500Y85201D02*
Y101538D01*
X99500Y118500D02*
X113034D01*
X54964Y118365D02*
Y136683D01*
X60332Y142050D02*
X82182D01*
X54964Y136683D02*
X60332Y142050D01*
X85000Y109000D02*
X85187Y108814D01*
X99186D01*
X163797Y116699D02*
Y117158D01*
X275000Y155407D02*
X275250D01*
X187400Y69615D02*
X190250Y72465D01*
Y74873D01*
X142500Y172909D02*
Y188747D01*
X148303Y194550D02*
X207350D01*
X142500Y188747D02*
X148303Y194550D01*
X296129Y96450D02*
X310438D01*
X200000Y158000D02*
Y158500D01*
X202250Y160750D02*
X202750D01*
X208000Y166000D01*
X225571D01*
X200000Y158500D02*
X202250Y160750D01*
X198836Y151894D02*
Y156136D01*
X190510Y143567D02*
X198836Y151894D01*
X192378Y77000D02*
X202200D01*
X190250Y74873D02*
X192378Y77000D01*
X180500Y103500D02*
X191571D01*
X180200D02*
X180500D01*
Y108500D02*
X191899D01*
X180200D02*
X180500D01*
X194200Y151500D02*
Y169812D01*
X297000Y111450D02*
Y124800D01*
X299000D02*
X301250Y127050D01*
Y127800D02*
X310438Y136988D01*
X301250Y127050D02*
Y127800D01*
X310438Y136988D02*
Y170638D01*
X297000Y124800D02*
X299000D01*
X310438Y170638D02*
X322400Y182600D01*
X286715Y148085D02*
X295000Y139800D01*
X286715Y148085D02*
Y150681D01*
X285854Y151542D02*
X286715Y150681D01*
X295000Y139800D02*
X297000D01*
X167500Y166500D02*
X171050D01*
X147500Y142500D02*
X153069Y136931D01*
X147500Y142500D02*
Y166500D01*
X153069Y136931D02*
X162137D01*
X153379Y151119D02*
X162936D01*
X152500Y151997D02*
X153379Y151119D01*
X152500Y151997D02*
Y166500D01*
X99186Y108814D02*
X99500Y108500D01*
X82182Y142050D02*
X85732Y138500D01*
X99500D01*
X82650Y42900D02*
X91400Y51651D01*
X78900Y30200D02*
X94950Y46250D01*
X121725Y153811D02*
X122113Y154198D01*
Y166113D02*
X122500Y166500D01*
X122113Y154198D02*
Y166113D01*
X107800Y194000D02*
X124250D01*
X137500Y166500D02*
Y190847D01*
X126400Y201947D02*
X137500Y190847D01*
X126400Y201947D02*
Y201947D01*
X120347Y208000D02*
X126400Y201947D01*
X119200Y208000D02*
X120347D01*
X310400Y196000D02*
X322400Y208000D01*
X295129Y206129D02*
X297000Y208000D01*
X142500Y166500D02*
Y172909D01*
X207350Y194550D02*
X220800Y208000D01*
X99625Y103625D02*
X112375D01*
X99500Y103500D02*
X99625Y103625D01*
X162936Y151119D02*
X163797Y150258D01*
X86350Y167450D02*
X92629Y161172D01*
X53250Y167450D02*
X86350D01*
X92629Y154150D02*
Y161172D01*
X93279Y153500D02*
X99500D01*
X92629Y154150D02*
X93279Y153500D01*
X43000Y157200D02*
X53250Y167450D01*
X57357Y146157D02*
X81100D01*
X43000Y131800D02*
X57357Y146157D01*
X43000Y106400D02*
X54964Y118365D01*
X167500Y32700D02*
Y85500D01*
Y32700D02*
X170000Y30200D01*
X68400Y81000D02*
X111850D01*
X112500Y81650D01*
Y85500D01*
X122200Y85201D02*
X122500Y85500D01*
X112500Y163650D02*
Y166500D01*
X102000Y163000D02*
X111850D01*
X112500Y163650D01*
X84849Y143625D02*
X99375D01*
X81100Y146157D02*
X82318D01*
X84849Y143625D01*
X84925Y133500D02*
X99500D01*
X99375Y143625D02*
X99500Y143500D01*
X83850Y151262D02*
Y157626D01*
Y151262D02*
X86611Y148500D01*
X99500D01*
X137500Y134798D02*
Y166500D01*
X127800Y146712D02*
Y166200D01*
X124274Y143186D02*
X127800Y146712D01*
X127500Y166500D02*
X127800Y166200D01*
X117057Y156567D02*
Y166057D01*
X116475Y148311D02*
Y155985D01*
X115975Y147811D02*
X116475Y148311D01*
X117057Y166057D02*
X117500Y166500D01*
X116475Y155985D02*
X117057Y156567D01*
X180200Y148500D02*
X191200D01*
X175561Y91311D02*
Y97850D01*
X176211Y98500D01*
X180200Y138500D02*
X180500D01*
X191200Y148500D02*
X194200Y151500D01*
X175500Y91250D02*
X175561Y91311D01*
X176211Y98500D02*
X180200D01*
X192450Y90480D02*
Y102622D01*
X191571Y103500D02*
X192450Y102622D01*
X195450Y95008D02*
Y104950D01*
X191899Y108500D02*
X195450Y104950D01*
X248200Y123500D02*
X254250Y117450D01*
X273650D01*
X241159Y132127D02*
Y147622D01*
Y132127D02*
X249786Y123500D01*
X275000Y144000D02*
Y155407D01*
Y131500D02*
Y144000D01*
X247264Y170557D02*
X274750D01*
X247264D02*
X253321Y164500D01*
X180500Y138500D02*
X190846D01*
X203846Y151500D02*
X255250D01*
X251700Y164500D02*
X256500Y159700D01*
X255250Y151500D02*
X256500Y152750D01*
Y159700D01*
X240281Y148500D02*
X241159Y147622D01*
X205958Y148500D02*
X240281D01*
X194715Y88215D02*
X210821D01*
X212000Y87037D01*
Y75379D02*
Y87037D01*
X208712Y74500D02*
X211121D01*
X212000Y75379D01*
X208712Y72050D02*
Y74500D01*
X204500Y76262D02*
Y77000D01*
Y76262D02*
X208712Y72050D01*
X217000Y82329D02*
X217879Y81451D01*
X225288D01*
X217000Y82329D02*
Y87243D01*
X213028Y91215D02*
X217000Y87243D01*
X196379Y91215D02*
X213028D01*
X195500Y92094D02*
X196379Y91215D01*
X195500Y92094D02*
Y94958D01*
X225288Y81451D02*
X229500Y77239D01*
Y77000D02*
Y77239D01*
X192450Y90480D02*
X194715Y88215D01*
X195450Y95008D02*
X195500Y94958D01*
X190958Y133500D02*
X205958Y148500D01*
X190846Y138500D02*
X203846Y151500D01*
X296000Y59500D02*
X297000Y58500D01*
X273604Y76500D02*
X274700D01*
X269638Y80467D02*
X273604Y76500D01*
X180267Y143567D02*
X190510D01*
X180200Y143500D02*
X180267Y143567D01*
X210700Y158000D02*
X219700D01*
X227821Y163750D02*
X228700D01*
X225571Y166000D02*
X227821Y163750D01*
X180200Y133500D02*
X190958D01*
X93800Y208000D02*
X107800Y194000D01*
X119200Y30200D02*
X119700Y30700D01*
X68400Y30200D02*
X78900D01*
X68400Y208000D02*
X71700D01*
X144600Y206900D02*
Y208000D01*
X170000Y207300D02*
Y208000D01*
X743750Y387246D02*
X735752D01*
X739751D01*
Y375250D01*
X729754D02*
X725756D01*
X723756Y377249D01*
Y381248D01*
X725756Y383247D01*
X729754D01*
X731754Y381248D01*
Y377249D01*
X729754Y375250D01*
X719758Y371251D02*
Y383247D01*
X713760D01*
X711760Y381248D01*
Y377249D01*
X713760Y375250D01*
X719758D01*
X695765Y387246D02*
Y375250D01*
X687768D01*
X681770Y383247D02*
X677771D01*
X675772Y381248D01*
Y375250D01*
X681770D01*
X683769Y377249D01*
X681770Y379249D01*
X675772D01*
X671773Y383247D02*
Y377249D01*
X669774Y375250D01*
X663776D01*
Y373251D01*
X665775Y371251D01*
X667774D01*
X663776Y375250D02*
Y383247D01*
X653779Y375250D02*
X657778D01*
X659777Y377249D01*
Y381248D01*
X657778Y383247D01*
X653779D01*
X651780Y381248D01*
Y379249D01*
X659777D01*
X647781Y383247D02*
Y375250D01*
Y379249D01*
X645781Y381248D01*
X643782Y383247D01*
X641783D01*
X399387Y386943D02*
X407385D01*
X403386D01*
Y374947D01*
X413383D02*
X417381D01*
X419381Y376946D01*
Y380945D01*
X417381Y382944D01*
X413383D01*
X411383Y380945D01*
Y376946D01*
X413383Y374947D01*
X423380Y370948D02*
Y382944D01*
X429378D01*
X431377Y380945D01*
Y376946D01*
X429378Y374947D01*
X423380D01*
X447372Y386943D02*
Y374947D01*
X455369D01*
X461367Y382944D02*
X465366D01*
X467365Y380945D01*
Y374947D01*
X461367D01*
X459368Y376946D01*
X461367Y378946D01*
X467365D01*
X471364Y382944D02*
Y376946D01*
X473363Y374947D01*
X479361D01*
Y372948D01*
X477362Y370948D01*
X475363D01*
X479361Y374947D02*
Y382944D01*
X489358Y374947D02*
X485359D01*
X483360Y376946D01*
Y380945D01*
X485359Y382944D01*
X489358D01*
X491357Y380945D01*
Y378946D01*
X483360D01*
X495356Y382944D02*
Y374947D01*
Y378946D01*
X497355Y380945D01*
X499355Y382944D01*
X501354D01*
D16*
X269000Y185000D02*
D03*
X279000D02*
D03*
X211000Y99000D02*
D03*
X201000D02*
D03*
X211000Y134000D02*
D03*
X201000D02*
D03*
X211000Y112000D02*
D03*
X201000D02*
D03*
X211000Y121000D02*
D03*
X201000D02*
D03*
X200000Y158000D02*
D03*
X210000D02*
D03*
D17*
X297000Y58500D02*
D03*
Y79500D02*
D03*
D18*
X275000Y78500D02*
D03*
Y59500D02*
D03*
D19*
Y170500D02*
D03*
Y155500D02*
D03*
Y131500D02*
D03*
Y116500D02*
D03*
X248000Y55500D02*
D03*
Y70500D02*
D03*
X186000D02*
D03*
Y55500D02*
D03*
X297000Y124800D02*
D03*
Y139800D02*
D03*
Y110800D02*
D03*
Y95800D02*
D03*
D20*
X249000Y164500D02*
D03*
Y123500D02*
D03*
D21*
X95000Y176000D02*
D03*
X350000Y216000D02*
D03*
Y26000D02*
D03*
D22*
X229500Y77000D02*
D03*
X204500D02*
D03*
D23*
X180500Y98500D02*
D03*
Y103500D02*
D03*
Y108500D02*
D03*
Y113500D02*
D03*
Y118500D02*
D03*
Y123500D02*
D03*
Y128500D02*
D03*
Y133500D02*
D03*
Y138500D02*
D03*
Y143500D02*
D03*
Y148500D02*
D03*
Y153500D02*
D03*
X99500D02*
D03*
Y148500D02*
D03*
Y143500D02*
D03*
Y138500D02*
D03*
Y133500D02*
D03*
Y128500D02*
D03*
Y123500D02*
D03*
Y118500D02*
D03*
Y113500D02*
D03*
Y108500D02*
D03*
Y103500D02*
D03*
Y98500D02*
D03*
D24*
X167500Y166500D02*
D03*
X162500D02*
D03*
X157500D02*
D03*
X152500D02*
D03*
X147500D02*
D03*
X142500D02*
D03*
X137500D02*
D03*
X132500D02*
D03*
X127500D02*
D03*
X122500D02*
D03*
X117500D02*
D03*
X112500D02*
D03*
Y85500D02*
D03*
X117500D02*
D03*
X122500D02*
D03*
X127500D02*
D03*
X132500D02*
D03*
X137500Y85500D02*
D03*
X142500D02*
D03*
X147500D02*
D03*
X152500Y85500D02*
D03*
X157500D02*
D03*
X162500D02*
D03*
X167500D02*
D03*
D39*
X180500Y123500D02*
X191750D01*
X199250Y131000D01*
X210700Y112000D02*
X211050Y112350D01*
X186400Y57126D02*
X187074Y56452D01*
X199250Y131000D02*
Y133050D01*
X208650Y142450D01*
X210700Y98700D02*
X210800D01*
X212750Y96650D02*
X214401Y94999D01*
X206950Y105750D02*
X215703D01*
X210800Y98700D02*
X212750Y96750D01*
Y96650D02*
Y96750D01*
X218753Y102700D02*
X219700D01*
X215703Y105750D02*
X218753Y102700D01*
X201200Y100000D02*
X206950Y105750D01*
X214401Y94999D02*
X222753D01*
X208650Y142450D02*
X224450D01*
X187074Y56452D02*
X198767D01*
X163600Y127250D02*
X164850Y128500D01*
X180200D01*
Y118500D02*
X197785D01*
X198036Y118750D02*
X199250D01*
X200700Y120200D02*
Y121500D01*
X197785Y118500D02*
X198036Y118750D01*
X199250D02*
X200700Y120200D01*
X219350Y112350D02*
X219700Y112700D01*
X198950Y113500D02*
X200575Y111875D01*
X200700Y112000D01*
X199700Y111000D02*
X200575Y111875D01*
X200700Y121500D02*
X206450Y127250D01*
X219450D01*
X219700Y127000D01*
X200950Y100000D02*
X201200D01*
X199700Y101250D02*
X200950Y100000D01*
X199700Y101250D02*
Y111000D01*
X200700Y99000D02*
Y99500D01*
X180200Y113500D02*
X198950D01*
D40*
X297000Y157200D02*
D03*
X68400Y131800D02*
D03*
Y81000D02*
D03*
Y106400D02*
D03*
Y157200D02*
D03*
Y182600D02*
D03*
X43000Y131800D02*
D03*
Y81000D02*
D03*
Y106400D02*
D03*
Y157200D02*
D03*
Y182600D02*
D03*
X322400Y26200D02*
D03*
X297000D02*
D03*
X271600D02*
D03*
X220800D02*
D03*
X195400D02*
D03*
X144600D02*
D03*
X93800D02*
D03*
X68400D02*
D03*
X119200D02*
D03*
X170000D02*
D03*
X246200D02*
D03*
X323400Y131800D02*
D03*
Y81000D02*
D03*
Y106400D02*
D03*
Y157200D02*
D03*
Y182600D02*
D03*
X43000Y212000D02*
D03*
X68400D02*
D03*
X93800D02*
D03*
X144600D02*
D03*
X170000D02*
D03*
X220800D02*
D03*
X271600D02*
D03*
X297000D02*
D03*
X246200D02*
D03*
X195400D02*
D03*
X119200D02*
D03*
D41*
X297000Y182600D02*
D03*
X68400Y55600D02*
D03*
X43000D02*
D03*
X323400D02*
D03*
D42*
X43000Y26200D02*
D03*
X322400Y212000D02*
D03*
D43*
X17600Y26200D02*
D03*
Y212000D02*
D03*
D44*
X261000Y185000D02*
D03*
X26985Y117005D02*
D03*
X157500Y181864D02*
D03*
X126191Y123485D02*
D03*
X26485Y63600D02*
D03*
X30300Y93549D02*
D03*
X128331Y133051D02*
D03*
X117500Y132819D02*
D03*
X152500Y115800D02*
D03*
X157210Y128519D02*
D03*
X146202Y101538D02*
D03*
X137500D02*
D03*
X85000Y109000D02*
D03*
X163797Y117158D02*
D03*
X308000Y61000D02*
D03*
X222753Y94999D02*
D03*
X219700Y102700D02*
D03*
X224450Y142450D02*
D03*
X259504Y88215D02*
D03*
X310438Y96450D02*
D03*
X285854Y151542D02*
D03*
X162100Y99900D02*
D03*
X163797Y150258D02*
D03*
X162137Y136931D02*
D03*
X198767Y56452D02*
D03*
X236496Y56375D02*
D03*
X102000Y163000D02*
D03*
X83850Y157626D02*
D03*
X175500Y91250D02*
D03*
X115975Y147811D02*
D03*
X123712Y142183D02*
D03*
X164850Y128500D02*
D03*
X121725Y153811D02*
D03*
X275000Y144000D02*
D03*
X219700Y112700D02*
D03*
Y158000D02*
D03*
X228700Y163750D02*
D03*
X219700Y127000D02*
D03*
M02*
