M48
;Layer_Color=9474304
;FILE_FORMAT=4:4
METRIC,TZ
;TYPE=PLATED
T01F00S00C0.3000
T02F00S00C1.0000
T03F00S00C1.1000
%
T01
X198767Y56452
X236496Y56375
X222753Y94999
X219700Y102700
Y112700
Y127000
X224450Y142450
X219700Y158000
X228700Y163750
X261000Y185000
X275000Y144000
X285854Y151542
X310438Y96450
X308000Y61000
X259504Y88215
X175500Y91250
X163797Y117158
X164850Y128500
X163797Y150258
X162137Y136931
X157210Y128519
X152500Y115800
X146202Y101538
X137500
X162100Y99900
X126191Y123485
X128331Y133051
X117500Y132819
X123712Y142183
X115975Y147811
X121725Y153811
X102000Y163000
X83850Y157626
X85000Y109000
X26985Y117005
X30300Y93549
X26485Y63600
X157500Y181864
T02
X297000Y157200
Y182600
T03
X170000Y26200
X195400
X220800
X246200
X271600
X297000
X322400
X323400Y55600
Y81000
Y106400
Y131800
Y157200
Y182600
X322400Y212000
X297000
X271600
X246200
X220800
X195400
X170000
X144600
X119200
X93800
X68400
X43000
X17600Y212000
X43000Y182600
X68400
Y157200
Y131800
Y106400
Y81000
Y55600
X43000
Y81000
Y106400
Y131800
Y157200
X43000Y26200
X68400
X93800
X119200
X144600
X17600Y26200
M30
