G04*
G04 #@! TF.GenerationSoftware,Altium Limited,Altium Designer,24.3.1 (35)*
G04*
G04 Layer_Color=16711935*
%FSLAX44Y44*%
%MOMM*%
G71*
G04*
G04 #@! TF.SameCoordinates,885966B7-28A3-4526-A6DD-9B270D9DF584*
G04*
G04*
G04 #@! TF.FilePolarity,Positive*
G04*
G01*
G75*
%ADD11C,0.1500*%
%ADD12C,0.2540*%
%ADD13C,0.0500*%
D11*
X1393500Y573500D02*
Y585496D01*
X1389501Y581498D01*
X1385502Y585496D01*
Y573500D01*
X1375506D02*
X1379504D01*
X1381504Y575499D01*
Y579498D01*
X1379504Y581498D01*
X1375506D01*
X1373506Y579498D01*
Y577499D01*
X1381504D01*
X1361510Y581498D02*
X1367508D01*
X1369508Y579498D01*
Y575499D01*
X1367508Y573500D01*
X1361510D01*
X1357511Y585496D02*
Y573500D01*
Y579498D01*
X1355512Y581498D01*
X1351513D01*
X1349514Y579498D01*
Y573500D01*
X1343516Y581498D02*
X1339517D01*
X1337518Y579498D01*
Y573500D01*
X1343516D01*
X1345515Y575499D01*
X1343516Y577499D01*
X1337518D01*
X1333519Y573500D02*
Y581498D01*
X1327521D01*
X1325522Y579498D01*
Y573500D01*
X1321523D02*
X1317524D01*
X1319524D01*
Y581498D01*
X1321523D01*
X1303529D02*
X1309527D01*
X1311526Y579498D01*
Y575499D01*
X1309527Y573500D01*
X1303529D01*
X1297531Y581498D02*
X1293532D01*
X1291533Y579498D01*
Y573500D01*
X1297531D01*
X1299530Y575499D01*
X1297531Y577499D01*
X1291533D01*
X1287534Y573500D02*
X1283535D01*
X1285535D01*
Y585496D01*
X1287534D01*
X1265541Y573500D02*
X1261543D01*
X1263542D01*
Y585496D01*
X1265541Y583497D01*
X1048500Y573250D02*
Y585246D01*
X1052498Y581248D01*
X1056497Y585246D01*
Y573250D01*
X1066494D02*
X1062495D01*
X1060496Y575249D01*
Y579248D01*
X1062495Y581248D01*
X1066494D01*
X1068493Y579248D01*
Y577249D01*
X1060496D01*
X1080490Y581248D02*
X1074491D01*
X1072492Y579248D01*
Y575249D01*
X1074491Y573250D01*
X1080490D01*
X1084488Y585246D02*
Y573250D01*
Y579248D01*
X1086488Y581248D01*
X1090486D01*
X1092486Y579248D01*
Y573250D01*
X1098484Y581248D02*
X1102482D01*
X1104482Y579248D01*
Y573250D01*
X1098484D01*
X1096484Y575249D01*
X1098484Y577249D01*
X1104482D01*
X1108480Y573250D02*
Y581248D01*
X1114479D01*
X1116478Y579248D01*
Y573250D01*
X1120477D02*
X1124475D01*
X1122476D01*
Y581248D01*
X1120477D01*
X1138471D02*
X1132473D01*
X1130473Y579248D01*
Y575249D01*
X1132473Y573250D01*
X1138471D01*
X1144469Y581248D02*
X1148467D01*
X1150467Y579248D01*
Y573250D01*
X1144469D01*
X1142469Y575249D01*
X1144469Y577249D01*
X1150467D01*
X1154465Y573250D02*
X1158464D01*
X1156465D01*
Y585246D01*
X1154465D01*
X1176458Y573250D02*
X1180457D01*
X1178458D01*
Y585246D01*
X1176458Y583247D01*
X1393500Y573500D02*
Y585496D01*
X1389501Y581498D01*
X1385502Y585496D01*
Y573500D01*
X1375506D02*
X1379504D01*
X1381504Y575499D01*
Y579498D01*
X1379504Y581498D01*
X1375506D01*
X1373506Y579498D01*
Y577499D01*
X1381504D01*
X1361510Y581498D02*
X1367508D01*
X1369508Y579498D01*
Y575499D01*
X1367508Y573500D01*
X1361510D01*
X1357511Y585496D02*
Y573500D01*
Y579498D01*
X1355512Y581498D01*
X1351513D01*
X1349514Y579498D01*
Y573500D01*
X1343516Y581498D02*
X1339517D01*
X1337518Y579498D01*
Y573500D01*
X1343516D01*
X1345515Y575499D01*
X1343516Y577499D01*
X1337518D01*
X1333519Y573500D02*
Y581498D01*
X1327521D01*
X1325522Y579498D01*
Y573500D01*
X1321523D02*
X1317524D01*
X1319524D01*
Y581498D01*
X1321523D01*
X1303529D02*
X1309527D01*
X1311526Y579498D01*
Y575499D01*
X1309527Y573500D01*
X1303529D01*
X1297531Y581498D02*
X1293532D01*
X1291533Y579498D01*
Y573500D01*
X1297531D01*
X1299530Y575499D01*
X1297531Y577499D01*
X1291533D01*
X1287534Y573500D02*
X1283535D01*
X1285535D01*
Y585496D01*
X1287534D01*
X1265541Y573500D02*
X1261543D01*
X1263542D01*
Y585496D01*
X1265541Y583497D01*
X1048500Y573250D02*
Y585246D01*
X1052498Y581248D01*
X1056497Y585246D01*
Y573250D01*
X1066494D02*
X1062495D01*
X1060496Y575249D01*
Y579248D01*
X1062495Y581248D01*
X1066494D01*
X1068493Y579248D01*
Y577249D01*
X1060496D01*
X1080490Y581248D02*
X1074491D01*
X1072492Y579248D01*
Y575249D01*
X1074491Y573250D01*
X1080490D01*
X1084488Y585246D02*
Y573250D01*
Y579248D01*
X1086488Y581248D01*
X1090486D01*
X1092486Y579248D01*
Y573250D01*
X1098484Y581248D02*
X1102482D01*
X1104482Y579248D01*
Y573250D01*
X1098484D01*
X1096484Y575249D01*
X1098484Y577249D01*
X1104482D01*
X1108480Y573250D02*
Y581248D01*
X1114479D01*
X1116478Y579248D01*
Y573250D01*
X1120477D02*
X1124475D01*
X1122476D01*
Y581248D01*
X1120477D01*
X1138471D02*
X1132473D01*
X1130473Y579248D01*
Y575249D01*
X1132473Y573250D01*
X1138471D01*
X1144469Y581248D02*
X1148467D01*
X1150467Y579248D01*
Y573250D01*
X1144469D01*
X1142469Y575249D01*
X1144469Y577249D01*
X1150467D01*
X1154465Y573250D02*
X1158464D01*
X1156465D01*
Y585246D01*
X1154465D01*
X1176458Y573250D02*
X1180457D01*
X1178458D01*
Y585246D01*
X1176458Y583247D01*
D12*
X0Y0D02*
Y665000D01*
X80000D01*
X999600D01*
X0Y0D02*
X999600D01*
X999600Y665000D02*
X999600Y22000D01*
X0Y0D02*
Y665000D01*
X80000D01*
X999600D01*
X0Y0D02*
X999600D01*
X999600Y665000D02*
X999600Y22000D01*
D13*
X620750Y455150D02*
X620750Y455150D01*
X620750D02*
X620750Y455150D01*
Y455150D02*
X620750Y455150D01*
X620750D02*
X620750Y455150D01*
M02*
