M48
;Layer_Color=9474304
;FILE_FORMAT=4:4
METRIC,TZ
;TYPE=PLATED
T01F00S00C0.3000
T03F00S00C1.0000
T04F00S00C1.0200
T05F00S00C1.0500
T06F00S00C1.1000
T07F00S00C2.2000
T08F00S00C2.6000
%
T01
X15000Y10000
X70000
X15000Y75000
X688000Y43000
X714715Y54741
X751901Y43690
X785174Y54661
X770000Y13000
X839000Y12000
X830500Y42000
X856352Y53544
X894580Y41811
X928407Y53623
X934000Y12000
X913000
X697000Y13000
X989105Y10500
X989000Y50000
X986000Y447000
X987000Y464000
X928901Y461532
X929000Y470000
X898000Y446000
X890000Y437000
X940000Y409000
X940558Y373854
X939750Y361331
X913000Y354000
X862000Y310000
X847000Y312000
X854500Y298500
X881000Y288000
Y271000
X880000Y239000
X850775Y252404
X852000Y216000
X842051Y182997
X837000Y163000
X857225Y134439
X883000Y134250
X928256Y134439
X909000Y162000
X915965Y182188
X914000Y215000
X937000Y254000
X799706Y262383
X788000Y253000
X776500Y304500
X827000Y314000
X720271Y314500
X658101Y321016
X671000Y366000
X633000Y386000
X750000
X768000Y163000
X785868Y135355
X811000Y134250
X740000Y135250
X714478Y135381
X709129Y152361
X698000Y163000
X702250Y184000
X658028Y208715
X669000Y135250
X75000Y655000
X10000
Y600000
X651000Y561000
X791500Y583500
Y627000
X933000Y655000
X910550Y556450
X910950Y531050
X911350Y518350
X911350Y505650
X989127Y505880
Y518580
X989050Y531050
X989450Y556450
X985000Y607000
Y655000
T03
X18600Y91000
X44000
X69400
X94800
X120200
Y65600
X145600
Y91000
X171000
Y65600
Y40200
X145600
X120200
X94800
Y65600
Y14800
X120200
X145600
X171000
X196400
Y40200
Y65600
Y91000
X221800
Y65600
X247200
Y91000
X272600
X298000
Y65600
X323400
X348800
X374200
Y91000
X399600
Y65600
X425000
X450400
X475800
X501200
X526600
Y91000
X552000
Y65600
X577400
Y91000
Y40200
X552000
X526600
X501200
X475800
X450400
X425000
X399600
X374200
X348800
X323400
X298000
X272600
Y65600
X247200Y40200
X221800
Y14800
X247200
X272600
X298000
X323400
X348800
X374200
X399600
X425000
X450400
X475800
X501200
X526600
X552000
X577400
X501200Y91000
X475800
X450400
X425000
X348800
X323400
X740000Y259600
Y285000
X710000Y385000
X685000
X660000
X800000
X825000
X850000
X898000Y350400
Y325000
X897000Y288400
Y263000
X577400Y167200
X552000
X526600
X501200
X475800
X450400
X425000
X399600
X374200
X348800
Y141800
X374200
X399600
Y116400
X374200
X348800
X323400
X298000
Y141800
X323400
Y167200
Y192600
X298000
Y167200
X272600
X247200
X221800
X196400
Y141800
Y116400
X221800
X247200
Y141800
X221800
X272600
Y116400
X247200Y192600
X221800
X196400
Y218000
X221800
Y243400
X196400
Y268800
Y294200
Y319600
Y345000
Y370400
Y395800
Y421200
Y446600
Y472000
Y497400
X221800
Y472000
X247200
X272600
Y497400
X298000
X323400
X348800
X374200
X399600
X425000
X450400
X475800
X501200
X526600
X552000
X577400
X247200
Y446600
X221800
Y421200
X247200
X272600Y446600
X247200Y243400
Y218000
X272600
X425000Y141800
X450400
Y116400
X475800
X501200
X526600
Y141800
X552000
Y116400
X577400
Y141800
X501200
X475800
X425000Y116400
X171000
Y141800
Y167200
X145600
X120200
X94800
X69400
Y192600
Y218000
Y243400
Y268800
X44000
X18600
Y294200
Y319600
Y345000
Y370400
Y395800
Y421200
Y446600
Y472000
X44000
Y446600
Y421200
Y395800
Y370400
Y345000
X69400
Y319600
Y294200
X44000
Y319600
X94800
X120200
Y345000
Y370400
X145600
Y395800
Y421200
Y446600
Y472000
X171000
Y497400
X145600
X120200
X94800
X69400
Y472000
Y446600
Y421200
Y395800
Y370400
X94800
Y395800
X120200
Y421200
Y446600
Y472000
X94800
Y446600
Y421200
X171000
Y395800
Y370400
Y345000
X145600
Y319600
X171000
Y294200
Y268800
X145600
Y243400
X120200
Y218000
Y192600
X145600
X171000
Y218000
X145600
X171000Y243400
X145600Y294200
X120200
Y268800
X94800
Y243400
Y218000
Y192600
X44000
X18600
Y218000
Y243400
X44000
Y218000
Y167200
Y141800
Y116400
X18600
Y141800
Y167200
X69400Y141800
Y116400
X94800
Y141800
X120200
Y116400
X145600
Y141800
X94800Y294200
Y345000
X171000Y446600
X44000Y497400
X18600
Y522800
Y548200
X44000
Y522800
X69400
Y548200
Y573600
X44000
X18600
X94800
Y599000
X120200
Y573600
X145600
X171000
Y599000
X145600
Y624400
X120200
X94800
Y649800
X120200
X145600
X171000
Y624400
Y548200
X145600
Y522800
X120200
Y548200
X94800
Y522800
X171000
X196400
Y548200
Y573600
Y599000
X221800
X247200
Y573600
X221800
Y548200
Y522800
X247200
X272600
X298000
X323400
X348800
Y548200
Y573600
X374200
X399600
Y599000
X374200
X348800
X323400
X298000
X272600
Y573600
X298000
X323400
Y548200
X298000
X272600
X247200
Y624400
X272600
X298000
X323400
X348800
X374200
X399600
X425000
Y599000
X450400
Y573600
X425000
Y548200
X399600
X374200
Y522800
X399600
X425000
X450400
X475800
X501200
X526600
X552000
Y548200
Y573600
X577400
Y599000
X552000
X526600
X501200
X475800
Y573600
X501200
X526600
Y548200
X501200
X475800
X450400
Y624400
X475800
X501200
X526600
X552000
X577400
Y649800
X552000
X526600
X501200
X475800
X450400
X425000
X399600
X374200
X348800
X323400
X298000
X272600
X247200
X221800
Y624400
X196400
Y649800
X577400Y548200
Y522800
X699000Y571000
X724400
T04
X298000Y239400
X323400
X348800
X374200
X399600
X425000
X450400
X475800
X501200
X526600
X552000
X577400
X578400Y268800
Y294200
Y319600
Y345000
Y370400
Y395800
X552000
Y370400
Y425200
X526600
X501200
X475800
X450400
X425000
X399600
X374200
X348800
X323400
X298000
Y395800
X323400
Y370400
Y345000
Y319600
Y294200
Y268800
X298000
Y294200
Y319600
Y345000
Y370400
X577400Y425200
X950000Y512000
Y550100
T05
X837500Y635250
X862500
T06
X602800Y14800
Y40200
Y65600
Y91000
Y116400
Y141800
Y167200
Y192600
X603000Y472000
Y497000
X577400Y472000
X552000
X526600
X501200
X475800
X450400
X425000
X399600
X374200
X348800
X323400
X298000
X272600Y425200
X247200Y395800
Y370400
Y345000
Y319600
Y294200
Y268800
X221800
Y294200
Y319600
Y345000
Y370400
Y395800
X272600Y239400
X348800Y192600
X374200
X399600
X425000
X450400
X475800
X501200
X526600
X552000
X577400
X603000Y523000
Y548000
X602800Y576104
Y600750
Y624000
Y649800
T07
X641000Y455000
X729000
X781000
X869000
T08
X40000Y40000
X960000
X40000Y630000
X960000
M30
