G04*
G04 #@! TF.GenerationSoftware,Altium Limited,Altium Designer,24.3.1 (35)*
G04*
G04 Layer_Physical_Order=1*
G04 Layer_Color=255*
%FSLAX44Y44*%
%MOMM*%
G71*
G04*
G04 #@! TF.SameCoordinates,D3561438-4DE8-4D87-AEC0-D3123FBB7C78*
G04*
G04*
G04 #@! TF.FilePolarity,Positive*
G04*
G01*
G75*
%ADD11C,0.3000*%
%ADD13C,0.2000*%
%ADD15C,0.4000*%
%ADD16C,0.1500*%
%ADD24R,1.4500X2.0500*%
%ADD25R,1.1000X1.2000*%
G04:AMPARAMS|DCode=26|XSize=1mm|YSize=0.6mm|CornerRadius=0.075mm|HoleSize=0mm|Usage=FLASHONLY|Rotation=180.000|XOffset=0mm|YOffset=0mm|HoleType=Round|Shape=RoundedRectangle|*
%AMROUNDEDRECTD26*
21,1,1.0000,0.4500,0,0,180.0*
21,1,0.8500,0.6000,0,0,180.0*
1,1,0.1500,-0.4250,0.2250*
1,1,0.1500,0.4250,0.2250*
1,1,0.1500,0.4250,-0.2250*
1,1,0.1500,-0.4250,-0.2250*
%
%ADD26ROUNDEDRECTD26*%
G04:AMPARAMS|DCode=27|XSize=1.25mm|YSize=1mm|CornerRadius=0.125mm|HoleSize=0mm|Usage=FLASHONLY|Rotation=0.000|XOffset=0mm|YOffset=0mm|HoleType=Round|Shape=RoundedRectangle|*
%AMROUNDEDRECTD27*
21,1,1.2500,0.7500,0,0,0.0*
21,1,1.0000,1.0000,0,0,0.0*
1,1,0.2500,0.5000,-0.3750*
1,1,0.2500,-0.5000,-0.3750*
1,1,0.2500,-0.5000,0.3750*
1,1,0.2500,0.5000,0.3750*
%
%ADD27ROUNDEDRECTD27*%
G04:AMPARAMS|DCode=28|XSize=1mm|YSize=0.6mm|CornerRadius=0.075mm|HoleSize=0mm|Usage=FLASHONLY|Rotation=270.000|XOffset=0mm|YOffset=0mm|HoleType=Round|Shape=RoundedRectangle|*
%AMROUNDEDRECTD28*
21,1,1.0000,0.4500,0,0,270.0*
21,1,0.8500,0.6000,0,0,270.0*
1,1,0.1500,-0.2250,-0.4250*
1,1,0.1500,-0.2250,0.4250*
1,1,0.1500,0.2250,0.4250*
1,1,0.1500,0.2250,-0.4250*
%
%ADD28ROUNDEDRECTD28*%
G04:AMPARAMS|DCode=29|XSize=0.65mm|YSize=1.1mm|CornerRadius=0.0813mm|HoleSize=0mm|Usage=FLASHONLY|Rotation=270.000|XOffset=0mm|YOffset=0mm|HoleType=Round|Shape=RoundedRectangle|*
%AMROUNDEDRECTD29*
21,1,0.6500,0.9375,0,0,270.0*
21,1,0.4875,1.1000,0,0,270.0*
1,1,0.1625,-0.4688,-0.2438*
1,1,0.1625,-0.4688,0.2438*
1,1,0.1625,0.4688,0.2438*
1,1,0.1625,0.4688,-0.2438*
%
%ADD29ROUNDEDRECTD29*%
G04:AMPARAMS|DCode=30|XSize=1.4mm|YSize=0.95mm|CornerRadius=0.1188mm|HoleSize=0mm|Usage=FLASHONLY|Rotation=90.000|XOffset=0mm|YOffset=0mm|HoleType=Round|Shape=RoundedRectangle|*
%AMROUNDEDRECTD30*
21,1,1.4000,0.7125,0,0,90.0*
21,1,1.1625,0.9500,0,0,90.0*
1,1,0.2375,0.3563,0.5813*
1,1,0.2375,0.3563,-0.5813*
1,1,0.2375,-0.3563,-0.5813*
1,1,0.2375,-0.3563,0.5813*
%
%ADD30ROUNDEDRECTD30*%
G04:AMPARAMS|DCode=31|XSize=0.56mm|YSize=0.2mm|CornerRadius=0.05mm|HoleSize=0mm|Usage=FLASHONLY|Rotation=0.000|XOffset=0mm|YOffset=0mm|HoleType=Round|Shape=RoundedRectangle|*
%AMROUNDEDRECTD31*
21,1,0.5600,0.1000,0,0,0.0*
21,1,0.4600,0.2000,0,0,0.0*
1,1,0.1000,0.2300,-0.0500*
1,1,0.1000,-0.2300,-0.0500*
1,1,0.1000,-0.2300,0.0500*
1,1,0.1000,0.2300,0.0500*
%
%ADD31ROUNDEDRECTD31*%
G04:AMPARAMS|DCode=32|XSize=0.56mm|YSize=0.4mm|CornerRadius=0.1mm|HoleSize=0mm|Usage=FLASHONLY|Rotation=0.000|XOffset=0mm|YOffset=0mm|HoleType=Round|Shape=RoundedRectangle|*
%AMROUNDEDRECTD32*
21,1,0.5600,0.2000,0,0,0.0*
21,1,0.3600,0.4000,0,0,0.0*
1,1,0.2000,0.1800,-0.1000*
1,1,0.2000,-0.1800,-0.1000*
1,1,0.2000,-0.1800,0.1000*
1,1,0.2000,0.1800,0.1000*
%
%ADD32ROUNDEDRECTD32*%
G04:AMPARAMS|DCode=33|XSize=1.8mm|YSize=1.8mm|CornerRadius=0.225mm|HoleSize=0mm|Usage=FLASHONLY|Rotation=180.000|XOffset=0mm|YOffset=0mm|HoleType=Round|Shape=RoundedRectangle|*
%AMROUNDEDRECTD33*
21,1,1.8000,1.3500,0,0,180.0*
21,1,1.3500,1.8000,0,0,180.0*
1,1,0.4500,-0.6750,0.6750*
1,1,0.4500,0.6750,0.6750*
1,1,0.4500,0.6750,-0.6750*
1,1,0.4500,-0.6750,-0.6750*
%
%ADD33ROUNDEDRECTD33*%
G04:AMPARAMS|DCode=34|XSize=0.3mm|YSize=0.3mm|CornerRadius=0.0375mm|HoleSize=0mm|Usage=FLASHONLY|Rotation=180.000|XOffset=0mm|YOffset=0mm|HoleType=Round|Shape=RoundedRectangle|*
%AMROUNDEDRECTD34*
21,1,0.3000,0.2250,0,0,180.0*
21,1,0.2250,0.3000,0,0,180.0*
1,1,0.0750,-0.1125,0.1125*
1,1,0.0750,0.1125,0.1125*
1,1,0.0750,0.1125,-0.1125*
1,1,0.0750,-0.1125,-0.1125*
%
%ADD34ROUNDEDRECTD34*%
G04:AMPARAMS|DCode=35|XSize=0.9mm|YSize=0.3mm|CornerRadius=0.0375mm|HoleSize=0mm|Usage=FLASHONLY|Rotation=180.000|XOffset=0mm|YOffset=0mm|HoleType=Round|Shape=RoundedRectangle|*
%AMROUNDEDRECTD35*
21,1,0.9000,0.2250,0,0,180.0*
21,1,0.8250,0.3000,0,0,180.0*
1,1,0.0750,-0.4125,0.1125*
1,1,0.0750,0.4125,0.1125*
1,1,0.0750,0.4125,-0.1125*
1,1,0.0750,-0.4125,-0.1125*
%
%ADD35ROUNDEDRECTD35*%
G04:AMPARAMS|DCode=36|XSize=0.9mm|YSize=0.3mm|CornerRadius=0.0375mm|HoleSize=0mm|Usage=FLASHONLY|Rotation=270.000|XOffset=0mm|YOffset=0mm|HoleType=Round|Shape=RoundedRectangle|*
%AMROUNDEDRECTD36*
21,1,0.9000,0.2250,0,0,270.0*
21,1,0.8250,0.3000,0,0,270.0*
1,1,0.0750,-0.1125,-0.4125*
1,1,0.0750,-0.1125,0.4125*
1,1,0.0750,0.1125,0.4125*
1,1,0.0750,0.1125,-0.4125*
%
%ADD36ROUNDEDRECTD36*%
G04:AMPARAMS|DCode=37|XSize=0.3mm|YSize=0.3mm|CornerRadius=0.0375mm|HoleSize=0mm|Usage=FLASHONLY|Rotation=270.000|XOffset=0mm|YOffset=0mm|HoleType=Round|Shape=RoundedRectangle|*
%AMROUNDEDRECTD37*
21,1,0.3000,0.2250,0,0,270.0*
21,1,0.2250,0.3000,0,0,270.0*
1,1,0.0750,-0.1125,-0.1125*
1,1,0.0750,-0.1125,0.1125*
1,1,0.0750,0.1125,0.1125*
1,1,0.0750,0.1125,-0.1125*
%
%ADD37ROUNDEDRECTD37*%
G04:AMPARAMS|DCode=38|XSize=1.4mm|YSize=0.95mm|CornerRadius=0.1188mm|HoleSize=0mm|Usage=FLASHONLY|Rotation=180.000|XOffset=0mm|YOffset=0mm|HoleType=Round|Shape=RoundedRectangle|*
%AMROUNDEDRECTD38*
21,1,1.4000,0.7125,0,0,180.0*
21,1,1.1625,0.9500,0,0,180.0*
1,1,0.2375,-0.5813,0.3563*
1,1,0.2375,0.5813,0.3563*
1,1,0.2375,0.5813,-0.3563*
1,1,0.2375,-0.5813,-0.3563*
%
%ADD38ROUNDEDRECTD38*%
%ADD39R,1.6000X2.8000*%
G04:AMPARAMS|DCode=40|XSize=0.76mm|YSize=2.4mm|CornerRadius=0.095mm|HoleSize=0mm|Usage=FLASHONLY|Rotation=90.000|XOffset=0mm|YOffset=0mm|HoleType=Round|Shape=RoundedRectangle|*
%AMROUNDEDRECTD40*
21,1,0.7600,2.2100,0,0,90.0*
21,1,0.5700,2.4000,0,0,90.0*
1,1,0.1900,1.1050,0.2850*
1,1,0.1900,1.1050,-0.2850*
1,1,0.1900,-1.1050,-0.2850*
1,1,0.1900,-1.1050,0.2850*
%
%ADD40ROUNDEDRECTD40*%
G04:AMPARAMS|DCode=41|XSize=1.6mm|YSize=1.4mm|CornerRadius=0.175mm|HoleSize=0mm|Usage=FLASHONLY|Rotation=270.000|XOffset=0mm|YOffset=0mm|HoleType=Round|Shape=RoundedRectangle|*
%AMROUNDEDRECTD41*
21,1,1.6000,1.0500,0,0,270.0*
21,1,1.2500,1.4000,0,0,270.0*
1,1,0.3500,-0.5250,-0.6250*
1,1,0.3500,-0.5250,0.6250*
1,1,0.3500,0.5250,0.6250*
1,1,0.3500,0.5250,-0.6250*
%
%ADD41ROUNDEDRECTD41*%
G04:AMPARAMS|DCode=42|XSize=1.55mm|YSize=1.9mm|CornerRadius=0.1938mm|HoleSize=0mm|Usage=FLASHONLY|Rotation=180.000|XOffset=0mm|YOffset=0mm|HoleType=Round|Shape=RoundedRectangle|*
%AMROUNDEDRECTD42*
21,1,1.5500,1.5125,0,0,180.0*
21,1,1.1625,1.9000,0,0,180.0*
1,1,0.3875,-0.5813,0.7563*
1,1,0.3875,0.5813,0.7563*
1,1,0.3875,0.5813,-0.7563*
1,1,0.3875,-0.5813,-0.7563*
%
%ADD42ROUNDEDRECTD42*%
G04:AMPARAMS|DCode=43|XSize=0.4mm|YSize=1.35mm|CornerRadius=0.05mm|HoleSize=0mm|Usage=FLASHONLY|Rotation=270.000|XOffset=0mm|YOffset=0mm|HoleType=Round|Shape=RoundedRectangle|*
%AMROUNDEDRECTD43*
21,1,0.4000,1.2500,0,0,270.0*
21,1,0.3000,1.3500,0,0,270.0*
1,1,0.1000,-0.6250,-0.1500*
1,1,0.1000,-0.6250,0.1500*
1,1,0.1000,0.6250,0.1500*
1,1,0.1000,0.6250,-0.1500*
%
%ADD43ROUNDEDRECTD43*%
G04:AMPARAMS|DCode=44|XSize=4.2mm|YSize=1.5mm|CornerRadius=0.1875mm|HoleSize=0mm|Usage=FLASHONLY|Rotation=270.000|XOffset=0mm|YOffset=0mm|HoleType=Round|Shape=RoundedRectangle|*
%AMROUNDEDRECTD44*
21,1,4.2000,1.1250,0,0,270.0*
21,1,3.8250,1.5000,0,0,270.0*
1,1,0.3750,-0.5625,-1.9125*
1,1,0.3750,-0.5625,1.9125*
1,1,0.3750,0.5625,1.9125*
1,1,0.3750,0.5625,-1.9125*
%
%ADD44ROUNDEDRECTD44*%
%ADD45C,1.0000*%
%ADD83C,0.1400*%
%ADD84C,0.7000*%
%ADD85C,0.6000*%
%ADD86C,1.0000*%
%ADD87C,0.8000*%
%ADD88C,0.5000*%
%ADD89C,1.6000*%
%ADD90R,1.6000X1.6000*%
%ADD91C,1.5080*%
%ADD92C,3.2160*%
%ADD93C,1.5200*%
G04:AMPARAMS|DCode=94|XSize=1.52mm|YSize=1.52mm|CornerRadius=0.38mm|HoleSize=0mm|Usage=FLASHONLY|Rotation=270.000|XOffset=0mm|YOffset=0mm|HoleType=Round|Shape=RoundedRectangle|*
%AMROUNDEDRECTD94*
21,1,1.5200,0.7600,0,0,270.0*
21,1,0.7600,1.5200,0,0,270.0*
1,1,0.7600,-0.3800,-0.3800*
1,1,0.7600,-0.3800,0.3800*
1,1,0.7600,0.3800,0.3800*
1,1,0.7600,0.3800,-0.3800*
%
%ADD94ROUNDEDRECTD94*%
G04:AMPARAMS|DCode=95|XSize=1.52mm|YSize=1.52mm|CornerRadius=0.38mm|HoleSize=0mm|Usage=FLASHONLY|Rotation=180.000|XOffset=0mm|YOffset=0mm|HoleType=Round|Shape=RoundedRectangle|*
%AMROUNDEDRECTD95*
21,1,1.5200,0.7600,0,0,180.0*
21,1,0.7600,1.5200,0,0,180.0*
1,1,0.7600,-0.3800,0.3800*
1,1,0.7600,0.3800,0.3800*
1,1,0.7600,0.3800,-0.3800*
1,1,0.7600,-0.3800,-0.3800*
%
%ADD95ROUNDEDRECTD95*%
%ADD96R,1.6000X1.6000*%
%ADD97C,1.0200*%
%ADD98O,1.6000X0.9000*%
%ADD99R,1.5750X1.5750*%
%ADD100C,1.5750*%
%ADD101C,4.2000*%
%ADD102C,0.6000*%
D11*
X913000Y354000D02*
X929150D01*
X978000Y367000D02*
Y388000D01*
Y322000D02*
Y343000D01*
X953500Y387000D02*
X954500Y388000D01*
X953500Y323000D02*
X954500Y322000D01*
X952500Y287000D02*
X976000D01*
Y266000D02*
Y287000D01*
X944407Y260593D02*
X944500D01*
X940714D02*
X944407D01*
X944500Y260500D01*
X942743Y262257D02*
X944407Y260593D01*
X976000Y221000D02*
Y242000D01*
X952500Y221000D02*
X976000D01*
X929150Y254000D02*
X937000D01*
X920850D02*
X929150D01*
X920700D02*
X920850D01*
X824094Y255500D02*
X825500D01*
X928750Y230750D02*
X929250D01*
X930500Y232000D02*
Y232500D01*
X929250Y230750D02*
X930500Y232000D01*
X942743Y262257D02*
Y264743D01*
X945000Y267000D01*
X944500Y260500D02*
X951500D01*
X945000Y267000D02*
X951500D01*
X937574Y254574D02*
Y257453D01*
X937000Y254000D02*
X937574Y254574D01*
Y257453D02*
X940714Y260593D01*
X788000Y253000D02*
Y261500D01*
X844158Y297855D02*
X856303Y310000D01*
X862000D01*
X844158Y292658D02*
Y297855D01*
X839000Y289500D02*
X841000D01*
X844158Y292658D01*
X822000Y289500D02*
X837757D01*
X839000D01*
X817085Y262509D02*
X824094Y255500D01*
X813168Y262509D02*
X817085D01*
X813159Y262500D02*
X813168Y262509D01*
X809509Y262500D02*
X813159D01*
X837494Y252506D02*
X837500Y252500D01*
X825000Y255000D02*
X827494Y252506D01*
X837494D01*
X837500Y252500D02*
X840494D01*
X832458Y274201D02*
X832500Y274159D01*
Y270542D02*
Y274159D01*
X832458Y274201D02*
Y278458D01*
X837757Y283757D01*
X827500Y270555D02*
Y274159D01*
X827555Y274214D02*
Y281243D01*
X813500Y283000D02*
X825797D01*
X827500Y274159D02*
X827555Y274214D01*
X825797Y283000D02*
X827555Y281243D01*
X939750Y361331D02*
X939918Y361500D01*
X951250D01*
X945500Y341500D02*
X950750D01*
X951250Y342000D01*
X805000Y304500D02*
X807000D01*
X808500Y303000D01*
Y301000D02*
Y303000D01*
Y301000D02*
X818500Y291000D01*
Y291000D02*
Y291000D01*
Y291000D02*
X820000Y289500D01*
X822000D01*
X975500Y464000D02*
X987000D01*
X577400Y421200D02*
X750800D01*
X768000Y404000D01*
X666843Y408157D02*
X671000Y404000D01*
X565043Y408157D02*
X666843D01*
X552000Y421200D02*
X565043Y408157D01*
X768000Y375500D02*
Y404000D01*
X671000Y366000D02*
Y404000D01*
X663000Y366000D02*
X671000D01*
X951500Y222000D02*
X952500Y221000D01*
X951500Y286000D02*
X952500Y287000D01*
X954500Y322000D02*
X978000D01*
X954500Y388000D02*
X978000D01*
X940558Y373854D02*
X940826D01*
X946000Y368680D01*
X946500Y368000D02*
X951250D01*
X946000Y368500D02*
X946500Y368000D01*
X946000Y368500D02*
Y368680D01*
X854000Y299000D02*
X854500Y298500D01*
Y288000D02*
Y298500D01*
X788000Y289500D02*
X805000D01*
X807000D02*
X813500Y283000D01*
X805000Y289500D02*
X807000D01*
X837757Y288257D02*
X839000Y289500D01*
X837757Y283757D02*
Y288257D01*
X854500Y271000D02*
Y288000D01*
X838000Y268000D02*
X853000D01*
X854500Y269500D01*
Y271000D01*
D13*
X688000Y32000D02*
Y43000D01*
X801078Y343078D02*
X825000Y367000D01*
X769578Y343078D02*
X801078D01*
X825000Y367000D02*
Y385000D01*
X956500Y447000D02*
Y462000D01*
X954500Y464000D02*
X956500Y462000D01*
X822328Y304828D02*
Y309328D01*
X827000Y314000D01*
X822000Y304500D02*
X822328Y304828D01*
X769500Y343000D02*
X769578Y343078D01*
X709000Y152490D02*
Y176000D01*
X728000Y195000D01*
X709000Y152490D02*
X709129Y152361D01*
X899500Y162000D02*
X909000D01*
X829500Y163000D02*
X837000D01*
X768000Y163000D02*
X768000Y163000D01*
X760500Y163000D02*
X768000D01*
X689500Y163000D02*
X698000D01*
X728000Y195000D02*
X749464D01*
X756464Y188000D01*
X758758D01*
X759758Y187000D01*
X884500Y162000D02*
Y180500D01*
X812500Y163000D02*
Y180000D01*
X809500Y183000D02*
X812500Y180000D01*
X740500Y183000D02*
X743500Y180000D01*
Y163000D02*
Y180000D01*
X672500Y163000D02*
Y181000D01*
X669500Y184000D02*
X672500Y181000D01*
X972000Y67000D02*
Y194000D01*
X992000D01*
Y67000D02*
Y194000D01*
X972000Y67000D02*
X992000D01*
X903037Y183038D02*
X904694D01*
X902500Y183000D02*
X903037Y183038D01*
X904694D02*
X905866Y181866D01*
X906188Y182188D02*
X915965D01*
X905866Y181866D02*
X906188Y182188D01*
X702500Y301500D02*
Y308250D01*
X708750Y314500D02*
X720271D01*
X702500Y308250D02*
X708750Y314500D01*
X841596Y252404D02*
X850775D01*
X800248Y262425D02*
X809425D01*
X800206Y262383D02*
X800248Y262425D01*
X822409Y270591D02*
Y276828D01*
X821237Y278000D02*
X822409Y276828D01*
X809000Y278000D02*
X821237D01*
X822529Y231725D02*
X824172Y230082D01*
X822529Y231725D02*
Y239471D01*
X824172Y230082D02*
X862582D01*
X863000Y230500D01*
X817604Y227845D02*
X839448Y206000D01*
X817604Y227845D02*
Y239396D01*
X839448Y206000D02*
X878000D01*
X235072Y332872D02*
X283936D01*
X297208Y319600D01*
X221800D02*
X235072Y332872D01*
X221800Y395800D02*
X234723Y408723D01*
X285077D02*
X298000Y395800D01*
X234723Y408723D02*
X285077D01*
X284448Y383160D02*
X297208Y370400D01*
X234560Y383160D02*
X284448D01*
X221800Y370400D02*
X234560Y383160D01*
X268834Y358030D02*
X270756Y356108D01*
X234830Y358030D02*
X268834D01*
X221800Y345000D02*
X234830Y358030D01*
X312292Y356108D02*
X323400Y345000D01*
X270756Y356108D02*
X312292D01*
X287919Y360000D02*
X313000D01*
X277519Y370400D02*
X287919Y360000D01*
X313000D02*
X323400Y370400D01*
X577400Y239400D02*
Y243400D01*
Y192600D02*
Y239400D01*
X552000D02*
Y243400D01*
Y192600D02*
Y239400D01*
X880000Y208000D02*
Y215500D01*
X878000Y206000D02*
X880000Y208000D01*
Y230500D02*
Y239000D01*
X852000Y216000D02*
X852500Y215500D01*
X863000D01*
X690500Y184000D02*
X702250D01*
X309955Y382698D02*
X323229Y395971D01*
X775000Y215000D02*
X785000D01*
X813000Y243000D01*
X773500Y215812D02*
Y216500D01*
X772690Y215003D02*
X773500Y215812D01*
X772003Y215003D02*
X772690D01*
X773500Y216500D02*
X775147D01*
X802000Y240000D02*
X810000Y248000D01*
X778171Y240000D02*
X802000D01*
X774043Y240957D02*
X775000Y240000D01*
X788000Y276500D02*
X807500D01*
X830500Y183000D02*
X842000D01*
X843000Y306500D02*
Y306598D01*
X841000Y304500D02*
X843000Y306500D01*
X844779Y308377D02*
Y308377D01*
X843000Y306598D02*
X844779Y308377D01*
X845458Y309057D02*
Y309376D01*
X847000Y310918D01*
Y312000D01*
X844779Y308377D02*
X845458Y309057D01*
X839000Y304500D02*
X841000D01*
X658000Y208743D02*
Y221000D01*
Y208743D02*
X658028Y208715D01*
X658000Y320915D02*
X658101Y321016D01*
X658000Y309000D02*
Y320915D01*
X903500Y31000D02*
Y33149D01*
X899764Y36884D02*
X903500Y33149D01*
X899507Y36884D02*
X899764D01*
X894580Y41811D02*
X899507Y36884D01*
X915500Y53750D02*
X928280D01*
X928407Y53623D01*
X843500Y53750D02*
X856145D01*
X856352Y53544D01*
X772500Y54750D02*
X785085D01*
X785174Y54661D01*
X714706Y54750D02*
X714715Y54741D01*
X701500Y54750D02*
X714706D01*
X915500Y134250D02*
X928067D01*
X928256Y134439D01*
X843500Y134250D02*
X857036D01*
X857225Y134439D01*
X772500Y135250D02*
X785763D01*
X785868Y135355D01*
X751901Y42970D02*
Y43690D01*
Y42970D02*
X756750Y38121D01*
X760500Y32000D02*
Y34351D01*
X756750Y38101D02*
X760500Y34351D01*
X756750Y38101D02*
Y38121D01*
X701500Y135250D02*
X714347D01*
X714478Y135381D01*
X247200Y345000D02*
X298000D01*
X830500Y31000D02*
Y42000D01*
X807500Y276500D02*
X809000Y278000D01*
X633000Y375500D02*
Y386000D01*
X750000Y375500D02*
Y386000D01*
Y360500D02*
X768000D01*
X750500Y343000D02*
Y360000D01*
X750000Y360500D02*
X750500Y360000D01*
X639000Y366000D02*
X648000D01*
X637000Y364000D02*
X639000Y366000D01*
X633000Y360500D02*
X635000D01*
X637000Y362500D01*
Y364000D01*
X633500Y343000D02*
Y360000D01*
X633000Y360500D02*
X633500Y360000D01*
X685000Y354000D02*
Y385000D01*
X674000Y343000D02*
X685000Y354000D01*
X652500Y343000D02*
X674000D01*
X969500Y505650D02*
X988897D01*
X969500Y518350D02*
X988897D01*
X989127Y518580D01*
X969500Y531050D02*
X989050D01*
X969500Y556450D02*
X989450D01*
X910550D02*
X930500D01*
X910950Y531050D02*
X930500D01*
X911350Y518350D02*
X930500D01*
X911350Y505650D02*
X930500D01*
X288319Y258000D02*
X307000D01*
X319592Y264992D02*
X323400Y268800D01*
X307000Y258000D02*
X313992Y264992D01*
X319592D01*
X277519Y268800D02*
X288319Y258000D01*
X870500Y134250D02*
X883000D01*
X798500Y134250D02*
X811000D01*
X727500Y135250D02*
X740000D01*
X656500Y135250D02*
X669000D01*
X580972Y294200D02*
X589172Y286000D01*
X687000D02*
X696250Y295250D01*
X589172Y286000D02*
X687000D01*
X577400Y294200D02*
X580972D01*
X702500Y224750D02*
Y301500D01*
X701750D02*
X702500D01*
X696250Y296000D02*
X701750Y301500D01*
X696250Y295250D02*
Y296000D01*
X776500Y304500D02*
X788000D01*
X869500Y271000D02*
X881000D01*
X869500Y288000D02*
X881000D01*
X901500Y12000D02*
X913000D01*
X827500Y12000D02*
X839000D01*
X758500Y13000D02*
X770000D01*
X685500Y13000D02*
X697000D01*
X743181Y13319D02*
X743500Y13000D01*
X741500Y32000D02*
X743181Y30319D01*
Y13319D02*
Y30319D01*
X727500Y54750D02*
X733115Y49135D01*
Y42672D02*
X741500Y34286D01*
X733115Y42672D02*
Y49135D01*
X798500Y53750D02*
X803357Y48893D01*
X807866Y34134D02*
Y37162D01*
X803357Y41672D02*
Y48893D01*
Y41672D02*
X807866Y37162D01*
Y34134D02*
X812500Y29500D01*
X880758Y36884D02*
X880764D01*
X884500Y12000D02*
Y33149D01*
X875971Y41672D02*
X880758Y36884D01*
X875971Y41672D02*
Y48279D01*
X880764Y36884D02*
X884500Y33149D01*
X870500Y53750D02*
X875971Y48279D01*
X870500Y53750D02*
Y134250D01*
X798500Y53750D02*
Y134250D01*
X812500Y12000D02*
Y29500D01*
X727500Y54750D02*
Y135250D01*
X670500Y13000D02*
Y30500D01*
X669000Y32000D02*
X670500Y30500D01*
X660264Y42672D02*
Y50986D01*
Y42672D02*
X665051Y37884D01*
X665264D01*
X669000Y32000D02*
Y34148D01*
X665264Y37884D02*
X669000Y34148D01*
X656500Y54750D02*
X660264Y50986D01*
X656500Y54750D02*
Y135250D01*
X577400Y421200D02*
Y472000D01*
X552000Y421200D02*
Y472000D01*
X526600Y421200D02*
Y472000D01*
X501200Y421200D02*
Y472000D01*
X475800Y421200D02*
Y472000D01*
X450400Y421200D02*
Y472000D01*
X425000Y421200D02*
Y472000D01*
X399600Y421200D02*
Y472000D01*
X374200Y421200D02*
Y472000D01*
X348800Y421200D02*
Y472000D01*
X323400Y421200D02*
Y472000D01*
X298000Y421200D02*
Y472000D01*
X526600Y192600D02*
Y243400D01*
X501200Y192600D02*
Y243400D01*
X475800Y192600D02*
Y243400D01*
X450400Y192600D02*
Y243400D01*
X425000Y192600D02*
Y243400D01*
X399600Y192600D02*
Y243400D01*
X374200Y192600D02*
Y243400D01*
X348800Y192600D02*
Y243400D01*
X247200Y319600D02*
X279784D01*
X292814Y306570D01*
X234100Y306500D02*
X282750D01*
X295050Y294200D01*
X298000D01*
X234500Y281500D02*
X284508D01*
X221800Y268800D02*
X234500Y281500D01*
X284508D02*
X297208Y268800D01*
X292814Y306570D02*
X310370D01*
X221800Y294200D02*
X234100Y306500D01*
X247200Y294200D02*
X279573D01*
X309955Y281098D02*
X323229Y294371D01*
X279573Y294200D02*
X292675Y281098D01*
X309955D01*
X247200Y268800D02*
X277519D01*
X310370Y306570D02*
X323400Y319600D01*
X297208Y370400D02*
X298000D01*
X247200D02*
X277519D01*
X292675Y382698D02*
X309955D01*
X279573Y395800D02*
X292675Y382698D01*
X247200Y395800D02*
X279573D01*
X976004Y71000D02*
Y78997D01*
Y74999D01*
X988000D01*
X976004Y88994D02*
Y84995D01*
X978003Y82996D01*
X986001D01*
X988000Y84995D01*
Y88994D01*
X986001Y90993D01*
X978003D01*
X976004Y88994D01*
X988000Y94992D02*
X976004D01*
Y100990D01*
X978003Y102990D01*
X982002D01*
X984001Y100990D01*
Y94992D01*
X988000Y106988D02*
Y110987D01*
Y108988D01*
X976004D01*
X978003Y106988D01*
D15*
X939000Y241000D02*
X949250D01*
X930500Y232500D02*
X939000Y241000D01*
X930680Y331680D02*
Y332657D01*
X933023Y335000D01*
X939000D02*
X945500Y341500D01*
X929680Y330680D02*
X930680Y331680D01*
X933023Y335000D02*
X939000D01*
X927680Y330680D02*
X929680D01*
D16*
X1049137Y662193D02*
X1057135D01*
X1053136D01*
Y650197D01*
X1063133D02*
X1067131D01*
X1069131Y652196D01*
Y656195D01*
X1067131Y658194D01*
X1063133D01*
X1061133Y656195D01*
Y652196D01*
X1063133Y650197D01*
X1073130Y646198D02*
Y658194D01*
X1079128D01*
X1081127Y656195D01*
Y652196D01*
X1079128Y650197D01*
X1073130D01*
X1097122Y662193D02*
Y650197D01*
X1105119D01*
X1111117Y658194D02*
X1115116D01*
X1117115Y656195D01*
Y650197D01*
X1111117D01*
X1109118Y652196D01*
X1111117Y654196D01*
X1117115D01*
X1121114Y658194D02*
Y652196D01*
X1123113Y650197D01*
X1129111D01*
Y648198D01*
X1127112Y646198D01*
X1125113D01*
X1129111Y650197D02*
Y658194D01*
X1139108Y650197D02*
X1135109D01*
X1133110Y652196D01*
Y656195D01*
X1135109Y658194D01*
X1139108D01*
X1141107Y656195D01*
Y654196D01*
X1133110D01*
X1145106Y658194D02*
Y650197D01*
Y654196D01*
X1147105Y656195D01*
X1149105Y658194D01*
X1151104D01*
X1393500Y662496D02*
X1385502D01*
X1389501D01*
Y650500D01*
X1379504D02*
X1375506D01*
X1373506Y652499D01*
Y656498D01*
X1375506Y658498D01*
X1379504D01*
X1381504Y656498D01*
Y652499D01*
X1379504Y650500D01*
X1369508Y646501D02*
Y658498D01*
X1363510D01*
X1361510Y656498D01*
Y652499D01*
X1363510Y650500D01*
X1369508D01*
X1345515Y662496D02*
Y650500D01*
X1337518D01*
X1331520Y658498D02*
X1327521D01*
X1325522Y656498D01*
Y650500D01*
X1331520D01*
X1333519Y652499D01*
X1331520Y654499D01*
X1325522D01*
X1321523Y658498D02*
Y652499D01*
X1319524Y650500D01*
X1313526D01*
Y648501D01*
X1315525Y646501D01*
X1317524D01*
X1313526Y650500D02*
Y658498D01*
X1303529Y650500D02*
X1307528D01*
X1309527Y652499D01*
Y656498D01*
X1307528Y658498D01*
X1303529D01*
X1301530Y656498D01*
Y654499D01*
X1309527D01*
X1297531Y658498D02*
Y650500D01*
Y654499D01*
X1295531Y656498D01*
X1293532Y658498D01*
X1291533D01*
D24*
X843500Y134250D02*
D03*
Y53750D02*
D03*
X798500D02*
D03*
Y134250D02*
D03*
X870500Y134250D02*
D03*
Y53750D02*
D03*
X915500D02*
D03*
Y134250D02*
D03*
X657500Y224750D02*
D03*
Y305250D02*
D03*
X702500D02*
D03*
Y224750D02*
D03*
X656500Y135250D02*
D03*
Y54750D02*
D03*
X701500D02*
D03*
Y135250D02*
D03*
X772500Y135250D02*
D03*
Y54750D02*
D03*
X727500D02*
D03*
Y135250D02*
D03*
D25*
X740500Y183000D02*
D03*
X761500D02*
D03*
X690500Y184000D02*
D03*
X669500D02*
D03*
X881500Y183000D02*
D03*
X902500D02*
D03*
X830500D02*
D03*
X809500D02*
D03*
X975500Y464000D02*
D03*
X954500D02*
D03*
D26*
X927000Y230500D02*
D03*
Y215500D02*
D03*
X788000Y289500D02*
D03*
Y304500D02*
D03*
X805000D02*
D03*
Y289500D02*
D03*
X633000Y360500D02*
D03*
Y375500D02*
D03*
X750000D02*
D03*
Y360500D02*
D03*
X822000Y304500D02*
D03*
Y289500D02*
D03*
X839000D02*
D03*
Y304500D02*
D03*
X880000Y230500D02*
D03*
Y215500D02*
D03*
X863000Y230500D02*
D03*
Y215500D02*
D03*
X768000Y375500D02*
D03*
Y360500D02*
D03*
X928000Y315500D02*
D03*
Y330500D02*
D03*
X788000Y276500D02*
D03*
Y261500D02*
D03*
D27*
X987750Y305000D02*
D03*
X958250D02*
D03*
X931750Y386000D02*
D03*
X902250D02*
D03*
X805250Y550000D02*
D03*
X834750D02*
D03*
D28*
X971500Y447000D02*
D03*
X956500D02*
D03*
X899500Y162000D02*
D03*
X884500D02*
D03*
X827500Y163000D02*
D03*
X812500D02*
D03*
X758500Y163000D02*
D03*
X743500D02*
D03*
X687500Y163000D02*
D03*
X672500D02*
D03*
X886500Y12000D02*
D03*
X901500D02*
D03*
X861500Y345000D02*
D03*
X876500D02*
D03*
X869500Y288000D02*
D03*
X854500D02*
D03*
Y271000D02*
D03*
X869500D02*
D03*
X670500Y13000D02*
D03*
X685500D02*
D03*
X758500Y13000D02*
D03*
X743500D02*
D03*
X812500Y12000D02*
D03*
X827500D02*
D03*
X647500Y366000D02*
D03*
X662500D02*
D03*
X861500Y328000D02*
D03*
X876500D02*
D03*
D29*
X903000Y418000D02*
D03*
X929000Y427500D02*
D03*
Y408500D02*
D03*
D30*
X633500Y343000D02*
D03*
X652500D02*
D03*
X829500Y570000D02*
D03*
X810500D02*
D03*
X909500Y446000D02*
D03*
X928500D02*
D03*
X750500Y343000D02*
D03*
X769500D02*
D03*
X741500Y32000D02*
D03*
X760500D02*
D03*
X830500Y31000D02*
D03*
X811500D02*
D03*
X903500Y31000D02*
D03*
X884500D02*
D03*
X687500Y32000D02*
D03*
X668500D02*
D03*
D31*
X929150Y264000D02*
D03*
Y259000D02*
D03*
Y249000D02*
D03*
Y244000D02*
D03*
X920850D02*
D03*
Y249000D02*
D03*
Y259000D02*
D03*
Y264000D02*
D03*
Y344000D02*
D03*
Y349000D02*
D03*
Y359000D02*
D03*
Y364000D02*
D03*
X929150D02*
D03*
Y359000D02*
D03*
Y349000D02*
D03*
Y344000D02*
D03*
D32*
Y254000D02*
D03*
X920850D02*
D03*
Y354000D02*
D03*
X929150D02*
D03*
D33*
X825000Y255000D02*
D03*
D34*
X837500Y242500D02*
D03*
Y267500D02*
D03*
X812500Y242500D02*
D03*
D35*
X840500Y247500D02*
D03*
Y252500D02*
D03*
Y257500D02*
D03*
Y262500D02*
D03*
X809500D02*
D03*
Y257500D02*
D03*
Y252500D02*
D03*
Y247500D02*
D03*
D36*
X832500Y270500D02*
D03*
X827500D02*
D03*
X822500D02*
D03*
X817500D02*
D03*
Y239500D02*
D03*
X822500D02*
D03*
X827500D02*
D03*
X832500D02*
D03*
D37*
X812500Y267500D02*
D03*
D38*
X889000Y406500D02*
D03*
Y425500D02*
D03*
D39*
X651000Y584500D02*
D03*
Y627500D02*
D03*
X770000Y626500D02*
D03*
Y583500D02*
D03*
D40*
X969500Y556450D02*
D03*
Y543750D02*
D03*
Y531050D02*
D03*
Y518350D02*
D03*
Y505650D02*
D03*
X930500Y556450D02*
D03*
Y543750D02*
D03*
Y531050D02*
D03*
Y518350D02*
D03*
Y505650D02*
D03*
D41*
X953750Y323000D02*
D03*
Y387000D02*
D03*
Y222000D02*
D03*
Y286000D02*
D03*
D42*
X978250Y367000D02*
D03*
Y343000D02*
D03*
Y266000D02*
D03*
Y242000D02*
D03*
D43*
X951500Y368000D02*
D03*
Y361500D02*
D03*
Y342000D02*
D03*
Y348500D02*
D03*
Y355000D02*
D03*
Y267000D02*
D03*
Y260500D02*
D03*
Y241000D02*
D03*
Y247500D02*
D03*
Y254000D02*
D03*
D44*
X728000Y620000D02*
D03*
X692000D02*
D03*
D45*
X70000Y60000D02*
D03*
X960000Y80000D02*
D03*
X70000Y600000D02*
D03*
X890000Y530000D02*
D03*
D83*
X964800Y259700D02*
G03*
X963400Y261100I-1400J0D01*
G01*
X963000Y263500D02*
G03*
X963000Y261100I0J-1200D01*
G01*
X963400Y263500D02*
G03*
X964800Y264900I0J1400D01*
G01*
X866333Y244200D02*
X897819D01*
X912619Y259000D02*
X916950D01*
X896618Y247100D02*
X911418Y261900D01*
X867535Y247100D02*
X896618D01*
X920850Y259000D02*
X927350D01*
X897819Y244200D02*
X912619Y259000D01*
X916950D02*
X920850D01*
X931850Y263700D02*
X932009Y263541D01*
X930950Y264000D02*
X931250Y263700D01*
X932413Y259300D02*
X933754Y260641D01*
X927350Y259000D02*
X927650Y259300D01*
X937200Y266518D02*
X941882Y271200D01*
X927650Y259300D02*
X932413D01*
X934300Y267720D02*
X940680Y274100D01*
X931250Y263700D02*
X931850D01*
X932009Y263541D02*
X933169D01*
X967700Y252599D02*
Y271581D01*
X933169Y263541D02*
X934300Y264672D01*
X933754Y260641D02*
X934370D01*
X937200Y263471D02*
Y266518D01*
X934300Y264672D02*
Y267720D01*
X934370Y260641D02*
X937200Y263471D01*
X941882Y271200D02*
X963980D01*
X940680Y274100D02*
X965181D01*
X916950Y261900D02*
X919050Y264000D01*
X911418Y261900D02*
X916950D01*
X919050Y264000D02*
X930950D01*
X879871Y336100D02*
X909050D01*
X880527Y339000D02*
X907849D01*
X911299Y342450D02*
X915919Y347070D01*
X909050Y336100D02*
X914199Y341249D01*
X907849Y339000D02*
X911299Y342450D01*
X918880Y344170D02*
X919050Y344000D01*
X914199Y341249D02*
X917120Y344170D01*
X914199Y341249D02*
Y341249D01*
X917120Y347070D02*
X919050Y349000D01*
X915919Y347070D02*
X917120D01*
X911299Y342450D02*
Y342450D01*
X917120Y344170D02*
X918880D01*
X929150Y344000D02*
X932150D01*
X919050D02*
X929150D01*
X919050Y349000D02*
X929150D01*
X933950D01*
X938545Y350322D02*
Y350338D01*
X941064Y352857D01*
X936230Y348006D02*
X938545Y350322D01*
X934944Y348006D02*
X936230D01*
X945450Y353677D02*
Y353700D01*
X944630Y352857D02*
X945450Y353677D01*
X941064Y352857D02*
X944630D01*
X945450Y353700D02*
X946750Y355000D01*
X951250D01*
X942265Y349957D02*
X945293D01*
X946750Y348500D02*
X951250D01*
X945293Y349957D02*
X946750Y348500D01*
X941445Y349120D02*
Y349137D01*
X942265Y349957D01*
X937431Y345106D02*
X941445Y349120D01*
X933950Y349000D02*
X934944Y348006D01*
X935056Y345106D02*
X937431D01*
X933950Y344000D02*
X935056Y345106D01*
X932150Y344000D02*
X933950D01*
X853397Y261238D02*
X867535Y247100D01*
X852196Y258338D02*
X866333Y244200D01*
X840500Y257500D02*
X841300Y258300D01*
X845792D02*
X845829Y258338D01*
X842300Y261700D02*
X845192D01*
X845654Y261238D02*
X853397D01*
X841300Y262700D02*
X842300Y261700D01*
X845829Y258338D02*
X852196D01*
X841300Y258300D02*
X845792D01*
X845192Y261700D02*
X845654Y261238D01*
X949250Y254000D02*
X954000D01*
X645201Y327100D02*
X847701D01*
X644000Y330000D02*
X846500D01*
X622000Y308000D02*
X644000Y330000D01*
X623201Y305100D02*
X645201Y327100D01*
X846500Y330000D02*
X854450Y337950D01*
X847701Y327100D02*
X855651Y335050D01*
X859179D01*
X854450Y337950D02*
X859179D01*
X964800Y255100D02*
Y259700D01*
X963000Y261100D02*
X963400D01*
X963000Y263500D02*
X963400D01*
X964800Y264900D02*
Y268000D01*
Y253800D02*
Y255100D01*
Y268000D02*
Y270380D01*
X964401Y249300D02*
X967700Y252599D01*
X963980Y271200D02*
X964800Y270380D01*
X963200Y252200D02*
X964800Y253800D01*
X965181Y274100D02*
X967700Y271581D01*
X955800Y252200D02*
X963200D01*
X955800Y249300D02*
X964401D01*
X954000Y254000D02*
X955800Y252200D01*
X316201Y255100D02*
X524441D01*
X878001Y334230D02*
X879871Y336100D01*
X878001Y341526D02*
X880527Y339000D01*
X878001Y341526D02*
Y343499D01*
X876500Y345000D02*
X878001Y343499D01*
X876500Y328000D02*
X878001Y329501D01*
Y334230D01*
X298000Y243400D02*
X308430D01*
X312970D02*
X323400D01*
X573240Y308000D02*
X622000D01*
X523240Y258000D02*
X573240Y308000D01*
X309250Y252250D02*
X315000Y258000D01*
X523240D01*
X308430Y243400D02*
X309250Y244220D01*
Y252250D01*
X574441Y305100D02*
X623201D01*
X524441Y255100D02*
X574441Y305100D01*
X312150Y251049D02*
X316201Y255100D01*
X312150Y244220D02*
Y251049D01*
Y244220D02*
X312970Y243400D01*
X859999Y338770D02*
Y343499D01*
X861500Y345000D01*
X859179Y335050D02*
X859999Y334230D01*
Y329501D02*
X861500Y328000D01*
X859999Y329501D02*
Y334230D01*
X859179Y337950D02*
X859999Y338770D01*
X954000Y247500D02*
X955800Y249300D01*
X348800Y192600D02*
X348800Y192600D01*
D84*
X775000Y215000D02*
D03*
Y240000D02*
D03*
D85*
X890000Y425500D02*
Y437000D01*
X894750Y403765D02*
Y412250D01*
Y403765D02*
X899515Y399000D01*
X896000Y411000D02*
X903000Y418000D01*
X899515Y399000D02*
X918750D01*
X928500Y389250D01*
Y388000D02*
X930500Y386000D01*
X928500Y388000D02*
Y389250D01*
X930500Y386000D02*
X931750D01*
X902000Y354400D02*
Y385000D01*
X898000Y350400D02*
X902000Y354400D01*
X947286Y401535D02*
X986056D01*
X935000Y389250D02*
X947286Y401535D01*
X931750Y386000D02*
X933000D01*
X935000Y388000D02*
Y389250D01*
X933000Y386000D02*
X935000Y388000D01*
X897000Y288400D02*
X913600Y305000D01*
X954000D01*
X990750Y307000D02*
Y396842D01*
X988750Y305000D02*
X990750Y307000D01*
X987000Y302944D02*
Y305000D01*
X987750D02*
X988750D01*
X986056Y401535D02*
X990750Y396842D01*
D86*
X768000Y627000D02*
X791500D01*
X724400Y571000D02*
X726000Y572600D01*
Y618000D02*
X728000Y620000D01*
X726000Y572600D02*
Y618000D01*
X728000Y620000D02*
Y624000D01*
X692000Y579624D02*
Y620000D01*
Y579624D02*
X699000Y572624D01*
Y571000D02*
Y572624D01*
X791500Y583500D02*
X792000Y584000D01*
X770000Y583500D02*
X791500D01*
X651000Y561000D02*
Y584500D01*
X692000Y620000D02*
Y625000D01*
X689500Y627500D02*
X692000Y625000D01*
X651000Y627500D02*
X689500D01*
X730500Y626500D02*
X770000D01*
X728000Y624000D02*
X730500Y626500D01*
D87*
X928901Y461532D02*
Y469901D01*
X929000Y429688D02*
Y445500D01*
X928901Y446401D02*
Y461532D01*
X892000Y409500D02*
X894750Y412250D01*
X899750Y417250D01*
X892000Y407250D02*
Y409500D01*
X859500Y406500D02*
X891250D01*
X892000Y407250D01*
X834611Y431389D02*
X859500Y406500D01*
X829000Y567750D02*
Y570000D01*
X834611Y431389D02*
Y550000D01*
X835686D02*
X836686Y551000D01*
X810000Y567750D02*
Y610000D01*
X831375Y631375D02*
X833625D01*
X810000Y610000D02*
X831375Y631375D01*
X833625D02*
X837500Y635250D01*
X806250Y564000D02*
X810000Y567750D01*
X805180Y555954D02*
Y564000D01*
X806250D01*
X836686Y551000D02*
Y562314D01*
X829000Y567750D02*
X829750Y567000D01*
X832000D01*
X836686Y562314D01*
X898000Y446000D02*
X906300D01*
D88*
X931379Y409000D02*
X940000D01*
X914271Y215000D02*
X914771Y215500D01*
X914000Y215000D02*
X914271D01*
X914771Y215500D02*
X927000D01*
X974000Y447000D02*
X986000D01*
X900349Y323760D02*
Y324651D01*
X908429Y315680D02*
X927680D01*
X900349Y323760D02*
X908429Y315680D01*
D89*
X897000Y263000D02*
D03*
X699000Y571000D02*
D03*
X272600Y425200D02*
D03*
X898000Y325000D02*
D03*
X272600Y239400D02*
D03*
X740000Y285000D02*
D03*
X602800Y192600D02*
D03*
Y167200D02*
D03*
Y141800D02*
D03*
Y116400D02*
D03*
Y91000D02*
D03*
Y65600D02*
D03*
X603000Y497000D02*
D03*
Y523000D02*
D03*
Y548000D02*
D03*
X602800Y576104D02*
D03*
Y600750D02*
D03*
Y14800D02*
D03*
Y40200D02*
D03*
Y624000D02*
D03*
Y649800D02*
D03*
X577400Y497400D02*
D03*
X603000Y472000D02*
D03*
X18600Y91000D02*
D03*
X44000D02*
D03*
X69400D02*
D03*
X18600Y116400D02*
D03*
X44000D02*
D03*
X69400D02*
D03*
X18600Y446600D02*
D03*
Y472000D02*
D03*
Y345000D02*
D03*
Y319600D02*
D03*
Y421200D02*
D03*
Y395800D02*
D03*
Y370400D02*
D03*
Y218000D02*
D03*
Y192600D02*
D03*
Y294200D02*
D03*
Y268800D02*
D03*
Y243400D02*
D03*
X44000Y268800D02*
D03*
X69400Y294200D02*
D03*
X44000D02*
D03*
X69400Y218000D02*
D03*
Y243400D02*
D03*
Y268800D02*
D03*
Y192600D02*
D03*
X44000Y243400D02*
D03*
Y218000D02*
D03*
Y192600D02*
D03*
X69400Y141800D02*
D03*
X44000D02*
D03*
X69400Y319600D02*
D03*
Y345000D02*
D03*
X44000D02*
D03*
Y319600D02*
D03*
Y370400D02*
D03*
Y395800D02*
D03*
Y421200D02*
D03*
X69400D02*
D03*
Y395800D02*
D03*
Y370400D02*
D03*
X44000Y446600D02*
D03*
X69400D02*
D03*
X44000Y472000D02*
D03*
X69400D02*
D03*
X18600Y548200D02*
D03*
Y522800D02*
D03*
Y497400D02*
D03*
X44000Y548200D02*
D03*
Y522800D02*
D03*
Y497400D02*
D03*
X69400D02*
D03*
Y522800D02*
D03*
Y548200D02*
D03*
Y167200D02*
D03*
Y573600D02*
D03*
X44000D02*
D03*
Y167200D02*
D03*
X18600Y573600D02*
D03*
Y167200D02*
D03*
Y141800D02*
D03*
X577400Y192600D02*
D03*
X298000Y472000D02*
D03*
X552000Y192600D02*
D03*
X323400Y472000D02*
D03*
X526600Y192600D02*
D03*
X348800Y472000D02*
D03*
X501200Y192600D02*
D03*
X374200Y472000D02*
D03*
X475800Y192600D02*
D03*
X399600Y472000D02*
D03*
X450400Y192600D02*
D03*
X425000Y472000D02*
D03*
Y192600D02*
D03*
X450400Y472000D02*
D03*
X399600Y192600D02*
D03*
X475800Y472000D02*
D03*
X374200Y192600D02*
D03*
X501200Y472000D02*
D03*
X348800Y192600D02*
D03*
X526600Y472000D02*
D03*
X552000D02*
D03*
X577400D02*
D03*
X247200Y268800D02*
D03*
Y294200D02*
D03*
Y319600D02*
D03*
X221800Y345000D02*
D03*
X247200Y370400D02*
D03*
Y395800D02*
D03*
X221800Y268800D02*
D03*
Y294200D02*
D03*
Y319600D02*
D03*
X247200Y345000D02*
D03*
X221800Y370400D02*
D03*
Y395800D02*
D03*
X94800Y141800D02*
D03*
Y167200D02*
D03*
Y599000D02*
D03*
X171000Y472000D02*
D03*
X94800Y573600D02*
D03*
X196400Y472000D02*
D03*
X171000Y573600D02*
D03*
X196400D02*
D03*
X171000Y599000D02*
D03*
X196400D02*
D03*
Y167200D02*
D03*
X171000D02*
D03*
X120200D02*
D03*
Y599000D02*
D03*
Y573600D02*
D03*
X145600D02*
D03*
Y599000D02*
D03*
Y167200D02*
D03*
X247200D02*
D03*
Y599000D02*
D03*
Y573600D02*
D03*
X221800D02*
D03*
Y599000D02*
D03*
Y167200D02*
D03*
X272600D02*
D03*
X298000Y599000D02*
D03*
X272600D02*
D03*
X298000Y573600D02*
D03*
X272600D02*
D03*
X374200D02*
D03*
X399600D02*
D03*
X374200Y599000D02*
D03*
X399600D02*
D03*
Y167200D02*
D03*
X374200D02*
D03*
X323400Y599000D02*
D03*
Y573600D02*
D03*
X348800D02*
D03*
Y599000D02*
D03*
Y167200D02*
D03*
X450400D02*
D03*
Y599000D02*
D03*
Y573600D02*
D03*
X425000D02*
D03*
Y599000D02*
D03*
Y167200D02*
D03*
X475800D02*
D03*
X501200D02*
D03*
Y599000D02*
D03*
X475800D02*
D03*
X501200Y573600D02*
D03*
X475800D02*
D03*
X577400D02*
D03*
Y599000D02*
D03*
Y167200D02*
D03*
X526600D02*
D03*
Y599000D02*
D03*
Y573600D02*
D03*
X552000D02*
D03*
Y599000D02*
D03*
Y167200D02*
D03*
X145600Y548200D02*
D03*
Y522800D02*
D03*
Y497400D02*
D03*
X120200D02*
D03*
Y522800D02*
D03*
Y548200D02*
D03*
X171000D02*
D03*
X196400D02*
D03*
Y522800D02*
D03*
X171000D02*
D03*
X196400Y497400D02*
D03*
X171000D02*
D03*
X272600Y472000D02*
D03*
X94800Y497400D02*
D03*
X247200Y472000D02*
D03*
X94800Y522800D02*
D03*
Y548200D02*
D03*
X221800Y472000D02*
D03*
X348800Y548200D02*
D03*
Y522800D02*
D03*
Y497400D02*
D03*
X323400D02*
D03*
Y522800D02*
D03*
Y548200D02*
D03*
X374200D02*
D03*
X399600D02*
D03*
Y522800D02*
D03*
X374200D02*
D03*
X399600Y497400D02*
D03*
X374200D02*
D03*
X272600D02*
D03*
X298000D02*
D03*
X272600Y522800D02*
D03*
X298000D02*
D03*
Y548200D02*
D03*
X272600D02*
D03*
X221800D02*
D03*
Y522800D02*
D03*
Y497400D02*
D03*
X247200D02*
D03*
Y522800D02*
D03*
Y548200D02*
D03*
X552000D02*
D03*
Y522800D02*
D03*
Y497400D02*
D03*
X526600D02*
D03*
Y522800D02*
D03*
Y548200D02*
D03*
X577400D02*
D03*
Y522800D02*
D03*
X475800Y497400D02*
D03*
X501200D02*
D03*
X475800Y522800D02*
D03*
X501200D02*
D03*
Y548200D02*
D03*
X475800D02*
D03*
X425000D02*
D03*
Y522800D02*
D03*
Y497400D02*
D03*
X450400D02*
D03*
Y522800D02*
D03*
Y548200D02*
D03*
X145600Y472000D02*
D03*
X120200D02*
D03*
X145600Y446600D02*
D03*
X120200D02*
D03*
X145600Y370400D02*
D03*
Y395800D02*
D03*
Y421200D02*
D03*
X120200D02*
D03*
Y395800D02*
D03*
Y370400D02*
D03*
Y319600D02*
D03*
Y345000D02*
D03*
X145600D02*
D03*
Y319600D02*
D03*
X120200Y141800D02*
D03*
Y116400D02*
D03*
X196400Y141800D02*
D03*
X171000D02*
D03*
X145600D02*
D03*
Y116400D02*
D03*
X171000D02*
D03*
X196400D02*
D03*
X247200D02*
D03*
X221800D02*
D03*
Y141800D02*
D03*
X247200D02*
D03*
X120200Y91000D02*
D03*
Y65600D02*
D03*
X196400Y91000D02*
D03*
X171000D02*
D03*
X145600D02*
D03*
Y65600D02*
D03*
X171000D02*
D03*
X196400D02*
D03*
X247200D02*
D03*
X221800D02*
D03*
Y91000D02*
D03*
X247200D02*
D03*
X399600D02*
D03*
X374200D02*
D03*
Y65600D02*
D03*
X399600D02*
D03*
X348800D02*
D03*
X323400D02*
D03*
X298000D02*
D03*
Y91000D02*
D03*
X323400D02*
D03*
X348800D02*
D03*
X272600Y65600D02*
D03*
Y91000D02*
D03*
X399600Y141800D02*
D03*
X374200D02*
D03*
Y116400D02*
D03*
X399600D02*
D03*
X348800D02*
D03*
X323400D02*
D03*
X298000D02*
D03*
Y141800D02*
D03*
X323400D02*
D03*
X348800D02*
D03*
X272600Y116400D02*
D03*
Y141800D02*
D03*
X552000Y91000D02*
D03*
X526600D02*
D03*
Y65600D02*
D03*
X552000D02*
D03*
X501200D02*
D03*
X475800D02*
D03*
X450400D02*
D03*
Y91000D02*
D03*
X475800D02*
D03*
X501200D02*
D03*
X425000Y65600D02*
D03*
Y91000D02*
D03*
X552000Y141800D02*
D03*
X526600D02*
D03*
Y116400D02*
D03*
X552000D02*
D03*
X501200D02*
D03*
X475800D02*
D03*
X450400D02*
D03*
Y141800D02*
D03*
X475800D02*
D03*
X501200D02*
D03*
X425000Y116400D02*
D03*
Y141800D02*
D03*
X577400Y116400D02*
D03*
Y141800D02*
D03*
Y65600D02*
D03*
Y91000D02*
D03*
X94800Y65600D02*
D03*
Y91000D02*
D03*
Y116400D02*
D03*
X120200Y192600D02*
D03*
Y218000D02*
D03*
Y243400D02*
D03*
X196400Y192600D02*
D03*
X171000D02*
D03*
X145600D02*
D03*
Y268800D02*
D03*
Y243400D02*
D03*
Y218000D02*
D03*
X221800Y192600D02*
D03*
X247200D02*
D03*
X221800Y218000D02*
D03*
X171000D02*
D03*
X196400D02*
D03*
X221800Y243400D02*
D03*
X171000D02*
D03*
X196400D02*
D03*
X171000Y319600D02*
D03*
Y268800D02*
D03*
Y294200D02*
D03*
Y395800D02*
D03*
Y446600D02*
D03*
Y421200D02*
D03*
X221800Y446600D02*
D03*
X196400D02*
D03*
X221800Y421200D02*
D03*
X196400D02*
D03*
X171000Y370400D02*
D03*
Y345000D02*
D03*
X120200Y294200D02*
D03*
X145600D02*
D03*
X120200Y268800D02*
D03*
X94800Y243400D02*
D03*
Y268800D02*
D03*
Y294200D02*
D03*
Y192600D02*
D03*
Y218000D02*
D03*
Y370400D02*
D03*
Y395800D02*
D03*
Y421200D02*
D03*
Y319600D02*
D03*
Y345000D02*
D03*
Y472000D02*
D03*
Y446600D02*
D03*
X323400Y192600D02*
D03*
X298000D02*
D03*
Y167200D02*
D03*
X323400D02*
D03*
X552000Y624400D02*
D03*
X526600D02*
D03*
X577400D02*
D03*
X475800D02*
D03*
X501200D02*
D03*
X425000D02*
D03*
X450400D02*
D03*
X348800D02*
D03*
X323400D02*
D03*
X399600D02*
D03*
X374200D02*
D03*
X272600D02*
D03*
X298000D02*
D03*
X221800D02*
D03*
X247200D02*
D03*
X145600D02*
D03*
X120200D02*
D03*
X196400D02*
D03*
X171000D02*
D03*
X94800D02*
D03*
X552000Y649800D02*
D03*
X526600D02*
D03*
X577400D02*
D03*
X475800D02*
D03*
X501200D02*
D03*
X425000D02*
D03*
X450400D02*
D03*
X348800D02*
D03*
X323400D02*
D03*
X399600D02*
D03*
X374200D02*
D03*
X272600D02*
D03*
X298000D02*
D03*
X221800D02*
D03*
X247200D02*
D03*
X145600D02*
D03*
X120200D02*
D03*
X196400D02*
D03*
X171000D02*
D03*
X94800D02*
D03*
X552000Y40200D02*
D03*
X526600D02*
D03*
X577400D02*
D03*
X475800D02*
D03*
X501200D02*
D03*
X425000D02*
D03*
X450400D02*
D03*
X348800D02*
D03*
X323400D02*
D03*
X399600D02*
D03*
X374200D02*
D03*
X272600D02*
D03*
X298000D02*
D03*
X221800D02*
D03*
X247200D02*
D03*
X145600D02*
D03*
X120200D02*
D03*
X196400D02*
D03*
X171000D02*
D03*
X94800D02*
D03*
X552000Y14800D02*
D03*
X526600D02*
D03*
X577400D02*
D03*
X475800D02*
D03*
X501200D02*
D03*
X425000D02*
D03*
X450400D02*
D03*
X348800D02*
D03*
X323400D02*
D03*
X399600D02*
D03*
X374200D02*
D03*
X272600D02*
D03*
X298000D02*
D03*
X221800D02*
D03*
X247200D02*
D03*
X145600D02*
D03*
X120200D02*
D03*
X196400D02*
D03*
X171000D02*
D03*
X94800D02*
D03*
X196400Y345000D02*
D03*
Y370400D02*
D03*
Y395800D02*
D03*
Y294200D02*
D03*
Y268800D02*
D03*
Y319600D02*
D03*
X247200Y421200D02*
D03*
Y446600D02*
D03*
Y218000D02*
D03*
Y243400D02*
D03*
X272600Y218000D02*
D03*
Y446600D02*
D03*
D90*
X897000Y288400D02*
D03*
X898000Y350400D02*
D03*
X740000Y259600D02*
D03*
D91*
X800000Y385000D02*
D03*
X825000D02*
D03*
X850000D02*
D03*
X710000D02*
D03*
X685000D02*
D03*
X660000D02*
D03*
D92*
X781000Y455000D02*
D03*
X869000D02*
D03*
X729000D02*
D03*
X641000D02*
D03*
D93*
X552000Y370400D02*
D03*
X348800Y425200D02*
D03*
X425000D02*
D03*
X526600D02*
D03*
X552000D02*
D03*
X501200D02*
D03*
X475800D02*
D03*
X450400D02*
D03*
X399600D02*
D03*
X374200D02*
D03*
X323400D02*
D03*
X298000D02*
D03*
X323400Y395800D02*
D03*
Y370400D02*
D03*
Y345000D02*
D03*
Y294200D02*
D03*
Y319600D02*
D03*
X577400Y239400D02*
D03*
X552000D02*
D03*
X501200D02*
D03*
X475800D02*
D03*
X425000D02*
D03*
X399600D02*
D03*
X374200D02*
D03*
X323400D02*
D03*
X348800D02*
D03*
X450400D02*
D03*
X526600D02*
D03*
X578400Y319600D02*
D03*
Y294200D02*
D03*
Y345000D02*
D03*
Y370400D02*
D03*
Y395800D02*
D03*
X298000D02*
D03*
Y370400D02*
D03*
Y345000D02*
D03*
Y294200D02*
D03*
Y319600D02*
D03*
D94*
X552000Y395800D02*
D03*
X323400Y268800D02*
D03*
X578400D02*
D03*
X298000D02*
D03*
D95*
X577400Y425200D02*
D03*
X298000Y239400D02*
D03*
D96*
X724400Y571000D02*
D03*
D97*
X950000Y550100D02*
D03*
Y512000D02*
D03*
D98*
X978250Y322000D02*
D03*
Y388000D02*
D03*
Y221000D02*
D03*
Y287000D02*
D03*
D99*
X837500Y635250D02*
D03*
D100*
X862500D02*
D03*
D101*
X960000Y630000D02*
D03*
X40000D02*
D03*
Y40000D02*
D03*
X960000D02*
D03*
D102*
X913000Y354000D02*
D03*
X940000Y409000D02*
D03*
X914000Y215000D02*
D03*
X937000Y254000D02*
D03*
X890000Y437000D02*
D03*
X986000Y447000D02*
D03*
X928901Y461532D02*
D03*
X929000Y470000D02*
D03*
X985000Y607000D02*
D03*
X933000Y655000D02*
D03*
X985000Y655000D02*
D03*
X788000Y253000D02*
D03*
X827000Y314000D02*
D03*
X862000Y310000D02*
D03*
X909000Y162000D02*
D03*
X837000Y163000D02*
D03*
X768000D02*
D03*
X698000D02*
D03*
X915965Y182188D02*
D03*
X709129Y152361D02*
D03*
X720271Y314500D02*
D03*
X850775Y252404D02*
D03*
X799706Y262383D02*
D03*
X898000Y446000D02*
D03*
X880000Y239000D02*
D03*
X852000Y216000D02*
D03*
X702250Y184000D02*
D03*
X939750Y361331D02*
D03*
X989105Y10500D02*
D03*
X934000Y12000D02*
D03*
X989000Y50000D02*
D03*
X15000Y10000D02*
D03*
Y75000D02*
D03*
X70000Y10000D02*
D03*
X10000Y600000D02*
D03*
X75000Y655000D02*
D03*
X10000D02*
D03*
X842051Y182997D02*
D03*
X847000Y312000D02*
D03*
X658028Y208715D02*
D03*
X658101Y321016D02*
D03*
X894580Y41811D02*
D03*
X928407Y53623D02*
D03*
X856352Y53544D02*
D03*
X785174Y54661D02*
D03*
X714715Y54741D02*
D03*
X928256Y134439D02*
D03*
X857225Y134439D02*
D03*
X785868Y135355D02*
D03*
X751901Y43690D02*
D03*
X714478Y135381D02*
D03*
X830500Y42000D02*
D03*
X688000Y43000D02*
D03*
X987000Y464000D02*
D03*
X791500Y627000D02*
D03*
X671000Y366000D02*
D03*
X940558Y373854D02*
D03*
X791500Y583500D02*
D03*
X651000Y561000D02*
D03*
X854500Y298500D02*
D03*
X633000Y386000D02*
D03*
X750000D02*
D03*
X989127Y505880D02*
D03*
Y518580D02*
D03*
X989050Y531050D02*
D03*
X989450Y556450D02*
D03*
X910550D02*
D03*
X910950Y531050D02*
D03*
X911350Y518350D02*
D03*
X911350Y505650D02*
D03*
X883000Y134250D02*
D03*
X811000Y134250D02*
D03*
X740000Y135250D02*
D03*
X669000Y135250D02*
D03*
X776500Y304500D02*
D03*
X881000Y271000D02*
D03*
Y288000D02*
D03*
X913000Y12000D02*
D03*
X839000Y12000D02*
D03*
X770000Y13000D02*
D03*
X697000Y13000D02*
D03*
M02*
