G04*
G04 #@! TF.GenerationSoftware,Altium Limited,Altium Designer,24.3.1 (35)*
G04*
G04 Layer_Color=2752767*
%FSLAX44Y44*%
%MOMM*%
G71*
G04*
G04 #@! TF.SameCoordinates,D3561438-4DE8-4D87-AEC0-D3123FBB7C78*
G04*
G04*
G04 #@! TF.FilePolarity,Positive*
G04*
G01*
G75*
%ADD12C,0.2540*%
%ADD16C,0.1500*%
%ADD103C,0.0508*%
%ADD104C,0.3810*%
%ADD105C,0.4064*%
%ADD106C,0.3556*%
D12*
X1072539Y-7508D02*
G03*
X1072539Y-7508I-5364J0D01*
G01*
X1061811Y158771D02*
X1064493D01*
X1061811D02*
Y164135D01*
X1064493D01*
Y166817D01*
X1069856D01*
Y164135D02*
Y166817D01*
Y164135D02*
X1072539D01*
Y158771D02*
Y164135D01*
X1069856Y158771D02*
X1072539D01*
X1069856Y156089D02*
Y158771D01*
X1064493Y156089D02*
X1069856D01*
X1064493D02*
Y158771D01*
X1061811Y137316D02*
X1067175Y131952D01*
X1072539Y137316D01*
X1067175Y142680D02*
X1072539Y137316D01*
X1061811D02*
X1067175Y142680D01*
X1061811Y107815D02*
X1067175Y110497D01*
X1072539Y107815D01*
X1069856Y113179D02*
X1072539Y107815D01*
X1069856Y113179D02*
X1072539Y118542D01*
X1067175Y115861D02*
X1072539Y118542D01*
X1061811D02*
X1067175Y115861D01*
X1061811Y118542D02*
X1064493Y113179D01*
X1061811Y107815D02*
X1064493Y113179D01*
Y86359D02*
X1067175Y83677D01*
X1061811Y86359D02*
X1064493D01*
X1061811D02*
X1064493Y89041D01*
X1061811Y91723D02*
X1064493Y89041D01*
X1061811Y91723D02*
X1064493D01*
X1067175Y94405D01*
X1069856Y91723D01*
X1072539D01*
X1069856Y89041D02*
X1072539Y91723D01*
X1069856Y89041D02*
X1072539Y86359D01*
X1069856D02*
X1072539D01*
X1067175Y83677D02*
X1069856Y86359D01*
X1061811Y59540D02*
Y62222D01*
X1064493Y64904D01*
X1061811Y67586D02*
X1064493Y64904D01*
X1061811Y67586D02*
Y70268D01*
X1064493D01*
X1067175Y67586D01*
X1069856Y70268D01*
X1072539D01*
Y67586D02*
Y70268D01*
X1069856Y64904D02*
X1072539Y67586D01*
X1069856Y64904D02*
X1072539Y62222D01*
Y59540D02*
Y62222D01*
X1069856Y59540D02*
X1072539D01*
X1067175Y62222D02*
X1069856Y59540D01*
X1064493D02*
X1067175Y62222D01*
X1061811Y59540D02*
X1064493D01*
X1061811Y35403D02*
X1072539D01*
Y46130D01*
X1061811D02*
X1072539D01*
X1061811Y35403D02*
Y46130D01*
X1067175Y11265D02*
X1072539Y21993D01*
X1061811D02*
X1072539D01*
X1061811D02*
X1067175Y11265D01*
X2459915Y160915D02*
X2466350D01*
X2459915Y139995D02*
X2461524Y141604D01*
X2464741D01*
X2466350Y139995D01*
Y133561D01*
X2464741Y131952D01*
X2461524D01*
X2459915Y133561D01*
Y139995D01*
X2469567Y131952D02*
Y133561D01*
X2471176D01*
Y131952D01*
X2469567D01*
X2477610Y141604D02*
X2484045D01*
Y139995D01*
X2477610Y133561D01*
Y131952D01*
X2487262Y139995D02*
X2488871Y141604D01*
X2492088D01*
X2493697Y139995D01*
Y133561D01*
X2492088Y131952D01*
X2488871D01*
X2487262Y133561D01*
Y139995D01*
X2496914D02*
X2498523Y141604D01*
X2501740D01*
X2503349Y139995D01*
Y133561D01*
X2501740Y131952D01*
X2498523D01*
X2496914Y133561D01*
Y139995D01*
X2506566Y131952D02*
Y138387D01*
X2508174D01*
X2509783Y136778D01*
Y131952D01*
Y136778D01*
X2511392Y138387D01*
X2513000Y136778D01*
Y131952D01*
X2516218D02*
Y138387D01*
X2517826D01*
X2519435Y136778D01*
Y131952D01*
Y136778D01*
X2521044Y138387D01*
X2522652Y136778D01*
Y131952D01*
X2538739D02*
X2535521Y135169D01*
Y138387D01*
X2538739Y141604D01*
X2549999Y131952D02*
X2543564D01*
X2549999Y138387D01*
Y139995D01*
X2548390Y141604D01*
X2545173D01*
X2543564Y139995D01*
X2553216Y141604D02*
X2559651D01*
Y139995D01*
X2553216Y133561D01*
Y131952D01*
X2562868D02*
Y133561D01*
X2564477D01*
Y131952D01*
X2562868D01*
X2577346Y141604D02*
X2570911D01*
Y136778D01*
X2574129Y138387D01*
X2575737D01*
X2577346Y136778D01*
Y133561D01*
X2575737Y131952D01*
X2572520D01*
X2570911Y133561D01*
X2586998Y141604D02*
X2583781Y139995D01*
X2580563Y136778D01*
Y133561D01*
X2582172Y131952D01*
X2585389D01*
X2586998Y133561D01*
Y135169D01*
X2585389Y136778D01*
X2580563D01*
X2590215Y131952D02*
Y138387D01*
X2591824D01*
X2593432Y136778D01*
Y131952D01*
Y136778D01*
X2595041Y138387D01*
X2596649Y136778D01*
Y131952D01*
X2599867D02*
X2603084D01*
X2601476D01*
Y138387D01*
X2599867D01*
X2607910Y131952D02*
X2611127D01*
X2609519D01*
Y141604D01*
X2607910D01*
X2615953Y131952D02*
X2619171Y135169D01*
Y138387D01*
X2615953Y141604D01*
X2459915Y112641D02*
X2466350D01*
X2459915Y88503D02*
X2466350D01*
X2459915Y64366D02*
X2466350D01*
X2459915Y40229D02*
X2466350D01*
X2459915Y16091D02*
X2466350D01*
X2459915Y-8046D02*
X2466350D01*
X2282706Y160915D02*
X2289141D01*
X2282706Y131952D02*
X2285924D01*
X2284315D01*
Y141604D01*
X2282706Y139995D01*
X2290750Y131952D02*
Y133561D01*
X2292358D01*
Y131952D01*
X2290750D01*
X2305227D02*
X2298793D01*
X2305227Y138387D01*
Y139995D01*
X2303619Y141604D01*
X2300401D01*
X2298793Y139995D01*
X2308445D02*
X2310053Y141604D01*
X2313271D01*
X2314879Y139995D01*
Y133561D01*
X2313271Y131952D01*
X2310053D01*
X2308445Y133561D01*
Y139995D01*
X2318096D02*
X2319705Y141604D01*
X2322922D01*
X2324531Y139995D01*
Y133561D01*
X2322922Y131952D01*
X2319705D01*
X2318096Y133561D01*
Y139995D01*
X2327748Y131952D02*
Y138387D01*
X2329357D01*
X2330966Y136778D01*
Y131952D01*
Y136778D01*
X2332574Y138387D01*
X2334183Y136778D01*
Y131952D01*
X2337400D02*
Y138387D01*
X2339009D01*
X2340617Y136778D01*
Y131952D01*
Y136778D01*
X2342226Y138387D01*
X2343835Y136778D01*
Y131952D01*
X2359921D02*
X2356704Y135169D01*
Y138387D01*
X2359921Y141604D01*
X2369573Y131952D02*
Y141604D01*
X2364747Y136778D01*
X2371181D01*
X2374399Y141604D02*
X2380833D01*
Y139995D01*
X2374399Y133561D01*
Y131952D01*
X2384051D02*
Y133561D01*
X2385659D01*
Y131952D01*
X2384051D01*
X2398528D02*
X2392094D01*
X2398528Y138387D01*
Y139995D01*
X2396920Y141604D01*
X2393702D01*
X2392094Y139995D01*
X2406572Y131952D02*
Y141604D01*
X2401746Y136778D01*
X2408180D01*
X2411397Y131952D02*
Y138387D01*
X2413006D01*
X2414615Y136778D01*
Y131952D01*
Y136778D01*
X2416223Y138387D01*
X2417832Y136778D01*
Y131952D01*
X2421049D02*
X2424267D01*
X2422658D01*
Y138387D01*
X2421049D01*
X2429092Y131952D02*
X2432310D01*
X2430701D01*
Y141604D01*
X2429092D01*
X2437136Y131952D02*
X2440353Y135169D01*
Y138387D01*
X2437136Y141604D01*
X2282706Y112641D02*
X2289141D01*
X2282706Y88503D02*
X2289141D01*
X2282706Y64366D02*
X2289141D01*
X2282706Y40229D02*
X2289141D01*
X2282706Y16091D02*
X2289141D01*
X2282706Y-8046D02*
X2289141D01*
X2108715Y156089D02*
X2105498Y159307D01*
Y162524D01*
X2108715Y165741D01*
X2113541Y156089D02*
Y165741D01*
X2116758Y162524D01*
X2119975Y165741D01*
Y156089D01*
X2123193D02*
X2126410D01*
X2124801D01*
Y162524D01*
X2123193D01*
X2131236D02*
X2137670Y156089D01*
X2134453Y159307D01*
X2137670Y162524D01*
X2131236Y156089D01*
X2145714D02*
X2142496D01*
X2140888Y157698D01*
Y160915D01*
X2142496Y162524D01*
X2145714D01*
X2147322Y160915D01*
Y159307D01*
X2140888D01*
X2156974Y165741D02*
Y156089D01*
X2152148D01*
X2150539Y157698D01*
Y160915D01*
X2152148Y162524D01*
X2156974D01*
X2160191Y156089D02*
X2163409Y159307D01*
Y162524D01*
X2160191Y165741D01*
X2105498Y138387D02*
Y131952D01*
Y135169D01*
X2107106Y136778D01*
X2108715Y138387D01*
X2110323D01*
X2115149Y131952D02*
X2118367D01*
X2116758D01*
Y141604D01*
X2115149Y139995D01*
X2129627Y141604D02*
X2126410Y139995D01*
X2123193Y136778D01*
Y133561D01*
X2124801Y131952D01*
X2128018D01*
X2129627Y133561D01*
Y135169D01*
X2128018Y136778D01*
X2123193D01*
X2132844Y139995D02*
X2134453Y141604D01*
X2137670D01*
X2139279Y139995D01*
Y133561D01*
X2137670Y131952D01*
X2134453D01*
X2132844Y133561D01*
Y139995D01*
X2142496Y130344D02*
X2148931D01*
X2152148Y133561D02*
X2153757Y131952D01*
X2156974D01*
X2158583Y133561D01*
Y139995D01*
X2156974Y141604D01*
X2153757D01*
X2152148Y139995D01*
Y138387D01*
X2153757Y136778D01*
X2158583D01*
X2161800Y139995D02*
X2163409Y141604D01*
X2166626D01*
X2168234Y139995D01*
Y133561D01*
X2166626Y131952D01*
X2163409D01*
X2161800Y133561D01*
Y139995D01*
X2171452Y141604D02*
Y131952D01*
Y136778D01*
X2173060Y138387D01*
X2176278D01*
X2177886Y136778D01*
Y131952D01*
X2187538Y141604D02*
X2181104D01*
Y136778D01*
X2184321Y138387D01*
X2185930D01*
X2187538Y136778D01*
Y133561D01*
X2185930Y131952D01*
X2182712D01*
X2181104Y133561D01*
X2190755Y139995D02*
X2192364Y141604D01*
X2195581D01*
X2197190Y139995D01*
Y133561D01*
X2195581Y131952D01*
X2192364D01*
X2190755Y133561D01*
Y139995D01*
X2200407Y130344D02*
X2206842D01*
X2210059Y131952D02*
X2213276D01*
X2211668D01*
Y141604D01*
X2210059Y139995D01*
X2224537Y131952D02*
X2218102D01*
X2224537Y138387D01*
Y139995D01*
X2222928Y141604D01*
X2219711D01*
X2218102Y139995D01*
X2227754D02*
X2229363Y141604D01*
X2232580D01*
X2234189Y139995D01*
Y133561D01*
X2232580Y131952D01*
X2229363D01*
X2227754Y133561D01*
Y139995D01*
X2237406Y138387D02*
Y131952D01*
Y135169D01*
X2239014Y136778D01*
X2240623Y138387D01*
X2242232D01*
X2251884Y131952D02*
Y141604D01*
X2247058Y136778D01*
X2253492D01*
X2263144Y141604D02*
X2256709D01*
Y136778D01*
X2259927Y138387D01*
X2261535D01*
X2263144Y136778D01*
Y133561D01*
X2261535Y131952D01*
X2258318D01*
X2256709Y133561D01*
X2111932Y114249D02*
X2107106D01*
X2105498Y112641D01*
Y109423D01*
X2107106Y107815D01*
X2111932D01*
X2115149Y115858D02*
X2116758Y117466D01*
X2119975D01*
X2121584Y115858D01*
Y114249D01*
X2119975Y112641D01*
X2118367D01*
X2119975D01*
X2121584Y111032D01*
Y109423D01*
X2119975Y107815D01*
X2116758D01*
X2115149Y109423D01*
X2131236Y107815D02*
X2124801D01*
X2131236Y114249D01*
Y115858D01*
X2129627Y117466D01*
X2126410D01*
X2124801Y115858D01*
X2140888Y107815D02*
X2134453D01*
X2140888Y114249D01*
Y115858D01*
X2139279Y117466D01*
X2136062D01*
X2134453Y115858D01*
X2144105Y117466D02*
Y107815D01*
Y112641D01*
X2145714Y114249D01*
X2148931D01*
X2150539Y112641D01*
Y107815D01*
X2160191D02*
X2153757D01*
X2160191Y114249D01*
Y115858D01*
X2158583Y117466D01*
X2155365D01*
X2153757Y115858D01*
X2169843Y107815D02*
X2163409D01*
X2169843Y114249D01*
Y115858D01*
X2168234Y117466D01*
X2165017D01*
X2163409Y115858D01*
X2173060D02*
X2174669Y117466D01*
X2177886D01*
X2179495Y115858D01*
Y109423D01*
X2177886Y107815D01*
X2174669D01*
X2173060Y109423D01*
Y115858D01*
X2111932Y90112D02*
X2107106D01*
X2105498Y88503D01*
Y85286D01*
X2107106Y83677D01*
X2111932D01*
X2119975D02*
Y93329D01*
X2115149Y88503D01*
X2121584D01*
X2131236Y83677D02*
X2124801D01*
X2131236Y90112D01*
Y91721D01*
X2129627Y93329D01*
X2126410D01*
X2124801Y91721D01*
X2134453D02*
X2136062Y93329D01*
X2139279D01*
X2140888Y91721D01*
Y85286D01*
X2139279Y83677D01*
X2136062D01*
X2134453Y85286D01*
Y91721D01*
X2144105Y93329D02*
Y83677D01*
Y88503D01*
X2145714Y90112D01*
X2148931D01*
X2150539Y88503D01*
Y83677D01*
X2160191D02*
X2153757D01*
X2160191Y90112D01*
Y91721D01*
X2158583Y93329D01*
X2155365D01*
X2153757Y91721D01*
X2169843Y93329D02*
X2166626Y91721D01*
X2163409Y88503D01*
Y85286D01*
X2165017Y83677D01*
X2168234D01*
X2169843Y85286D01*
Y86895D01*
X2168234Y88503D01*
X2163409D01*
X2173060Y91721D02*
X2174669Y93329D01*
X2177886D01*
X2179495Y91721D01*
Y85286D01*
X2177886Y83677D01*
X2174669D01*
X2173060Y85286D01*
Y91721D01*
X2108715Y59540D02*
X2105498Y62757D01*
Y65974D01*
X2108715Y69192D01*
X2113541Y59540D02*
Y69192D01*
X2116758Y65974D01*
X2119975Y69192D01*
Y59540D01*
X2123193D02*
X2126410D01*
X2124801D01*
Y65974D01*
X2123193D01*
X2131236D02*
X2137670Y59540D01*
X2134453Y62757D01*
X2137670Y65974D01*
X2131236Y59540D01*
X2145714D02*
X2142496D01*
X2140888Y61149D01*
Y64366D01*
X2142496Y65974D01*
X2145714D01*
X2147322Y64366D01*
Y62757D01*
X2140888D01*
X2156974Y69192D02*
Y59540D01*
X2152148D01*
X2150539Y61149D01*
Y64366D01*
X2152148Y65974D01*
X2156974D01*
X2160191Y59540D02*
X2163409Y62757D01*
Y65974D01*
X2160191Y69192D01*
X2111932Y41837D02*
X2107106D01*
X2105498Y40229D01*
Y37011D01*
X2107106Y35403D01*
X2111932D01*
X2115149D02*
X2118367D01*
X2116758D01*
Y45054D01*
X2115149Y43446D01*
X2129627Y45054D02*
X2126410Y43446D01*
X2123193Y40229D01*
Y37011D01*
X2124801Y35403D01*
X2128018D01*
X2129627Y37011D01*
Y38620D01*
X2128018Y40229D01*
X2123193D01*
X2132844Y43446D02*
X2134453Y45054D01*
X2137670D01*
X2139279Y43446D01*
Y37011D01*
X2137670Y35403D01*
X2134453D01*
X2132844Y37011D01*
Y43446D01*
X2142496Y45054D02*
Y35403D01*
Y40229D01*
X2144105Y41837D01*
X2147322D01*
X2148931Y40229D01*
Y35403D01*
X2152148D02*
X2155365D01*
X2153757D01*
Y45054D01*
X2152148Y43446D01*
X2160191Y35403D02*
X2163409D01*
X2161800D01*
Y45054D01*
X2160191Y43446D01*
X2168234D02*
X2169843Y45054D01*
X2173060D01*
X2174669Y43446D01*
Y37011D01*
X2173060Y35403D01*
X2169843D01*
X2168234Y37011D01*
Y43446D01*
X2105498Y17700D02*
X2108715Y11265D01*
X2111932Y17700D01*
X2121584Y20917D02*
X2118367Y19308D01*
X2115149Y16091D01*
Y12874D01*
X2116758Y11265D01*
X2119975D01*
X2121584Y12874D01*
Y14483D01*
X2119975Y16091D01*
X2115149D01*
X2124801Y19308D02*
X2126410Y20917D01*
X2129627D01*
X2131236Y19308D01*
Y12874D01*
X2129627Y11265D01*
X2126410D01*
X2124801Y12874D01*
Y19308D01*
X2134453Y20917D02*
Y11265D01*
Y16091D01*
X2136062Y17700D01*
X2139279D01*
X2140888Y16091D01*
Y11265D01*
X2144105Y19308D02*
X2145714Y20917D01*
X2148931D01*
X2150539Y19308D01*
Y17700D01*
X2148931Y16091D01*
X2147322D01*
X2148931D01*
X2150539Y14483D01*
Y12874D01*
X2148931Y11265D01*
X2145714D01*
X2144105Y12874D01*
X2153757Y19308D02*
X2155365Y20917D01*
X2158583D01*
X2160191Y19308D01*
Y12874D01*
X2158583Y11265D01*
X2155365D01*
X2153757Y12874D01*
Y19308D01*
X2108715Y-12872D02*
X2105498Y-9655D01*
Y-6438D01*
X2108715Y-3220D01*
X2113541Y-12872D02*
Y-3220D01*
X2116758Y-6438D01*
X2119975Y-3220D01*
Y-12872D01*
X2123193D02*
X2126410D01*
X2124801D01*
Y-6438D01*
X2123193D01*
X2131236D02*
X2137670Y-12872D01*
X2134453Y-9655D01*
X2137670Y-6438D01*
X2131236Y-12872D01*
X2145714D02*
X2142496D01*
X2140888Y-11264D01*
Y-8046D01*
X2142496Y-6438D01*
X2145714D01*
X2147322Y-8046D01*
Y-9655D01*
X2140888D01*
X2156974Y-3220D02*
Y-12872D01*
X2152148D01*
X2150539Y-11264D01*
Y-8046D01*
X2152148Y-6438D01*
X2156974D01*
X2160191Y-12872D02*
X2163409Y-9655D01*
Y-6438D01*
X2160191Y-3220D01*
X1985725Y156089D02*
X1982508Y159307D01*
Y162524D01*
X1985725Y165741D01*
X1990551Y156089D02*
Y165741D01*
X1993769Y162524D01*
X1996986Y165741D01*
Y156089D01*
X2000203D02*
X2003420D01*
X2001812D01*
Y162524D01*
X2000203D01*
X2008246D02*
X2014681Y156089D01*
X2011464Y159307D01*
X2014681Y162524D01*
X2008246Y156089D01*
X2022724D02*
X2019507D01*
X2017898Y157698D01*
Y160915D01*
X2019507Y162524D01*
X2022724D01*
X2024333Y160915D01*
Y159307D01*
X2017898D01*
X2033985Y165741D02*
Y156089D01*
X2029159D01*
X2027550Y157698D01*
Y160915D01*
X2029159Y162524D01*
X2033985D01*
X2037202Y156089D02*
X2040419Y159307D01*
Y162524D01*
X2037202Y165741D01*
X1982508Y131952D02*
Y141604D01*
X1987334D01*
X1988943Y139995D01*
Y136778D01*
X1987334Y135169D01*
X1982508D01*
X1985725D02*
X1988943Y131952D01*
X1993769D02*
X1996986D01*
X1998595Y133561D01*
Y136778D01*
X1996986Y138387D01*
X1993769D01*
X1992160Y136778D01*
Y133561D01*
X1993769Y131952D01*
X2001812Y138387D02*
Y133561D01*
X2003420Y131952D01*
X2008246D01*
Y138387D01*
X2011464Y131952D02*
Y138387D01*
X2016290D01*
X2017898Y136778D01*
Y131952D01*
X2027550Y141604D02*
Y131952D01*
X2022724D01*
X2021115Y133561D01*
Y136778D01*
X2022724Y138387D01*
X2027550D01*
X2035593Y131952D02*
X2032376D01*
X2030767Y133561D01*
Y136778D01*
X2032376Y138387D01*
X2035593D01*
X2037202Y136778D01*
Y135169D01*
X2030767D01*
X2046854Y141604D02*
Y131952D01*
X2042028D01*
X2040419Y133561D01*
Y136778D01*
X2042028Y138387D01*
X2046854D01*
X1982508Y107815D02*
Y117466D01*
X1987334D01*
X1988943Y115858D01*
Y112641D01*
X1987334Y111032D01*
X1982508D01*
X1985725D02*
X1988943Y107815D01*
X1993769D02*
X1996986D01*
X1998595Y109423D01*
Y112641D01*
X1996986Y114249D01*
X1993769D01*
X1992160Y112641D01*
Y109423D01*
X1993769Y107815D01*
X2001812Y114249D02*
Y109423D01*
X2003420Y107815D01*
X2008246D01*
Y114249D01*
X2011464Y107815D02*
Y114249D01*
X2016290D01*
X2017898Y112641D01*
Y107815D01*
X2027550Y117466D02*
Y107815D01*
X2022724D01*
X2021115Y109423D01*
Y112641D01*
X2022724Y114249D01*
X2027550D01*
X2035593Y107815D02*
X2032376D01*
X2030767Y109423D01*
Y112641D01*
X2032376Y114249D01*
X2035593D01*
X2037202Y112641D01*
Y111032D01*
X2030767D01*
X2046854Y117466D02*
Y107815D01*
X2042028D01*
X2040419Y109423D01*
Y112641D01*
X2042028Y114249D01*
X2046854D01*
X1982508Y83677D02*
Y93329D01*
X1987334D01*
X1988943Y91721D01*
Y88503D01*
X1987334Y86895D01*
X1982508D01*
X1985725D02*
X1988943Y83677D01*
X1993769D02*
X1996986D01*
X1998595Y85286D01*
Y88503D01*
X1996986Y90112D01*
X1993769D01*
X1992160Y88503D01*
Y85286D01*
X1993769Y83677D01*
X2001812Y90112D02*
Y85286D01*
X2003420Y83677D01*
X2008246D01*
Y90112D01*
X2011464Y83677D02*
Y90112D01*
X2016290D01*
X2017898Y88503D01*
Y83677D01*
X2027550Y93329D02*
Y83677D01*
X2022724D01*
X2021115Y85286D01*
Y88503D01*
X2022724Y90112D01*
X2027550D01*
X2035593Y83677D02*
X2032376D01*
X2030767Y85286D01*
Y88503D01*
X2032376Y90112D01*
X2035593D01*
X2037202Y88503D01*
Y86895D01*
X2030767D01*
X2046854Y93329D02*
Y83677D01*
X2042028D01*
X2040419Y85286D01*
Y88503D01*
X2042028Y90112D01*
X2046854D01*
X1985725Y59540D02*
X1982508Y62757D01*
Y65974D01*
X1985725Y69192D01*
X1990551Y59540D02*
Y69192D01*
X1993769Y65974D01*
X1996986Y69192D01*
Y59540D01*
X2000203D02*
X2003420D01*
X2001812D01*
Y65974D01*
X2000203D01*
X2008246D02*
X2014681Y59540D01*
X2011464Y62757D01*
X2014681Y65974D01*
X2008246Y59540D01*
X2022724D02*
X2019507D01*
X2017898Y61149D01*
Y64366D01*
X2019507Y65974D01*
X2022724D01*
X2024333Y64366D01*
Y62757D01*
X2017898D01*
X2033985Y69192D02*
Y59540D01*
X2029159D01*
X2027550Y61149D01*
Y64366D01*
X2029159Y65974D01*
X2033985D01*
X2037202Y59540D02*
X2040419Y62757D01*
Y65974D01*
X2037202Y69192D01*
X1982508Y35403D02*
Y45054D01*
X1987334D01*
X1988943Y43446D01*
Y40229D01*
X1987334Y38620D01*
X1982508D01*
X1985725D02*
X1988943Y35403D01*
X1993769D02*
X1996986D01*
X1998595Y37011D01*
Y40229D01*
X1996986Y41837D01*
X1993769D01*
X1992160Y40229D01*
Y37011D01*
X1993769Y35403D01*
X2001812Y41837D02*
Y37011D01*
X2003420Y35403D01*
X2008246D01*
Y41837D01*
X2011464Y35403D02*
Y41837D01*
X2016290D01*
X2017898Y40229D01*
Y35403D01*
X2027550Y45054D02*
Y35403D01*
X2022724D01*
X2021115Y37011D01*
Y40229D01*
X2022724Y41837D01*
X2027550D01*
X2035593Y35403D02*
X2032376D01*
X2030767Y37011D01*
Y40229D01*
X2032376Y41837D01*
X2035593D01*
X2037202Y40229D01*
Y38620D01*
X2030767D01*
X2046854Y45054D02*
Y35403D01*
X2042028D01*
X2040419Y37011D01*
Y40229D01*
X2042028Y41837D01*
X2046854D01*
X1982508Y11265D02*
Y20917D01*
X1987334D01*
X1988943Y19308D01*
Y16091D01*
X1987334Y14483D01*
X1982508D01*
X1985725D02*
X1988943Y11265D01*
X1993769D02*
X1996986D01*
X1998595Y12874D01*
Y16091D01*
X1996986Y17700D01*
X1993769D01*
X1992160Y16091D01*
Y12874D01*
X1993769Y11265D01*
X2001812Y17700D02*
Y12874D01*
X2003420Y11265D01*
X2008246D01*
Y17700D01*
X2011464Y11265D02*
Y17700D01*
X2016290D01*
X2017898Y16091D01*
Y11265D01*
X2027550Y20917D02*
Y11265D01*
X2022724D01*
X2021115Y12874D01*
Y16091D01*
X2022724Y17700D01*
X2027550D01*
X2035593Y11265D02*
X2032376D01*
X2030767Y12874D01*
Y16091D01*
X2032376Y17700D01*
X2035593D01*
X2037202Y16091D01*
Y14483D01*
X2030767D01*
X2046854Y20917D02*
Y11265D01*
X2042028D01*
X2040419Y12874D01*
Y16091D01*
X2042028Y17700D01*
X2046854D01*
X1985725Y-12872D02*
X1982508Y-9655D01*
Y-6438D01*
X1985725Y-3220D01*
X1990551Y-12872D02*
Y-3220D01*
X1993769Y-6438D01*
X1996986Y-3220D01*
Y-12872D01*
X2000203D02*
X2003420D01*
X2001812D01*
Y-6438D01*
X2000203D01*
X2008246D02*
X2014681Y-12872D01*
X2011464Y-9655D01*
X2014681Y-6438D01*
X2008246Y-12872D01*
X2022724D02*
X2019507D01*
X2017898Y-11264D01*
Y-8046D01*
X2019507Y-6438D01*
X2022724D01*
X2024333Y-8046D01*
Y-9655D01*
X2017898D01*
X2033985Y-3220D02*
Y-12872D01*
X2029159D01*
X2027550Y-11264D01*
Y-8046D01*
X2029159Y-6438D01*
X2033985D01*
X2037202Y-12872D02*
X2040419Y-9655D01*
Y-6438D01*
X2037202Y-3220D01*
X1884613Y156089D02*
Y165741D01*
X1889439D01*
X1891048Y164133D01*
Y160915D01*
X1889439Y159307D01*
X1884613D01*
X1895874Y162524D02*
X1899091D01*
X1900700Y160915D01*
Y156089D01*
X1895874D01*
X1894265Y157698D01*
X1895874Y159307D01*
X1900700D01*
X1910352Y165741D02*
Y156089D01*
X1905526D01*
X1903917Y157698D01*
Y160915D01*
X1905526Y162524D01*
X1910352D01*
X1884613Y131952D02*
Y141604D01*
X1889439D01*
X1891048Y139995D01*
Y136778D01*
X1889439Y135169D01*
X1884613D01*
X1895874Y138387D02*
X1899091D01*
X1900700Y136778D01*
Y131952D01*
X1895874D01*
X1894265Y133561D01*
X1895874Y135169D01*
X1900700D01*
X1910352Y141604D02*
Y131952D01*
X1905526D01*
X1903917Y133561D01*
Y136778D01*
X1905526Y138387D01*
X1910352D01*
X1884613Y107815D02*
Y117466D01*
X1889439D01*
X1891048Y115858D01*
Y112641D01*
X1889439Y111032D01*
X1884613D01*
X1895874Y114249D02*
X1899091D01*
X1900700Y112641D01*
Y107815D01*
X1895874D01*
X1894265Y109423D01*
X1895874Y111032D01*
X1900700D01*
X1910352Y117466D02*
Y107815D01*
X1905526D01*
X1903917Y109423D01*
Y112641D01*
X1905526Y114249D01*
X1910352D01*
X1884613Y83677D02*
Y93329D01*
X1889439D01*
X1891048Y91721D01*
Y88503D01*
X1889439Y86895D01*
X1884613D01*
X1895874Y90112D02*
X1899091D01*
X1900700Y88503D01*
Y83677D01*
X1895874D01*
X1894265Y85286D01*
X1895874Y86895D01*
X1900700D01*
X1910352Y93329D02*
Y83677D01*
X1905526D01*
X1903917Y85286D01*
Y88503D01*
X1905526Y90112D01*
X1910352D01*
X1884613Y59540D02*
Y69192D01*
X1889439D01*
X1891048Y67583D01*
Y64366D01*
X1889439Y62757D01*
X1884613D01*
X1895874Y65974D02*
X1899091D01*
X1900700Y64366D01*
Y59540D01*
X1895874D01*
X1894265Y61149D01*
X1895874Y62757D01*
X1900700D01*
X1910352Y69192D02*
Y59540D01*
X1905526D01*
X1903917Y61149D01*
Y64366D01*
X1905526Y65974D01*
X1910352D01*
X1884613Y35403D02*
Y45054D01*
X1889439D01*
X1891048Y43446D01*
Y40229D01*
X1889439Y38620D01*
X1884613D01*
X1895874Y41837D02*
X1899091D01*
X1900700Y40229D01*
Y35403D01*
X1895874D01*
X1894265Y37011D01*
X1895874Y38620D01*
X1900700D01*
X1910352Y45054D02*
Y35403D01*
X1905526D01*
X1903917Y37011D01*
Y40229D01*
X1905526Y41837D01*
X1910352D01*
X1884613Y20917D02*
Y14483D01*
X1887831Y11265D01*
X1891048Y14483D01*
Y20917D01*
X1894265Y11265D02*
X1897483D01*
X1895874D01*
Y17700D01*
X1894265D01*
X1903917D02*
X1907134D01*
X1908743Y16091D01*
Y11265D01*
X1903917D01*
X1902309Y12874D01*
X1903917Y14483D01*
X1908743D01*
X1884613Y-12872D02*
Y-3220D01*
X1889439D01*
X1891048Y-4829D01*
Y-8046D01*
X1889439Y-9655D01*
X1884613D01*
X1895874Y-6438D02*
X1899091D01*
X1900700Y-8046D01*
Y-12872D01*
X1895874D01*
X1894265Y-11264D01*
X1895874Y-9655D01*
X1900700D01*
X1910352Y-3220D02*
Y-12872D01*
X1905526D01*
X1903917Y-11264D01*
Y-8046D01*
X1905526Y-6438D01*
X1910352D01*
X1641451Y165741D02*
X1647885D01*
X1644668D01*
Y156089D01*
X1652711D02*
X1655928D01*
X1657537Y157698D01*
Y160915D01*
X1655928Y162524D01*
X1652711D01*
X1651102Y160915D01*
Y157698D01*
X1652711Y156089D01*
X1660754Y152872D02*
Y162524D01*
X1665580D01*
X1667189Y160915D01*
Y157698D01*
X1665580Y156089D01*
X1660754D01*
X1680058Y165741D02*
Y156089D01*
X1686492D01*
X1691318Y162524D02*
X1694536D01*
X1696144Y160915D01*
Y156089D01*
X1691318D01*
X1689710Y157698D01*
X1691318Y159307D01*
X1696144D01*
X1699361Y162524D02*
Y157698D01*
X1700970Y156089D01*
X1705796D01*
Y154481D01*
X1704187Y152872D01*
X1702579D01*
X1705796Y156089D02*
Y162524D01*
X1713839Y156089D02*
X1710622D01*
X1709013Y157698D01*
Y160915D01*
X1710622Y162524D01*
X1713839D01*
X1715448Y160915D01*
Y159307D01*
X1709013D01*
X1718665Y162524D02*
Y156089D01*
Y159307D01*
X1720274Y160915D01*
X1721882Y162524D01*
X1723491D01*
X1737969Y160915D02*
X1744403D01*
X1757272Y165741D02*
Y156089D01*
X1762098D01*
X1763707Y157698D01*
Y159307D01*
X1762098Y160915D01*
X1757272D01*
X1762098D01*
X1763707Y162524D01*
Y164133D01*
X1762098Y165741D01*
X1757272D01*
X1768533Y156089D02*
X1771750D01*
X1773359Y157698D01*
Y160915D01*
X1771750Y162524D01*
X1768533D01*
X1766924Y160915D01*
Y157698D01*
X1768533Y156089D01*
X1778185Y164133D02*
Y162524D01*
X1776576D01*
X1779793D01*
X1778185D01*
Y157698D01*
X1779793Y156089D01*
X1786228Y164133D02*
Y162524D01*
X1784619D01*
X1787836D01*
X1786228D01*
Y157698D01*
X1787836Y156089D01*
X1794271D02*
X1797488D01*
X1799097Y157698D01*
Y160915D01*
X1797488Y162524D01*
X1794271D01*
X1792662Y160915D01*
Y157698D01*
X1794271Y156089D01*
X1802314D02*
Y162524D01*
X1803923D01*
X1805531Y160915D01*
Y156089D01*
Y160915D01*
X1807140Y162524D01*
X1808749Y160915D01*
Y156089D01*
X1821618Y165741D02*
Y156089D01*
X1828052D01*
X1832878Y162524D02*
X1836096D01*
X1837704Y160915D01*
Y156089D01*
X1832878D01*
X1831270Y157698D01*
X1832878Y159307D01*
X1837704D01*
X1840921Y162524D02*
Y157698D01*
X1842530Y156089D01*
X1847356D01*
Y154481D01*
X1845747Y152872D01*
X1844139D01*
X1847356Y156089D02*
Y162524D01*
X1855399Y156089D02*
X1852182D01*
X1850573Y157698D01*
Y160915D01*
X1852182Y162524D01*
X1855399D01*
X1857008Y160915D01*
Y159307D01*
X1850573D01*
X1860225Y162524D02*
Y156089D01*
Y159307D01*
X1861834Y160915D01*
X1863442Y162524D01*
X1865051D01*
X1641451Y141604D02*
X1647885D01*
X1644668D01*
Y131952D01*
X1652711D02*
X1655928D01*
X1657537Y133561D01*
Y136778D01*
X1655928Y138387D01*
X1652711D01*
X1651102Y136778D01*
Y133561D01*
X1652711Y131952D01*
X1660754Y128735D02*
Y138387D01*
X1665580D01*
X1667189Y136778D01*
Y133561D01*
X1665580Y131952D01*
X1660754D01*
X1680058Y141604D02*
Y131952D01*
X1686492D01*
X1691318Y138387D02*
X1694536D01*
X1696144Y136778D01*
Y131952D01*
X1691318D01*
X1689710Y133561D01*
X1691318Y135169D01*
X1696144D01*
X1699361Y138387D02*
Y133561D01*
X1700970Y131952D01*
X1705796D01*
Y130344D01*
X1704187Y128735D01*
X1702579D01*
X1705796Y131952D02*
Y138387D01*
X1713839Y131952D02*
X1710622D01*
X1709013Y133561D01*
Y136778D01*
X1710622Y138387D01*
X1713839D01*
X1715448Y136778D01*
Y135169D01*
X1709013D01*
X1718665Y138387D02*
Y131952D01*
Y135169D01*
X1720274Y136778D01*
X1721882Y138387D01*
X1723491D01*
X1737969Y136778D02*
X1744403D01*
X1757272Y141604D02*
Y131952D01*
X1762098D01*
X1763707Y133561D01*
Y135169D01*
X1762098Y136778D01*
X1757272D01*
X1762098D01*
X1763707Y138387D01*
Y139995D01*
X1762098Y141604D01*
X1757272D01*
X1768533Y131952D02*
X1771750D01*
X1773359Y133561D01*
Y136778D01*
X1771750Y138387D01*
X1768533D01*
X1766924Y136778D01*
Y133561D01*
X1768533Y131952D01*
X1778185Y139995D02*
Y138387D01*
X1776576D01*
X1779793D01*
X1778185D01*
Y133561D01*
X1779793Y131952D01*
X1786228Y139995D02*
Y138387D01*
X1784619D01*
X1787836D01*
X1786228D01*
Y133561D01*
X1787836Y131952D01*
X1794271D02*
X1797488D01*
X1799097Y133561D01*
Y136778D01*
X1797488Y138387D01*
X1794271D01*
X1792662Y136778D01*
Y133561D01*
X1794271Y131952D01*
X1802314D02*
Y138387D01*
X1803923D01*
X1805531Y136778D01*
Y131952D01*
Y136778D01*
X1807140Y138387D01*
X1808749Y136778D01*
Y131952D01*
X1821618Y141604D02*
Y131952D01*
X1828052D01*
X1832878Y138387D02*
X1836096D01*
X1837704Y136778D01*
Y131952D01*
X1832878D01*
X1831270Y133561D01*
X1832878Y135169D01*
X1837704D01*
X1840921Y138387D02*
Y133561D01*
X1842530Y131952D01*
X1847356D01*
Y130344D01*
X1845747Y128735D01*
X1844139D01*
X1847356Y131952D02*
Y138387D01*
X1855399Y131952D02*
X1852182D01*
X1850573Y133561D01*
Y136778D01*
X1852182Y138387D01*
X1855399D01*
X1857008Y136778D01*
Y135169D01*
X1850573D01*
X1860225Y138387D02*
Y131952D01*
Y135169D01*
X1861834Y136778D01*
X1863442Y138387D01*
X1865051D01*
X1641451Y117466D02*
X1647885D01*
X1644668D01*
Y107815D01*
X1652711D02*
X1655928D01*
X1657537Y109423D01*
Y112641D01*
X1655928Y114249D01*
X1652711D01*
X1651102Y112641D01*
Y109423D01*
X1652711Y107815D01*
X1660754Y104598D02*
Y114249D01*
X1665580D01*
X1667189Y112641D01*
Y109423D01*
X1665580Y107815D01*
X1660754D01*
X1680058Y117466D02*
Y107815D01*
X1686492D01*
X1691318Y114249D02*
X1694536D01*
X1696144Y112641D01*
Y107815D01*
X1691318D01*
X1689710Y109423D01*
X1691318Y111032D01*
X1696144D01*
X1699361Y114249D02*
Y109423D01*
X1700970Y107815D01*
X1705796D01*
Y106206D01*
X1704187Y104598D01*
X1702579D01*
X1705796Y107815D02*
Y114249D01*
X1713839Y107815D02*
X1710622D01*
X1709013Y109423D01*
Y112641D01*
X1710622Y114249D01*
X1713839D01*
X1715448Y112641D01*
Y111032D01*
X1709013D01*
X1718665Y114249D02*
Y107815D01*
Y111032D01*
X1720274Y112641D01*
X1721882Y114249D01*
X1723491D01*
X1737969Y112641D02*
X1744403D01*
X1757272Y117466D02*
Y107815D01*
X1762098D01*
X1763707Y109423D01*
Y111032D01*
X1762098Y112641D01*
X1757272D01*
X1762098D01*
X1763707Y114249D01*
Y115858D01*
X1762098Y117466D01*
X1757272D01*
X1768533Y107815D02*
X1771750D01*
X1773359Y109423D01*
Y112641D01*
X1771750Y114249D01*
X1768533D01*
X1766924Y112641D01*
Y109423D01*
X1768533Y107815D01*
X1778185Y115858D02*
Y114249D01*
X1776576D01*
X1779793D01*
X1778185D01*
Y109423D01*
X1779793Y107815D01*
X1786228Y115858D02*
Y114249D01*
X1784619D01*
X1787836D01*
X1786228D01*
Y109423D01*
X1787836Y107815D01*
X1794271D02*
X1797488D01*
X1799097Y109423D01*
Y112641D01*
X1797488Y114249D01*
X1794271D01*
X1792662Y112641D01*
Y109423D01*
X1794271Y107815D01*
X1802314D02*
Y114249D01*
X1803923D01*
X1805531Y112641D01*
Y107815D01*
Y112641D01*
X1807140Y114249D01*
X1808749Y112641D01*
Y107815D01*
X1821618Y117466D02*
Y107815D01*
X1828052D01*
X1832878Y114249D02*
X1836096D01*
X1837704Y112641D01*
Y107815D01*
X1832878D01*
X1831270Y109423D01*
X1832878Y111032D01*
X1837704D01*
X1840921Y114249D02*
Y109423D01*
X1842530Y107815D01*
X1847356D01*
Y106206D01*
X1845747Y104598D01*
X1844139D01*
X1847356Y107815D02*
Y114249D01*
X1855399Y107815D02*
X1852182D01*
X1850573Y109423D01*
Y112641D01*
X1852182Y114249D01*
X1855399D01*
X1857008Y112641D01*
Y111032D01*
X1850573D01*
X1860225Y114249D02*
Y107815D01*
Y111032D01*
X1861834Y112641D01*
X1863442Y114249D01*
X1865051D01*
X1641451Y93329D02*
X1647885D01*
X1644668D01*
Y83677D01*
X1652711D02*
X1655928D01*
X1657537Y85286D01*
Y88503D01*
X1655928Y90112D01*
X1652711D01*
X1651102Y88503D01*
Y85286D01*
X1652711Y83677D01*
X1660754Y80460D02*
Y90112D01*
X1665580D01*
X1667189Y88503D01*
Y85286D01*
X1665580Y83677D01*
X1660754D01*
X1680058Y93329D02*
Y83677D01*
X1686492D01*
X1691318Y90112D02*
X1694536D01*
X1696144Y88503D01*
Y83677D01*
X1691318D01*
X1689710Y85286D01*
X1691318Y86895D01*
X1696144D01*
X1699361Y90112D02*
Y85286D01*
X1700970Y83677D01*
X1705796D01*
Y82069D01*
X1704187Y80460D01*
X1702579D01*
X1705796Y83677D02*
Y90112D01*
X1713839Y83677D02*
X1710622D01*
X1709013Y85286D01*
Y88503D01*
X1710622Y90112D01*
X1713839D01*
X1715448Y88503D01*
Y86895D01*
X1709013D01*
X1718665Y90112D02*
Y83677D01*
Y86895D01*
X1720274Y88503D01*
X1721882Y90112D01*
X1723491D01*
X1737969Y88503D02*
X1744403D01*
X1757272Y93329D02*
Y83677D01*
X1762098D01*
X1763707Y85286D01*
Y86895D01*
X1762098Y88503D01*
X1757272D01*
X1762098D01*
X1763707Y90112D01*
Y91721D01*
X1762098Y93329D01*
X1757272D01*
X1768533Y83677D02*
X1771750D01*
X1773359Y85286D01*
Y88503D01*
X1771750Y90112D01*
X1768533D01*
X1766924Y88503D01*
Y85286D01*
X1768533Y83677D01*
X1778185Y91721D02*
Y90112D01*
X1776576D01*
X1779793D01*
X1778185D01*
Y85286D01*
X1779793Y83677D01*
X1786228Y91721D02*
Y90112D01*
X1784619D01*
X1787836D01*
X1786228D01*
Y85286D01*
X1787836Y83677D01*
X1794271D02*
X1797488D01*
X1799097Y85286D01*
Y88503D01*
X1797488Y90112D01*
X1794271D01*
X1792662Y88503D01*
Y85286D01*
X1794271Y83677D01*
X1802314D02*
Y90112D01*
X1803923D01*
X1805531Y88503D01*
Y83677D01*
Y88503D01*
X1807140Y90112D01*
X1808749Y88503D01*
Y83677D01*
X1821618Y93329D02*
Y83677D01*
X1828052D01*
X1832878Y90112D02*
X1836096D01*
X1837704Y88503D01*
Y83677D01*
X1832878D01*
X1831270Y85286D01*
X1832878Y86895D01*
X1837704D01*
X1840921Y90112D02*
Y85286D01*
X1842530Y83677D01*
X1847356D01*
Y82069D01*
X1845747Y80460D01*
X1844139D01*
X1847356Y83677D02*
Y90112D01*
X1855399Y83677D02*
X1852182D01*
X1850573Y85286D01*
Y88503D01*
X1852182Y90112D01*
X1855399D01*
X1857008Y88503D01*
Y86895D01*
X1850573D01*
X1860225Y90112D02*
Y83677D01*
Y86895D01*
X1861834Y88503D01*
X1863442Y90112D01*
X1865051D01*
X1641451Y69192D02*
X1647885D01*
X1644668D01*
Y59540D01*
X1652711D02*
X1655928D01*
X1657537Y61149D01*
Y64366D01*
X1655928Y65974D01*
X1652711D01*
X1651102Y64366D01*
Y61149D01*
X1652711Y59540D01*
X1660754Y56323D02*
Y65974D01*
X1665580D01*
X1667189Y64366D01*
Y61149D01*
X1665580Y59540D01*
X1660754D01*
X1680058Y69192D02*
Y59540D01*
X1686492D01*
X1691318Y65974D02*
X1694536D01*
X1696144Y64366D01*
Y59540D01*
X1691318D01*
X1689710Y61149D01*
X1691318Y62757D01*
X1696144D01*
X1699361Y65974D02*
Y61149D01*
X1700970Y59540D01*
X1705796D01*
Y57931D01*
X1704187Y56323D01*
X1702579D01*
X1705796Y59540D02*
Y65974D01*
X1713839Y59540D02*
X1710622D01*
X1709013Y61149D01*
Y64366D01*
X1710622Y65974D01*
X1713839D01*
X1715448Y64366D01*
Y62757D01*
X1709013D01*
X1718665Y65974D02*
Y59540D01*
Y62757D01*
X1720274Y64366D01*
X1721882Y65974D01*
X1723491D01*
X1737969Y64366D02*
X1744403D01*
X1757272Y69192D02*
Y59540D01*
X1762098D01*
X1763707Y61149D01*
Y62757D01*
X1762098Y64366D01*
X1757272D01*
X1762098D01*
X1763707Y65974D01*
Y67583D01*
X1762098Y69192D01*
X1757272D01*
X1768533Y59540D02*
X1771750D01*
X1773359Y61149D01*
Y64366D01*
X1771750Y65974D01*
X1768533D01*
X1766924Y64366D01*
Y61149D01*
X1768533Y59540D01*
X1778185Y67583D02*
Y65974D01*
X1776576D01*
X1779793D01*
X1778185D01*
Y61149D01*
X1779793Y59540D01*
X1786228Y67583D02*
Y65974D01*
X1784619D01*
X1787836D01*
X1786228D01*
Y61149D01*
X1787836Y59540D01*
X1794271D02*
X1797488D01*
X1799097Y61149D01*
Y64366D01*
X1797488Y65974D01*
X1794271D01*
X1792662Y64366D01*
Y61149D01*
X1794271Y59540D01*
X1802314D02*
Y65974D01*
X1803923D01*
X1805531Y64366D01*
Y59540D01*
Y64366D01*
X1807140Y65974D01*
X1808749Y64366D01*
Y59540D01*
X1821618Y69192D02*
Y59540D01*
X1828052D01*
X1832878Y65974D02*
X1836096D01*
X1837704Y64366D01*
Y59540D01*
X1832878D01*
X1831270Y61149D01*
X1832878Y62757D01*
X1837704D01*
X1840921Y65974D02*
Y61149D01*
X1842530Y59540D01*
X1847356D01*
Y57931D01*
X1845747Y56323D01*
X1844139D01*
X1847356Y59540D02*
Y65974D01*
X1855399Y59540D02*
X1852182D01*
X1850573Y61149D01*
Y64366D01*
X1852182Y65974D01*
X1855399D01*
X1857008Y64366D01*
Y62757D01*
X1850573D01*
X1860225Y65974D02*
Y59540D01*
Y62757D01*
X1861834Y64366D01*
X1863442Y65974D01*
X1865051D01*
X1641451Y45054D02*
X1647885D01*
X1644668D01*
Y35403D01*
X1652711D02*
X1655928D01*
X1657537Y37011D01*
Y40229D01*
X1655928Y41837D01*
X1652711D01*
X1651102Y40229D01*
Y37011D01*
X1652711Y35403D01*
X1660754Y32185D02*
Y41837D01*
X1665580D01*
X1667189Y40229D01*
Y37011D01*
X1665580Y35403D01*
X1660754D01*
X1680058Y45054D02*
Y35403D01*
X1686492D01*
X1691318Y41837D02*
X1694536D01*
X1696144Y40229D01*
Y35403D01*
X1691318D01*
X1689710Y37011D01*
X1691318Y38620D01*
X1696144D01*
X1699361Y41837D02*
Y37011D01*
X1700970Y35403D01*
X1705796D01*
Y33794D01*
X1704187Y32185D01*
X1702579D01*
X1705796Y35403D02*
Y41837D01*
X1713839Y35403D02*
X1710622D01*
X1709013Y37011D01*
Y40229D01*
X1710622Y41837D01*
X1713839D01*
X1715448Y40229D01*
Y38620D01*
X1709013D01*
X1718665Y41837D02*
Y35403D01*
Y38620D01*
X1720274Y40229D01*
X1721882Y41837D01*
X1723491D01*
X1737969Y40229D02*
X1744403D01*
X1757272Y45054D02*
Y35403D01*
X1762098D01*
X1763707Y37011D01*
Y38620D01*
X1762098Y40229D01*
X1757272D01*
X1762098D01*
X1763707Y41837D01*
Y43446D01*
X1762098Y45054D01*
X1757272D01*
X1768533Y35403D02*
X1771750D01*
X1773359Y37011D01*
Y40229D01*
X1771750Y41837D01*
X1768533D01*
X1766924Y40229D01*
Y37011D01*
X1768533Y35403D01*
X1778185Y43446D02*
Y41837D01*
X1776576D01*
X1779793D01*
X1778185D01*
Y37011D01*
X1779793Y35403D01*
X1786228Y43446D02*
Y41837D01*
X1784619D01*
X1787836D01*
X1786228D01*
Y37011D01*
X1787836Y35403D01*
X1794271D02*
X1797488D01*
X1799097Y37011D01*
Y40229D01*
X1797488Y41837D01*
X1794271D01*
X1792662Y40229D01*
Y37011D01*
X1794271Y35403D01*
X1802314D02*
Y41837D01*
X1803923D01*
X1805531Y40229D01*
Y35403D01*
Y40229D01*
X1807140Y41837D01*
X1808749Y40229D01*
Y35403D01*
X1821618Y45054D02*
Y35403D01*
X1828052D01*
X1832878Y41837D02*
X1836096D01*
X1837704Y40229D01*
Y35403D01*
X1832878D01*
X1831270Y37011D01*
X1832878Y38620D01*
X1837704D01*
X1840921Y41837D02*
Y37011D01*
X1842530Y35403D01*
X1847356D01*
Y33794D01*
X1845747Y32185D01*
X1844139D01*
X1847356Y35403D02*
Y41837D01*
X1855399Y35403D02*
X1852182D01*
X1850573Y37011D01*
Y40229D01*
X1852182Y41837D01*
X1855399D01*
X1857008Y40229D01*
Y38620D01*
X1850573D01*
X1860225Y41837D02*
Y35403D01*
Y38620D01*
X1861834Y40229D01*
X1863442Y41837D01*
X1865051D01*
X1641451Y20917D02*
X1647885D01*
X1644668D01*
Y11265D01*
X1652711D02*
X1655928D01*
X1657537Y12874D01*
Y16091D01*
X1655928Y17700D01*
X1652711D01*
X1651102Y16091D01*
Y12874D01*
X1652711Y11265D01*
X1660754Y8048D02*
Y17700D01*
X1665580D01*
X1667189Y16091D01*
Y12874D01*
X1665580Y11265D01*
X1660754D01*
X1680058Y20917D02*
Y11265D01*
X1686492D01*
X1691318Y17700D02*
X1694536D01*
X1696144Y16091D01*
Y11265D01*
X1691318D01*
X1689710Y12874D01*
X1691318Y14483D01*
X1696144D01*
X1699361Y17700D02*
Y12874D01*
X1700970Y11265D01*
X1705796D01*
Y9657D01*
X1704187Y8048D01*
X1702579D01*
X1705796Y11265D02*
Y17700D01*
X1713839Y11265D02*
X1710622D01*
X1709013Y12874D01*
Y16091D01*
X1710622Y17700D01*
X1713839D01*
X1715448Y16091D01*
Y14483D01*
X1709013D01*
X1718665Y17700D02*
Y11265D01*
Y14483D01*
X1720274Y16091D01*
X1721882Y17700D01*
X1723491D01*
X1737969Y16091D02*
X1744403D01*
X1757272Y20917D02*
Y11265D01*
X1762098D01*
X1763707Y12874D01*
Y14483D01*
X1762098Y16091D01*
X1757272D01*
X1762098D01*
X1763707Y17700D01*
Y19308D01*
X1762098Y20917D01*
X1757272D01*
X1768533Y11265D02*
X1771750D01*
X1773359Y12874D01*
Y16091D01*
X1771750Y17700D01*
X1768533D01*
X1766924Y16091D01*
Y12874D01*
X1768533Y11265D01*
X1778185Y19308D02*
Y17700D01*
X1776576D01*
X1779793D01*
X1778185D01*
Y12874D01*
X1779793Y11265D01*
X1786228Y19308D02*
Y17700D01*
X1784619D01*
X1787836D01*
X1786228D01*
Y12874D01*
X1787836Y11265D01*
X1794271D02*
X1797488D01*
X1799097Y12874D01*
Y16091D01*
X1797488Y17700D01*
X1794271D01*
X1792662Y16091D01*
Y12874D01*
X1794271Y11265D01*
X1802314D02*
Y17700D01*
X1803923D01*
X1805531Y16091D01*
Y11265D01*
Y16091D01*
X1807140Y17700D01*
X1808749Y16091D01*
Y11265D01*
X1821618Y20917D02*
Y11265D01*
X1828052D01*
X1832878Y17700D02*
X1836096D01*
X1837704Y16091D01*
Y11265D01*
X1832878D01*
X1831270Y12874D01*
X1832878Y14483D01*
X1837704D01*
X1840921Y17700D02*
Y12874D01*
X1842530Y11265D01*
X1847356D01*
Y9657D01*
X1845747Y8048D01*
X1844139D01*
X1847356Y11265D02*
Y17700D01*
X1855399Y11265D02*
X1852182D01*
X1850573Y12874D01*
Y16091D01*
X1852182Y17700D01*
X1855399D01*
X1857008Y16091D01*
Y14483D01*
X1850573D01*
X1860225Y17700D02*
Y11265D01*
Y14483D01*
X1861834Y16091D01*
X1863442Y17700D01*
X1865051D01*
X1641451Y-3220D02*
X1647885D01*
X1644668D01*
Y-12872D01*
X1652711D02*
X1655928D01*
X1657537Y-11264D01*
Y-8046D01*
X1655928Y-6438D01*
X1652711D01*
X1651102Y-8046D01*
Y-11264D01*
X1652711Y-12872D01*
X1660754Y-16089D02*
Y-6438D01*
X1665580D01*
X1667189Y-8046D01*
Y-11264D01*
X1665580Y-12872D01*
X1660754D01*
X1680058Y-3220D02*
Y-12872D01*
X1686492D01*
X1691318Y-6438D02*
X1694536D01*
X1696144Y-8046D01*
Y-12872D01*
X1691318D01*
X1689710Y-11264D01*
X1691318Y-9655D01*
X1696144D01*
X1699361Y-6438D02*
Y-11264D01*
X1700970Y-12872D01*
X1705796D01*
Y-14481D01*
X1704187Y-16089D01*
X1702579D01*
X1705796Y-12872D02*
Y-6438D01*
X1713839Y-12872D02*
X1710622D01*
X1709013Y-11264D01*
Y-8046D01*
X1710622Y-6438D01*
X1713839D01*
X1715448Y-8046D01*
Y-9655D01*
X1709013D01*
X1718665Y-6438D02*
Y-12872D01*
Y-9655D01*
X1720274Y-8046D01*
X1721882Y-6438D01*
X1723491D01*
X1737969Y-8046D02*
X1744403D01*
X1757272Y-3220D02*
Y-12872D01*
X1762098D01*
X1763707Y-11264D01*
Y-9655D01*
X1762098Y-8046D01*
X1757272D01*
X1762098D01*
X1763707Y-6438D01*
Y-4829D01*
X1762098Y-3220D01*
X1757272D01*
X1768533Y-12872D02*
X1771750D01*
X1773359Y-11264D01*
Y-8046D01*
X1771750Y-6438D01*
X1768533D01*
X1766924Y-8046D01*
Y-11264D01*
X1768533Y-12872D01*
X1778185Y-4829D02*
Y-6438D01*
X1776576D01*
X1779793D01*
X1778185D01*
Y-11264D01*
X1779793Y-12872D01*
X1786228Y-4829D02*
Y-6438D01*
X1784619D01*
X1787836D01*
X1786228D01*
Y-11264D01*
X1787836Y-12872D01*
X1794271D02*
X1797488D01*
X1799097Y-11264D01*
Y-8046D01*
X1797488Y-6438D01*
X1794271D01*
X1792662Y-8046D01*
Y-11264D01*
X1794271Y-12872D01*
X1802314D02*
Y-6438D01*
X1803923D01*
X1805531Y-8046D01*
Y-12872D01*
Y-8046D01*
X1807140Y-6438D01*
X1808749Y-8046D01*
Y-12872D01*
X1821618Y-3220D02*
Y-12872D01*
X1828052D01*
X1832878Y-6438D02*
X1836096D01*
X1837704Y-8046D01*
Y-12872D01*
X1832878D01*
X1831270Y-11264D01*
X1832878Y-9655D01*
X1837704D01*
X1840921Y-6438D02*
Y-11264D01*
X1842530Y-12872D01*
X1847356D01*
Y-14481D01*
X1845747Y-16089D01*
X1844139D01*
X1847356Y-12872D02*
Y-6438D01*
X1855399Y-12872D02*
X1852182D01*
X1850573Y-11264D01*
Y-8046D01*
X1852182Y-6438D01*
X1855399D01*
X1857008Y-8046D01*
Y-9655D01*
X1850573D01*
X1860225Y-6438D02*
Y-12872D01*
Y-9655D01*
X1861834Y-8046D01*
X1863442Y-6438D01*
X1865051D01*
X1520391Y156089D02*
Y165741D01*
X1525217D01*
X1526826Y164133D01*
Y160915D01*
X1525217Y159307D01*
X1520391D01*
X1523609D02*
X1526826Y156089D01*
X1531652D02*
X1534869D01*
X1536478Y157698D01*
Y160915D01*
X1534869Y162524D01*
X1531652D01*
X1530043Y160915D01*
Y157698D01*
X1531652Y156089D01*
X1539695Y162524D02*
Y157698D01*
X1541304Y156089D01*
X1546130D01*
Y162524D01*
X1549347Y156089D02*
Y162524D01*
X1554173D01*
X1555781Y160915D01*
Y156089D01*
X1565433Y165741D02*
Y156089D01*
X1560607D01*
X1558999Y157698D01*
Y160915D01*
X1560607Y162524D01*
X1565433D01*
X1526826Y139995D02*
X1525217Y141604D01*
X1522000D01*
X1520391Y139995D01*
Y138387D01*
X1522000Y136778D01*
X1525217D01*
X1526826Y135169D01*
Y133561D01*
X1525217Y131952D01*
X1522000D01*
X1520391Y133561D01*
X1530043Y131952D02*
X1533260D01*
X1531652D01*
Y141604D01*
X1530043D01*
X1539695Y131952D02*
X1542912D01*
X1544521Y133561D01*
Y136778D01*
X1542912Y138387D01*
X1539695D01*
X1538086Y136778D01*
Y133561D01*
X1539695Y131952D01*
X1549347Y139995D02*
Y138387D01*
X1547738D01*
X1550956D01*
X1549347D01*
Y133561D01*
X1550956Y131952D01*
X1520391Y107815D02*
Y117466D01*
X1525217D01*
X1526826Y115858D01*
Y112641D01*
X1525217Y111032D01*
X1520391D01*
X1523609D02*
X1526826Y107815D01*
X1531652D02*
X1534869D01*
X1536478Y109423D01*
Y112641D01*
X1534869Y114249D01*
X1531652D01*
X1530043Y112641D01*
Y109423D01*
X1531652Y107815D01*
X1539695Y114249D02*
Y109423D01*
X1541304Y107815D01*
X1546130D01*
Y114249D01*
X1549347Y107815D02*
Y114249D01*
X1554173D01*
X1555781Y112641D01*
Y107815D01*
X1565433Y117466D02*
Y107815D01*
X1560607D01*
X1558999Y109423D01*
Y112641D01*
X1560607Y114249D01*
X1565433D01*
X1520391Y83677D02*
Y93329D01*
X1525217D01*
X1526826Y91721D01*
Y88503D01*
X1525217Y86895D01*
X1520391D01*
X1523609D02*
X1526826Y83677D01*
X1531652D02*
X1534869D01*
X1536478Y85286D01*
Y88503D01*
X1534869Y90112D01*
X1531652D01*
X1530043Y88503D01*
Y85286D01*
X1531652Y83677D01*
X1539695Y90112D02*
Y85286D01*
X1541304Y83677D01*
X1546130D01*
Y90112D01*
X1549347Y83677D02*
Y90112D01*
X1554173D01*
X1555781Y88503D01*
Y83677D01*
X1565433Y93329D02*
Y83677D01*
X1560607D01*
X1558999Y85286D01*
Y88503D01*
X1560607Y90112D01*
X1565433D01*
X1520391Y59540D02*
Y69192D01*
X1525217D01*
X1526826Y67583D01*
Y64366D01*
X1525217Y62757D01*
X1520391D01*
X1523609D02*
X1526826Y59540D01*
X1531652D02*
X1534869D01*
X1536478Y61149D01*
Y64366D01*
X1534869Y65974D01*
X1531652D01*
X1530043Y64366D01*
Y61149D01*
X1531652Y59540D01*
X1539695Y65974D02*
Y61149D01*
X1541304Y59540D01*
X1546130D01*
Y65974D01*
X1549347Y59540D02*
Y65974D01*
X1554173D01*
X1555781Y64366D01*
Y59540D01*
X1565433Y69192D02*
Y59540D01*
X1560607D01*
X1558999Y61149D01*
Y64366D01*
X1560607Y65974D01*
X1565433D01*
X1520391Y35403D02*
Y45054D01*
X1525217D01*
X1526826Y43446D01*
Y40229D01*
X1525217Y38620D01*
X1520391D01*
X1523609D02*
X1526826Y35403D01*
X1531652D02*
X1534869D01*
X1536478Y37011D01*
Y40229D01*
X1534869Y41837D01*
X1531652D01*
X1530043Y40229D01*
Y37011D01*
X1531652Y35403D01*
X1539695Y41837D02*
Y37011D01*
X1541304Y35403D01*
X1546130D01*
Y41837D01*
X1549347Y35403D02*
Y41837D01*
X1554173D01*
X1555781Y40229D01*
Y35403D01*
X1565433Y45054D02*
Y35403D01*
X1560607D01*
X1558999Y37011D01*
Y40229D01*
X1560607Y41837D01*
X1565433D01*
X1520391Y11265D02*
Y20917D01*
X1525217D01*
X1526826Y19308D01*
Y16091D01*
X1525217Y14483D01*
X1520391D01*
X1523609D02*
X1526826Y11265D01*
X1531652D02*
X1534869D01*
X1536478Y12874D01*
Y16091D01*
X1534869Y17700D01*
X1531652D01*
X1530043Y16091D01*
Y12874D01*
X1531652Y11265D01*
X1539695Y17700D02*
Y12874D01*
X1541304Y11265D01*
X1546130D01*
Y17700D01*
X1549347Y11265D02*
Y17700D01*
X1554173D01*
X1555781Y16091D01*
Y11265D01*
X1565433Y20917D02*
Y11265D01*
X1560607D01*
X1558999Y12874D01*
Y16091D01*
X1560607Y17700D01*
X1565433D01*
X1520391Y-12872D02*
Y-3220D01*
X1525217D01*
X1526826Y-4829D01*
Y-8046D01*
X1525217Y-9655D01*
X1520391D01*
X1523609D02*
X1526826Y-12872D01*
X1531652D02*
X1534869D01*
X1536478Y-11264D01*
Y-8046D01*
X1534869Y-6438D01*
X1531652D01*
X1530043Y-8046D01*
Y-11264D01*
X1531652Y-12872D01*
X1539695Y-6438D02*
Y-11264D01*
X1541304Y-12872D01*
X1546130D01*
Y-6438D01*
X1549347Y-12872D02*
Y-6438D01*
X1554173D01*
X1555781Y-8046D01*
Y-12872D01*
X1565433Y-3220D02*
Y-12872D01*
X1560607D01*
X1558999Y-11264D01*
Y-8046D01*
X1560607Y-6438D01*
X1565433D01*
X1436009Y156089D02*
Y165741D01*
X1440835D01*
X1442444Y164133D01*
Y160915D01*
X1440835Y159307D01*
X1436009D01*
X1445661Y165741D02*
X1452096D01*
X1448878D01*
Y156089D01*
X1455313Y165741D02*
Y156089D01*
Y160915D01*
X1461747D01*
Y165741D01*
Y156089D01*
X1436009Y131952D02*
Y141604D01*
X1440835D01*
X1442444Y139995D01*
Y136778D01*
X1440835Y135169D01*
X1436009D01*
X1445661Y141604D02*
X1452096D01*
X1448878D01*
Y131952D01*
X1455313Y141604D02*
Y131952D01*
Y136778D01*
X1461747D01*
Y141604D01*
Y131952D01*
X1436009Y107815D02*
Y117466D01*
X1440835D01*
X1442444Y115858D01*
Y112641D01*
X1440835Y111032D01*
X1436009D01*
X1445661Y117466D02*
X1452096D01*
X1448878D01*
Y107815D01*
X1455313Y117466D02*
Y107815D01*
Y112641D01*
X1461747D01*
Y117466D01*
Y107815D01*
X1436009Y83677D02*
Y93329D01*
X1440835D01*
X1442444Y91721D01*
Y88503D01*
X1440835Y86895D01*
X1436009D01*
X1445661Y93329D02*
X1452096D01*
X1448878D01*
Y83677D01*
X1455313Y93329D02*
Y83677D01*
Y88503D01*
X1461747D01*
Y93329D01*
Y83677D01*
X1436009Y59540D02*
Y69192D01*
X1440835D01*
X1442444Y67583D01*
Y64366D01*
X1440835Y62757D01*
X1436009D01*
X1445661Y69192D02*
X1452096D01*
X1448878D01*
Y59540D01*
X1455313Y69192D02*
Y59540D01*
Y64366D01*
X1461747D01*
Y69192D01*
Y59540D01*
X1436009Y35403D02*
Y45054D01*
X1440835D01*
X1442444Y43446D01*
Y40229D01*
X1440835Y38620D01*
X1436009D01*
X1445661Y45054D02*
X1452096D01*
X1448878D01*
Y35403D01*
X1455313Y45054D02*
Y35403D01*
Y40229D01*
X1461747D01*
Y45054D01*
Y35403D01*
X1436009Y11265D02*
Y20917D01*
X1440835D01*
X1442444Y19308D01*
Y16091D01*
X1440835Y14483D01*
X1436009D01*
X1445661Y20917D02*
X1452096D01*
X1448878D01*
Y11265D01*
X1455313Y20917D02*
Y11265D01*
Y16091D01*
X1461747D01*
Y20917D01*
Y11265D01*
X1436009Y-12872D02*
Y-3220D01*
X1440835D01*
X1442444Y-4829D01*
Y-8046D01*
X1440835Y-9655D01*
X1436009D01*
X1445661Y-3220D02*
X1452096D01*
X1448878D01*
Y-12872D01*
X1455313Y-3220D02*
Y-12872D01*
Y-8046D01*
X1461747D01*
Y-3220D01*
Y-12872D01*
X1249149Y156089D02*
X1252366D01*
X1250757D01*
Y165741D01*
X1249149Y164133D01*
X1257192Y156089D02*
Y157698D01*
X1258801D01*
Y156089D01*
X1257192D01*
X1265235Y164133D02*
X1266844Y165741D01*
X1270061D01*
X1271670Y164133D01*
Y157698D01*
X1270061Y156089D01*
X1266844D01*
X1265235Y157698D01*
Y164133D01*
X1281321Y165741D02*
X1274887D01*
Y160915D01*
X1278104Y162524D01*
X1279713D01*
X1281321Y160915D01*
Y157698D01*
X1279713Y156089D01*
X1276496D01*
X1274887Y157698D01*
X1284539Y164133D02*
X1286147Y165741D01*
X1289365D01*
X1290973Y164133D01*
Y157698D01*
X1289365Y156089D01*
X1286147D01*
X1284539Y157698D01*
Y164133D01*
X1294191Y156089D02*
Y162524D01*
X1295799D01*
X1297408Y160915D01*
Y156089D01*
Y160915D01*
X1299016Y162524D01*
X1300625Y160915D01*
Y156089D01*
X1303842D02*
Y162524D01*
X1305451D01*
X1307060Y160915D01*
Y156089D01*
Y160915D01*
X1308668Y162524D01*
X1310277Y160915D01*
Y156089D01*
X1326363D02*
X1323146Y159307D01*
Y162524D01*
X1326363Y165741D01*
X1336015Y156089D02*
Y165741D01*
X1331189Y160915D01*
X1337624D01*
X1340841Y156089D02*
X1344058D01*
X1342450D01*
Y165741D01*
X1340841Y164133D01*
X1348884Y156089D02*
Y157698D01*
X1350493D01*
Y156089D01*
X1348884D01*
X1356927Y164133D02*
X1358536Y165741D01*
X1361753D01*
X1363362Y164133D01*
Y162524D01*
X1361753Y160915D01*
X1360145D01*
X1361753D01*
X1363362Y159307D01*
Y157698D01*
X1361753Y156089D01*
X1358536D01*
X1356927Y157698D01*
X1371405Y156089D02*
Y165741D01*
X1366579Y160915D01*
X1373014D01*
X1376231Y156089D02*
Y162524D01*
X1377840D01*
X1379448Y160915D01*
Y156089D01*
Y160915D01*
X1381057Y162524D01*
X1382666Y160915D01*
Y156089D01*
X1385883D02*
X1389100D01*
X1387491D01*
Y162524D01*
X1385883D01*
X1393926Y156089D02*
X1397143D01*
X1395535D01*
Y165741D01*
X1393926D01*
X1401969Y156089D02*
X1405186Y159307D01*
Y162524D01*
X1401969Y165741D01*
X1249149Y139995D02*
X1250757Y141604D01*
X1253975D01*
X1255583Y139995D01*
Y133561D01*
X1253975Y131952D01*
X1250757D01*
X1249149Y133561D01*
Y139995D01*
X1258801Y131952D02*
Y133561D01*
X1260409D01*
Y131952D01*
X1258801D01*
X1273278Y141604D02*
X1266844D01*
Y136778D01*
X1270061Y138387D01*
X1271670D01*
X1273278Y136778D01*
Y133561D01*
X1271670Y131952D01*
X1268452D01*
X1266844Y133561D01*
X1276496Y139995D02*
X1278104Y141604D01*
X1281321D01*
X1282930Y139995D01*
Y133561D01*
X1281321Y131952D01*
X1278104D01*
X1276496Y133561D01*
Y139995D01*
X1286147D02*
X1287756Y141604D01*
X1290973D01*
X1292582Y139995D01*
Y133561D01*
X1290973Y131952D01*
X1287756D01*
X1286147Y133561D01*
Y139995D01*
X1295799Y131952D02*
Y138387D01*
X1297408D01*
X1299016Y136778D01*
Y131952D01*
Y136778D01*
X1300625Y138387D01*
X1302234Y136778D01*
Y131952D01*
X1305451D02*
Y138387D01*
X1307060D01*
X1308668Y136778D01*
Y131952D01*
Y136778D01*
X1310277Y138387D01*
X1311886Y136778D01*
Y131952D01*
X1327972D02*
X1324755Y135169D01*
Y138387D01*
X1327972Y141604D01*
X1332798Y131952D02*
X1336015D01*
X1334406D01*
Y141604D01*
X1332798Y139995D01*
X1340841Y133561D02*
X1342450Y131952D01*
X1345667D01*
X1347276Y133561D01*
Y139995D01*
X1345667Y141604D01*
X1342450D01*
X1340841Y139995D01*
Y138387D01*
X1342450Y136778D01*
X1347276D01*
X1350493Y131952D02*
Y133561D01*
X1352101D01*
Y131952D01*
X1350493D01*
X1364971Y141604D02*
X1361753Y139995D01*
X1358536Y136778D01*
Y133561D01*
X1360145Y131952D01*
X1363362D01*
X1364971Y133561D01*
Y135169D01*
X1363362Y136778D01*
X1358536D01*
X1368188Y133561D02*
X1369796Y131952D01*
X1373014D01*
X1374622Y133561D01*
Y139995D01*
X1373014Y141604D01*
X1369796D01*
X1368188Y139995D01*
Y138387D01*
X1369796Y136778D01*
X1374622D01*
X1377840Y131952D02*
Y138387D01*
X1379448D01*
X1381057Y136778D01*
Y131952D01*
Y136778D01*
X1382666Y138387D01*
X1384274Y136778D01*
Y131952D01*
X1387491D02*
X1390709D01*
X1389100D01*
Y138387D01*
X1387491D01*
X1395535Y131952D02*
X1398752D01*
X1397143D01*
Y141604D01*
X1395535D01*
X1403578Y131952D02*
X1406795Y135169D01*
Y138387D01*
X1403578Y141604D01*
X1255583Y107815D02*
X1249149D01*
X1255583Y114249D01*
Y115858D01*
X1253975Y117466D01*
X1250757D01*
X1249149Y115858D01*
X1258801Y107815D02*
Y109423D01*
X1260409D01*
Y107815D01*
X1258801D01*
X1273278D02*
X1266844D01*
X1273278Y114249D01*
Y115858D01*
X1271670Y117466D01*
X1268452D01*
X1266844Y115858D01*
X1276496D02*
X1278104Y117466D01*
X1281321D01*
X1282930Y115858D01*
Y109423D01*
X1281321Y107815D01*
X1278104D01*
X1276496Y109423D01*
Y115858D01*
X1286147D02*
X1287756Y117466D01*
X1290973D01*
X1292582Y115858D01*
Y109423D01*
X1290973Y107815D01*
X1287756D01*
X1286147Y109423D01*
Y115858D01*
X1295799Y107815D02*
Y114249D01*
X1297408D01*
X1299016Y112641D01*
Y107815D01*
Y112641D01*
X1300625Y114249D01*
X1302234Y112641D01*
Y107815D01*
X1305451D02*
Y114249D01*
X1307060D01*
X1308668Y112641D01*
Y107815D01*
Y112641D01*
X1310277Y114249D01*
X1311886Y112641D01*
Y107815D01*
X1327972D02*
X1324755Y111032D01*
Y114249D01*
X1327972Y117466D01*
X1332798Y115858D02*
X1334406Y117466D01*
X1337624D01*
X1339232Y115858D01*
Y114249D01*
X1337624Y112641D01*
X1339232Y111032D01*
Y109423D01*
X1337624Y107815D01*
X1334406D01*
X1332798Y109423D01*
Y111032D01*
X1334406Y112641D01*
X1332798Y114249D01*
Y115858D01*
X1334406Y112641D02*
X1337624D01*
X1348884Y117466D02*
X1345667Y115858D01*
X1342450Y112641D01*
Y109423D01*
X1344058Y107815D01*
X1347276D01*
X1348884Y109423D01*
Y111032D01*
X1347276Y112641D01*
X1342450D01*
X1352101Y107815D02*
Y109423D01*
X1353710D01*
Y107815D01*
X1352101D01*
X1366579Y117466D02*
X1363362Y115858D01*
X1360145Y112641D01*
Y109423D01*
X1361753Y107815D01*
X1364971D01*
X1366579Y109423D01*
Y111032D01*
X1364971Y112641D01*
X1360145D01*
X1369796Y107815D02*
X1373014D01*
X1371405D01*
Y117466D01*
X1369796Y115858D01*
X1377840Y107815D02*
Y114249D01*
X1379448D01*
X1381057Y112641D01*
Y107815D01*
Y112641D01*
X1382666Y114249D01*
X1384274Y112641D01*
Y107815D01*
X1387491D02*
X1390709D01*
X1389100D01*
Y114249D01*
X1387491D01*
X1395535Y107815D02*
X1398752D01*
X1397143D01*
Y117466D01*
X1395535D01*
X1403578Y107815D02*
X1406795Y111032D01*
Y114249D01*
X1403578Y117466D01*
X1255583Y83677D02*
X1249149D01*
X1255583Y90112D01*
Y91721D01*
X1253975Y93329D01*
X1250757D01*
X1249149Y91721D01*
X1258801Y83677D02*
Y85286D01*
X1260409D01*
Y83677D01*
X1258801D01*
X1273278Y93329D02*
X1270061Y91721D01*
X1266844Y88503D01*
Y85286D01*
X1268452Y83677D01*
X1271670D01*
X1273278Y85286D01*
Y86895D01*
X1271670Y88503D01*
X1266844D01*
X1276496Y91721D02*
X1278104Y93329D01*
X1281321D01*
X1282930Y91721D01*
Y85286D01*
X1281321Y83677D01*
X1278104D01*
X1276496Y85286D01*
Y91721D01*
X1286147D02*
X1287756Y93329D01*
X1290973D01*
X1292582Y91721D01*
Y85286D01*
X1290973Y83677D01*
X1287756D01*
X1286147Y85286D01*
Y91721D01*
X1295799Y83677D02*
Y90112D01*
X1297408D01*
X1299016Y88503D01*
Y83677D01*
Y88503D01*
X1300625Y90112D01*
X1302234Y88503D01*
Y83677D01*
X1305451D02*
Y90112D01*
X1307060D01*
X1308668Y88503D01*
Y83677D01*
Y88503D01*
X1310277Y90112D01*
X1311886Y88503D01*
Y83677D01*
X1327972D02*
X1324755Y86895D01*
Y90112D01*
X1327972Y93329D01*
X1332798Y83677D02*
X1336015D01*
X1334406D01*
Y93329D01*
X1332798Y91721D01*
X1340841D02*
X1342450Y93329D01*
X1345667D01*
X1347276Y91721D01*
Y85286D01*
X1345667Y83677D01*
X1342450D01*
X1340841Y85286D01*
Y91721D01*
X1356927Y83677D02*
X1350493D01*
X1356927Y90112D01*
Y91721D01*
X1355319Y93329D01*
X1352101D01*
X1350493Y91721D01*
X1360145Y83677D02*
Y85286D01*
X1361753D01*
Y83677D01*
X1360145D01*
X1368188Y91721D02*
X1369796Y93329D01*
X1373014D01*
X1374622Y91721D01*
Y90112D01*
X1373014Y88503D01*
X1371405D01*
X1373014D01*
X1374622Y86895D01*
Y85286D01*
X1373014Y83677D01*
X1369796D01*
X1368188Y85286D01*
X1384274Y93329D02*
X1381057Y91721D01*
X1377840Y88503D01*
Y85286D01*
X1379448Y83677D01*
X1382666D01*
X1384274Y85286D01*
Y86895D01*
X1382666Y88503D01*
X1377840D01*
X1387491Y83677D02*
Y90112D01*
X1389100D01*
X1390709Y88503D01*
Y83677D01*
Y88503D01*
X1392317Y90112D01*
X1393926Y88503D01*
Y83677D01*
X1397143D02*
X1400361D01*
X1398752D01*
Y90112D01*
X1397143D01*
X1405186Y83677D02*
X1408404D01*
X1406795D01*
Y93329D01*
X1405186D01*
X1413230Y83677D02*
X1416447Y86895D01*
Y90112D01*
X1413230Y93329D01*
X1249149Y59540D02*
X1252366D01*
X1250757D01*
Y69192D01*
X1249149Y67583D01*
X1257192Y59540D02*
Y61149D01*
X1258801D01*
Y59540D01*
X1257192D01*
X1265235Y67583D02*
X1266844Y69192D01*
X1270061D01*
X1271670Y67583D01*
Y61149D01*
X1270061Y59540D01*
X1266844D01*
X1265235Y61149D01*
Y67583D01*
X1281321Y59540D02*
X1274887D01*
X1281321Y65974D01*
Y67583D01*
X1279713Y69192D01*
X1276496D01*
X1274887Y67583D01*
X1284539D02*
X1286147Y69192D01*
X1289365D01*
X1290973Y67583D01*
Y61149D01*
X1289365Y59540D01*
X1286147D01*
X1284539Y61149D01*
Y67583D01*
X1294191Y59540D02*
Y65974D01*
X1295799D01*
X1297408Y64366D01*
Y59540D01*
Y64366D01*
X1299016Y65974D01*
X1300625Y64366D01*
Y59540D01*
X1303842D02*
Y65974D01*
X1305451D01*
X1307060Y64366D01*
Y59540D01*
Y64366D01*
X1308668Y65974D01*
X1310277Y64366D01*
Y59540D01*
X1326363D02*
X1323146Y62757D01*
Y65974D01*
X1326363Y69192D01*
X1336015Y59540D02*
Y69192D01*
X1331189Y64366D01*
X1337624D01*
X1340841Y67583D02*
X1342450Y69192D01*
X1345667D01*
X1347276Y67583D01*
Y61149D01*
X1345667Y59540D01*
X1342450D01*
X1340841Y61149D01*
Y67583D01*
X1350493Y59540D02*
Y61149D01*
X1352101D01*
Y59540D01*
X1350493D01*
X1358536D02*
X1361753D01*
X1360145D01*
Y69192D01*
X1358536Y67583D01*
X1373014Y69192D02*
X1369796Y67583D01*
X1366579Y64366D01*
Y61149D01*
X1368188Y59540D01*
X1371405D01*
X1373014Y61149D01*
Y62757D01*
X1371405Y64366D01*
X1366579D01*
X1376231Y59540D02*
Y65974D01*
X1377840D01*
X1379448Y64366D01*
Y59540D01*
Y64366D01*
X1381057Y65974D01*
X1382666Y64366D01*
Y59540D01*
X1385883D02*
X1389100D01*
X1387491D01*
Y65974D01*
X1385883D01*
X1393926Y59540D02*
X1397143D01*
X1395535D01*
Y69192D01*
X1393926D01*
X1401969Y59540D02*
X1405186Y62757D01*
Y65974D01*
X1401969Y69192D01*
X1249149Y35403D02*
X1252366D01*
X1250757D01*
Y45054D01*
X1249149Y43446D01*
X1257192Y35403D02*
Y37011D01*
X1258801D01*
Y35403D01*
X1257192D01*
X1265235D02*
X1268452D01*
X1266844D01*
Y45054D01*
X1265235Y43446D01*
X1273278D02*
X1274887Y45054D01*
X1278104D01*
X1279713Y43446D01*
Y37011D01*
X1278104Y35403D01*
X1274887D01*
X1273278Y37011D01*
Y43446D01*
X1282930D02*
X1284539Y45054D01*
X1287756D01*
X1289365Y43446D01*
Y37011D01*
X1287756Y35403D01*
X1284539D01*
X1282930Y37011D01*
Y43446D01*
X1292582Y35403D02*
Y41837D01*
X1294191D01*
X1295799Y40229D01*
Y35403D01*
Y40229D01*
X1297408Y41837D01*
X1299016Y40229D01*
Y35403D01*
X1302234D02*
Y41837D01*
X1303842D01*
X1305451Y40229D01*
Y35403D01*
Y40229D01*
X1307060Y41837D01*
X1308668Y40229D01*
Y35403D01*
X1324755D02*
X1321537Y38620D01*
Y41837D01*
X1324755Y45054D01*
X1334406Y35403D02*
Y45054D01*
X1329581Y40229D01*
X1336015D01*
X1339232Y43446D02*
X1340841Y45054D01*
X1344058D01*
X1345667Y43446D01*
Y41837D01*
X1344058Y40229D01*
X1342450D01*
X1344058D01*
X1345667Y38620D01*
Y37011D01*
X1344058Y35403D01*
X1340841D01*
X1339232Y37011D01*
X1348884Y35403D02*
Y37011D01*
X1350493D01*
Y35403D01*
X1348884D01*
X1356927Y43446D02*
X1358536Y45054D01*
X1361753D01*
X1363362Y43446D01*
Y41837D01*
X1361753Y40229D01*
X1360145D01*
X1361753D01*
X1363362Y38620D01*
Y37011D01*
X1361753Y35403D01*
X1358536D01*
X1356927Y37011D01*
X1366579Y35403D02*
X1369796D01*
X1368188D01*
Y45054D01*
X1366579Y43446D01*
X1374622Y35403D02*
Y41837D01*
X1376231D01*
X1377840Y40229D01*
Y35403D01*
Y40229D01*
X1379448Y41837D01*
X1381057Y40229D01*
Y35403D01*
X1384274D02*
X1387491D01*
X1385883D01*
Y41837D01*
X1384274D01*
X1392317Y35403D02*
X1395535D01*
X1393926D01*
Y45054D01*
X1392317D01*
X1400361Y35403D02*
X1403578Y38620D01*
Y41837D01*
X1400361Y45054D01*
X1249149Y19308D02*
X1250757Y20917D01*
X1253975D01*
X1255583Y19308D01*
Y12874D01*
X1253975Y11265D01*
X1250757D01*
X1249149Y12874D01*
Y19308D01*
X1258801Y11265D02*
Y12874D01*
X1260409D01*
Y11265D01*
X1258801D01*
X1266844Y19308D02*
X1268452Y20917D01*
X1271670D01*
X1273278Y19308D01*
Y17700D01*
X1271670Y16091D01*
X1270061D01*
X1271670D01*
X1273278Y14483D01*
Y12874D01*
X1271670Y11265D01*
X1268452D01*
X1266844Y12874D01*
X1276496Y19308D02*
X1278104Y20917D01*
X1281321D01*
X1282930Y19308D01*
Y12874D01*
X1281321Y11265D01*
X1278104D01*
X1276496Y12874D01*
Y19308D01*
X1286147D02*
X1287756Y20917D01*
X1290973D01*
X1292582Y19308D01*
Y12874D01*
X1290973Y11265D01*
X1287756D01*
X1286147Y12874D01*
Y19308D01*
X1295799Y11265D02*
Y17700D01*
X1297408D01*
X1299016Y16091D01*
Y11265D01*
Y16091D01*
X1300625Y17700D01*
X1302234Y16091D01*
Y11265D01*
X1305451D02*
Y17700D01*
X1307060D01*
X1308668Y16091D01*
Y11265D01*
Y16091D01*
X1310277Y17700D01*
X1311886Y16091D01*
Y11265D01*
X1327972D02*
X1324755Y14483D01*
Y17700D01*
X1327972Y20917D01*
X1332798Y11265D02*
X1336015D01*
X1334406D01*
Y20917D01*
X1332798Y19308D01*
X1340841Y11265D02*
X1344058D01*
X1342450D01*
Y20917D01*
X1340841Y19308D01*
X1348884Y11265D02*
Y12874D01*
X1350493D01*
Y11265D01*
X1348884D01*
X1356927Y19308D02*
X1358536Y20917D01*
X1361753D01*
X1363362Y19308D01*
Y17700D01*
X1361753Y16091D01*
X1363362Y14483D01*
Y12874D01*
X1361753Y11265D01*
X1358536D01*
X1356927Y12874D01*
Y14483D01*
X1358536Y16091D01*
X1356927Y17700D01*
Y19308D01*
X1358536Y16091D02*
X1361753D01*
X1366579Y11265D02*
X1369796D01*
X1368188D01*
Y20917D01*
X1366579Y19308D01*
X1374622Y11265D02*
Y17700D01*
X1376231D01*
X1377840Y16091D01*
Y11265D01*
Y16091D01*
X1379448Y17700D01*
X1381057Y16091D01*
Y11265D01*
X1384274D02*
X1387491D01*
X1385883D01*
Y17700D01*
X1384274D01*
X1392317Y11265D02*
X1395535D01*
X1393926D01*
Y20917D01*
X1392317D01*
X1400361Y11265D02*
X1403578Y14483D01*
Y17700D01*
X1400361Y20917D01*
X1249149Y-12872D02*
X1252366D01*
X1250757D01*
Y-3220D01*
X1249149Y-4829D01*
X1257192Y-12872D02*
Y-11264D01*
X1258801D01*
Y-12872D01*
X1257192D01*
X1265235Y-4829D02*
X1266844Y-3220D01*
X1270061D01*
X1271670Y-4829D01*
Y-11264D01*
X1270061Y-12872D01*
X1266844D01*
X1265235Y-11264D01*
Y-4829D01*
X1274887D02*
X1276496Y-3220D01*
X1279713D01*
X1281321Y-4829D01*
Y-11264D01*
X1279713Y-12872D01*
X1276496D01*
X1274887Y-11264D01*
Y-4829D01*
X1284539D02*
X1286147Y-3220D01*
X1289365D01*
X1290973Y-4829D01*
Y-11264D01*
X1289365Y-12872D01*
X1286147D01*
X1284539Y-11264D01*
Y-4829D01*
X1294191Y-12872D02*
Y-6438D01*
X1295799D01*
X1297408Y-8046D01*
Y-12872D01*
Y-8046D01*
X1299016Y-6438D01*
X1300625Y-8046D01*
Y-12872D01*
X1303842D02*
Y-6438D01*
X1305451D01*
X1307060Y-8046D01*
Y-12872D01*
Y-8046D01*
X1308668Y-6438D01*
X1310277Y-8046D01*
Y-12872D01*
X1326363D02*
X1323146Y-9655D01*
Y-6438D01*
X1326363Y-3220D01*
X1331189Y-4829D02*
X1332798Y-3220D01*
X1336015D01*
X1337624Y-4829D01*
Y-6438D01*
X1336015Y-8046D01*
X1334406D01*
X1336015D01*
X1337624Y-9655D01*
Y-11264D01*
X1336015Y-12872D01*
X1332798D01*
X1331189Y-11264D01*
X1340841D02*
X1342450Y-12872D01*
X1345667D01*
X1347276Y-11264D01*
Y-4829D01*
X1345667Y-3220D01*
X1342450D01*
X1340841Y-4829D01*
Y-6438D01*
X1342450Y-8046D01*
X1347276D01*
X1350493Y-12872D02*
Y-11264D01*
X1352101D01*
Y-12872D01*
X1350493D01*
X1358536Y-4829D02*
X1360145Y-3220D01*
X1363362D01*
X1364971Y-4829D01*
Y-6438D01*
X1363362Y-8046D01*
X1361753D01*
X1363362D01*
X1364971Y-9655D01*
Y-11264D01*
X1363362Y-12872D01*
X1360145D01*
X1358536Y-11264D01*
X1368188Y-3220D02*
X1374622D01*
Y-4829D01*
X1368188Y-11264D01*
Y-12872D01*
X1377840D02*
Y-6438D01*
X1379448D01*
X1381057Y-8046D01*
Y-12872D01*
Y-8046D01*
X1382666Y-6438D01*
X1384274Y-8046D01*
Y-12872D01*
X1387491D02*
X1390709D01*
X1389100D01*
Y-6438D01*
X1387491D01*
X1395535Y-12872D02*
X1398752D01*
X1397143D01*
Y-3220D01*
X1395535D01*
X1403578Y-12872D02*
X1406795Y-9655D01*
Y-6438D01*
X1403578Y-3220D01*
X1157198Y-27358D02*
X1153980Y-28966D01*
X1150763Y-32184D01*
Y-35401D01*
X1152372Y-37009D01*
X1155589D01*
X1157198Y-35401D01*
Y-33792D01*
X1155589Y-32184D01*
X1150763D01*
X1166849Y-37009D02*
X1160415D01*
X1166849Y-30575D01*
Y-28966D01*
X1165241Y-27358D01*
X1162023D01*
X1160415Y-28966D01*
X1174893Y-37009D02*
Y-27358D01*
X1170067Y-32184D01*
X1176501D01*
X1189370Y-27358D02*
X1195805D01*
X1192588D01*
Y-37009D01*
X1200631D02*
X1203848D01*
X1205457Y-35401D01*
Y-32184D01*
X1203848Y-30575D01*
X1200631D01*
X1199022Y-32184D01*
Y-35401D01*
X1200631Y-37009D01*
X1210283Y-28966D02*
Y-30575D01*
X1208674D01*
X1211891D01*
X1210283D01*
Y-35401D01*
X1211891Y-37009D01*
X1218326Y-30575D02*
X1221543D01*
X1223152Y-32184D01*
Y-37009D01*
X1218326D01*
X1216717Y-35401D01*
X1218326Y-33792D01*
X1223152D01*
X1226369Y-37009D02*
X1229586D01*
X1227978D01*
Y-27358D01*
X1226369D01*
X1157198Y156089D02*
X1150763D01*
X1157198Y162524D01*
Y164133D01*
X1155589Y165741D01*
X1152372D01*
X1150763Y164133D01*
X1155589Y131952D02*
Y141604D01*
X1150763Y136778D01*
X1157198D01*
X1155589Y107815D02*
Y117466D01*
X1150763Y112641D01*
X1157198D01*
X1155589Y83677D02*
Y93329D01*
X1150763Y88503D01*
X1157198D01*
X1155589Y59540D02*
Y69192D01*
X1150763Y64366D01*
X1157198D01*
X1166849Y69192D02*
X1163632Y67583D01*
X1160415Y64366D01*
Y61149D01*
X1162023Y59540D01*
X1165241D01*
X1166849Y61149D01*
Y62757D01*
X1165241Y64366D01*
X1160415D01*
X1157198Y45054D02*
X1150763D01*
Y40229D01*
X1153980Y41837D01*
X1155589D01*
X1157198Y40229D01*
Y37011D01*
X1155589Y35403D01*
X1152372D01*
X1150763Y37011D01*
X1166849Y35403D02*
X1160415D01*
X1166849Y41837D01*
Y43446D01*
X1165241Y45054D01*
X1162023D01*
X1160415Y43446D01*
X1150763Y19308D02*
X1152372Y20917D01*
X1155589D01*
X1157198Y19308D01*
Y17700D01*
X1155589Y16091D01*
X1157198Y14483D01*
Y12874D01*
X1155589Y11265D01*
X1152372D01*
X1150763Y12874D01*
Y14483D01*
X1152372Y16091D01*
X1150763Y17700D01*
Y19308D01*
X1152372Y16091D02*
X1155589D01*
X1160415Y11265D02*
X1163632D01*
X1162023D01*
Y20917D01*
X1160415Y19308D01*
X1155589Y-12872D02*
Y-3220D01*
X1150763Y-8046D01*
X1157198D01*
X1160415Y-4829D02*
X1162023Y-3220D01*
X1165241D01*
X1166849Y-4829D01*
Y-6438D01*
X1165241Y-8046D01*
X1163632D01*
X1165241D01*
X1166849Y-9655D01*
Y-11264D01*
X1165241Y-12872D01*
X1162023D01*
X1160415Y-11264D01*
X1170067Y-12872D02*
X1173284D01*
X1171675D01*
Y-3220D01*
X1170067Y-4829D01*
X1358904Y-76932D02*
X1365338D01*
X1358904Y-73714D02*
X1365338D01*
X1378208Y-80149D02*
Y-70497D01*
X1383033D01*
X1384642Y-72106D01*
Y-75323D01*
X1383033Y-76932D01*
X1378208D01*
X1381425D02*
X1384642Y-80149D01*
X1389468D02*
X1392685D01*
X1394294Y-78540D01*
Y-75323D01*
X1392685Y-73714D01*
X1389468D01*
X1387859Y-75323D01*
Y-78540D01*
X1389468Y-80149D01*
X1397511Y-73714D02*
Y-78540D01*
X1399120Y-80149D01*
X1403946D01*
Y-73714D01*
X1408772Y-72106D02*
Y-73714D01*
X1407163D01*
X1410380D01*
X1408772D01*
Y-78540D01*
X1410380Y-80149D01*
X1420032D02*
X1416815D01*
X1415206Y-78540D01*
Y-75323D01*
X1416815Y-73714D01*
X1420032D01*
X1421641Y-75323D01*
Y-76932D01*
X1415206D01*
X1431293Y-70497D02*
Y-80149D01*
X1426467D01*
X1424858Y-78540D01*
Y-75323D01*
X1426467Y-73714D01*
X1431293D01*
X1444162Y-80149D02*
Y-70497D01*
X1448987D01*
X1450596Y-72106D01*
Y-75323D01*
X1448987Y-76932D01*
X1444162D01*
X1455422Y-73714D02*
X1458639D01*
X1460248Y-75323D01*
Y-80149D01*
X1455422D01*
X1453813Y-78540D01*
X1455422Y-76932D01*
X1460248D01*
X1465074Y-72106D02*
Y-73714D01*
X1463465D01*
X1466682D01*
X1465074D01*
Y-78540D01*
X1466682Y-80149D01*
X1471508Y-70497D02*
Y-80149D01*
Y-75323D01*
X1473117Y-73714D01*
X1476334D01*
X1477943Y-75323D01*
Y-80149D01*
X1490812Y-70497D02*
Y-80149D01*
X1497247D01*
X1505290D02*
X1502072D01*
X1500464Y-78540D01*
Y-75323D01*
X1502072Y-73714D01*
X1505290D01*
X1506898Y-75323D01*
Y-76932D01*
X1500464D01*
X1510116Y-80149D02*
Y-73714D01*
X1514942D01*
X1516550Y-75323D01*
Y-80149D01*
X1522985Y-83366D02*
X1524593D01*
X1526202Y-81757D01*
Y-73714D01*
X1521376D01*
X1519767Y-75323D01*
Y-78540D01*
X1521376Y-80149D01*
X1526202D01*
X1531028Y-72106D02*
Y-73714D01*
X1529419D01*
X1532637D01*
X1531028D01*
Y-78540D01*
X1532637Y-80149D01*
X1537462Y-70497D02*
Y-80149D01*
Y-75323D01*
X1539071Y-73714D01*
X1542289D01*
X1543897Y-75323D01*
Y-80149D01*
X1556766Y-75323D02*
X1563201D01*
X1559983Y-72106D02*
Y-78540D01*
X1576070Y-70497D02*
X1582504D01*
X1579287D01*
Y-80149D01*
X1587330D02*
X1590548D01*
X1592156Y-78540D01*
Y-75323D01*
X1590548Y-73714D01*
X1587330D01*
X1585722Y-75323D01*
Y-78540D01*
X1587330Y-80149D01*
X1596982D02*
X1600199D01*
X1601808Y-78540D01*
Y-75323D01*
X1600199Y-73714D01*
X1596982D01*
X1595374Y-75323D01*
Y-78540D01*
X1596982Y-80149D01*
X1605025D02*
X1608243D01*
X1606634D01*
Y-70497D01*
X1605025D01*
X1629155Y-72106D02*
X1627546Y-70497D01*
X1624329D01*
X1622720Y-72106D01*
Y-73714D01*
X1624329Y-75323D01*
X1627546D01*
X1629155Y-76932D01*
Y-78540D01*
X1627546Y-80149D01*
X1624329D01*
X1622720Y-78540D01*
X1632372Y-80149D02*
X1635589D01*
X1633981D01*
Y-73714D01*
X1632372D01*
X1640415D02*
X1646850D01*
X1640415Y-80149D01*
X1646850D01*
X1654893D02*
X1651676D01*
X1650067Y-78540D01*
Y-75323D01*
X1651676Y-73714D01*
X1654893D01*
X1656502Y-75323D01*
Y-76932D01*
X1650067D01*
X1669371D02*
X1675805D01*
X1669371Y-73714D02*
X1675805D01*
X1695109Y-72106D02*
X1693500Y-70497D01*
X1690283D01*
X1688674Y-72106D01*
Y-73714D01*
X1690283Y-75323D01*
X1693500D01*
X1695109Y-76932D01*
Y-78540D01*
X1693500Y-80149D01*
X1690283D01*
X1688674Y-78540D01*
X1698326Y-80149D02*
X1701543D01*
X1699935D01*
Y-70497D01*
X1698326D01*
X1707978Y-80149D02*
X1711195D01*
X1712804Y-78540D01*
Y-75323D01*
X1711195Y-73714D01*
X1707978D01*
X1706369Y-75323D01*
Y-78540D01*
X1707978Y-80149D01*
X1717630Y-72106D02*
Y-73714D01*
X1716021D01*
X1719238D01*
X1717630D01*
Y-78540D01*
X1719238Y-80149D01*
X1733716D02*
X1736933D01*
X1735325D01*
Y-70497D01*
X1733716D01*
X1746585Y-80149D02*
X1743368D01*
X1741759Y-78540D01*
Y-75323D01*
X1743368Y-73714D01*
X1746585D01*
X1748194Y-75323D01*
Y-76932D01*
X1741759D01*
X1751411Y-80149D02*
Y-73714D01*
X1756237D01*
X1757846Y-75323D01*
Y-80149D01*
X1764280Y-83366D02*
X1765889D01*
X1767498Y-81757D01*
Y-73714D01*
X1762672D01*
X1761063Y-75323D01*
Y-78540D01*
X1762672Y-80149D01*
X1767498D01*
X1772324Y-72106D02*
Y-73714D01*
X1770715D01*
X1773932D01*
X1772324D01*
Y-78540D01*
X1773932Y-80149D01*
X1778758Y-70497D02*
Y-80149D01*
Y-75323D01*
X1780367Y-73714D01*
X1783584D01*
X1785193Y-75323D01*
Y-80149D01*
X1799670Y-73714D02*
X1802888D01*
X1804496Y-75323D01*
Y-80149D01*
X1799670D01*
X1798062Y-78540D01*
X1799670Y-76932D01*
X1804496D01*
X1807714Y-80149D02*
X1812540D01*
X1814148Y-78540D01*
X1812540Y-76932D01*
X1809322D01*
X1807714Y-75323D01*
X1809322Y-73714D01*
X1814148D01*
X1833452Y-70497D02*
Y-80149D01*
X1828626D01*
X1827017Y-78540D01*
Y-75323D01*
X1828626Y-73714D01*
X1833452D01*
X1841495Y-80149D02*
X1838278D01*
X1836669Y-78540D01*
Y-75323D01*
X1838278Y-73714D01*
X1841495D01*
X1843104Y-75323D01*
Y-76932D01*
X1836669D01*
X1847930Y-80149D02*
Y-72106D01*
Y-75323D01*
X1846321D01*
X1849538D01*
X1847930D01*
Y-72106D01*
X1849538Y-70497D01*
X1854364Y-80149D02*
X1857581D01*
X1855973D01*
Y-73714D01*
X1854364D01*
X1862407Y-80149D02*
Y-73714D01*
X1867233D01*
X1868842Y-75323D01*
Y-80149D01*
X1876885D02*
X1873668D01*
X1872059Y-78540D01*
Y-75323D01*
X1873668Y-73714D01*
X1876885D01*
X1878494Y-75323D01*
Y-76932D01*
X1872059D01*
X1888145Y-70497D02*
Y-80149D01*
X1883320D01*
X1881711Y-78540D01*
Y-75323D01*
X1883320Y-73714D01*
X1888145D01*
X1901015Y-80149D02*
X1904232D01*
X1902623D01*
Y-73714D01*
X1901015D01*
X1909058Y-80149D02*
Y-73714D01*
X1913884D01*
X1915492Y-75323D01*
Y-80149D01*
X1929970Y-72106D02*
Y-73714D01*
X1928361D01*
X1931579D01*
X1929970D01*
Y-78540D01*
X1931579Y-80149D01*
X1936405Y-70497D02*
Y-80149D01*
Y-75323D01*
X1938013Y-73714D01*
X1941230D01*
X1942839Y-75323D01*
Y-80149D01*
X1950882D02*
X1947665D01*
X1946056Y-78540D01*
Y-75323D01*
X1947665Y-73714D01*
X1950882D01*
X1952491Y-75323D01*
Y-76932D01*
X1946056D01*
X1965360Y-80149D02*
Y-70497D01*
X1970186D01*
X1971795Y-72106D01*
Y-75323D01*
X1970186Y-76932D01*
X1965360D01*
X1981446Y-72106D02*
X1979838Y-70497D01*
X1976620D01*
X1975012Y-72106D01*
Y-78540D01*
X1976620Y-80149D01*
X1979838D01*
X1981446Y-78540D01*
X1984664Y-70497D02*
Y-80149D01*
X1989490D01*
X1991098Y-78540D01*
Y-76932D01*
X1989490Y-75323D01*
X1984664D01*
X1989490D01*
X1991098Y-73714D01*
Y-72106D01*
X1989490Y-70497D01*
X1984664D01*
X2003967Y-80149D02*
X2007185D01*
X2005576D01*
Y-70497D01*
X2003967D01*
X2013619Y-73714D02*
X2016836D01*
X2018445Y-75323D01*
Y-80149D01*
X2013619D01*
X2012010Y-78540D01*
X2013619Y-76932D01*
X2018445D01*
X2021662Y-73714D02*
Y-78540D01*
X2023271Y-80149D01*
X2028097D01*
Y-81757D01*
X2026488Y-83366D01*
X2024880D01*
X2028097Y-80149D02*
Y-73714D01*
X2032923Y-80149D02*
X2036140D01*
X2037749Y-78540D01*
Y-75323D01*
X2036140Y-73714D01*
X2032923D01*
X2031314Y-75323D01*
Y-78540D01*
X2032923Y-80149D01*
X2040966Y-73714D02*
Y-78540D01*
X2042575Y-80149D01*
X2047401D01*
Y-73714D01*
X2052226Y-72106D02*
Y-73714D01*
X2050618D01*
X2053835D01*
X2052226D01*
Y-78540D01*
X2053835Y-80149D01*
X1415206Y-58983D02*
X1421641D01*
X1415206Y-55765D02*
X1421641D01*
X1440944Y-54157D02*
X1439336Y-52548D01*
X1436118D01*
X1434510Y-54157D01*
Y-60591D01*
X1436118Y-62200D01*
X1439336D01*
X1440944Y-60591D01*
X1445770Y-55765D02*
X1448987D01*
X1450596Y-57374D01*
Y-62200D01*
X1445770D01*
X1444162Y-60591D01*
X1445770Y-58983D01*
X1450596D01*
X1453813Y-62200D02*
X1457031D01*
X1455422D01*
Y-52548D01*
X1453813D01*
X1468291Y-55765D02*
X1463465D01*
X1461857Y-57374D01*
Y-60591D01*
X1463465Y-62200D01*
X1468291D01*
X1471508Y-55765D02*
Y-60591D01*
X1473117Y-62200D01*
X1477943D01*
Y-55765D01*
X1481160Y-62200D02*
X1484377D01*
X1482769D01*
Y-52548D01*
X1481160D01*
X1490812Y-55765D02*
X1494029D01*
X1495638Y-57374D01*
Y-62200D01*
X1490812D01*
X1489203Y-60591D01*
X1490812Y-58983D01*
X1495638D01*
X1500464Y-54157D02*
Y-55765D01*
X1498855D01*
X1502072D01*
X1500464D01*
Y-60591D01*
X1502072Y-62200D01*
X1511724D02*
X1508507D01*
X1506898Y-60591D01*
Y-57374D01*
X1508507Y-55765D01*
X1511724D01*
X1513333Y-57374D01*
Y-58983D01*
X1506898D01*
X1522985Y-52548D02*
Y-62200D01*
X1518159D01*
X1516550Y-60591D01*
Y-57374D01*
X1518159Y-55765D01*
X1522985D01*
X1537462Y-62200D02*
Y-54157D01*
Y-57374D01*
X1535854D01*
X1539071D01*
X1537462D01*
Y-54157D01*
X1539071Y-52548D01*
X1543897Y-55765D02*
Y-62200D01*
Y-58983D01*
X1545506Y-57374D01*
X1547114Y-55765D01*
X1548723D01*
X1555157Y-62200D02*
X1558375D01*
X1559984Y-60591D01*
Y-57374D01*
X1558375Y-55765D01*
X1555157D01*
X1553549Y-57374D01*
Y-60591D01*
X1555157Y-62200D01*
X1563201D02*
Y-55765D01*
X1564809D01*
X1566418Y-57374D01*
Y-62200D01*
Y-57374D01*
X1568027Y-55765D01*
X1569635Y-57374D01*
Y-62200D01*
X1584113Y-54157D02*
Y-55765D01*
X1582504D01*
X1585722D01*
X1584113D01*
Y-60591D01*
X1585722Y-62200D01*
X1592156D02*
X1595374D01*
X1596982Y-60591D01*
Y-57374D01*
X1595374Y-55765D01*
X1592156D01*
X1590548Y-57374D01*
Y-60591D01*
X1592156Y-62200D01*
X1601808D02*
X1605025D01*
X1606634Y-60591D01*
Y-57374D01*
X1605025Y-55765D01*
X1601808D01*
X1600199Y-57374D01*
Y-60591D01*
X1601808Y-62200D01*
X1609851D02*
X1613069D01*
X1611460D01*
Y-52548D01*
X1609851D01*
X1627546Y-62200D02*
X1632372D01*
X1633981Y-60591D01*
X1632372Y-58983D01*
X1629155D01*
X1627546Y-57374D01*
X1629155Y-55765D01*
X1633981D01*
X1638807Y-54157D02*
Y-55765D01*
X1637198D01*
X1640415D01*
X1638807D01*
Y-60591D01*
X1640415Y-62200D01*
X1646850Y-55765D02*
X1650067D01*
X1651676Y-57374D01*
Y-62200D01*
X1646850D01*
X1645241Y-60591D01*
X1646850Y-58983D01*
X1651676D01*
X1654893Y-55765D02*
Y-62200D01*
Y-58983D01*
X1656502Y-57374D01*
X1658110Y-55765D01*
X1659719D01*
X1666154Y-54157D02*
Y-55765D01*
X1664545D01*
X1667762D01*
X1666154D01*
Y-60591D01*
X1667762Y-62200D01*
X1688674Y-55765D02*
X1683849D01*
X1682240Y-57374D01*
Y-60591D01*
X1683849Y-62200D01*
X1688674D01*
X1696718D02*
X1693500D01*
X1691892Y-60591D01*
Y-57374D01*
X1693500Y-55765D01*
X1696718D01*
X1698326Y-57374D01*
Y-58983D01*
X1691892D01*
X1701543Y-62200D02*
Y-55765D01*
X1706369D01*
X1707978Y-57374D01*
Y-62200D01*
X1712804Y-54157D02*
Y-55765D01*
X1711195D01*
X1714413D01*
X1712804D01*
Y-60591D01*
X1714413Y-62200D01*
X1719238Y-55765D02*
Y-62200D01*
Y-58983D01*
X1720847Y-57374D01*
X1722456Y-55765D01*
X1724064D01*
X1733716Y-62200D02*
X1730499D01*
X1728890Y-60591D01*
Y-57374D01*
X1730499Y-55765D01*
X1733716D01*
X1735325Y-57374D01*
Y-58983D01*
X1728890D01*
X1748194Y-65417D02*
Y-55765D01*
X1753020D01*
X1754629Y-57374D01*
Y-60591D01*
X1753020Y-62200D01*
X1748194D01*
X1759454D02*
X1762672D01*
X1764280Y-60591D01*
Y-57374D01*
X1762672Y-55765D01*
X1759454D01*
X1757846Y-57374D01*
Y-60591D01*
X1759454Y-62200D01*
X1767498D02*
X1772324D01*
X1773932Y-60591D01*
X1772324Y-58983D01*
X1769106D01*
X1767498Y-57374D01*
X1769106Y-55765D01*
X1773932D01*
X1777150Y-62200D02*
X1780367D01*
X1778758D01*
Y-55765D01*
X1777150D01*
X1786801Y-54157D02*
Y-55765D01*
X1785193D01*
X1788410D01*
X1786801D01*
Y-60591D01*
X1788410Y-62200D01*
X1793236D02*
X1796453D01*
X1794845D01*
Y-55765D01*
X1793236D01*
X1802888Y-62200D02*
X1806105D01*
X1807714Y-60591D01*
Y-57374D01*
X1806105Y-55765D01*
X1802888D01*
X1801279Y-57374D01*
Y-60591D01*
X1802888Y-62200D01*
X1810931D02*
Y-55765D01*
X1815757D01*
X1817365Y-57374D01*
Y-62200D01*
X1831843Y-54157D02*
Y-55765D01*
X1830235D01*
X1833452D01*
X1831843D01*
Y-60591D01*
X1833452Y-62200D01*
X1839886D02*
X1843104D01*
X1844712Y-60591D01*
Y-57374D01*
X1843104Y-55765D01*
X1839886D01*
X1838278Y-57374D01*
Y-60591D01*
X1839886Y-62200D01*
X1859190Y-54157D02*
Y-55765D01*
X1857581D01*
X1860799D01*
X1859190D01*
Y-60591D01*
X1860799Y-62200D01*
X1867233D02*
X1870450D01*
X1872059Y-60591D01*
Y-57374D01*
X1870450Y-55765D01*
X1867233D01*
X1865625Y-57374D01*
Y-60591D01*
X1867233Y-62200D01*
X1876885D02*
X1880102D01*
X1881711Y-60591D01*
Y-57374D01*
X1880102Y-55765D01*
X1876885D01*
X1875276Y-57374D01*
Y-60591D01*
X1876885Y-62200D01*
X1884928D02*
X1888145D01*
X1886537D01*
Y-52548D01*
X1884928D01*
X1907449Y-62200D02*
X1904232D01*
X1902623Y-60591D01*
Y-57374D01*
X1904232Y-55765D01*
X1907449D01*
X1909058Y-57374D01*
Y-58983D01*
X1902623D01*
X1912275Y-62200D02*
Y-55765D01*
X1917101D01*
X1918710Y-57374D01*
Y-62200D01*
X1928361Y-52548D02*
Y-62200D01*
X1923535D01*
X1921927Y-60591D01*
Y-57374D01*
X1923535Y-55765D01*
X1928361D01*
X1947665D02*
X1942839D01*
X1941230Y-57374D01*
Y-60591D01*
X1942839Y-62200D01*
X1947665D01*
X1955708D02*
X1952491D01*
X1950882Y-60591D01*
Y-57374D01*
X1952491Y-55765D01*
X1955708D01*
X1957317Y-57374D01*
Y-58983D01*
X1950882D01*
X1960534Y-62200D02*
Y-55765D01*
X1965360D01*
X1966969Y-57374D01*
Y-62200D01*
X1971795Y-54157D02*
Y-55765D01*
X1970186D01*
X1973403D01*
X1971795D01*
Y-60591D01*
X1973403Y-62200D01*
X1978229Y-55765D02*
Y-62200D01*
Y-58983D01*
X1979838Y-57374D01*
X1981446Y-55765D01*
X1983055D01*
X1992707Y-62200D02*
X1989490D01*
X1987881Y-60591D01*
Y-57374D01*
X1989490Y-55765D01*
X1992707D01*
X1994315Y-57374D01*
Y-58983D01*
X1987881D01*
X2007185Y-65417D02*
Y-55765D01*
X2012010D01*
X2013619Y-57374D01*
Y-60591D01*
X2012010Y-62200D01*
X2007185D01*
X2018445D02*
X2021662D01*
X2023271Y-60591D01*
Y-57374D01*
X2021662Y-55765D01*
X2018445D01*
X2016836Y-57374D01*
Y-60591D01*
X2018445Y-62200D01*
X2026488D02*
X2031314D01*
X2032923Y-60591D01*
X2031314Y-58983D01*
X2028097D01*
X2026488Y-57374D01*
X2028097Y-55765D01*
X2032923D01*
X2036140Y-62200D02*
X2039357D01*
X2037749D01*
Y-55765D01*
X2036140D01*
X2045792Y-54157D02*
Y-55765D01*
X2044183D01*
X2047401D01*
X2045792D01*
Y-60591D01*
X2047401Y-62200D01*
X2052227D02*
X2055444D01*
X2053835D01*
Y-55765D01*
X2052227D01*
X2061878Y-62200D02*
X2065096D01*
X2066704Y-60591D01*
Y-57374D01*
X2065096Y-55765D01*
X2061878D01*
X2060270Y-57374D01*
Y-60591D01*
X2061878Y-62200D01*
X2069922D02*
Y-55765D01*
X2074747D01*
X2076356Y-57374D01*
Y-62200D01*
X2079573D02*
Y-60591D01*
X2081182D01*
Y-62200D01*
X2079573D01*
X1061114Y499346D02*
Y489136D01*
X1067921D01*
X1073026Y495943D02*
X1076429D01*
X1078131Y494241D01*
Y489136D01*
X1073026D01*
X1071324Y490838D01*
X1073026Y492539D01*
X1078131D01*
X1081534Y495943D02*
Y490838D01*
X1083236Y489136D01*
X1088341D01*
Y487435D01*
X1086639Y485733D01*
X1084937D01*
X1088341Y489136D02*
Y495943D01*
X1096849Y489136D02*
X1093446D01*
X1091744Y490838D01*
Y494241D01*
X1093446Y495943D01*
X1096849D01*
X1098551Y494241D01*
Y492539D01*
X1091744D01*
X1101954Y495943D02*
Y489136D01*
Y492539D01*
X1103656Y494241D01*
X1105357Y495943D01*
X1107059D01*
X1066219Y305298D02*
Y315508D01*
X1061114Y310403D01*
X1067921D01*
X1061114Y354659D02*
X1062816Y356361D01*
X1066219D01*
X1067921Y354659D01*
Y352957D01*
X1066219Y351256D01*
X1064518D01*
X1066219D01*
X1067921Y349554D01*
Y347852D01*
X1066219Y346151D01*
X1062816D01*
X1061114Y347852D01*
X1067921Y387004D02*
X1061114D01*
X1067921Y393810D01*
Y395512D01*
X1066219Y397214D01*
X1062816D01*
X1061114Y395512D01*
Y427857D02*
X1064518D01*
X1062816D01*
Y438067D01*
X1061114Y436365D01*
X1132566Y489136D02*
Y499346D01*
X1139372Y489136D01*
Y499346D01*
X1144477Y495943D02*
X1147880D01*
X1149582Y494241D01*
Y489136D01*
X1144477D01*
X1142775Y490838D01*
X1144477Y492539D01*
X1149582D01*
X1152986Y489136D02*
Y495943D01*
X1154687D01*
X1156389Y494241D01*
Y489136D01*
Y494241D01*
X1158090Y495943D01*
X1159792Y494241D01*
Y489136D01*
X1168300D02*
X1164897D01*
X1163195Y490838D01*
Y494241D01*
X1164897Y495943D01*
X1168300D01*
X1170002Y494241D01*
Y492539D01*
X1163195D01*
X1132566Y274655D02*
Y264445D01*
X1137671D01*
X1139372Y266146D01*
Y267848D01*
X1137671Y269550D01*
X1132566D01*
X1137671D01*
X1139372Y271251D01*
Y272953D01*
X1137671Y274655D01*
X1132566D01*
X1144477Y264445D02*
X1147880D01*
X1149582Y266146D01*
Y269550D01*
X1147880Y271251D01*
X1144477D01*
X1142775Y269550D01*
Y266146D01*
X1144477Y264445D01*
X1154687Y272953D02*
Y271251D01*
X1152986D01*
X1156389D01*
X1154687D01*
Y266146D01*
X1156389Y264445D01*
X1163195Y272953D02*
Y271251D01*
X1161494D01*
X1164897D01*
X1163195D01*
Y266146D01*
X1164897Y264445D01*
X1171704D02*
X1175107D01*
X1176809Y266146D01*
Y269550D01*
X1175107Y271251D01*
X1171704D01*
X1170002Y269550D01*
Y266146D01*
X1171704Y264445D01*
X1180212D02*
Y271251D01*
X1181914D01*
X1183615Y269550D01*
Y264445D01*
Y269550D01*
X1185317Y271251D01*
X1187019Y269550D01*
Y264445D01*
X1205737Y274655D02*
X1202334D01*
X1200632Y272953D01*
Y266146D01*
X1202334Y264445D01*
X1205737D01*
X1207439Y266146D01*
Y272953D01*
X1205737Y274655D01*
X1210842Y271251D02*
X1214245Y264445D01*
X1217649Y271251D01*
X1226157Y264445D02*
X1222754D01*
X1221052Y266146D01*
Y269550D01*
X1222754Y271251D01*
X1226157D01*
X1227859Y269550D01*
Y267848D01*
X1221052D01*
X1231262Y271251D02*
Y264445D01*
Y267848D01*
X1232963Y269550D01*
X1234665Y271251D01*
X1236367D01*
X1241472Y264445D02*
X1244875D01*
X1243174D01*
Y274655D01*
X1241472D01*
X1251682Y271251D02*
X1255085D01*
X1256787Y269550D01*
Y264445D01*
X1251682D01*
X1249980Y266146D01*
X1251682Y267848D01*
X1256787D01*
X1260190Y271251D02*
Y266146D01*
X1261892Y264445D01*
X1266997D01*
Y262743D01*
X1265295Y261041D01*
X1263593D01*
X1266997Y264445D02*
Y271251D01*
X1132566Y295081D02*
Y284871D01*
X1137671D01*
X1139372Y286573D01*
Y288274D01*
X1137671Y289976D01*
X1132566D01*
X1137671D01*
X1139372Y291678D01*
Y293379D01*
X1137671Y295081D01*
X1132566D01*
X1144477Y284871D02*
X1147880D01*
X1149582Y286573D01*
Y289976D01*
X1147880Y291678D01*
X1144477D01*
X1142775Y289976D01*
Y286573D01*
X1144477Y284871D01*
X1154687Y293379D02*
Y291678D01*
X1152986D01*
X1156389D01*
X1154687D01*
Y286573D01*
X1156389Y284871D01*
X1163195Y293379D02*
Y291678D01*
X1161494D01*
X1164897D01*
X1163195D01*
Y286573D01*
X1164897Y284871D01*
X1171704D02*
X1175107D01*
X1176809Y286573D01*
Y289976D01*
X1175107Y291678D01*
X1171704D01*
X1170002Y289976D01*
Y286573D01*
X1171704Y284871D01*
X1180212D02*
Y291678D01*
X1181914D01*
X1183615Y289976D01*
Y284871D01*
Y289976D01*
X1185317Y291678D01*
X1187019Y289976D01*
Y284871D01*
X1207439Y293379D02*
X1205737Y295081D01*
X1202334D01*
X1200632Y293379D01*
Y291678D01*
X1202334Y289976D01*
X1205737D01*
X1207439Y288274D01*
Y286573D01*
X1205737Y284871D01*
X1202334D01*
X1200632Y286573D01*
X1212544Y284871D02*
X1215947D01*
X1217649Y286573D01*
Y289976D01*
X1215947Y291678D01*
X1212544D01*
X1210842Y289976D01*
Y286573D01*
X1212544Y284871D01*
X1221052D02*
X1224455D01*
X1222754D01*
Y295081D01*
X1221052D01*
X1236367D02*
Y284871D01*
X1231262D01*
X1229560Y286573D01*
Y289976D01*
X1231262Y291678D01*
X1236367D01*
X1244875Y284871D02*
X1241472D01*
X1239770Y286573D01*
Y289976D01*
X1241472Y291678D01*
X1244875D01*
X1246577Y289976D01*
Y288274D01*
X1239770D01*
X1249980Y291678D02*
Y284871D01*
Y288274D01*
X1251682Y289976D01*
X1253383Y291678D01*
X1255085D01*
X1132566Y315508D02*
Y305298D01*
X1137671D01*
X1139372Y306999D01*
Y308701D01*
X1137671Y310403D01*
X1132566D01*
X1137671D01*
X1139372Y312104D01*
Y313806D01*
X1137671Y315508D01*
X1132566D01*
X1144477Y305298D02*
X1147880D01*
X1149582Y306999D01*
Y310403D01*
X1147880Y312104D01*
X1144477D01*
X1142775Y310403D01*
Y306999D01*
X1144477Y305298D01*
X1154687Y313806D02*
Y312104D01*
X1152986D01*
X1156389D01*
X1154687D01*
Y306999D01*
X1156389Y305298D01*
X1163195Y313806D02*
Y312104D01*
X1161494D01*
X1164897D01*
X1163195D01*
Y306999D01*
X1164897Y305298D01*
X1171704D02*
X1175107D01*
X1176809Y306999D01*
Y310403D01*
X1175107Y312104D01*
X1171704D01*
X1170002Y310403D01*
Y306999D01*
X1171704Y305298D01*
X1180212D02*
Y312104D01*
X1181914D01*
X1183615Y310403D01*
Y305298D01*
Y310403D01*
X1185317Y312104D01*
X1187019Y310403D01*
Y305298D01*
X1200632Y315508D02*
Y305298D01*
X1207439D01*
X1212544Y312104D02*
X1215947D01*
X1217649Y310403D01*
Y305298D01*
X1212544D01*
X1210842Y306999D01*
X1212544Y308701D01*
X1217649D01*
X1221052Y312104D02*
Y306999D01*
X1222754Y305298D01*
X1227859D01*
Y303596D01*
X1226157Y301894D01*
X1224455D01*
X1227859Y305298D02*
Y312104D01*
X1236367Y305298D02*
X1232963D01*
X1231262Y306999D01*
Y310403D01*
X1232963Y312104D01*
X1236367D01*
X1238068Y310403D01*
Y308701D01*
X1231262D01*
X1241472Y312104D02*
Y305298D01*
Y308701D01*
X1243174Y310403D01*
X1244875Y312104D01*
X1246577D01*
X1132566Y335934D02*
Y325724D01*
X1137671D01*
X1139372Y327426D01*
Y334232D01*
X1137671Y335934D01*
X1132566D01*
X1142775Y325724D02*
X1146179D01*
X1144477D01*
Y332531D01*
X1142775D01*
X1156389Y325724D02*
X1152986D01*
X1151284Y327426D01*
Y330829D01*
X1152986Y332531D01*
X1156389D01*
X1158090Y330829D01*
Y329127D01*
X1151284D01*
X1161494Y325724D02*
X1164897D01*
X1163195D01*
Y335934D01*
X1161494D01*
X1175107Y325724D02*
X1171704D01*
X1170002Y327426D01*
Y330829D01*
X1171704Y332531D01*
X1175107D01*
X1176809Y330829D01*
Y329127D01*
X1170002D01*
X1187019Y332531D02*
X1181914D01*
X1180212Y330829D01*
Y327426D01*
X1181914Y325724D01*
X1187019D01*
X1192124Y334232D02*
Y332531D01*
X1190422D01*
X1193825D01*
X1192124D01*
Y327426D01*
X1193825Y325724D01*
X1198930Y332531D02*
Y325724D01*
Y329127D01*
X1200632Y330829D01*
X1202334Y332531D01*
X1204035D01*
X1209140Y325724D02*
X1212544D01*
X1210842D01*
Y332531D01*
X1209140D01*
X1224455D02*
X1219350D01*
X1217649Y330829D01*
Y327426D01*
X1219350Y325724D01*
X1224455D01*
X1234665D02*
X1227859D01*
X1234665Y332531D01*
Y334232D01*
X1232963Y335934D01*
X1229560D01*
X1227859Y334232D01*
X1132566Y346151D02*
Y356361D01*
X1135969Y352957D01*
X1139372Y356361D01*
Y346151D01*
X1142775D02*
X1146179D01*
X1144477D01*
Y352957D01*
X1142775D01*
X1158090Y356361D02*
Y346151D01*
X1152986D01*
X1151284Y347852D01*
Y351256D01*
X1152986Y352957D01*
X1158090D01*
X1161494Y351256D02*
X1168300D01*
X1171704Y356361D02*
Y346151D01*
X1178510D01*
X1183615Y352957D02*
X1187019D01*
X1188720Y351256D01*
Y346151D01*
X1183615D01*
X1181914Y347852D01*
X1183615Y349554D01*
X1188720D01*
X1192124Y352957D02*
Y347852D01*
X1193825Y346151D01*
X1198930D01*
Y344449D01*
X1197229Y342747D01*
X1195527D01*
X1198930Y346151D02*
Y352957D01*
X1207439Y346151D02*
X1204035D01*
X1202334Y347852D01*
Y351256D01*
X1204035Y352957D01*
X1207439D01*
X1209140Y351256D01*
Y349554D01*
X1202334D01*
X1212544Y352957D02*
Y346151D01*
Y349554D01*
X1214245Y351256D01*
X1215947Y352957D01*
X1217649D01*
X1239770Y346151D02*
X1232963D01*
X1239770Y352957D01*
Y354659D01*
X1238068Y356361D01*
X1234665D01*
X1232963Y354659D01*
X1132566Y376787D02*
Y366577D01*
X1137671D01*
X1139372Y368279D01*
Y375085D01*
X1137671Y376787D01*
X1132566D01*
X1142775Y366577D02*
X1146179D01*
X1144477D01*
Y373384D01*
X1142775D01*
X1156389Y366577D02*
X1152986D01*
X1151284Y368279D01*
Y371682D01*
X1152986Y373384D01*
X1156389D01*
X1158090Y371682D01*
Y369980D01*
X1151284D01*
X1161494Y366577D02*
X1164897D01*
X1163195D01*
Y376787D01*
X1161494D01*
X1175107Y366577D02*
X1171704D01*
X1170002Y368279D01*
Y371682D01*
X1171704Y373384D01*
X1175107D01*
X1176809Y371682D01*
Y369980D01*
X1170002D01*
X1187019Y373384D02*
X1181914D01*
X1180212Y371682D01*
Y368279D01*
X1181914Y366577D01*
X1187019D01*
X1192124Y375085D02*
Y373384D01*
X1190422D01*
X1193825D01*
X1192124D01*
Y368279D01*
X1193825Y366577D01*
X1198930Y373384D02*
Y366577D01*
Y369980D01*
X1200632Y371682D01*
X1202334Y373384D01*
X1204035D01*
X1209140Y366577D02*
X1212544D01*
X1210842D01*
Y373384D01*
X1209140D01*
X1224455D02*
X1219350D01*
X1217649Y371682D01*
Y368279D01*
X1219350Y366577D01*
X1224455D01*
X1227859Y375085D02*
X1229560Y376787D01*
X1232963D01*
X1234665Y375085D01*
Y373384D01*
X1232963Y371682D01*
X1231262D01*
X1232963D01*
X1234665Y369980D01*
Y368279D01*
X1232963Y366577D01*
X1229560D01*
X1227859Y368279D01*
X1132566Y387004D02*
Y397214D01*
X1135969Y393810D01*
X1139372Y397214D01*
Y387004D01*
X1142775D02*
X1146179D01*
X1144477D01*
Y393810D01*
X1142775D01*
X1158090Y397214D02*
Y387004D01*
X1152986D01*
X1151284Y388705D01*
Y392109D01*
X1152986Y393810D01*
X1158090D01*
X1161494Y392109D02*
X1168300D01*
X1171704Y397214D02*
Y387004D01*
X1178510D01*
X1183615Y393810D02*
X1187019D01*
X1188720Y392109D01*
Y387004D01*
X1183615D01*
X1181914Y388705D01*
X1183615Y390407D01*
X1188720D01*
X1192124Y393810D02*
Y388705D01*
X1193825Y387004D01*
X1198930D01*
Y385302D01*
X1197229Y383600D01*
X1195527D01*
X1198930Y387004D02*
Y393810D01*
X1207439Y387004D02*
X1204035D01*
X1202334Y388705D01*
Y392109D01*
X1204035Y393810D01*
X1207439D01*
X1209140Y392109D01*
Y390407D01*
X1202334D01*
X1212544Y393810D02*
Y387004D01*
Y390407D01*
X1214245Y392109D01*
X1215947Y393810D01*
X1217649D01*
X1232963Y387004D02*
X1236367D01*
X1234665D01*
Y397214D01*
X1232963Y395512D01*
X1132566Y417640D02*
Y407430D01*
X1137671D01*
X1139372Y409132D01*
Y415938D01*
X1137671Y417640D01*
X1132566D01*
X1142775Y407430D02*
X1146179D01*
X1144477D01*
Y414237D01*
X1142775D01*
X1156389Y407430D02*
X1152986D01*
X1151284Y409132D01*
Y412535D01*
X1152986Y414237D01*
X1156389D01*
X1158090Y412535D01*
Y410833D01*
X1151284D01*
X1161494Y407430D02*
X1164897D01*
X1163195D01*
Y417640D01*
X1161494D01*
X1175107Y407430D02*
X1171704D01*
X1170002Y409132D01*
Y412535D01*
X1171704Y414237D01*
X1175107D01*
X1176809Y412535D01*
Y410833D01*
X1170002D01*
X1187019Y414237D02*
X1181914D01*
X1180212Y412535D01*
Y409132D01*
X1181914Y407430D01*
X1187019D01*
X1192124Y415938D02*
Y414237D01*
X1190422D01*
X1193825D01*
X1192124D01*
Y409132D01*
X1193825Y407430D01*
X1198930Y414237D02*
Y407430D01*
Y410833D01*
X1200632Y412535D01*
X1202334Y414237D01*
X1204035D01*
X1209140Y407430D02*
X1212544D01*
X1210842D01*
Y414237D01*
X1209140D01*
X1224455D02*
X1219350D01*
X1217649Y412535D01*
Y409132D01*
X1219350Y407430D01*
X1224455D01*
X1238068D02*
X1241472D01*
X1239770D01*
Y417640D01*
X1238068Y415938D01*
X1132566Y438067D02*
X1139372D01*
X1135969D01*
Y427857D01*
X1144477D02*
X1147880D01*
X1149582Y429558D01*
Y432962D01*
X1147880Y434663D01*
X1144477D01*
X1142775Y432962D01*
Y429558D01*
X1144477Y427857D01*
X1152986Y424453D02*
Y434663D01*
X1158090D01*
X1159792Y432962D01*
Y429558D01*
X1158090Y427857D01*
X1152986D01*
X1173405Y438067D02*
Y427857D01*
X1180212D01*
X1185317Y434663D02*
X1188720D01*
X1190422Y432962D01*
Y427857D01*
X1185317D01*
X1183615Y429558D01*
X1185317Y431260D01*
X1190422D01*
X1193825Y434663D02*
Y429558D01*
X1195527Y427857D01*
X1200632D01*
Y426155D01*
X1198930Y424453D01*
X1197229D01*
X1200632Y427857D02*
Y434663D01*
X1209140Y427857D02*
X1205737D01*
X1204035Y429558D01*
Y432962D01*
X1205737Y434663D01*
X1209140D01*
X1210842Y432962D01*
Y431260D01*
X1204035D01*
X1214245Y434663D02*
Y427857D01*
Y431260D01*
X1215947Y432962D01*
X1217648Y434663D01*
X1219350D01*
X1132566Y458493D02*
X1139372D01*
X1135969D01*
Y448283D01*
X1144477D02*
X1147880D01*
X1149582Y449985D01*
Y453388D01*
X1147880Y455090D01*
X1144477D01*
X1142775Y453388D01*
Y449985D01*
X1144477Y448283D01*
X1152986Y444880D02*
Y455090D01*
X1158090D01*
X1159792Y453388D01*
Y449985D01*
X1158090Y448283D01*
X1152986D01*
X1180212Y456791D02*
X1178510Y458493D01*
X1175107D01*
X1173405Y456791D01*
Y455090D01*
X1175107Y453388D01*
X1178510D01*
X1180212Y451686D01*
Y449985D01*
X1178510Y448283D01*
X1175107D01*
X1173405Y449985D01*
X1185317Y448283D02*
X1188720D01*
X1190422Y449985D01*
Y453388D01*
X1188720Y455090D01*
X1185317D01*
X1183615Y453388D01*
Y449985D01*
X1185317Y448283D01*
X1193825D02*
X1197229D01*
X1195527D01*
Y458493D01*
X1193825D01*
X1209140D02*
Y448283D01*
X1204035D01*
X1202334Y449985D01*
Y453388D01*
X1204035Y455090D01*
X1209140D01*
X1217649Y448283D02*
X1214245D01*
X1212544Y449985D01*
Y453388D01*
X1214245Y455090D01*
X1217649D01*
X1219350Y453388D01*
Y451686D01*
X1212544D01*
X1222754Y455090D02*
Y448283D01*
Y451686D01*
X1224455Y453388D01*
X1226157Y455090D01*
X1227859D01*
X1132566Y478920D02*
X1139372D01*
X1135969D01*
Y468710D01*
X1144477D02*
X1147880D01*
X1149582Y470411D01*
Y473815D01*
X1147880Y475516D01*
X1144477D01*
X1142775Y473815D01*
Y470411D01*
X1144477Y468710D01*
X1152986Y465306D02*
Y475516D01*
X1158090D01*
X1159792Y473815D01*
Y470411D01*
X1158090Y468710D01*
X1152986D01*
X1178510Y478920D02*
X1175107D01*
X1173405Y477218D01*
Y470411D01*
X1175107Y468710D01*
X1178510D01*
X1180212Y470411D01*
Y477218D01*
X1178510Y478920D01*
X1183615Y475516D02*
X1187019Y468710D01*
X1190422Y475516D01*
X1198930Y468710D02*
X1195527D01*
X1193825Y470411D01*
Y473815D01*
X1195527Y475516D01*
X1198930D01*
X1200632Y473815D01*
Y472113D01*
X1193825D01*
X1204035Y475516D02*
Y468710D01*
Y472113D01*
X1205737Y473815D01*
X1207439Y475516D01*
X1209140D01*
X1214245Y468710D02*
X1217648D01*
X1215947D01*
Y478920D01*
X1214245D01*
X1224455Y475516D02*
X1227859D01*
X1229560Y473815D01*
Y468710D01*
X1224455D01*
X1222754Y470411D01*
X1224455Y472113D01*
X1229560D01*
X1232963Y475516D02*
Y470411D01*
X1234665Y468710D01*
X1239770D01*
Y467008D01*
X1238068Y465306D01*
X1236367D01*
X1239770Y468710D02*
Y475516D01*
X1292503Y489136D02*
Y499346D01*
X1295907Y495943D01*
X1299310Y499346D01*
Y489136D01*
X1304415Y495943D02*
X1307818D01*
X1309520Y494241D01*
Y489136D01*
X1304415D01*
X1302713Y490838D01*
X1304415Y492539D01*
X1309520D01*
X1314625Y497644D02*
Y495943D01*
X1312923D01*
X1316326D01*
X1314625D01*
Y490838D01*
X1316326Y489136D01*
X1326537D02*
X1323133D01*
X1321431Y490838D01*
Y494241D01*
X1323133Y495943D01*
X1326537D01*
X1328238Y494241D01*
Y492539D01*
X1321431D01*
X1331642Y495943D02*
Y489136D01*
Y492539D01*
X1333343Y494241D01*
X1335045Y495943D01*
X1336747D01*
X1341851Y489136D02*
X1345255D01*
X1343553D01*
Y495943D01*
X1341851D01*
X1352061D02*
X1355465D01*
X1357166Y494241D01*
Y489136D01*
X1352061D01*
X1350360Y490838D01*
X1352061Y492539D01*
X1357166D01*
X1360570Y489136D02*
X1363973D01*
X1362271D01*
Y499346D01*
X1360570D01*
X1299310Y293379D02*
X1297608Y295081D01*
X1294205D01*
X1292503Y293379D01*
Y291678D01*
X1294205Y289976D01*
X1297608D01*
X1299310Y288274D01*
Y286573D01*
X1297608Y284871D01*
X1294205D01*
X1292503Y286573D01*
X1304415Y284871D02*
X1307818D01*
X1309520Y286573D01*
Y289976D01*
X1307818Y291678D01*
X1304415D01*
X1302713Y289976D01*
Y286573D01*
X1304415Y284871D01*
X1312923D02*
X1316326D01*
X1314625D01*
Y295081D01*
X1312923D01*
X1328238D02*
Y284871D01*
X1323133D01*
X1321431Y286573D01*
Y289976D01*
X1323133Y291678D01*
X1328238D01*
X1336747Y284871D02*
X1333343D01*
X1331642Y286573D01*
Y289976D01*
X1333343Y291678D01*
X1336747D01*
X1338448Y289976D01*
Y288274D01*
X1331642D01*
X1341851Y291678D02*
Y284871D01*
Y288274D01*
X1343553Y289976D01*
X1345255Y291678D01*
X1346956D01*
X1362271Y284871D02*
Y295081D01*
X1367376D01*
X1369078Y293379D01*
Y289976D01*
X1367376Y288274D01*
X1362271D01*
X1365675D02*
X1369078Y284871D01*
X1377586D02*
X1374183D01*
X1372481Y286573D01*
Y289976D01*
X1374183Y291678D01*
X1377586D01*
X1379288Y289976D01*
Y288274D01*
X1372481D01*
X1382691Y284871D02*
X1387796D01*
X1389498Y286573D01*
X1387796Y288274D01*
X1384393D01*
X1382691Y289976D01*
X1384393Y291678D01*
X1389498D01*
X1392901Y284871D02*
X1396304D01*
X1394603D01*
Y291678D01*
X1392901D01*
X1401409Y284871D02*
X1406514D01*
X1408216Y286573D01*
X1406514Y288274D01*
X1403111D01*
X1401409Y289976D01*
X1403111Y291678D01*
X1408216D01*
X1413321Y293379D02*
Y291678D01*
X1411620D01*
X1415023D01*
X1413321D01*
Y286573D01*
X1415023Y284871D01*
X1299310Y335934D02*
X1292503D01*
Y330829D01*
X1295907D01*
X1292503D01*
Y325724D01*
X1302713D02*
Y335934D01*
X1307818D01*
X1309520Y334232D01*
Y330829D01*
X1307818Y329127D01*
X1302713D01*
X1306116D02*
X1309520Y325724D01*
X1312923Y330829D02*
X1319730D01*
X1328238Y325724D02*
Y335934D01*
X1323133Y330829D01*
X1329940D01*
X1299310Y376787D02*
X1292503D01*
Y371682D01*
X1295907D01*
X1292503D01*
Y366577D01*
X1302713D02*
Y376787D01*
X1307818D01*
X1309520Y375085D01*
Y371682D01*
X1307818Y369980D01*
X1302713D01*
X1306116D02*
X1309520Y366577D01*
X1312923Y371682D02*
X1319730D01*
X1328238Y366577D02*
Y376787D01*
X1323133Y371682D01*
X1329940D01*
X1299310Y417640D02*
X1292503D01*
Y412535D01*
X1295907D01*
X1292503D01*
Y407430D01*
X1302713D02*
Y417640D01*
X1307818D01*
X1309520Y415938D01*
Y412535D01*
X1307818Y410833D01*
X1302713D01*
X1306116D02*
X1309520Y407430D01*
X1312923Y412535D02*
X1319730D01*
X1328238Y407430D02*
Y417640D01*
X1323133Y412535D01*
X1329940D01*
X1299310Y456791D02*
X1297608Y458493D01*
X1294205D01*
X1292503Y456791D01*
Y455090D01*
X1294205Y453388D01*
X1297608D01*
X1299310Y451686D01*
Y449985D01*
X1297608Y448283D01*
X1294205D01*
X1292503Y449985D01*
X1304415Y448283D02*
X1307818D01*
X1309520Y449985D01*
Y453388D01*
X1307818Y455090D01*
X1304415D01*
X1302713Y453388D01*
Y449985D01*
X1304415Y448283D01*
X1312923D02*
X1316326D01*
X1314625D01*
Y458493D01*
X1312923D01*
X1328238D02*
Y448283D01*
X1323133D01*
X1321431Y449985D01*
Y453388D01*
X1323133Y455090D01*
X1328238D01*
X1336747Y448283D02*
X1333343D01*
X1331642Y449985D01*
Y453388D01*
X1333343Y455090D01*
X1336747D01*
X1338448Y453388D01*
Y451686D01*
X1331642D01*
X1341851Y455090D02*
Y448283D01*
Y451686D01*
X1343553Y453388D01*
X1345255Y455090D01*
X1346956D01*
X1362271Y448283D02*
Y458493D01*
X1367376D01*
X1369078Y456791D01*
Y453388D01*
X1367376Y451686D01*
X1362271D01*
X1365675D02*
X1369078Y448283D01*
X1377586D02*
X1374183D01*
X1372481Y449985D01*
Y453388D01*
X1374183Y455090D01*
X1377586D01*
X1379288Y453388D01*
Y451686D01*
X1372481D01*
X1382691Y448283D02*
X1387796D01*
X1389498Y449985D01*
X1387796Y451686D01*
X1384393D01*
X1382691Y453388D01*
X1384393Y455090D01*
X1389498D01*
X1392901Y448283D02*
X1396304D01*
X1394603D01*
Y455090D01*
X1392901D01*
X1401409Y448283D02*
X1406514D01*
X1408216Y449985D01*
X1406514Y451686D01*
X1403111D01*
X1401409Y453388D01*
X1403111Y455090D01*
X1408216D01*
X1413321Y456791D02*
Y455090D01*
X1411620D01*
X1415023D01*
X1413321D01*
Y449985D01*
X1415023Y448283D01*
X1440529Y499346D02*
X1447336D01*
X1443933D01*
Y489136D01*
X1450739Y499346D02*
Y489136D01*
Y494241D01*
X1452441Y495943D01*
X1455844D01*
X1457546Y494241D01*
Y489136D01*
X1460949D02*
X1464353D01*
X1462651D01*
Y495943D01*
X1460949D01*
X1476264D02*
X1471159D01*
X1469458Y494241D01*
Y490838D01*
X1471159Y489136D01*
X1476264D01*
X1479668D02*
Y499346D01*
Y492539D02*
X1484772Y495943D01*
X1479668Y492539D02*
X1484772Y489136D01*
X1489877D02*
Y495943D01*
X1494982D01*
X1496684Y494241D01*
Y489136D01*
X1505193D02*
X1501789D01*
X1500087Y490838D01*
Y494241D01*
X1501789Y495943D01*
X1505193D01*
X1506894Y494241D01*
Y492539D01*
X1500087D01*
X1510297Y489136D02*
X1515402D01*
X1517104Y490838D01*
X1515402Y492539D01*
X1511999D01*
X1510297Y494241D01*
X1511999Y495943D01*
X1517104D01*
X1520507Y489136D02*
X1525612D01*
X1527314Y490838D01*
X1525612Y492539D01*
X1522209D01*
X1520507Y494241D01*
X1522209Y495943D01*
X1527314D01*
X1440529Y293379D02*
X1442231Y295081D01*
X1445634D01*
X1447336Y293379D01*
Y286573D01*
X1445634Y284871D01*
X1442231D01*
X1440529Y286573D01*
Y293379D01*
X1450739Y284871D02*
Y286573D01*
X1452441D01*
Y284871D01*
X1450739D01*
X1459248Y293379D02*
X1460949Y295081D01*
X1464353D01*
X1466054Y293379D01*
Y286573D01*
X1464353Y284871D01*
X1460949D01*
X1459248Y286573D01*
Y293379D01*
X1469458Y284871D02*
X1472861D01*
X1471159D01*
Y295081D01*
X1469458Y293379D01*
X1477966D02*
X1479668Y295081D01*
X1483071D01*
X1484772Y293379D01*
Y286573D01*
X1483071Y284871D01*
X1479668D01*
X1477966Y286573D01*
Y293379D01*
X1488176Y284871D02*
Y291678D01*
X1489877D01*
X1491579Y289976D01*
Y284871D01*
Y289976D01*
X1493281Y291678D01*
X1494982Y289976D01*
Y284871D01*
X1498386D02*
Y291678D01*
X1500087D01*
X1501789Y289976D01*
Y284871D01*
Y289976D01*
X1503491Y291678D01*
X1505193Y289976D01*
Y284871D01*
X1440529Y313806D02*
X1442231Y315508D01*
X1445634D01*
X1447336Y313806D01*
Y306999D01*
X1445634Y305298D01*
X1442231D01*
X1440529Y306999D01*
Y313806D01*
X1450739Y305298D02*
Y306999D01*
X1452441D01*
Y305298D01*
X1450739D01*
X1459248Y313806D02*
X1460949Y315508D01*
X1464353D01*
X1466054Y313806D01*
Y306999D01*
X1464353Y305298D01*
X1460949D01*
X1459248Y306999D01*
Y313806D01*
X1469458D02*
X1471159Y315508D01*
X1474563D01*
X1476264Y313806D01*
Y312104D01*
X1474563Y310403D01*
X1472861D01*
X1474563D01*
X1476264Y308701D01*
Y306999D01*
X1474563Y305298D01*
X1471159D01*
X1469458Y306999D01*
X1486474Y315508D02*
X1479668D01*
Y310403D01*
X1483071Y312104D01*
X1484772D01*
X1486474Y310403D01*
Y306999D01*
X1484772Y305298D01*
X1481369D01*
X1479668Y306999D01*
X1489877Y305298D02*
Y312104D01*
X1491579D01*
X1493281Y310403D01*
Y305298D01*
Y310403D01*
X1494982Y312104D01*
X1496684Y310403D01*
Y305298D01*
X1500087D02*
Y312104D01*
X1501789D01*
X1503491Y310403D01*
Y305298D01*
Y310403D01*
X1505193Y312104D01*
X1506894Y310403D01*
Y305298D01*
X1440529Y334232D02*
X1442231Y335934D01*
X1445634D01*
X1447336Y334232D01*
Y327426D01*
X1445634Y325724D01*
X1442231D01*
X1440529Y327426D01*
Y334232D01*
X1450739Y325724D02*
Y327426D01*
X1452441D01*
Y325724D01*
X1450739D01*
X1459248Y334232D02*
X1460949Y335934D01*
X1464353D01*
X1466054Y334232D01*
Y327426D01*
X1464353Y325724D01*
X1460949D01*
X1459248Y327426D01*
Y334232D01*
X1469458Y327426D02*
X1471159Y325724D01*
X1474563D01*
X1476264Y327426D01*
Y334232D01*
X1474563Y335934D01*
X1471159D01*
X1469458Y334232D01*
Y332531D01*
X1471159Y330829D01*
X1476264D01*
X1479668Y327426D02*
X1481369Y325724D01*
X1484772D01*
X1486474Y327426D01*
Y334232D01*
X1484772Y335934D01*
X1481369D01*
X1479668Y334232D01*
Y332531D01*
X1481369Y330829D01*
X1486474D01*
X1489877Y325724D02*
Y332531D01*
X1491579D01*
X1493281Y330829D01*
Y325724D01*
Y330829D01*
X1494982Y332531D01*
X1496684Y330829D01*
Y325724D01*
X1500087D02*
Y332531D01*
X1501789D01*
X1503491Y330829D01*
Y325724D01*
Y330829D01*
X1505193Y332531D01*
X1506894Y330829D01*
Y325724D01*
X1440529Y354659D02*
X1442231Y356361D01*
X1445634D01*
X1447336Y354659D01*
Y347852D01*
X1445634Y346151D01*
X1442231D01*
X1440529Y347852D01*
Y354659D01*
X1450739Y346151D02*
Y347852D01*
X1452441D01*
Y346151D01*
X1450739D01*
X1459248Y354659D02*
X1460949Y356361D01*
X1464353D01*
X1466054Y354659D01*
Y347852D01*
X1464353Y346151D01*
X1460949D01*
X1459248Y347852D01*
Y354659D01*
X1469458Y346151D02*
X1472861D01*
X1471159D01*
Y356361D01*
X1469458Y354659D01*
X1484772Y356361D02*
X1477966D01*
Y351256D01*
X1481369Y352957D01*
X1483071D01*
X1484772Y351256D01*
Y347852D01*
X1483071Y346151D01*
X1479668D01*
X1477966Y347852D01*
X1488176Y346151D02*
Y352957D01*
X1489877D01*
X1491579Y351256D01*
Y346151D01*
Y351256D01*
X1493281Y352957D01*
X1494982Y351256D01*
Y346151D01*
X1498386D02*
Y352957D01*
X1500087D01*
X1501789Y351256D01*
Y346151D01*
Y351256D01*
X1503491Y352957D01*
X1505193Y351256D01*
Y346151D01*
X1440529Y366577D02*
X1443933D01*
X1442231D01*
Y376787D01*
X1440529Y375085D01*
X1449038Y366577D02*
Y368279D01*
X1450739D01*
Y366577D01*
X1449038D01*
X1464353D02*
X1457546D01*
X1464353Y373384D01*
Y375085D01*
X1462651Y376787D01*
X1459248D01*
X1457546Y375085D01*
X1474563Y376787D02*
X1471159Y375085D01*
X1467756Y371682D01*
Y368279D01*
X1469458Y366577D01*
X1472861D01*
X1474563Y368279D01*
Y369980D01*
X1472861Y371682D01*
X1467756D01*
X1484772Y376787D02*
X1477966D01*
Y371682D01*
X1481369Y373384D01*
X1483071D01*
X1484772Y371682D01*
Y368279D01*
X1483071Y366577D01*
X1479668D01*
X1477966Y368279D01*
X1488176Y366577D02*
Y373384D01*
X1489877D01*
X1491579Y371682D01*
Y366577D01*
Y371682D01*
X1493281Y373384D01*
X1494982Y371682D01*
Y366577D01*
X1498386D02*
Y373384D01*
X1500087D01*
X1501789Y371682D01*
Y366577D01*
Y371682D01*
X1503491Y373384D01*
X1505193Y371682D01*
Y366577D01*
X1440529Y395512D02*
X1442231Y397214D01*
X1445634D01*
X1447336Y395512D01*
Y388705D01*
X1445634Y387004D01*
X1442231D01*
X1440529Y388705D01*
Y395512D01*
X1450739Y387004D02*
Y388705D01*
X1452441D01*
Y387004D01*
X1450739D01*
X1459248Y395512D02*
X1460949Y397214D01*
X1464353D01*
X1466054Y395512D01*
Y388705D01*
X1464353Y387004D01*
X1460949D01*
X1459248Y388705D01*
Y395512D01*
X1469458Y387004D02*
X1472861D01*
X1471159D01*
Y397214D01*
X1469458Y395512D01*
X1484772Y397214D02*
X1477966D01*
Y392109D01*
X1481369Y393810D01*
X1483071D01*
X1484772Y392109D01*
Y388705D01*
X1483071Y387004D01*
X1479668D01*
X1477966Y388705D01*
X1488176Y387004D02*
Y393810D01*
X1489877D01*
X1491579Y392109D01*
Y387004D01*
Y392109D01*
X1493281Y393810D01*
X1494982Y392109D01*
Y387004D01*
X1498386D02*
Y393810D01*
X1500087D01*
X1501789Y392109D01*
Y387004D01*
Y392109D01*
X1503491Y393810D01*
X1505193Y392109D01*
Y387004D01*
X1440529Y415938D02*
X1442231Y417640D01*
X1445634D01*
X1447336Y415938D01*
Y409132D01*
X1445634Y407430D01*
X1442231D01*
X1440529Y409132D01*
Y415938D01*
X1450739Y407430D02*
Y409132D01*
X1452441D01*
Y407430D01*
X1450739D01*
X1459248Y415938D02*
X1460949Y417640D01*
X1464353D01*
X1466054Y415938D01*
Y409132D01*
X1464353Y407430D01*
X1460949D01*
X1459248Y409132D01*
Y415938D01*
X1469458Y409132D02*
X1471159Y407430D01*
X1474563D01*
X1476264Y409132D01*
Y415938D01*
X1474563Y417640D01*
X1471159D01*
X1469458Y415938D01*
Y414237D01*
X1471159Y412535D01*
X1476264D01*
X1479668Y409132D02*
X1481369Y407430D01*
X1484772D01*
X1486474Y409132D01*
Y415938D01*
X1484772Y417640D01*
X1481369D01*
X1479668Y415938D01*
Y414237D01*
X1481369Y412535D01*
X1486474D01*
X1489877Y407430D02*
Y414237D01*
X1491579D01*
X1493281Y412535D01*
Y407430D01*
Y412535D01*
X1494982Y414237D01*
X1496684Y412535D01*
Y407430D01*
X1500087D02*
Y414237D01*
X1501789D01*
X1503491Y412535D01*
Y407430D01*
Y412535D01*
X1505193Y414237D01*
X1506894Y412535D01*
Y407430D01*
X1440529Y436365D02*
X1442231Y438067D01*
X1445634D01*
X1447336Y436365D01*
Y429558D01*
X1445634Y427857D01*
X1442231D01*
X1440529Y429558D01*
Y436365D01*
X1450739Y427857D02*
Y429558D01*
X1452441D01*
Y427857D01*
X1450739D01*
X1459248Y436365D02*
X1460949Y438067D01*
X1464353D01*
X1466054Y436365D01*
Y429558D01*
X1464353Y427857D01*
X1460949D01*
X1459248Y429558D01*
Y436365D01*
X1469458D02*
X1471159Y438067D01*
X1474563D01*
X1476264Y436365D01*
Y434663D01*
X1474563Y432962D01*
X1472861D01*
X1474563D01*
X1476264Y431260D01*
Y429558D01*
X1474563Y427857D01*
X1471159D01*
X1469458Y429558D01*
X1486474Y438067D02*
X1479668D01*
Y432962D01*
X1483071Y434663D01*
X1484772D01*
X1486474Y432962D01*
Y429558D01*
X1484772Y427857D01*
X1481369D01*
X1479668Y429558D01*
X1489877Y427857D02*
Y434663D01*
X1491579D01*
X1493281Y432962D01*
Y427857D01*
Y432962D01*
X1494982Y434663D01*
X1496684Y432962D01*
Y427857D01*
X1500087D02*
Y434663D01*
X1501789D01*
X1503491Y432962D01*
Y427857D01*
Y432962D01*
X1505193Y434663D01*
X1506894Y432962D01*
Y427857D01*
X1440529Y456791D02*
X1442231Y458493D01*
X1445634D01*
X1447336Y456791D01*
Y449985D01*
X1445634Y448283D01*
X1442231D01*
X1440529Y449985D01*
Y456791D01*
X1450739Y448283D02*
Y449985D01*
X1452441D01*
Y448283D01*
X1450739D01*
X1459248Y456791D02*
X1460949Y458493D01*
X1464353D01*
X1466054Y456791D01*
Y449985D01*
X1464353Y448283D01*
X1460949D01*
X1459248Y449985D01*
Y456791D01*
X1469458Y448283D02*
X1472861D01*
X1471159D01*
Y458493D01*
X1469458Y456791D01*
X1477966D02*
X1479668Y458493D01*
X1483071D01*
X1484772Y456791D01*
Y449985D01*
X1483071Y448283D01*
X1479668D01*
X1477966Y449985D01*
Y456791D01*
X1488176Y448283D02*
Y455090D01*
X1489877D01*
X1491579Y453388D01*
Y448283D01*
Y453388D01*
X1493281Y455090D01*
X1494982Y453388D01*
Y448283D01*
X1498386D02*
Y455090D01*
X1500087D01*
X1501789Y453388D01*
Y448283D01*
Y453388D01*
X1503491Y455090D01*
X1505193Y453388D01*
Y448283D01*
X1559627Y497644D02*
X1557926Y499346D01*
X1554522D01*
X1552821Y497644D01*
Y490838D01*
X1554522Y489136D01*
X1557926D01*
X1559627Y490838D01*
X1564732Y489136D02*
X1568136D01*
X1569837Y490838D01*
Y494241D01*
X1568136Y495943D01*
X1564732D01*
X1563031Y494241D01*
Y490838D01*
X1564732Y489136D01*
X1573241D02*
Y495943D01*
X1578345D01*
X1580047Y494241D01*
Y489136D01*
X1583450D02*
X1588555D01*
X1590257Y490838D01*
X1588555Y492539D01*
X1585152D01*
X1583450Y494241D01*
X1585152Y495943D01*
X1590257D01*
X1595362Y497644D02*
Y495943D01*
X1593660D01*
X1597064D01*
X1595362D01*
Y490838D01*
X1597064Y489136D01*
X1603870Y495943D02*
X1607274D01*
X1608975Y494241D01*
Y489136D01*
X1603870D01*
X1602169Y490838D01*
X1603870Y492539D01*
X1608975D01*
X1612379Y489136D02*
Y495943D01*
X1617484D01*
X1619185Y494241D01*
Y489136D01*
X1624290Y497644D02*
Y495943D01*
X1622589D01*
X1625992D01*
X1624290D01*
Y490838D01*
X1625992Y489136D01*
X1552821Y293379D02*
X1554522Y295081D01*
X1557926D01*
X1559627Y293379D01*
Y291678D01*
X1557926Y289976D01*
X1556224D01*
X1557926D01*
X1559627Y288274D01*
Y286573D01*
X1557926Y284871D01*
X1554522D01*
X1552821Y286573D01*
X1563031Y284871D02*
Y286573D01*
X1564732D01*
Y284871D01*
X1563031D01*
X1578345Y295081D02*
X1571539D01*
Y289976D01*
X1574942Y291678D01*
X1576644D01*
X1578345Y289976D01*
Y286573D01*
X1576644Y284871D01*
X1573241D01*
X1571539Y286573D01*
X1557926Y325724D02*
Y335934D01*
X1552821Y330829D01*
X1559627D01*
X1563031Y325724D02*
Y327426D01*
X1564732D01*
Y325724D01*
X1563031D01*
X1571539Y334232D02*
X1573241Y335934D01*
X1576644D01*
X1578345Y334232D01*
Y332531D01*
X1576644Y330829D01*
X1578345Y329127D01*
Y327426D01*
X1576644Y325724D01*
X1573241D01*
X1571539Y327426D01*
Y329127D01*
X1573241Y330829D01*
X1571539Y332531D01*
Y334232D01*
X1573241Y330829D02*
X1576644D01*
X1557926Y366577D02*
Y376787D01*
X1552821Y371682D01*
X1559627D01*
X1563031Y366577D02*
Y368279D01*
X1564732D01*
Y366577D01*
X1563031D01*
X1571539Y375085D02*
X1573241Y376787D01*
X1576644D01*
X1578345Y375085D01*
Y373384D01*
X1576644Y371682D01*
X1578345Y369980D01*
Y368279D01*
X1576644Y366577D01*
X1573241D01*
X1571539Y368279D01*
Y369980D01*
X1573241Y371682D01*
X1571539Y373384D01*
Y375085D01*
X1573241Y371682D02*
X1576644D01*
X1557926Y407430D02*
Y417640D01*
X1552821Y412535D01*
X1559627D01*
X1563031Y407430D02*
Y409132D01*
X1564732D01*
Y407430D01*
X1563031D01*
X1571539Y415938D02*
X1573241Y417640D01*
X1576644D01*
X1578345Y415938D01*
Y414237D01*
X1576644Y412535D01*
X1578345Y410833D01*
Y409132D01*
X1576644Y407430D01*
X1573241D01*
X1571539Y409132D01*
Y410833D01*
X1573241Y412535D01*
X1571539Y414237D01*
Y415938D01*
X1573241Y412535D02*
X1576644D01*
X1552821Y456791D02*
X1554522Y458493D01*
X1557926D01*
X1559627Y456791D01*
Y455090D01*
X1557926Y453388D01*
X1556224D01*
X1557926D01*
X1559627Y451686D01*
Y449985D01*
X1557926Y448283D01*
X1554522D01*
X1552821Y449985D01*
X1563031Y448283D02*
Y449985D01*
X1564732D01*
Y448283D01*
X1563031D01*
X1578345Y458493D02*
X1571539D01*
Y453388D01*
X1574942Y455090D01*
X1576644D01*
X1578345Y453388D01*
Y449985D01*
X1576644Y448283D01*
X1573241D01*
X1571539Y449985D01*
D16*
X1569000Y622000D02*
Y633996D01*
X1574998D01*
X1576997Y631997D01*
Y627998D01*
X1574998Y625999D01*
X1569000D01*
X1580996Y629997D02*
Y622000D01*
Y625999D01*
X1582995Y627998D01*
X1584995Y629997D01*
X1586994D01*
X1592992Y622000D02*
X1596991D01*
X1594991D01*
Y629997D01*
X1592992D01*
X1602989Y622000D02*
Y629997D01*
X1608987D01*
X1610986Y627998D01*
Y622000D01*
X1616984Y631997D02*
Y629997D01*
X1614985D01*
X1618984D01*
X1616984D01*
Y623999D01*
X1618984Y622000D01*
X1636978Y633996D02*
Y622000D01*
X1642976D01*
X1644975Y623999D01*
Y631997D01*
X1642976Y633996D01*
X1636978D01*
X1650973Y629997D02*
X1654972D01*
X1656971Y627998D01*
Y622000D01*
X1650973D01*
X1648974Y623999D01*
X1650973Y625999D01*
X1656971D01*
X1662969Y631997D02*
Y629997D01*
X1660970D01*
X1664969D01*
X1662969D01*
Y623999D01*
X1664969Y622000D01*
X1676965D02*
X1672966D01*
X1670967Y623999D01*
Y627998D01*
X1672966Y629997D01*
X1676965D01*
X1678964Y627998D01*
Y625999D01*
X1670967D01*
X1682963Y629997D02*
X1684962D01*
Y627998D01*
X1682963D01*
Y629997D01*
Y623999D02*
X1684962D01*
Y622000D01*
X1682963D01*
Y623999D01*
X1569000Y642000D02*
Y653996D01*
X1574998D01*
X1576997Y651997D01*
Y647998D01*
X1574998Y645999D01*
X1569000D01*
X1588993Y651997D02*
X1586994Y653996D01*
X1582995D01*
X1580996Y651997D01*
Y643999D01*
X1582995Y642000D01*
X1586994D01*
X1588993Y643999D01*
X1592992Y653996D02*
Y642000D01*
X1598990D01*
X1600990Y643999D01*
Y645999D01*
X1598990Y647998D01*
X1592992D01*
X1598990D01*
X1600990Y649998D01*
Y651997D01*
X1598990Y653996D01*
X1592992D01*
X1624982D02*
X1616984D01*
Y647998D01*
X1620983D01*
X1616984D01*
Y642000D01*
X1628980D02*
X1632979D01*
X1630980D01*
Y649998D01*
X1628980D01*
X1638977Y642000D02*
X1642976D01*
X1640977D01*
Y653996D01*
X1638977D01*
X1654972Y642000D02*
X1650973D01*
X1648974Y643999D01*
Y647998D01*
X1650973Y649998D01*
X1654972D01*
X1656971Y647998D01*
Y645999D01*
X1648974D01*
X1660970Y649998D02*
X1662969D01*
Y647998D01*
X1660970D01*
Y649998D01*
Y643999D02*
X1662969D01*
Y642000D01*
X1660970D01*
Y643999D01*
X1711997Y622000D02*
X1704000D01*
X1711997Y629997D01*
Y631997D01*
X1709998Y633996D01*
X1705999D01*
X1704000Y631997D01*
X1715996Y633996D02*
X1723993D01*
Y631997D01*
X1715996Y623999D01*
Y622000D01*
X1727992D02*
Y623999D01*
X1729991D01*
Y622000D01*
X1727992D01*
X1737989D02*
X1741987D01*
X1739988D01*
Y633996D01*
X1737989Y631997D01*
X1747986Y622000D02*
X1751984D01*
X1749985D01*
Y633996D01*
X1747986Y631997D01*
X1757982Y622000D02*
Y623999D01*
X1759982D01*
Y622000D01*
X1757982D01*
X1775977D02*
X1767979D01*
X1775977Y629997D01*
Y631997D01*
X1773977Y633996D01*
X1769978D01*
X1767979Y631997D01*
X1779975D02*
X1781975Y633996D01*
X1785973D01*
X1787973Y631997D01*
Y623999D01*
X1785973Y622000D01*
X1781975D01*
X1779975Y623999D01*
Y631997D01*
X1799969Y622000D02*
X1791971D01*
X1799969Y629997D01*
Y631997D01*
X1797970Y633996D01*
X1793971D01*
X1791971Y631997D01*
X1809966Y622000D02*
Y633996D01*
X1803967Y627998D01*
X1811965D01*
X1709998Y642000D02*
X1705999D01*
X1704000Y643999D01*
Y647998D01*
X1705999Y649998D01*
X1709998D01*
X1711997Y647998D01*
Y645999D01*
X1704000D01*
X1715996Y649998D02*
Y642000D01*
Y645999D01*
X1717995Y647998D01*
X1719995Y649998D01*
X1721994D01*
X1727992Y653996D02*
Y642000D01*
X1733990D01*
X1735990Y643999D01*
Y645999D01*
Y647998D01*
X1733990Y649998D01*
X1727992D01*
X1739988Y647998D02*
X1747986D01*
X1751984Y638001D02*
Y649998D01*
X1757982D01*
X1759982Y647998D01*
Y643999D01*
X1757982Y642000D01*
X1751984D01*
X1771978Y649998D02*
X1765980D01*
X1763980Y647998D01*
Y643999D01*
X1765980Y642000D01*
X1771978D01*
X1775977Y653996D02*
Y642000D01*
X1781975D01*
X1783974Y643999D01*
Y645999D01*
Y647998D01*
X1781975Y649998D01*
X1775977D01*
X1787973Y651997D02*
X1789972Y653996D01*
X1793971D01*
X1795970Y651997D01*
Y643999D01*
X1793971Y642000D01*
X1789972D01*
X1787973Y643999D01*
Y651997D01*
X1799969D02*
X1801968Y653996D01*
X1805967D01*
X1807966Y651997D01*
Y643999D01*
X1805967Y642000D01*
X1801968D01*
X1799969Y643999D01*
Y651997D01*
X1811965D02*
X1813964Y653996D01*
X1817963D01*
X1819962Y651997D01*
Y643999D01*
X1817963Y642000D01*
X1813964D01*
X1811965Y643999D01*
Y651997D01*
X1831958Y653996D02*
X1823961D01*
Y647998D01*
X1827960Y649998D01*
X1829959D01*
X1831958Y647998D01*
Y643999D01*
X1829959Y642000D01*
X1825960D01*
X1823961Y643999D01*
X1835957Y642000D02*
Y643999D01*
X1837956D01*
Y642000D01*
X1835957D01*
X1845954D02*
Y653996D01*
X1851952D01*
X1853951Y651997D01*
Y647998D01*
X1851952Y645999D01*
X1845954D01*
X1865947Y649998D02*
X1859949D01*
X1857950Y647998D01*
Y643999D01*
X1859949Y642000D01*
X1865947D01*
X1869946Y653996D02*
Y642000D01*
X1875944D01*
X1877944Y643999D01*
Y645999D01*
Y647998D01*
X1875944Y649998D01*
X1869946D01*
X1881942Y653996D02*
Y642000D01*
X1887940D01*
X1889940Y643999D01*
Y651997D01*
X1887940Y653996D01*
X1881942D01*
X1895938Y642000D02*
X1899936D01*
X1901936Y643999D01*
Y647998D01*
X1899936Y649998D01*
X1895938D01*
X1893938Y647998D01*
Y643999D01*
X1895938Y642000D01*
X1913932Y649998D02*
X1907934D01*
X1905934Y647998D01*
Y643999D01*
X1907934Y642000D01*
X1913932D01*
X1707999Y602000D02*
X1704000D01*
Y613996D01*
X1707999D01*
X1713997Y602000D02*
Y613996D01*
X1721994Y602000D01*
Y613996D01*
X1727992Y602000D02*
X1731991D01*
X1733990Y603999D01*
Y607998D01*
X1731991Y609997D01*
X1727992D01*
X1725993Y607998D01*
Y603999D01*
X1727992Y602000D01*
X1749985Y613996D02*
Y605999D01*
X1753984Y602000D01*
X1757982Y605999D01*
Y613996D01*
X1763980Y609997D02*
X1767979D01*
X1769978Y607998D01*
Y602000D01*
X1763980D01*
X1761981Y603999D01*
X1763980Y605999D01*
X1769978D01*
X1773977Y609997D02*
Y602000D01*
Y605999D01*
X1775977Y607998D01*
X1777976Y609997D01*
X1779975D01*
X1785973Y602000D02*
X1789972D01*
X1787973D01*
Y609997D01*
X1785973D01*
X1797969D02*
X1801968D01*
X1803967Y607998D01*
Y602000D01*
X1797969D01*
X1795970Y603999D01*
X1797969Y605999D01*
X1803967D01*
X1809966Y611997D02*
Y609997D01*
X1807966D01*
X1811965D01*
X1809966D01*
Y603999D01*
X1811965Y602000D01*
X1817963D02*
X1821962D01*
X1819962D01*
Y609997D01*
X1817963D01*
X1829959Y602000D02*
X1833958D01*
X1835957Y603999D01*
Y607998D01*
X1833958Y609997D01*
X1829959D01*
X1827960Y607998D01*
Y603999D01*
X1829959Y602000D01*
X1839956D02*
Y609997D01*
X1845954D01*
X1847953Y607998D01*
Y602000D01*
X1851952D02*
X1857950D01*
X1859949Y603999D01*
X1857950Y605999D01*
X1853951D01*
X1851952Y607998D01*
X1853951Y609997D01*
X1859949D01*
X1863948Y602000D02*
X1867947D01*
Y613996D01*
X1863948D01*
X1569000D02*
Y605999D01*
X1572999Y602000D01*
X1576997Y605999D01*
Y613996D01*
X1582995Y609997D02*
X1586994D01*
X1588993Y607998D01*
Y602000D01*
X1582995D01*
X1580996Y603999D01*
X1582995Y605999D01*
X1588993D01*
X1592992Y609997D02*
Y602000D01*
Y605999D01*
X1594991Y607998D01*
X1596991Y609997D01*
X1598990D01*
X1604988Y602000D02*
X1608987D01*
X1606987D01*
Y609997D01*
X1604988D01*
X1616984D02*
X1620983D01*
X1622982Y607998D01*
Y602000D01*
X1616984D01*
X1614985Y603999D01*
X1616984Y605999D01*
X1622982D01*
X1626981Y602000D02*
Y609997D01*
X1632979D01*
X1634978Y607998D01*
Y602000D01*
X1640977Y611997D02*
Y609997D01*
X1638977D01*
X1642976D01*
X1640977D01*
Y603999D01*
X1642976Y602000D01*
X1648974Y609997D02*
X1650973D01*
Y607998D01*
X1648974D01*
Y609997D01*
Y603999D02*
X1650973D01*
Y602000D01*
X1648974D01*
Y603999D01*
D103*
X275140Y446600D02*
G03*
X275140Y446600I-2540J0D01*
G01*
Y218000D02*
G03*
X275140Y218000I-2540J0D01*
G01*
X249740Y243400D02*
G03*
X249740Y243400I-2540J0D01*
G01*
Y218000D02*
G03*
X249740Y218000I-2540J0D01*
G01*
Y446600D02*
G03*
X249740Y446600I-2540J0D01*
G01*
Y421200D02*
G03*
X249740Y421200I-2540J0D01*
G01*
X198940Y319600D02*
G03*
X198940Y319600I-2540J0D01*
G01*
Y268800D02*
G03*
X198940Y268800I-2540J0D01*
G01*
Y294200D02*
G03*
X198940Y294200I-2540J0D01*
G01*
Y395800D02*
G03*
X198940Y395800I-2540J0D01*
G01*
Y370400D02*
G03*
X198940Y370400I-2540J0D01*
G01*
Y345000D02*
G03*
X198940Y345000I-2540J0D01*
G01*
X97340Y14800D02*
G03*
X97340Y14800I-2540J0D01*
G01*
X173540D02*
G03*
X173540Y14800I-2540J0D01*
G01*
X198940D02*
G03*
X198940Y14800I-2540J0D01*
G01*
X122740D02*
G03*
X122740Y14800I-2540J0D01*
G01*
X148140D02*
G03*
X148140Y14800I-2540J0D01*
G01*
X249740D02*
G03*
X249740Y14800I-2540J0D01*
G01*
X224340D02*
G03*
X224340Y14800I-2540J0D01*
G01*
X300540D02*
G03*
X300540Y14800I-2540J0D01*
G01*
X275140D02*
G03*
X275140Y14800I-2540J0D01*
G01*
X376740D02*
G03*
X376740Y14800I-2540J0D01*
G01*
X402140D02*
G03*
X402140Y14800I-2540J0D01*
G01*
X325940D02*
G03*
X325940Y14800I-2540J0D01*
G01*
X351340D02*
G03*
X351340Y14800I-2540J0D01*
G01*
X452940D02*
G03*
X452940Y14800I-2540J0D01*
G01*
X427540D02*
G03*
X427540Y14800I-2540J0D01*
G01*
X503740D02*
G03*
X503740Y14800I-2540J0D01*
G01*
X478340D02*
G03*
X478340Y14800I-2540J0D01*
G01*
X579940D02*
G03*
X579940Y14800I-2540J0D01*
G01*
X529140D02*
G03*
X529140Y14800I-2540J0D01*
G01*
X554540D02*
G03*
X554540Y14800I-2540J0D01*
G01*
X97340Y40200D02*
G03*
X97340Y40200I-2540J0D01*
G01*
X173540D02*
G03*
X173540Y40200I-2540J0D01*
G01*
X198940D02*
G03*
X198940Y40200I-2540J0D01*
G01*
X122740D02*
G03*
X122740Y40200I-2540J0D01*
G01*
X148140D02*
G03*
X148140Y40200I-2540J0D01*
G01*
X249740D02*
G03*
X249740Y40200I-2540J0D01*
G01*
X224340D02*
G03*
X224340Y40200I-2540J0D01*
G01*
X300540D02*
G03*
X300540Y40200I-2540J0D01*
G01*
X275140D02*
G03*
X275140Y40200I-2540J0D01*
G01*
X376740D02*
G03*
X376740Y40200I-2540J0D01*
G01*
X402140D02*
G03*
X402140Y40200I-2540J0D01*
G01*
X325940D02*
G03*
X325940Y40200I-2540J0D01*
G01*
X351340D02*
G03*
X351340Y40200I-2540J0D01*
G01*
X452940D02*
G03*
X452940Y40200I-2540J0D01*
G01*
X427540D02*
G03*
X427540Y40200I-2540J0D01*
G01*
X503740D02*
G03*
X503740Y40200I-2540J0D01*
G01*
X478340D02*
G03*
X478340Y40200I-2540J0D01*
G01*
X579940D02*
G03*
X579940Y40200I-2540J0D01*
G01*
X529140D02*
G03*
X529140Y40200I-2540J0D01*
G01*
X554540D02*
G03*
X554540Y40200I-2540J0D01*
G01*
X97340Y649800D02*
G03*
X97340Y649800I-2540J0D01*
G01*
X173540D02*
G03*
X173540Y649800I-2540J0D01*
G01*
X198940D02*
G03*
X198940Y649800I-2540J0D01*
G01*
X122740D02*
G03*
X122740Y649800I-2540J0D01*
G01*
X148140D02*
G03*
X148140Y649800I-2540J0D01*
G01*
X249740D02*
G03*
X249740Y649800I-2540J0D01*
G01*
X224340D02*
G03*
X224340Y649800I-2540J0D01*
G01*
X300540D02*
G03*
X300540Y649800I-2540J0D01*
G01*
X275140D02*
G03*
X275140Y649800I-2540J0D01*
G01*
X376740D02*
G03*
X376740Y649800I-2540J0D01*
G01*
X402140D02*
G03*
X402140Y649800I-2540J0D01*
G01*
X325940D02*
G03*
X325940Y649800I-2540J0D01*
G01*
X351340D02*
G03*
X351340Y649800I-2540J0D01*
G01*
X452940D02*
G03*
X452940Y649800I-2540J0D01*
G01*
X427540D02*
G03*
X427540Y649800I-2540J0D01*
G01*
X503740D02*
G03*
X503740Y649800I-2540J0D01*
G01*
X478340D02*
G03*
X478340Y649800I-2540J0D01*
G01*
X579940D02*
G03*
X579940Y649800I-2540J0D01*
G01*
X529140D02*
G03*
X529140Y649800I-2540J0D01*
G01*
X554540D02*
G03*
X554540Y649800I-2540J0D01*
G01*
X97340Y624400D02*
G03*
X97340Y624400I-2540J0D01*
G01*
X173540D02*
G03*
X173540Y624400I-2540J0D01*
G01*
X198940D02*
G03*
X198940Y624400I-2540J0D01*
G01*
X122740D02*
G03*
X122740Y624400I-2540J0D01*
G01*
X148140D02*
G03*
X148140Y624400I-2540J0D01*
G01*
X249740D02*
G03*
X249740Y624400I-2540J0D01*
G01*
X224340D02*
G03*
X224340Y624400I-2540J0D01*
G01*
X300540D02*
G03*
X300540Y624400I-2540J0D01*
G01*
X275140D02*
G03*
X275140Y624400I-2540J0D01*
G01*
X376740D02*
G03*
X376740Y624400I-2540J0D01*
G01*
X402140D02*
G03*
X402140Y624400I-2540J0D01*
G01*
X325940D02*
G03*
X325940Y624400I-2540J0D01*
G01*
X351340D02*
G03*
X351340Y624400I-2540J0D01*
G01*
X452940D02*
G03*
X452940Y624400I-2540J0D01*
G01*
X427540D02*
G03*
X427540Y624400I-2540J0D01*
G01*
X503740D02*
G03*
X503740Y624400I-2540J0D01*
G01*
X478340D02*
G03*
X478340Y624400I-2540J0D01*
G01*
X579940D02*
G03*
X579940Y624400I-2540J0D01*
G01*
X529140D02*
G03*
X529140Y624400I-2540J0D01*
G01*
X554540D02*
G03*
X554540Y624400I-2540J0D01*
G01*
X325940Y167200D02*
G03*
X325940Y167200I-2540J0D01*
G01*
X300540D02*
G03*
X300540Y167200I-2540J0D01*
G01*
Y192600D02*
G03*
X300540Y192600I-2540J0D01*
G01*
X325940D02*
G03*
X325940Y192600I-2540J0D01*
G01*
X97340Y446600D02*
G03*
X97340Y446600I-2540J0D01*
G01*
Y472000D02*
G03*
X97340Y472000I-2540J0D01*
G01*
Y345000D02*
G03*
X97340Y345000I-2540J0D01*
G01*
Y319600D02*
G03*
X97340Y319600I-2540J0D01*
G01*
Y421200D02*
G03*
X97340Y421200I-2540J0D01*
G01*
Y395800D02*
G03*
X97340Y395800I-2540J0D01*
G01*
Y370400D02*
G03*
X97340Y370400I-2540J0D01*
G01*
Y218000D02*
G03*
X97340Y218000I-2540J0D01*
G01*
Y192600D02*
G03*
X97340Y192600I-2540J0D01*
G01*
Y294200D02*
G03*
X97340Y294200I-2540J0D01*
G01*
Y268800D02*
G03*
X97340Y268800I-2540J0D01*
G01*
Y243400D02*
G03*
X97340Y243400I-2540J0D01*
G01*
X122740Y268800D02*
G03*
X122740Y268800I-2540J0D01*
G01*
X148140Y294200D02*
G03*
X148140Y294200I-2540J0D01*
G01*
X122740D02*
G03*
X122740Y294200I-2540J0D01*
G01*
X173540Y345000D02*
G03*
X173540Y345000I-2540J0D01*
G01*
Y370400D02*
G03*
X173540Y370400I-2540J0D01*
G01*
X198940Y421200D02*
G03*
X198940Y421200I-2540J0D01*
G01*
X224340D02*
G03*
X224340Y421200I-2540J0D01*
G01*
X198940Y446600D02*
G03*
X198940Y446600I-2540J0D01*
G01*
X224340D02*
G03*
X224340Y446600I-2540J0D01*
G01*
X173540Y421200D02*
G03*
X173540Y421200I-2540J0D01*
G01*
Y446600D02*
G03*
X173540Y446600I-2540J0D01*
G01*
Y395800D02*
G03*
X173540Y395800I-2540J0D01*
G01*
Y294200D02*
G03*
X173540Y294200I-2540J0D01*
G01*
Y268800D02*
G03*
X173540Y268800I-2540J0D01*
G01*
Y319600D02*
G03*
X173540Y319600I-2540J0D01*
G01*
X198940Y243400D02*
G03*
X198940Y243400I-2540J0D01*
G01*
X173540D02*
G03*
X173540Y243400I-2540J0D01*
G01*
X224340D02*
G03*
X224340Y243400I-2540J0D01*
G01*
X198940Y218000D02*
G03*
X198940Y218000I-2540J0D01*
G01*
X173540D02*
G03*
X173540Y218000I-2540J0D01*
G01*
X224340D02*
G03*
X224340Y218000I-2540J0D01*
G01*
X249740Y192600D02*
G03*
X249740Y192600I-2540J0D01*
G01*
X224340D02*
G03*
X224340Y192600I-2540J0D01*
G01*
X148140Y218000D02*
G03*
X148140Y218000I-2540J0D01*
G01*
Y243400D02*
G03*
X148140Y243400I-2540J0D01*
G01*
Y268800D02*
G03*
X148140Y268800I-2540J0D01*
G01*
Y192600D02*
G03*
X148140Y192600I-2540J0D01*
G01*
X173540D02*
G03*
X173540Y192600I-2540J0D01*
G01*
X198940D02*
G03*
X198940Y192600I-2540J0D01*
G01*
X122740Y243400D02*
G03*
X122740Y243400I-2540J0D01*
G01*
Y218000D02*
G03*
X122740Y218000I-2540J0D01*
G01*
Y192600D02*
G03*
X122740Y192600I-2540J0D01*
G01*
X97340Y116400D02*
G03*
X97340Y116400I-2540J0D01*
G01*
Y91000D02*
G03*
X97340Y91000I-2540J0D01*
G01*
Y65600D02*
G03*
X97340Y65600I-2540J0D01*
G01*
X579940Y91000D02*
G03*
X579940Y91000I-2540J0D01*
G01*
Y65600D02*
G03*
X579940Y65600I-2540J0D01*
G01*
Y141800D02*
G03*
X579940Y141800I-2540J0D01*
G01*
Y116400D02*
G03*
X579940Y116400I-2540J0D01*
G01*
X427540Y141800D02*
G03*
X427540Y141800I-2540J0D01*
G01*
Y116400D02*
G03*
X427540Y116400I-2540J0D01*
G01*
X503740Y141800D02*
G03*
X503740Y141800I-2540J0D01*
G01*
X478340D02*
G03*
X478340Y141800I-2540J0D01*
G01*
X452940D02*
G03*
X452940Y141800I-2540J0D01*
G01*
Y116400D02*
G03*
X452940Y116400I-2540J0D01*
G01*
X478340D02*
G03*
X478340Y116400I-2540J0D01*
G01*
X503740D02*
G03*
X503740Y116400I-2540J0D01*
G01*
X554540D02*
G03*
X554540Y116400I-2540J0D01*
G01*
X529140D02*
G03*
X529140Y116400I-2540J0D01*
G01*
Y141800D02*
G03*
X529140Y141800I-2540J0D01*
G01*
X554540D02*
G03*
X554540Y141800I-2540J0D01*
G01*
X427540Y91000D02*
G03*
X427540Y91000I-2540J0D01*
G01*
Y65600D02*
G03*
X427540Y65600I-2540J0D01*
G01*
X503740Y91000D02*
G03*
X503740Y91000I-2540J0D01*
G01*
X478340D02*
G03*
X478340Y91000I-2540J0D01*
G01*
X452940D02*
G03*
X452940Y91000I-2540J0D01*
G01*
Y65600D02*
G03*
X452940Y65600I-2540J0D01*
G01*
X478340D02*
G03*
X478340Y65600I-2540J0D01*
G01*
X503740D02*
G03*
X503740Y65600I-2540J0D01*
G01*
X554540D02*
G03*
X554540Y65600I-2540J0D01*
G01*
X529140D02*
G03*
X529140Y65600I-2540J0D01*
G01*
Y91000D02*
G03*
X529140Y91000I-2540J0D01*
G01*
X554540D02*
G03*
X554540Y91000I-2540J0D01*
G01*
X275140Y141800D02*
G03*
X275140Y141800I-2540J0D01*
G01*
Y116400D02*
G03*
X275140Y116400I-2540J0D01*
G01*
X351340Y141800D02*
G03*
X351340Y141800I-2540J0D01*
G01*
X325940D02*
G03*
X325940Y141800I-2540J0D01*
G01*
X300540D02*
G03*
X300540Y141800I-2540J0D01*
G01*
Y116400D02*
G03*
X300540Y116400I-2540J0D01*
G01*
X325940D02*
G03*
X325940Y116400I-2540J0D01*
G01*
X351340D02*
G03*
X351340Y116400I-2540J0D01*
G01*
X402140D02*
G03*
X402140Y116400I-2540J0D01*
G01*
X376740D02*
G03*
X376740Y116400I-2540J0D01*
G01*
Y141800D02*
G03*
X376740Y141800I-2540J0D01*
G01*
X402140D02*
G03*
X402140Y141800I-2540J0D01*
G01*
X275140Y91000D02*
G03*
X275140Y91000I-2540J0D01*
G01*
Y65600D02*
G03*
X275140Y65600I-2540J0D01*
G01*
X351340Y91000D02*
G03*
X351340Y91000I-2540J0D01*
G01*
X325940D02*
G03*
X325940Y91000I-2540J0D01*
G01*
X300540D02*
G03*
X300540Y91000I-2540J0D01*
G01*
Y65600D02*
G03*
X300540Y65600I-2540J0D01*
G01*
X325940D02*
G03*
X325940Y65600I-2540J0D01*
G01*
X351340D02*
G03*
X351340Y65600I-2540J0D01*
G01*
X402140D02*
G03*
X402140Y65600I-2540J0D01*
G01*
X376740D02*
G03*
X376740Y65600I-2540J0D01*
G01*
Y91000D02*
G03*
X376740Y91000I-2540J0D01*
G01*
X402140D02*
G03*
X402140Y91000I-2540J0D01*
G01*
X249740D02*
G03*
X249740Y91000I-2540J0D01*
G01*
X224340D02*
G03*
X224340Y91000I-2540J0D01*
G01*
Y65600D02*
G03*
X224340Y65600I-2540J0D01*
G01*
X249740D02*
G03*
X249740Y65600I-2540J0D01*
G01*
X198940D02*
G03*
X198940Y65600I-2540J0D01*
G01*
X173540D02*
G03*
X173540Y65600I-2540J0D01*
G01*
X148140D02*
G03*
X148140Y65600I-2540J0D01*
G01*
Y91000D02*
G03*
X148140Y91000I-2540J0D01*
G01*
X173540D02*
G03*
X173540Y91000I-2540J0D01*
G01*
X198940D02*
G03*
X198940Y91000I-2540J0D01*
G01*
X122740Y65600D02*
G03*
X122740Y65600I-2540J0D01*
G01*
Y91000D02*
G03*
X122740Y91000I-2540J0D01*
G01*
X249740Y141800D02*
G03*
X249740Y141800I-2540J0D01*
G01*
X224340D02*
G03*
X224340Y141800I-2540J0D01*
G01*
Y116400D02*
G03*
X224340Y116400I-2540J0D01*
G01*
X249740D02*
G03*
X249740Y116400I-2540J0D01*
G01*
X198940D02*
G03*
X198940Y116400I-2540J0D01*
G01*
X173540D02*
G03*
X173540Y116400I-2540J0D01*
G01*
X148140D02*
G03*
X148140Y116400I-2540J0D01*
G01*
Y141800D02*
G03*
X148140Y141800I-2540J0D01*
G01*
X173540D02*
G03*
X173540Y141800I-2540J0D01*
G01*
X198940D02*
G03*
X198940Y141800I-2540J0D01*
G01*
X122740Y116400D02*
G03*
X122740Y116400I-2540J0D01*
G01*
Y141800D02*
G03*
X122740Y141800I-2540J0D01*
G01*
X148140Y319600D02*
G03*
X148140Y319600I-2540J0D01*
G01*
Y345000D02*
G03*
X148140Y345000I-2540J0D01*
G01*
X122740D02*
G03*
X122740Y345000I-2540J0D01*
G01*
Y319600D02*
G03*
X122740Y319600I-2540J0D01*
G01*
Y370400D02*
G03*
X122740Y370400I-2540J0D01*
G01*
Y395800D02*
G03*
X122740Y395800I-2540J0D01*
G01*
Y421200D02*
G03*
X122740Y421200I-2540J0D01*
G01*
X148140D02*
G03*
X148140Y421200I-2540J0D01*
G01*
Y395800D02*
G03*
X148140Y395800I-2540J0D01*
G01*
Y370400D02*
G03*
X148140Y370400I-2540J0D01*
G01*
X122740Y446600D02*
G03*
X122740Y446600I-2540J0D01*
G01*
X148140D02*
G03*
X148140Y446600I-2540J0D01*
G01*
X122740Y472000D02*
G03*
X122740Y472000I-2540J0D01*
G01*
X148140D02*
G03*
X148140Y472000I-2540J0D01*
G01*
X452940Y548200D02*
G03*
X452940Y548200I-2540J0D01*
G01*
Y522800D02*
G03*
X452940Y522800I-2540J0D01*
G01*
Y497400D02*
G03*
X452940Y497400I-2540J0D01*
G01*
X427540D02*
G03*
X427540Y497400I-2540J0D01*
G01*
Y522800D02*
G03*
X427540Y522800I-2540J0D01*
G01*
Y548200D02*
G03*
X427540Y548200I-2540J0D01*
G01*
X478340D02*
G03*
X478340Y548200I-2540J0D01*
G01*
X503740D02*
G03*
X503740Y548200I-2540J0D01*
G01*
Y522800D02*
G03*
X503740Y522800I-2540J0D01*
G01*
X478340D02*
G03*
X478340Y522800I-2540J0D01*
G01*
X503740Y497400D02*
G03*
X503740Y497400I-2540J0D01*
G01*
X478340D02*
G03*
X478340Y497400I-2540J0D01*
G01*
X579940Y522800D02*
G03*
X579940Y522800I-2540J0D01*
G01*
Y548200D02*
G03*
X579940Y548200I-2540J0D01*
G01*
X529140D02*
G03*
X529140Y548200I-2540J0D01*
G01*
Y522800D02*
G03*
X529140Y522800I-2540J0D01*
G01*
Y497400D02*
G03*
X529140Y497400I-2540J0D01*
G01*
X554540D02*
G03*
X554540Y497400I-2540J0D01*
G01*
Y522800D02*
G03*
X554540Y522800I-2540J0D01*
G01*
Y548200D02*
G03*
X554540Y548200I-2540J0D01*
G01*
X249740D02*
G03*
X249740Y548200I-2540J0D01*
G01*
Y522800D02*
G03*
X249740Y522800I-2540J0D01*
G01*
Y497400D02*
G03*
X249740Y497400I-2540J0D01*
G01*
X224340D02*
G03*
X224340Y497400I-2540J0D01*
G01*
Y522800D02*
G03*
X224340Y522800I-2540J0D01*
G01*
Y548200D02*
G03*
X224340Y548200I-2540J0D01*
G01*
X275140D02*
G03*
X275140Y548200I-2540J0D01*
G01*
X300540D02*
G03*
X300540Y548200I-2540J0D01*
G01*
Y522800D02*
G03*
X300540Y522800I-2540J0D01*
G01*
X275140D02*
G03*
X275140Y522800I-2540J0D01*
G01*
X300540Y497400D02*
G03*
X300540Y497400I-2540J0D01*
G01*
X275140D02*
G03*
X275140Y497400I-2540J0D01*
G01*
X376740D02*
G03*
X376740Y497400I-2540J0D01*
G01*
X402140D02*
G03*
X402140Y497400I-2540J0D01*
G01*
X376740Y522800D02*
G03*
X376740Y522800I-2540J0D01*
G01*
X402140D02*
G03*
X402140Y522800I-2540J0D01*
G01*
Y548200D02*
G03*
X402140Y548200I-2540J0D01*
G01*
X376740D02*
G03*
X376740Y548200I-2540J0D01*
G01*
X325940D02*
G03*
X325940Y548200I-2540J0D01*
G01*
Y522800D02*
G03*
X325940Y522800I-2540J0D01*
G01*
Y497400D02*
G03*
X325940Y497400I-2540J0D01*
G01*
X351340D02*
G03*
X351340Y497400I-2540J0D01*
G01*
Y522800D02*
G03*
X351340Y522800I-2540J0D01*
G01*
Y548200D02*
G03*
X351340Y548200I-2540J0D01*
G01*
X224340Y472000D02*
G03*
X224340Y472000I-2540J0D01*
G01*
X97340Y548200D02*
G03*
X97340Y548200I-2540J0D01*
G01*
Y522800D02*
G03*
X97340Y522800I-2540J0D01*
G01*
X249740Y472000D02*
G03*
X249740Y472000I-2540J0D01*
G01*
X97340Y497400D02*
G03*
X97340Y497400I-2540J0D01*
G01*
X275140Y472000D02*
G03*
X275140Y472000I-2540J0D01*
G01*
X173540Y497400D02*
G03*
X173540Y497400I-2540J0D01*
G01*
X198940D02*
G03*
X198940Y497400I-2540J0D01*
G01*
X173540Y522800D02*
G03*
X173540Y522800I-2540J0D01*
G01*
X198940D02*
G03*
X198940Y522800I-2540J0D01*
G01*
Y548200D02*
G03*
X198940Y548200I-2540J0D01*
G01*
X173540D02*
G03*
X173540Y548200I-2540J0D01*
G01*
X122740D02*
G03*
X122740Y548200I-2540J0D01*
G01*
Y522800D02*
G03*
X122740Y522800I-2540J0D01*
G01*
Y497400D02*
G03*
X122740Y497400I-2540J0D01*
G01*
X148140D02*
G03*
X148140Y497400I-2540J0D01*
G01*
Y522800D02*
G03*
X148140Y522800I-2540J0D01*
G01*
Y548200D02*
G03*
X148140Y548200I-2540J0D01*
G01*
X554540Y167200D02*
G03*
X554540Y167200I-2540J0D01*
G01*
Y599000D02*
G03*
X554540Y599000I-2540J0D01*
G01*
Y573600D02*
G03*
X554540Y573600I-2540J0D01*
G01*
X529140D02*
G03*
X529140Y573600I-2540J0D01*
G01*
Y599000D02*
G03*
X529140Y599000I-2540J0D01*
G01*
Y167200D02*
G03*
X529140Y167200I-2540J0D01*
G01*
X579940D02*
G03*
X579940Y167200I-2540J0D01*
G01*
Y599000D02*
G03*
X579940Y599000I-2540J0D01*
G01*
Y573600D02*
G03*
X579940Y573600I-2540J0D01*
G01*
X478340D02*
G03*
X478340Y573600I-2540J0D01*
G01*
X503740D02*
G03*
X503740Y573600I-2540J0D01*
G01*
X478340Y599000D02*
G03*
X478340Y599000I-2540J0D01*
G01*
X503740D02*
G03*
X503740Y599000I-2540J0D01*
G01*
Y167200D02*
G03*
X503740Y167200I-2540J0D01*
G01*
X478340D02*
G03*
X478340Y167200I-2540J0D01*
G01*
X427540D02*
G03*
X427540Y167200I-2540J0D01*
G01*
Y599000D02*
G03*
X427540Y599000I-2540J0D01*
G01*
Y573600D02*
G03*
X427540Y573600I-2540J0D01*
G01*
X452940D02*
G03*
X452940Y573600I-2540J0D01*
G01*
Y599000D02*
G03*
X452940Y599000I-2540J0D01*
G01*
Y167200D02*
G03*
X452940Y167200I-2540J0D01*
G01*
X351340D02*
G03*
X351340Y167200I-2540J0D01*
G01*
Y599000D02*
G03*
X351340Y599000I-2540J0D01*
G01*
Y573600D02*
G03*
X351340Y573600I-2540J0D01*
G01*
X325940D02*
G03*
X325940Y573600I-2540J0D01*
G01*
Y599000D02*
G03*
X325940Y599000I-2540J0D01*
G01*
X376740Y167200D02*
G03*
X376740Y167200I-2540J0D01*
G01*
X402140D02*
G03*
X402140Y167200I-2540J0D01*
G01*
Y599000D02*
G03*
X402140Y599000I-2540J0D01*
G01*
X376740D02*
G03*
X376740Y599000I-2540J0D01*
G01*
X402140Y573600D02*
G03*
X402140Y573600I-2540J0D01*
G01*
X376740D02*
G03*
X376740Y573600I-2540J0D01*
G01*
X275140D02*
G03*
X275140Y573600I-2540J0D01*
G01*
X300540D02*
G03*
X300540Y573600I-2540J0D01*
G01*
X275140Y599000D02*
G03*
X275140Y599000I-2540J0D01*
G01*
X300540D02*
G03*
X300540Y599000I-2540J0D01*
G01*
X275140Y167200D02*
G03*
X275140Y167200I-2540J0D01*
G01*
X224340D02*
G03*
X224340Y167200I-2540J0D01*
G01*
Y599000D02*
G03*
X224340Y599000I-2540J0D01*
G01*
Y573600D02*
G03*
X224340Y573600I-2540J0D01*
G01*
X249740D02*
G03*
X249740Y573600I-2540J0D01*
G01*
Y599000D02*
G03*
X249740Y599000I-2540J0D01*
G01*
Y167200D02*
G03*
X249740Y167200I-2540J0D01*
G01*
X148140D02*
G03*
X148140Y167200I-2540J0D01*
G01*
Y599000D02*
G03*
X148140Y599000I-2540J0D01*
G01*
Y573600D02*
G03*
X148140Y573600I-2540J0D01*
G01*
X122740D02*
G03*
X122740Y573600I-2540J0D01*
G01*
Y599000D02*
G03*
X122740Y599000I-2540J0D01*
G01*
Y167200D02*
G03*
X122740Y167200I-2540J0D01*
G01*
X173540D02*
G03*
X173540Y167200I-2540J0D01*
G01*
X198940D02*
G03*
X198940Y167200I-2540J0D01*
G01*
Y599000D02*
G03*
X198940Y599000I-2540J0D01*
G01*
X173540D02*
G03*
X173540Y599000I-2540J0D01*
G01*
X198940Y573600D02*
G03*
X198940Y573600I-2540J0D01*
G01*
X173540D02*
G03*
X173540Y573600I-2540J0D01*
G01*
X198940Y472000D02*
G03*
X198940Y472000I-2540J0D01*
G01*
X97340Y573600D02*
G03*
X97340Y573600I-2540J0D01*
G01*
X173540Y472000D02*
G03*
X173540Y472000I-2540J0D01*
G01*
X97340Y599000D02*
G03*
X97340Y599000I-2540J0D01*
G01*
Y167200D02*
G03*
X97340Y167200I-2540J0D01*
G01*
Y141800D02*
G03*
X97340Y141800I-2540J0D01*
G01*
X21140D02*
G03*
X21140Y141800I-2540J0D01*
G01*
Y167200D02*
G03*
X21140Y167200I-2540J0D01*
G01*
Y573600D02*
G03*
X21140Y573600I-2540J0D01*
G01*
X46540Y167200D02*
G03*
X46540Y167200I-2540J0D01*
G01*
Y573600D02*
G03*
X46540Y573600I-2540J0D01*
G01*
X71940D02*
G03*
X71940Y573600I-2540J0D01*
G01*
Y167200D02*
G03*
X71940Y167200I-2540J0D01*
G01*
Y548200D02*
G03*
X71940Y548200I-2540J0D01*
G01*
Y522800D02*
G03*
X71940Y522800I-2540J0D01*
G01*
Y497400D02*
G03*
X71940Y497400I-2540J0D01*
G01*
X46540D02*
G03*
X46540Y497400I-2540J0D01*
G01*
Y522800D02*
G03*
X46540Y522800I-2540J0D01*
G01*
Y548200D02*
G03*
X46540Y548200I-2540J0D01*
G01*
X21140Y497400D02*
G03*
X21140Y497400I-2540J0D01*
G01*
Y522800D02*
G03*
X21140Y522800I-2540J0D01*
G01*
Y548200D02*
G03*
X21140Y548200I-2540J0D01*
G01*
X71940Y472000D02*
G03*
X71940Y472000I-2540J0D01*
G01*
X46540D02*
G03*
X46540Y472000I-2540J0D01*
G01*
X71940Y446600D02*
G03*
X71940Y446600I-2540J0D01*
G01*
X46540D02*
G03*
X46540Y446600I-2540J0D01*
G01*
X71940Y370400D02*
G03*
X71940Y370400I-2540J0D01*
G01*
Y395800D02*
G03*
X71940Y395800I-2540J0D01*
G01*
Y421200D02*
G03*
X71940Y421200I-2540J0D01*
G01*
X46540D02*
G03*
X46540Y421200I-2540J0D01*
G01*
Y395800D02*
G03*
X46540Y395800I-2540J0D01*
G01*
Y370400D02*
G03*
X46540Y370400I-2540J0D01*
G01*
Y319600D02*
G03*
X46540Y319600I-2540J0D01*
G01*
Y345000D02*
G03*
X46540Y345000I-2540J0D01*
G01*
X71940D02*
G03*
X71940Y345000I-2540J0D01*
G01*
Y319600D02*
G03*
X71940Y319600I-2540J0D01*
G01*
X46540Y141800D02*
G03*
X46540Y141800I-2540J0D01*
G01*
X71940D02*
G03*
X71940Y141800I-2540J0D01*
G01*
X46540Y192600D02*
G03*
X46540Y192600I-2540J0D01*
G01*
Y218000D02*
G03*
X46540Y218000I-2540J0D01*
G01*
Y243400D02*
G03*
X46540Y243400I-2540J0D01*
G01*
X71940Y192600D02*
G03*
X71940Y192600I-2540J0D01*
G01*
Y268800D02*
G03*
X71940Y268800I-2540J0D01*
G01*
Y243400D02*
G03*
X71940Y243400I-2540J0D01*
G01*
Y218000D02*
G03*
X71940Y218000I-2540J0D01*
G01*
X46540Y294200D02*
G03*
X46540Y294200I-2540J0D01*
G01*
X71940D02*
G03*
X71940Y294200I-2540J0D01*
G01*
X46540Y268800D02*
G03*
X46540Y268800I-2540J0D01*
G01*
X21140Y243400D02*
G03*
X21140Y243400I-2540J0D01*
G01*
Y268800D02*
G03*
X21140Y268800I-2540J0D01*
G01*
Y294200D02*
G03*
X21140Y294200I-2540J0D01*
G01*
Y192600D02*
G03*
X21140Y192600I-2540J0D01*
G01*
Y218000D02*
G03*
X21140Y218000I-2540J0D01*
G01*
Y370400D02*
G03*
X21140Y370400I-2540J0D01*
G01*
Y395800D02*
G03*
X21140Y395800I-2540J0D01*
G01*
Y421200D02*
G03*
X21140Y421200I-2540J0D01*
G01*
Y319600D02*
G03*
X21140Y319600I-2540J0D01*
G01*
Y345000D02*
G03*
X21140Y345000I-2540J0D01*
G01*
Y472000D02*
G03*
X21140Y472000I-2540J0D01*
G01*
Y446600D02*
G03*
X21140Y446600I-2540J0D01*
G01*
X71940Y116400D02*
G03*
X71940Y116400I-2540J0D01*
G01*
X46540D02*
G03*
X46540Y116400I-2540J0D01*
G01*
X21140D02*
G03*
X21140Y116400I-2540J0D01*
G01*
X71940Y91000D02*
G03*
X71940Y91000I-2540J0D01*
G01*
X46540D02*
G03*
X46540Y91000I-2540J0D01*
G01*
X21140D02*
G03*
X21140Y91000I-2540J0D01*
G01*
X579940Y497400D02*
G03*
X579940Y497400I-2540J0D01*
G01*
X662540Y385000D02*
G03*
X662540Y385000I-2540J0D01*
G01*
X687540D02*
G03*
X687540Y385000I-2540J0D01*
G01*
X712540D02*
G03*
X712540Y385000I-2540J0D01*
G01*
X742540Y285000D02*
G03*
X742540Y285000I-2540J0D01*
G01*
Y259600D02*
G03*
X742540Y259600I-2540J0D01*
G01*
X900540Y325000D02*
G03*
X900540Y325000I-2540J0D01*
G01*
Y350400D02*
G03*
X900540Y350400I-2540J0D01*
G01*
X701540Y571000D02*
G03*
X701540Y571000I-2540J0D01*
G01*
X726940D02*
G03*
X726940Y571000I-2540J0D01*
G01*
X852540Y385000D02*
G03*
X852540Y385000I-2540J0D01*
G01*
X827540D02*
G03*
X827540Y385000I-2540J0D01*
G01*
X802540D02*
G03*
X802540Y385000I-2540J0D01*
G01*
X899540Y288400D02*
G03*
X899540Y288400I-2540J0D01*
G01*
Y263000D02*
G03*
X899540Y263000I-2540J0D01*
G01*
X697000Y10460D02*
X699540Y15540D01*
X694460D02*
X699540D01*
X694460D02*
X697000Y10460D01*
X770000Y10460D02*
X772540Y15540D01*
X767460D02*
X772540D01*
X767460D02*
X770000Y10460D01*
X839000Y9460D02*
X841540Y14540D01*
X836460D02*
X841540D01*
X836460D02*
X839000Y9460D01*
X913000Y9460D02*
X915540Y14540D01*
X910460D02*
X915540D01*
X910460D02*
X913000Y9460D01*
X881000Y285460D02*
X883540Y290540D01*
X878460D02*
X883540D01*
X878460D02*
X881000Y285460D01*
Y268460D02*
X883540Y273540D01*
X878460D02*
X883540D01*
X878460D02*
X881000Y268460D01*
X776500Y301960D02*
X779040Y307040D01*
X773960D02*
X779040D01*
X773960D02*
X776500Y301960D01*
X669000Y132710D02*
X671540Y137790D01*
X666460D02*
X671540D01*
X666460D02*
X669000Y132710D01*
X740000Y132710D02*
X742540Y137790D01*
X737460D02*
X742540D01*
X737460D02*
X740000Y132710D01*
X811000Y131710D02*
X813540Y136790D01*
X808460D02*
X813540D01*
X808460D02*
X811000Y131710D01*
X883000Y131710D02*
X885540Y136790D01*
X880460D02*
X885540D01*
X880460D02*
X883000Y131710D01*
X911350Y503110D02*
X913890Y508190D01*
X908810D02*
X913890D01*
X908810D02*
X911350Y503110D01*
X911350Y515810D02*
X913890Y520890D01*
X908810D02*
X913890D01*
X908810D02*
X911350Y515810D01*
X910950Y528510D02*
X913490Y533590D01*
X908410D02*
X913490D01*
X908410D02*
X910950Y528510D01*
X910550Y553910D02*
X913090Y558990D01*
X908010D02*
X913090D01*
X908010D02*
X910550Y553910D01*
X989450D02*
X991990Y558990D01*
X986910D02*
X991990D01*
X986910D02*
X989450Y553910D01*
X989050Y528510D02*
X991590Y533590D01*
X986510D02*
X991590D01*
X986510D02*
X989050Y528510D01*
X989127Y516040D02*
X991667Y521120D01*
X986587D02*
X991667D01*
X986587D02*
X989127Y516040D01*
Y503340D02*
X991667Y508420D01*
X986587D02*
X991667D01*
X986587D02*
X989127Y503340D01*
X750000Y383460D02*
X752540Y388540D01*
X747460D02*
X752540D01*
X747460D02*
X750000Y383460D01*
X633000D02*
X635540Y388540D01*
X630460D02*
X635540D01*
X630460D02*
X633000Y383460D01*
X854500Y295960D02*
X857040Y301040D01*
X851960D02*
X857040D01*
X851960D02*
X854500Y295960D01*
X651000Y558460D02*
X653540Y563540D01*
X648460D02*
X653540D01*
X648460D02*
X651000Y558460D01*
X791500Y580960D02*
X794040Y586040D01*
X788960D02*
X794040D01*
X788960D02*
X791500Y580960D01*
X940558Y371314D02*
X943098Y376394D01*
X938018D02*
X943098D01*
X938018D02*
X940558Y371314D01*
X671000Y363460D02*
X673540Y368540D01*
X668460D02*
X673540D01*
X668460D02*
X671000Y363460D01*
X791500Y624460D02*
X794040Y629540D01*
X788960D02*
X794040D01*
X788960D02*
X791500Y624460D01*
X987000Y461460D02*
X989540Y466540D01*
X984460D02*
X989540D01*
X984460D02*
X987000Y461460D01*
X688000Y40460D02*
X690540Y45540D01*
X685460D02*
X690540D01*
X685460D02*
X688000Y40460D01*
X830500Y39460D02*
X833040Y44540D01*
X827960D02*
X833040D01*
X827960D02*
X830500Y39460D01*
X714478Y132841D02*
X717018Y137921D01*
X711938D02*
X717018D01*
X711938D02*
X714478Y132841D01*
X751901Y41150D02*
X754442Y46230D01*
X749361D02*
X754442D01*
X749361D02*
X751901Y41150D01*
X785868Y132815D02*
X788408Y137895D01*
X783328D02*
X788408D01*
X783328D02*
X785868Y132815D01*
X857225Y131899D02*
X859765Y136979D01*
X854686D02*
X859765D01*
X854686D02*
X857225Y131899D01*
X928256Y131899D02*
X930796Y136979D01*
X925716D02*
X930796D01*
X925716D02*
X928256Y131899D01*
X714715Y52201D02*
X717255Y57281D01*
X712176D02*
X717255D01*
X712176D02*
X714715Y52201D01*
X785174Y52121D02*
X787714Y57201D01*
X782635D02*
X787714D01*
X782635D02*
X785174Y52121D01*
X856352Y51004D02*
X858892Y56084D01*
X853812D02*
X858892D01*
X853812D02*
X856352Y51004D01*
X928407Y51083D02*
X930947Y56163D01*
X925867D02*
X930947D01*
X925867D02*
X928407Y51083D01*
X894580Y39271D02*
X897120Y44351D01*
X892040D02*
X897120D01*
X892040D02*
X894580Y39271D01*
X658101Y318476D02*
X660641Y323556D01*
X655561D02*
X660641D01*
X655561D02*
X658101Y318476D01*
X658028Y206175D02*
X660568Y211255D01*
X655488D02*
X660568D01*
X655488D02*
X658028Y206175D01*
X847000Y309460D02*
X849540Y314540D01*
X844460D02*
X849540D01*
X844460D02*
X847000Y309460D01*
X842051Y180457D02*
X844591Y185537D01*
X839511D02*
X844591D01*
X839511D02*
X842051Y180457D01*
X10000Y652460D02*
X12540Y657540D01*
X7460D02*
X12540D01*
X7460D02*
X10000Y652460D01*
X75000D02*
X77540Y657540D01*
X72460D02*
X77540D01*
X72460D02*
X75000Y652460D01*
X10000Y597460D02*
X12540Y602540D01*
X7460D02*
X12540D01*
X7460D02*
X10000Y597460D01*
X70000Y7460D02*
X72540Y12540D01*
X67460D02*
X72540D01*
X67460D02*
X70000Y7460D01*
X15000Y72460D02*
X17540Y77540D01*
X12460D02*
X17540D01*
X12460D02*
X15000Y72460D01*
Y7460D02*
X17540Y12540D01*
X12460D02*
X17540D01*
X12460D02*
X15000Y7460D01*
X989000Y47460D02*
X991540Y52540D01*
X986460D02*
X991540D01*
X986460D02*
X989000Y47460D01*
X934000Y9460D02*
X936540Y14540D01*
X931460D02*
X936540D01*
X931460D02*
X934000Y9460D01*
X989105Y7960D02*
X991645Y13040D01*
X986565D02*
X991645D01*
X986565D02*
X989105Y7960D01*
X939750Y358791D02*
X942290Y363871D01*
X937210D02*
X942290D01*
X937210D02*
X939750Y358791D01*
X702250Y181460D02*
X704790Y186540D01*
X699710D02*
X704790D01*
X699710D02*
X702250Y181460D01*
X852000Y213460D02*
X854540Y218540D01*
X849460D02*
X854540D01*
X849460D02*
X852000Y213460D01*
X880000Y236460D02*
X882540Y241540D01*
X877460D02*
X882540D01*
X877460D02*
X880000Y236460D01*
X898000Y443460D02*
X900540Y448540D01*
X895460D02*
X900540D01*
X895460D02*
X898000Y443460D01*
X799706Y259843D02*
X802246Y264923D01*
X797166D02*
X802246D01*
X797166D02*
X799706Y259843D01*
X850775Y249864D02*
X853315Y254944D01*
X848235D02*
X853315D01*
X848235D02*
X850775Y249864D01*
X720271Y311960D02*
X722811Y317040D01*
X717731D02*
X722811D01*
X717731D02*
X720271Y311960D01*
X709129Y149821D02*
X711669Y154901D01*
X706589D02*
X711669D01*
X706589D02*
X709129Y149821D01*
X915965Y179648D02*
X918505Y184728D01*
X913425D02*
X918505D01*
X913425D02*
X915965Y179648D01*
X698000Y160460D02*
X700540Y165540D01*
X695460D02*
X700540D01*
X695460D02*
X698000Y160460D01*
X768000D02*
X770540Y165540D01*
X765460D02*
X770540D01*
X765460D02*
X768000Y160460D01*
X837000D02*
X839540Y165540D01*
X834460D02*
X839540D01*
X834460D02*
X837000Y160460D01*
X909000Y159460D02*
X911540Y164540D01*
X906460D02*
X911540D01*
X906460D02*
X909000Y159460D01*
X862000Y307460D02*
X864540Y312540D01*
X859460D02*
X864540D01*
X859460D02*
X862000Y307460D01*
X827000Y311460D02*
X829540Y316540D01*
X824460D02*
X829540D01*
X824460D02*
X827000Y311460D01*
X788000Y250460D02*
X790540Y255540D01*
X785460D02*
X790540D01*
X785460D02*
X788000Y250460D01*
X985000Y652460D02*
X987540Y657540D01*
X982460D02*
X987540D01*
X982460D02*
X985000Y652460D01*
X933000Y652460D02*
X935540Y657540D01*
X930460D02*
X935540D01*
X930460D02*
X933000Y652460D01*
X985000Y604460D02*
X987540Y609540D01*
X982460D02*
X987540D01*
X982460D02*
X985000Y604460D01*
X929000Y467460D02*
X931540Y472540D01*
X926460D02*
X931540D01*
X926460D02*
X929000Y467460D01*
X928901Y458992D02*
X931441Y464072D01*
X926361D02*
X931441D01*
X926361D02*
X928901Y458992D01*
X986000Y444460D02*
X988540Y449540D01*
X983460D02*
X988540D01*
X983460D02*
X986000Y444460D01*
X890000Y434460D02*
X892540Y439540D01*
X887460D02*
X892540D01*
X887460D02*
X890000Y434460D01*
X937000Y251460D02*
X939540Y256540D01*
X934460D02*
X939540D01*
X934460D02*
X937000Y251460D01*
X914000Y212460D02*
X916540Y217540D01*
X911460D02*
X916540D01*
X911460D02*
X914000Y212460D01*
X940000Y406460D02*
X942540Y411540D01*
X937460D02*
X942540D01*
X937460D02*
X940000Y406460D01*
X913000Y351460D02*
X915540Y356540D01*
X910460D02*
X915540D01*
X910460D02*
X913000Y351460D01*
X219260Y393260D02*
X224340D01*
Y398340D01*
X219260D02*
X224340D01*
X219260Y393260D02*
Y398340D01*
Y367860D02*
X224340D01*
Y372940D01*
X219260D02*
X224340D01*
X219260Y367860D02*
Y372940D01*
X244660Y342460D02*
X249740D01*
Y347540D01*
X244660D02*
X249740D01*
X244660Y342460D02*
Y347540D01*
X219260Y317060D02*
X224340D01*
Y322140D01*
X219260D02*
X224340D01*
X219260Y317060D02*
Y322140D01*
Y291660D02*
X224340D01*
Y296740D01*
X219260D02*
X224340D01*
X219260Y291660D02*
Y296740D01*
Y266260D02*
X224340D01*
Y271340D01*
X219260D02*
X224340D01*
X219260Y266260D02*
Y271340D01*
X244660Y393260D02*
X249740D01*
Y398340D01*
X244660D02*
X249740D01*
X244660Y393260D02*
Y398340D01*
Y367860D02*
X249740D01*
Y372940D01*
X244660D02*
X249740D01*
X244660Y367860D02*
Y372940D01*
X219260Y342460D02*
X224340D01*
Y347540D01*
X219260D02*
X224340D01*
X219260Y342460D02*
Y347540D01*
X244660Y317060D02*
X249740D01*
Y322140D01*
X244660D02*
X249740D01*
X244660Y317060D02*
Y322140D01*
Y291660D02*
X249740D01*
Y296740D01*
X244660D02*
X249740D01*
X244660Y291660D02*
Y296740D01*
Y266260D02*
X249740D01*
Y271340D01*
X244660D02*
X249740D01*
X244660Y266260D02*
Y271340D01*
X574860Y469460D02*
X579940D01*
Y474540D01*
X574860D02*
X579940D01*
X574860Y469460D02*
Y474540D01*
X549460Y469460D02*
X554540D01*
Y474540D01*
X549460D02*
X554540D01*
X549460Y469460D02*
Y474540D01*
X524060Y469460D02*
X529140D01*
Y474540D01*
X524060D02*
X529140D01*
X524060Y469460D02*
Y474540D01*
X346260Y190060D02*
X351340D01*
Y195140D01*
X346260D02*
X351340D01*
X346260Y190060D02*
Y195140D01*
X498660Y469460D02*
X503740D01*
Y474540D01*
X498660D02*
X503740D01*
X498660Y469460D02*
Y474540D01*
X371660Y190060D02*
X376740D01*
Y195140D01*
X371660D02*
X376740D01*
X371660Y190060D02*
Y195140D01*
X473260Y469460D02*
X478340D01*
Y474540D01*
X473260D02*
X478340D01*
X473260Y469460D02*
Y474540D01*
X397060Y190060D02*
X402140D01*
Y195140D01*
X397060D02*
X402140D01*
X397060Y190060D02*
Y195140D01*
X447860Y469460D02*
X452940D01*
Y474540D01*
X447860D02*
X452940D01*
X447860Y469460D02*
Y474540D01*
X422460Y190060D02*
X427540D01*
Y195140D01*
X422460D02*
X427540D01*
X422460Y190060D02*
Y195140D01*
Y469460D02*
X427540D01*
Y474540D01*
X422460D02*
X427540D01*
X422460Y469460D02*
Y474540D01*
X447860Y190060D02*
X452940D01*
Y195140D01*
X447860D02*
X452940D01*
X447860Y190060D02*
Y195140D01*
X397060Y469460D02*
X402140D01*
Y474540D01*
X397060D02*
X402140D01*
X397060Y469460D02*
Y474540D01*
X473260Y190060D02*
X478340D01*
Y195140D01*
X473260D02*
X478340D01*
X473260Y190060D02*
Y195140D01*
X371660Y469460D02*
X376740D01*
Y474540D01*
X371660D02*
X376740D01*
X371660Y469460D02*
Y474540D01*
X498660Y190060D02*
X503740D01*
Y195140D01*
X498660D02*
X503740D01*
X498660Y190060D02*
Y195140D01*
X346260Y469460D02*
X351340D01*
Y474540D01*
X346260D02*
X351340D01*
X346260Y469460D02*
Y474540D01*
X524060Y190060D02*
X529140D01*
Y195140D01*
X524060D02*
X529140D01*
X524060Y190060D02*
Y195140D01*
X320860Y469460D02*
X325940D01*
Y474540D01*
X320860D02*
X325940D01*
X320860Y469460D02*
Y474540D01*
X549460Y190060D02*
X554540D01*
Y195140D01*
X549460D02*
X554540D01*
X549460Y190060D02*
Y195140D01*
X295460Y469460D02*
X300540D01*
Y474540D01*
X295460D02*
X300540D01*
X295460Y469460D02*
Y474540D01*
X574860Y190060D02*
X579940D01*
Y195140D01*
X574860D02*
X579940D01*
X574860Y190060D02*
Y195140D01*
X958730Y38730D02*
X960000Y37460D01*
X957460Y38730D02*
X958730D01*
X957460D02*
X958730Y40000D01*
X957460Y41270D02*
X958730Y40000D01*
X957460Y41270D02*
X958730D01*
X960000Y42540D01*
X961270Y41270D01*
X962540D01*
X961270Y40000D02*
X962540Y41270D01*
X961270Y40000D02*
X962540Y38730D01*
X961270D02*
X962540D01*
X960000Y37460D02*
X961270Y38730D01*
X38730D02*
X40000Y37460D01*
X37460Y38730D02*
X38730D01*
X37460D02*
X38730Y40000D01*
X37460Y41270D02*
X38730Y40000D01*
X37460Y41270D02*
X38730D01*
X40000Y42540D01*
X41270Y41270D01*
X42540D01*
X41270Y40000D02*
X42540Y41270D01*
X41270Y40000D02*
X42540Y38730D01*
X41270D02*
X42540D01*
X40000Y37460D02*
X41270Y38730D01*
X38730Y628730D02*
X40000Y627460D01*
X37460Y628730D02*
X38730D01*
X37460D02*
X38730Y630000D01*
X37460Y631270D02*
X38730Y630000D01*
X37460Y631270D02*
X38730D01*
X40000Y632540D01*
X41270Y631270D01*
X42540D01*
X41270Y630000D02*
X42540Y631270D01*
X41270Y630000D02*
X42540Y628730D01*
X41270D02*
X42540D01*
X40000Y627460D02*
X41270Y628730D01*
X958730D02*
X960000Y627460D01*
X957460Y628730D02*
X958730D01*
X957460D02*
X958730Y630000D01*
X957460Y631270D02*
X958730Y630000D01*
X957460Y631270D02*
X958730D01*
X960000Y632540D01*
X961270Y631270D01*
X962540D01*
X961270Y630000D02*
X962540Y631270D01*
X961270Y630000D02*
X962540Y628730D01*
X961270D02*
X962540D01*
X960000Y627460D02*
X961270Y628730D01*
X600460Y469460D02*
X605540D01*
Y474540D01*
X600460D02*
X605540D01*
X600460Y469460D02*
Y474540D01*
X600260Y647260D02*
X605340D01*
Y652340D01*
X600260D02*
X605340D01*
X600260Y647260D02*
Y652340D01*
Y621460D02*
X605340D01*
Y626540D01*
X600260D02*
X605340D01*
X600260Y621460D02*
Y626540D01*
Y37660D02*
X605340D01*
Y42740D01*
X600260D02*
X605340D01*
X600260Y37660D02*
Y42740D01*
Y12260D02*
X605340D01*
Y17340D01*
X600260D02*
X605340D01*
X600260Y12260D02*
Y17340D01*
Y598210D02*
X605340D01*
Y603290D01*
X600260D02*
X605340D01*
X600260Y598210D02*
Y603290D01*
Y573564D02*
X605340D01*
Y578644D01*
X600260D02*
X605340D01*
X600260Y573564D02*
Y578644D01*
X600460Y545460D02*
X605540D01*
Y550540D01*
X600460D02*
X605540D01*
X600460Y545460D02*
Y550540D01*
Y520460D02*
X605540D01*
Y525540D01*
X600460D02*
X605540D01*
X600460Y520460D02*
Y525540D01*
Y494460D02*
X605540D01*
Y499540D01*
X600460D02*
X605540D01*
X600460Y494460D02*
Y499540D01*
X600260Y63060D02*
X605340D01*
Y68140D01*
X600260D02*
X605340D01*
X600260Y63060D02*
Y68140D01*
Y88460D02*
X605340D01*
Y93540D01*
X600260D02*
X605340D01*
X600260Y88460D02*
Y93540D01*
Y113860D02*
X605340D01*
Y118940D01*
X600260D02*
X605340D01*
X600260Y113860D02*
Y118940D01*
Y139260D02*
X605340D01*
Y144340D01*
X600260D02*
X605340D01*
X600260Y139260D02*
Y144340D01*
Y164660D02*
X605340D01*
Y169740D01*
X600260D02*
X605340D01*
X600260Y164660D02*
Y169740D01*
Y190060D02*
X605340D01*
Y195140D01*
X600260D02*
X605340D01*
X600260Y190060D02*
Y195140D01*
X638460Y452460D02*
X641000Y453730D01*
X643540Y452460D01*
X642270Y455000D02*
X643540Y452460D01*
X642270Y455000D02*
X643540Y457540D01*
X641000Y456270D02*
X643540Y457540D01*
X638460D02*
X641000Y456270D01*
X638460Y457540D02*
X639730Y455000D01*
X638460Y452460D02*
X639730Y455000D01*
X726460Y452460D02*
X729000Y453730D01*
X731540Y452460D01*
X730270Y455000D02*
X731540Y452460D01*
X730270Y455000D02*
X731540Y457540D01*
X729000Y456270D02*
X731540Y457540D01*
X726460D02*
X729000Y456270D01*
X726460Y457540D02*
X727730Y455000D01*
X726460Y452460D02*
X727730Y455000D01*
X975710Y287000D02*
X978250Y284460D01*
X980790Y287000D01*
X978250Y289540D02*
X980790Y287000D01*
X975710D02*
X978250Y289540D01*
X975710Y221000D02*
X978250Y218460D01*
X980790Y221000D01*
X978250Y223540D02*
X980790Y221000D01*
X975710D02*
X978250Y223540D01*
X295460Y317060D02*
Y318330D01*
X296730Y319600D01*
X295460Y320870D02*
X296730Y319600D01*
X295460Y320870D02*
Y322140D01*
X296730D01*
X298000Y320870D01*
X299270Y322140D01*
X300540D01*
Y320870D02*
Y322140D01*
X299270Y319600D02*
X300540Y320870D01*
X299270Y319600D02*
X300540Y318330D01*
Y317060D02*
Y318330D01*
X299270Y317060D02*
X300540D01*
X298000Y318330D02*
X299270Y317060D01*
X296730D02*
X298000Y318330D01*
X295460Y317060D02*
X296730D01*
X295460Y266260D02*
Y267530D01*
X296730Y268800D01*
X295460Y270070D02*
X296730Y268800D01*
X295460Y270070D02*
Y271340D01*
X296730D01*
X298000Y270070D01*
X299270Y271340D01*
X300540D01*
Y270070D02*
Y271340D01*
X299270Y268800D02*
X300540Y270070D01*
X299270Y268800D02*
X300540Y267530D01*
Y266260D02*
Y267530D01*
X299270Y266260D02*
X300540D01*
X298000Y267530D02*
X299270Y266260D01*
X296730D02*
X298000Y267530D01*
X295460Y266260D02*
X296730D01*
X295460Y291660D02*
Y292930D01*
X296730Y294200D01*
X295460Y295470D02*
X296730Y294200D01*
X295460Y295470D02*
Y296740D01*
X296730D01*
X298000Y295470D01*
X299270Y296740D01*
X300540D01*
Y295470D02*
Y296740D01*
X299270Y294200D02*
X300540Y295470D01*
X299270Y294200D02*
X300540Y292930D01*
Y291660D02*
Y292930D01*
X299270Y291660D02*
X300540D01*
X298000Y292930D02*
X299270Y291660D01*
X296730D02*
X298000Y292930D01*
X295460Y291660D02*
X296730D01*
X295460Y342460D02*
Y343730D01*
X296730Y345000D01*
X295460Y346270D02*
X296730Y345000D01*
X295460Y346270D02*
Y347540D01*
X296730D01*
X298000Y346270D01*
X299270Y347540D01*
X300540D01*
Y346270D02*
Y347540D01*
X299270Y345000D02*
X300540Y346270D01*
X299270Y345000D02*
X300540Y343730D01*
Y342460D02*
Y343730D01*
X299270Y342460D02*
X300540D01*
X298000Y343730D02*
X299270Y342460D01*
X296730D02*
X298000Y343730D01*
X295460Y342460D02*
X296730D01*
X295460Y367860D02*
Y369130D01*
X296730Y370400D01*
X295460Y371670D02*
X296730Y370400D01*
X295460Y371670D02*
Y372940D01*
X296730D01*
X298000Y371670D01*
X299270Y372940D01*
X300540D01*
Y371670D02*
Y372940D01*
X299270Y370400D02*
X300540Y371670D01*
X299270Y370400D02*
X300540Y369130D01*
Y367860D02*
Y369130D01*
X299270Y367860D02*
X300540D01*
X298000Y369130D02*
X299270Y367860D01*
X296730D02*
X298000Y369130D01*
X295460Y367860D02*
X296730D01*
X295460Y393260D02*
Y394530D01*
X296730Y395800D01*
X295460Y397070D02*
X296730Y395800D01*
X295460Y397070D02*
Y398340D01*
X296730D01*
X298000Y397070D01*
X299270Y398340D01*
X300540D01*
Y397070D02*
Y398340D01*
X299270Y395800D02*
X300540Y397070D01*
X299270Y395800D02*
X300540Y394530D01*
Y393260D02*
Y394530D01*
X299270Y393260D02*
X300540D01*
X298000Y394530D02*
X299270Y393260D01*
X296730D02*
X298000Y394530D01*
X295460Y393260D02*
X296730D01*
X575860D02*
Y394530D01*
X577130Y395800D01*
X575860Y397070D02*
X577130Y395800D01*
X575860Y397070D02*
Y398340D01*
X577130D01*
X578400Y397070D01*
X579670Y398340D01*
X580940D01*
Y397070D02*
Y398340D01*
X579670Y395800D02*
X580940Y397070D01*
X579670Y395800D02*
X580940Y394530D01*
Y393260D02*
Y394530D01*
X579670Y393260D02*
X580940D01*
X578400Y394530D02*
X579670Y393260D01*
X577130D02*
X578400Y394530D01*
X575860Y393260D02*
X577130D01*
X575860Y367860D02*
Y369130D01*
X577130Y370400D01*
X575860Y371670D02*
X577130Y370400D01*
X575860Y371670D02*
Y372940D01*
X577130D01*
X578400Y371670D01*
X579670Y372940D01*
X580940D01*
Y371670D02*
Y372940D01*
X579670Y370400D02*
X580940Y371670D01*
X579670Y370400D02*
X580940Y369130D01*
Y367860D02*
Y369130D01*
X579670Y367860D02*
X580940D01*
X578400Y369130D02*
X579670Y367860D01*
X577130D02*
X578400Y369130D01*
X575860Y367860D02*
X577130D01*
X575860Y342460D02*
Y343730D01*
X577130Y345000D01*
X575860Y346270D02*
X577130Y345000D01*
X575860Y346270D02*
Y347540D01*
X577130D01*
X578400Y346270D01*
X579670Y347540D01*
X580940D01*
Y346270D02*
Y347540D01*
X579670Y345000D02*
X580940Y346270D01*
X579670Y345000D02*
X580940Y343730D01*
Y342460D02*
Y343730D01*
X579670Y342460D02*
X580940D01*
X578400Y343730D02*
X579670Y342460D01*
X577130D02*
X578400Y343730D01*
X575860Y342460D02*
X577130D01*
X575860Y291660D02*
Y292930D01*
X577130Y294200D01*
X575860Y295470D02*
X577130Y294200D01*
X575860Y295470D02*
Y296740D01*
X577130D01*
X578400Y295470D01*
X579670Y296740D01*
X580940D01*
Y295470D02*
Y296740D01*
X579670Y294200D02*
X580940Y295470D01*
X579670Y294200D02*
X580940Y292930D01*
Y291660D02*
Y292930D01*
X579670Y291660D02*
X580940D01*
X578400Y292930D02*
X579670Y291660D01*
X577130D02*
X578400Y292930D01*
X575860Y291660D02*
X577130D01*
X575860Y266260D02*
Y267530D01*
X577130Y268800D01*
X575860Y270070D02*
X577130Y268800D01*
X575860Y270070D02*
Y271340D01*
X577130D01*
X578400Y270070D01*
X579670Y271340D01*
X580940D01*
Y270070D02*
Y271340D01*
X579670Y268800D02*
X580940Y270070D01*
X579670Y268800D02*
X580940Y267530D01*
Y266260D02*
Y267530D01*
X579670Y266260D02*
X580940D01*
X578400Y267530D02*
X579670Y266260D01*
X577130D02*
X578400Y267530D01*
X575860Y266260D02*
X577130D01*
X575860Y317060D02*
Y318330D01*
X577130Y319600D01*
X575860Y320870D02*
X577130Y319600D01*
X575860Y320870D02*
Y322140D01*
X577130D01*
X578400Y320870D01*
X579670Y322140D01*
X580940D01*
Y320870D02*
Y322140D01*
X579670Y319600D02*
X580940Y320870D01*
X579670Y319600D02*
X580940Y318330D01*
Y317060D02*
Y318330D01*
X579670Y317060D02*
X580940D01*
X578400Y318330D02*
X579670Y317060D01*
X577130D02*
X578400Y318330D01*
X575860Y317060D02*
X577130D01*
X270060Y236860D02*
X275140D01*
Y241940D01*
X270060D02*
X275140D01*
X270060Y236860D02*
Y241940D01*
X524060Y236860D02*
Y238130D01*
X525330Y239400D01*
X524060Y240670D02*
X525330Y239400D01*
X524060Y240670D02*
Y241940D01*
X525330D01*
X526600Y240670D01*
X527870Y241940D01*
X529140D01*
Y240670D02*
Y241940D01*
X527870Y239400D02*
X529140Y240670D01*
X527870Y239400D02*
X529140Y238130D01*
Y236860D02*
Y238130D01*
X527870Y236860D02*
X529140D01*
X526600Y238130D02*
X527870Y236860D01*
X525330D02*
X526600Y238130D01*
X524060Y236860D02*
X525330D01*
X447860D02*
Y238130D01*
X449130Y239400D01*
X447860Y240670D02*
X449130Y239400D01*
X447860Y240670D02*
Y241940D01*
X449130D01*
X450400Y240670D01*
X451670Y241940D01*
X452940D01*
Y240670D02*
Y241940D01*
X451670Y239400D02*
X452940Y240670D01*
X451670Y239400D02*
X452940Y238130D01*
Y236860D02*
Y238130D01*
X451670Y236860D02*
X452940D01*
X450400Y238130D02*
X451670Y236860D01*
X449130D02*
X450400Y238130D01*
X447860Y236860D02*
X449130D01*
X346260D02*
Y238130D01*
X347530Y239400D01*
X346260Y240670D02*
X347530Y239400D01*
X346260Y240670D02*
Y241940D01*
X347530D01*
X348800Y240670D01*
X350070Y241940D01*
X351340D01*
Y240670D02*
Y241940D01*
X350070Y239400D02*
X351340Y240670D01*
X350070Y239400D02*
X351340Y238130D01*
Y236860D02*
Y238130D01*
X350070Y236860D02*
X351340D01*
X348800Y238130D02*
X350070Y236860D01*
X347530D02*
X348800Y238130D01*
X346260Y236860D02*
X347530D01*
X295460D02*
Y238130D01*
X296730Y239400D01*
X295460Y240670D02*
X296730Y239400D01*
X295460Y240670D02*
Y241940D01*
X296730D01*
X298000Y240670D01*
X299270Y241940D01*
X300540D01*
Y240670D02*
Y241940D01*
X299270Y239400D02*
X300540Y240670D01*
X299270Y239400D02*
X300540Y238130D01*
Y236860D02*
Y238130D01*
X299270Y236860D02*
X300540D01*
X298000Y238130D02*
X299270Y236860D01*
X296730D02*
X298000Y238130D01*
X295460Y236860D02*
X296730D01*
X320860D02*
Y238130D01*
X322130Y239400D01*
X320860Y240670D02*
X322130Y239400D01*
X320860Y240670D02*
Y241940D01*
X322130D01*
X323400Y240670D01*
X324670Y241940D01*
X325940D01*
Y240670D02*
Y241940D01*
X324670Y239400D02*
X325940Y240670D01*
X324670Y239400D02*
X325940Y238130D01*
Y236860D02*
Y238130D01*
X324670Y236860D02*
X325940D01*
X323400Y238130D02*
X324670Y236860D01*
X322130D02*
X323400Y238130D01*
X320860Y236860D02*
X322130D01*
X371660D02*
Y238130D01*
X372930Y239400D01*
X371660Y240670D02*
X372930Y239400D01*
X371660Y240670D02*
Y241940D01*
X372930D01*
X374200Y240670D01*
X375470Y241940D01*
X376740D01*
Y240670D02*
Y241940D01*
X375470Y239400D02*
X376740Y240670D01*
X375470Y239400D02*
X376740Y238130D01*
Y236860D02*
Y238130D01*
X375470Y236860D02*
X376740D01*
X374200Y238130D02*
X375470Y236860D01*
X372930D02*
X374200Y238130D01*
X371660Y236860D02*
X372930D01*
X397060D02*
Y238130D01*
X398330Y239400D01*
X397060Y240670D02*
X398330Y239400D01*
X397060Y240670D02*
Y241940D01*
X398330D01*
X399600Y240670D01*
X400870Y241940D01*
X402140D01*
Y240670D02*
Y241940D01*
X400870Y239400D02*
X402140Y240670D01*
X400870Y239400D02*
X402140Y238130D01*
Y236860D02*
Y238130D01*
X400870Y236860D02*
X402140D01*
X399600Y238130D02*
X400870Y236860D01*
X398330D02*
X399600Y238130D01*
X397060Y236860D02*
X398330D01*
X422460D02*
Y238130D01*
X423730Y239400D01*
X422460Y240670D02*
X423730Y239400D01*
X422460Y240670D02*
Y241940D01*
X423730D01*
X425000Y240670D01*
X426270Y241940D01*
X427540D01*
Y240670D02*
Y241940D01*
X426270Y239400D02*
X427540Y240670D01*
X426270Y239400D02*
X427540Y238130D01*
Y236860D02*
Y238130D01*
X426270Y236860D02*
X427540D01*
X425000Y238130D02*
X426270Y236860D01*
X423730D02*
X425000Y238130D01*
X422460Y236860D02*
X423730D01*
X473260D02*
Y238130D01*
X474530Y239400D01*
X473260Y240670D02*
X474530Y239400D01*
X473260Y240670D02*
Y241940D01*
X474530D01*
X475800Y240670D01*
X477070Y241940D01*
X478340D01*
Y240670D02*
Y241940D01*
X477070Y239400D02*
X478340Y240670D01*
X477070Y239400D02*
X478340Y238130D01*
Y236860D02*
Y238130D01*
X477070Y236860D02*
X478340D01*
X475800Y238130D02*
X477070Y236860D01*
X474530D02*
X475800Y238130D01*
X473260Y236860D02*
X474530D01*
X498660D02*
Y238130D01*
X499930Y239400D01*
X498660Y240670D02*
X499930Y239400D01*
X498660Y240670D02*
Y241940D01*
X499930D01*
X501200Y240670D01*
X502470Y241940D01*
X503740D01*
Y240670D02*
Y241940D01*
X502470Y239400D02*
X503740Y240670D01*
X502470Y239400D02*
X503740Y238130D01*
Y236860D02*
Y238130D01*
X502470Y236860D02*
X503740D01*
X501200Y238130D02*
X502470Y236860D01*
X499930D02*
X501200Y238130D01*
X498660Y236860D02*
X499930D01*
X549460D02*
Y238130D01*
X550730Y239400D01*
X549460Y240670D02*
X550730Y239400D01*
X549460Y240670D02*
Y241940D01*
X550730D01*
X552000Y240670D01*
X553270Y241940D01*
X554540D01*
Y240670D02*
Y241940D01*
X553270Y239400D02*
X554540Y240670D01*
X553270Y239400D02*
X554540Y238130D01*
Y236860D02*
Y238130D01*
X553270Y236860D02*
X554540D01*
X552000Y238130D02*
X553270Y236860D01*
X550730D02*
X552000Y238130D01*
X549460Y236860D02*
X550730D01*
X574860D02*
Y238130D01*
X576130Y239400D01*
X574860Y240670D02*
X576130Y239400D01*
X574860Y240670D02*
Y241940D01*
X576130D01*
X577400Y240670D01*
X578670Y241940D01*
X579940D01*
Y240670D02*
Y241940D01*
X578670Y239400D02*
X579940Y240670D01*
X578670Y239400D02*
X579940Y238130D01*
Y236860D02*
Y238130D01*
X578670Y236860D02*
X579940D01*
X577400Y238130D02*
X578670Y236860D01*
X576130D02*
X577400Y238130D01*
X574860Y236860D02*
X576130D01*
X859960Y633980D02*
X861230D01*
X859960D02*
Y636520D01*
X861230D01*
Y637790D01*
X863770D01*
Y636520D02*
Y637790D01*
Y636520D02*
X865040D01*
Y633980D02*
Y636520D01*
X863770Y633980D02*
X865040D01*
X863770Y632710D02*
Y633980D01*
X861230Y632710D02*
X863770D01*
X861230D02*
Y633980D01*
X834960D02*
X836230D01*
X834960D02*
Y636520D01*
X836230D01*
Y637790D01*
X838770D01*
Y636520D02*
Y637790D01*
Y636520D02*
X840040D01*
Y633980D02*
Y636520D01*
X838770Y633980D02*
X840040D01*
X838770Y632710D02*
Y633980D01*
X836230Y632710D02*
X838770D01*
X836230D02*
Y633980D01*
X270060Y422660D02*
X275140D01*
Y427740D01*
X270060D02*
X275140D01*
X270060Y422660D02*
Y427740D01*
X975710Y388000D02*
X978250Y385460D01*
X980790Y388000D01*
X978250Y390540D02*
X980790Y388000D01*
X975710D02*
X978250Y390540D01*
X975710Y322000D02*
X978250Y319460D01*
X980790Y322000D01*
X978250Y324540D02*
X980790Y322000D01*
X975710D02*
X978250Y324540D01*
X947460Y509460D02*
Y510730D01*
X948730Y512000D01*
X947460Y513270D02*
X948730Y512000D01*
X947460Y513270D02*
Y514540D01*
X948730D01*
X950000Y513270D01*
X951270Y514540D01*
X952540D01*
Y513270D02*
Y514540D01*
X951270Y512000D02*
X952540Y513270D01*
X951270Y512000D02*
X952540Y510730D01*
Y509460D02*
Y510730D01*
X951270Y509460D02*
X952540D01*
X950000Y510730D02*
X951270Y509460D01*
X948730D02*
X950000Y510730D01*
X947460Y509460D02*
X948730D01*
X947460Y547560D02*
Y548830D01*
X948730Y550100D01*
X947460Y551370D02*
X948730Y550100D01*
X947460Y551370D02*
Y552640D01*
X948730D01*
X950000Y551370D01*
X951270Y552640D01*
X952540D01*
Y551370D02*
Y552640D01*
X951270Y550100D02*
X952540Y551370D01*
X951270Y550100D02*
X952540Y548830D01*
Y547560D02*
Y548830D01*
X951270Y547560D02*
X952540D01*
X950000Y548830D02*
X951270Y547560D01*
X948730D02*
X950000Y548830D01*
X947460Y547560D02*
X948730D01*
X320860Y317060D02*
Y318330D01*
X322130Y319600D01*
X320860Y320870D02*
X322130Y319600D01*
X320860Y320870D02*
Y322140D01*
X322130D01*
X323400Y320870D01*
X324670Y322140D01*
X325940D01*
Y320870D02*
Y322140D01*
X324670Y319600D02*
X325940Y320870D01*
X324670Y319600D02*
X325940Y318330D01*
Y317060D02*
Y318330D01*
X324670Y317060D02*
X325940D01*
X323400Y318330D02*
X324670Y317060D01*
X322130D02*
X323400Y318330D01*
X320860Y317060D02*
X322130D01*
X320860Y266260D02*
Y267530D01*
X322130Y268800D01*
X320860Y270070D02*
X322130Y268800D01*
X320860Y270070D02*
Y271340D01*
X322130D01*
X323400Y270070D01*
X324670Y271340D01*
X325940D01*
Y270070D02*
Y271340D01*
X324670Y268800D02*
X325940Y270070D01*
X324670Y268800D02*
X325940Y267530D01*
Y266260D02*
Y267530D01*
X324670Y266260D02*
X325940D01*
X323400Y267530D02*
X324670Y266260D01*
X322130D02*
X323400Y267530D01*
X320860Y266260D02*
X322130D01*
X320860Y291660D02*
Y292930D01*
X322130Y294200D01*
X320860Y295470D02*
X322130Y294200D01*
X320860Y295470D02*
Y296740D01*
X322130D01*
X323400Y295470D01*
X324670Y296740D01*
X325940D01*
Y295470D02*
Y296740D01*
X324670Y294200D02*
X325940Y295470D01*
X324670Y294200D02*
X325940Y292930D01*
Y291660D02*
Y292930D01*
X324670Y291660D02*
X325940D01*
X323400Y292930D02*
X324670Y291660D01*
X322130D02*
X323400Y292930D01*
X320860Y291660D02*
X322130D01*
X320860Y342460D02*
Y343730D01*
X322130Y345000D01*
X320860Y346270D02*
X322130Y345000D01*
X320860Y346270D02*
Y347540D01*
X322130D01*
X323400Y346270D01*
X324670Y347540D01*
X325940D01*
Y346270D02*
Y347540D01*
X324670Y345000D02*
X325940Y346270D01*
X324670Y345000D02*
X325940Y343730D01*
Y342460D02*
Y343730D01*
X324670Y342460D02*
X325940D01*
X323400Y343730D02*
X324670Y342460D01*
X322130D02*
X323400Y343730D01*
X320860Y342460D02*
X322130D01*
X320860Y367860D02*
Y369130D01*
X322130Y370400D01*
X320860Y371670D02*
X322130Y370400D01*
X320860Y371670D02*
Y372940D01*
X322130D01*
X323400Y371670D01*
X324670Y372940D01*
X325940D01*
Y371670D02*
Y372940D01*
X324670Y370400D02*
X325940Y371670D01*
X324670Y370400D02*
X325940Y369130D01*
Y367860D02*
Y369130D01*
X324670Y367860D02*
X325940D01*
X323400Y369130D02*
X324670Y367860D01*
X322130D02*
X323400Y369130D01*
X320860Y367860D02*
X322130D01*
X320860Y393260D02*
Y394530D01*
X322130Y395800D01*
X320860Y397070D02*
X322130Y395800D01*
X320860Y397070D02*
Y398340D01*
X322130D01*
X323400Y397070D01*
X324670Y398340D01*
X325940D01*
Y397070D02*
Y398340D01*
X324670Y395800D02*
X325940Y397070D01*
X324670Y395800D02*
X325940Y394530D01*
Y393260D02*
Y394530D01*
X324670Y393260D02*
X325940D01*
X323400Y394530D02*
X324670Y393260D01*
X322130D02*
X323400Y394530D01*
X320860Y393260D02*
X322130D01*
X295460Y422660D02*
Y423930D01*
X296730Y425200D01*
X295460Y426470D02*
X296730Y425200D01*
X295460Y426470D02*
Y427740D01*
X296730D01*
X298000Y426470D01*
X299270Y427740D01*
X300540D01*
Y426470D02*
Y427740D01*
X299270Y425200D02*
X300540Y426470D01*
X299270Y425200D02*
X300540Y423930D01*
Y422660D02*
Y423930D01*
X299270Y422660D02*
X300540D01*
X298000Y423930D02*
X299270Y422660D01*
X296730D02*
X298000Y423930D01*
X295460Y422660D02*
X296730D01*
X320860D02*
Y423930D01*
X322130Y425200D01*
X320860Y426470D02*
X322130Y425200D01*
X320860Y426470D02*
Y427740D01*
X322130D01*
X323400Y426470D01*
X324670Y427740D01*
X325940D01*
Y426470D02*
Y427740D01*
X324670Y425200D02*
X325940Y426470D01*
X324670Y425200D02*
X325940Y423930D01*
Y422660D02*
Y423930D01*
X324670Y422660D02*
X325940D01*
X323400Y423930D02*
X324670Y422660D01*
X322130D02*
X323400Y423930D01*
X320860Y422660D02*
X322130D01*
X371660D02*
Y423930D01*
X372930Y425200D01*
X371660Y426470D02*
X372930Y425200D01*
X371660Y426470D02*
Y427740D01*
X372930D01*
X374200Y426470D01*
X375470Y427740D01*
X376740D01*
Y426470D02*
Y427740D01*
X375470Y425200D02*
X376740Y426470D01*
X375470Y425200D02*
X376740Y423930D01*
Y422660D02*
Y423930D01*
X375470Y422660D02*
X376740D01*
X374200Y423930D02*
X375470Y422660D01*
X372930D02*
X374200Y423930D01*
X371660Y422660D02*
X372930D01*
X397060D02*
Y423930D01*
X398330Y425200D01*
X397060Y426470D02*
X398330Y425200D01*
X397060Y426470D02*
Y427740D01*
X398330D01*
X399600Y426470D01*
X400870Y427740D01*
X402140D01*
Y426470D02*
Y427740D01*
X400870Y425200D02*
X402140Y426470D01*
X400870Y425200D02*
X402140Y423930D01*
Y422660D02*
Y423930D01*
X400870Y422660D02*
X402140D01*
X399600Y423930D02*
X400870Y422660D01*
X398330D02*
X399600Y423930D01*
X397060Y422660D02*
X398330D01*
X447860D02*
Y423930D01*
X449130Y425200D01*
X447860Y426470D02*
X449130Y425200D01*
X447860Y426470D02*
Y427740D01*
X449130D01*
X450400Y426470D01*
X451670Y427740D01*
X452940D01*
Y426470D02*
Y427740D01*
X451670Y425200D02*
X452940Y426470D01*
X451670Y425200D02*
X452940Y423930D01*
Y422660D02*
Y423930D01*
X451670Y422660D02*
X452940D01*
X450400Y423930D02*
X451670Y422660D01*
X449130D02*
X450400Y423930D01*
X447860Y422660D02*
X449130D01*
X473260D02*
Y423930D01*
X474530Y425200D01*
X473260Y426470D02*
X474530Y425200D01*
X473260Y426470D02*
Y427740D01*
X474530D01*
X475800Y426470D01*
X477070Y427740D01*
X478340D01*
Y426470D02*
Y427740D01*
X477070Y425200D02*
X478340Y426470D01*
X477070Y425200D02*
X478340Y423930D01*
Y422660D02*
Y423930D01*
X477070Y422660D02*
X478340D01*
X475800Y423930D02*
X477070Y422660D01*
X474530D02*
X475800Y423930D01*
X473260Y422660D02*
X474530D01*
X498660D02*
Y423930D01*
X499930Y425200D01*
X498660Y426470D02*
X499930Y425200D01*
X498660Y426470D02*
Y427740D01*
X499930D01*
X501200Y426470D01*
X502470Y427740D01*
X503740D01*
Y426470D02*
Y427740D01*
X502470Y425200D02*
X503740Y426470D01*
X502470Y425200D02*
X503740Y423930D01*
Y422660D02*
Y423930D01*
X502470Y422660D02*
X503740D01*
X501200Y423930D02*
X502470Y422660D01*
X499930D02*
X501200Y423930D01*
X498660Y422660D02*
X499930D01*
X549460D02*
Y423930D01*
X550730Y425200D01*
X549460Y426470D02*
X550730Y425200D01*
X549460Y426470D02*
Y427740D01*
X550730D01*
X552000Y426470D01*
X553270Y427740D01*
X554540D01*
Y426470D02*
Y427740D01*
X553270Y425200D02*
X554540Y426470D01*
X553270Y425200D02*
X554540Y423930D01*
Y422660D02*
Y423930D01*
X553270Y422660D02*
X554540D01*
X552000Y423930D02*
X553270Y422660D01*
X550730D02*
X552000Y423930D01*
X549460Y422660D02*
X550730D01*
X574860D02*
Y423930D01*
X576130Y425200D01*
X574860Y426470D02*
X576130Y425200D01*
X574860Y426470D02*
Y427740D01*
X576130D01*
X577400Y426470D01*
X578670Y427740D01*
X579940D01*
Y426470D02*
Y427740D01*
X578670Y425200D02*
X579940Y426470D01*
X578670Y425200D02*
X579940Y423930D01*
Y422660D02*
Y423930D01*
X578670Y422660D02*
X579940D01*
X577400Y423930D02*
X578670Y422660D01*
X576130D02*
X577400Y423930D01*
X574860Y422660D02*
X576130D01*
X524060D02*
Y423930D01*
X525330Y425200D01*
X524060Y426470D02*
X525330Y425200D01*
X524060Y426470D02*
Y427740D01*
X525330D01*
X526600Y426470D01*
X527870Y427740D01*
X529140D01*
Y426470D02*
Y427740D01*
X527870Y425200D02*
X529140Y426470D01*
X527870Y425200D02*
X529140Y423930D01*
Y422660D02*
Y423930D01*
X527870Y422660D02*
X529140D01*
X526600Y423930D02*
X527870Y422660D01*
X525330D02*
X526600Y423930D01*
X524060Y422660D02*
X525330D01*
X422460D02*
Y423930D01*
X423730Y425200D01*
X422460Y426470D02*
X423730Y425200D01*
X422460Y426470D02*
Y427740D01*
X423730D01*
X425000Y426470D01*
X426270Y427740D01*
X427540D01*
Y426470D02*
Y427740D01*
X426270Y425200D02*
X427540Y426470D01*
X426270Y425200D02*
X427540Y423930D01*
Y422660D02*
Y423930D01*
X426270Y422660D02*
X427540D01*
X425000Y423930D02*
X426270Y422660D01*
X423730D02*
X425000Y423930D01*
X422460Y422660D02*
X423730D01*
X346260D02*
Y423930D01*
X347530Y425200D01*
X346260Y426470D02*
X347530Y425200D01*
X346260Y426470D02*
Y427740D01*
X347530D01*
X348800Y426470D01*
X350070Y427740D01*
X351340D01*
Y426470D02*
Y427740D01*
X350070Y425200D02*
X351340Y426470D01*
X350070Y425200D02*
X351340Y423930D01*
Y422660D02*
Y423930D01*
X350070Y422660D02*
X351340D01*
X348800Y423930D02*
X350070Y422660D01*
X347530D02*
X348800Y423930D01*
X346260Y422660D02*
X347530D01*
X549460Y393260D02*
Y394530D01*
X550730Y395800D01*
X549460Y397070D02*
X550730Y395800D01*
X549460Y397070D02*
Y398340D01*
X550730D01*
X552000Y397070D01*
X553270Y398340D01*
X554540D01*
Y397070D02*
Y398340D01*
X553270Y395800D02*
X554540Y397070D01*
X553270Y395800D02*
X554540Y394530D01*
Y393260D02*
Y394530D01*
X553270Y393260D02*
X554540D01*
X552000Y394530D02*
X553270Y393260D01*
X550730D02*
X552000Y394530D01*
X549460Y393260D02*
X550730D01*
X549460Y367860D02*
Y369130D01*
X550730Y370400D01*
X549460Y371670D02*
X550730Y370400D01*
X549460Y371670D02*
Y372940D01*
X550730D01*
X552000Y371670D01*
X553270Y372940D01*
X554540D01*
Y371670D02*
Y372940D01*
X553270Y370400D02*
X554540Y371670D01*
X553270Y370400D02*
X554540Y369130D01*
Y367860D02*
Y369130D01*
X553270Y367860D02*
X554540D01*
X552000Y369130D02*
X553270Y367860D01*
X550730D02*
X552000Y369130D01*
X549460Y367860D02*
X550730D01*
X866460Y452460D02*
X869000Y453730D01*
X871540Y452460D01*
X870270Y455000D02*
X871540Y452460D01*
X870270Y455000D02*
X871540Y457540D01*
X869000Y456270D02*
X871540Y457540D01*
X866460D02*
X869000Y456270D01*
X866460Y457540D02*
X867730Y455000D01*
X866460Y452460D02*
X867730Y455000D01*
X778460Y452460D02*
X781000Y453730D01*
X783540Y452460D01*
X782270Y455000D02*
X783540Y452460D01*
X782270Y455000D02*
X783540Y457540D01*
X781000Y456270D02*
X783540Y457540D01*
X778460D02*
X781000Y456270D01*
X778460Y457540D02*
X779730Y455000D01*
X778460Y452460D02*
X779730Y455000D01*
D104*
X1051898Y172986D02*
X2681353D01*
X1051898Y-20113D02*
X2681353D01*
X1051898Y-44251D02*
X2681353D01*
Y197123D01*
X1051898D02*
X2681353D01*
X1051898Y-44251D02*
Y197123D01*
X2452674Y-44251D02*
Y197123D01*
X2275465Y-44251D02*
Y197123D01*
X2098256Y-44251D02*
Y197123D01*
X1975267Y-44251D02*
Y197123D01*
X1877372Y-44251D02*
Y197123D01*
X1634209Y-44251D02*
Y197123D01*
X1513150Y-44251D02*
Y197123D01*
X1428768Y-44251D02*
Y197123D01*
X1241907Y-44251D02*
Y197123D01*
X1143522Y-44251D02*
Y197123D01*
X1048361Y484030D02*
X1638745D01*
X1048361Y504456D02*
X1638745D01*
X1048361Y259338D02*
Y504456D01*
Y259338D02*
X1119812D01*
X1048361Y279764D02*
X1119812D01*
X1048361Y300191D02*
X1119812D01*
X1048361Y320617D02*
X1119812D01*
X1048361Y341044D02*
X1119812D01*
X1048361Y361470D02*
X1119812D01*
X1048361Y381897D02*
X1119812D01*
X1048361Y402323D02*
X1119812D01*
X1048361Y422750D02*
X1119812D01*
X1048361Y443176D02*
X1119812D01*
X1048361Y463603D02*
X1119812D01*
Y259338D02*
Y504456D01*
Y259338D02*
X1279750D01*
X1119812Y279764D02*
X1279750D01*
X1119812Y300191D02*
X1279750D01*
X1119812Y320617D02*
X1279750D01*
X1119812Y341044D02*
X1279750D01*
X1119812Y361470D02*
X1279750D01*
X1119812Y381897D02*
X1279750D01*
X1119812Y402323D02*
X1279750D01*
X1119812Y422750D02*
X1279750D01*
X1119812Y443176D02*
X1279750D01*
X1119812Y463603D02*
X1279750D01*
Y259338D02*
Y504456D01*
Y259338D02*
X1427776D01*
X1279750Y279764D02*
X1427776D01*
X1279750Y300191D02*
X1427776D01*
X1279750Y320617D02*
X1427776D01*
X1279750Y341044D02*
X1427776D01*
X1279750Y361470D02*
X1427776D01*
X1279750Y381897D02*
X1427776D01*
X1279750Y402323D02*
X1427776D01*
X1279750Y422750D02*
X1427776D01*
X1279750Y443176D02*
X1427776D01*
X1279750Y463603D02*
X1427776D01*
Y259338D02*
Y504456D01*
Y259338D02*
X1540067D01*
X1427776Y279764D02*
X1540067D01*
X1427776Y300191D02*
X1540067D01*
X1427776Y320617D02*
X1540067D01*
X1427776Y341044D02*
X1540067D01*
X1427776Y361470D02*
X1540067D01*
X1427776Y381897D02*
X1540067D01*
X1427776Y402323D02*
X1540067D01*
X1427776Y422750D02*
X1540067D01*
X1427776Y443176D02*
X1540067D01*
X1427776Y463603D02*
X1540067D01*
Y259338D02*
Y504456D01*
Y259338D02*
X1638745D01*
X1540067Y279764D02*
X1638745D01*
X1540067Y300191D02*
X1638745D01*
X1540067Y320617D02*
X1638745D01*
X1540067Y341044D02*
X1638745D01*
X1540067Y361470D02*
X1638745D01*
X1540067Y381897D02*
X1638745D01*
X1540067Y402323D02*
X1638745D01*
X1540067Y422750D02*
X1638745D01*
X1540067Y443176D02*
X1638745D01*
X1540067Y463603D02*
X1638745D01*
Y259338D02*
Y504456D01*
D105*
X2459915Y180227D02*
Y191809D01*
X2465706D01*
X2467637Y189879D01*
Y186018D01*
X2465706Y184088D01*
X2459915D01*
X2463776D02*
X2467637Y180227D01*
X2473428D02*
X2477289D01*
X2479219Y182157D01*
Y186018D01*
X2477289Y187948D01*
X2473428D01*
X2471497Y186018D01*
Y182157D01*
X2473428Y180227D01*
X2483080Y187948D02*
Y182157D01*
X2485010Y180227D01*
X2490801D01*
Y187948D01*
X2496592Y189879D02*
Y187948D01*
X2494662D01*
X2498523D01*
X2496592D01*
Y182157D01*
X2498523Y180227D01*
X2510105D02*
X2506244D01*
X2504314Y182157D01*
Y186018D01*
X2506244Y187948D01*
X2510105D01*
X2512035Y186018D01*
Y184088D01*
X2504314D01*
X2523617Y191809D02*
Y180227D01*
X2517826D01*
X2515896Y182157D01*
Y186018D01*
X2517826Y187948D01*
X2523617D01*
X2539060Y180227D02*
Y191809D01*
X2544851D01*
X2546782Y189879D01*
Y186018D01*
X2544851Y184088D01*
X2539060D01*
X2552573Y187948D02*
X2556434D01*
X2558364Y186018D01*
Y180227D01*
X2552573D01*
X2550643Y182157D01*
X2552573Y184088D01*
X2558364D01*
X2564155Y189879D02*
Y187948D01*
X2562225D01*
X2566086D01*
X2564155D01*
Y182157D01*
X2566086Y180227D01*
X2571877Y191809D02*
Y180227D01*
Y186018D01*
X2573807Y187948D01*
X2577668D01*
X2579598Y186018D01*
Y180227D01*
X2595041Y191809D02*
Y180227D01*
X2602762D01*
X2612414D02*
X2608553D01*
X2606623Y182157D01*
Y186018D01*
X2608553Y187948D01*
X2612414D01*
X2614344Y186018D01*
Y184088D01*
X2606623D01*
X2618205Y180227D02*
Y187948D01*
X2623996D01*
X2625927Y186018D01*
Y180227D01*
X2633648Y176366D02*
X2635579D01*
X2637509Y178296D01*
Y187948D01*
X2631718D01*
X2629788Y186018D01*
Y182157D01*
X2631718Y180227D01*
X2637509D01*
X2643300Y189879D02*
Y187948D01*
X2641370D01*
X2645230D01*
X2643300D01*
Y182157D01*
X2645230Y180227D01*
X2651021Y191809D02*
Y180227D01*
Y186018D01*
X2652952Y187948D01*
X2656813D01*
X2658743Y186018D01*
Y180227D01*
X2282706Y191809D02*
Y180227D01*
Y186018D01*
X2290428D01*
Y191809D01*
Y180227D01*
X2296219D02*
X2300080D01*
X2302010Y182157D01*
Y186018D01*
X2300080Y187948D01*
X2296219D01*
X2294289Y186018D01*
Y182157D01*
X2296219Y180227D01*
X2305871D02*
X2309732D01*
X2307801D01*
Y191809D01*
X2305871D01*
X2321314Y180227D02*
X2317453D01*
X2315523Y182157D01*
Y186018D01*
X2317453Y187948D01*
X2321314D01*
X2323244Y186018D01*
Y184088D01*
X2315523D01*
X2338687Y191809D02*
Y180227D01*
X2346409D01*
X2356060D02*
X2352200D01*
X2350269Y182157D01*
Y186018D01*
X2352200Y187948D01*
X2356060D01*
X2357991Y186018D01*
Y184088D01*
X2350269D01*
X2361852Y180227D02*
Y187948D01*
X2367643D01*
X2369573Y186018D01*
Y180227D01*
X2377294Y176366D02*
X2379225D01*
X2381155Y178296D01*
Y187948D01*
X2375364D01*
X2373434Y186018D01*
Y182157D01*
X2375364Y180227D01*
X2381155D01*
X2386946Y189879D02*
Y187948D01*
X2385016D01*
X2388877D01*
X2386946D01*
Y182157D01*
X2388877Y180227D01*
X2394668Y191809D02*
Y180227D01*
Y186018D01*
X2396598Y187948D01*
X2400459D01*
X2402389Y186018D01*
Y180227D01*
X2105498Y191809D02*
X2113219D01*
X2109358D01*
Y180227D01*
X2122871D02*
X2119010D01*
X2117080Y182157D01*
Y186018D01*
X2119010Y187948D01*
X2122871D01*
X2124801Y186018D01*
Y184088D01*
X2117080D01*
X2128662Y180227D02*
Y187948D01*
X2130592D01*
X2132523Y186018D01*
Y180227D01*
Y186018D01*
X2134453Y187948D01*
X2136383Y186018D01*
Y180227D01*
X2140244Y176366D02*
Y187948D01*
X2146035D01*
X2147966Y186018D01*
Y182157D01*
X2146035Y180227D01*
X2140244D01*
X2151826D02*
X2155687D01*
X2153757D01*
Y191809D01*
X2151826D01*
X2163409Y187948D02*
X2167269D01*
X2169200Y186018D01*
Y180227D01*
X2163409D01*
X2161478Y182157D01*
X2163409Y184088D01*
X2169200D01*
X2174991Y189879D02*
Y187948D01*
X2173060D01*
X2176921D01*
X2174991D01*
Y182157D01*
X2176921Y180227D01*
X2188503D02*
X2184643D01*
X2182712Y182157D01*
Y186018D01*
X2184643Y187948D01*
X2188503D01*
X2190434Y186018D01*
Y184088D01*
X2182712D01*
X1982508Y180227D02*
Y191809D01*
X1988299D01*
X1990230Y189879D01*
Y186018D01*
X1988299Y184088D01*
X1982508D01*
X1996021Y187948D02*
X1999881D01*
X2001812Y186018D01*
Y180227D01*
X1996021D01*
X1994090Y182157D01*
X1996021Y184088D01*
X2001812D01*
X2013394Y191809D02*
Y180227D01*
X2007603D01*
X2005672Y182157D01*
Y186018D01*
X2007603Y187948D01*
X2013394D01*
X2036558Y189879D02*
X2034628Y191809D01*
X2030767D01*
X2028837Y189879D01*
Y187948D01*
X2030767Y186018D01*
X2034628D01*
X2036558Y184088D01*
Y182157D01*
X2034628Y180227D01*
X2030767D01*
X2028837Y182157D01*
X2040419Y191809D02*
Y180227D01*
Y186018D01*
X2042350Y187948D01*
X2046210D01*
X2048141Y186018D01*
Y180227D01*
X2053932Y187948D02*
X2057792D01*
X2059723Y186018D01*
Y180227D01*
X2053932D01*
X2052001Y182157D01*
X2053932Y184088D01*
X2059723D01*
X2063584Y176366D02*
Y187948D01*
X2069375D01*
X2071305Y186018D01*
Y182157D01*
X2069375Y180227D01*
X2063584D01*
X2080957D02*
X2077096D01*
X2075166Y182157D01*
Y186018D01*
X2077096Y187948D01*
X2080957D01*
X2082887Y186018D01*
Y184088D01*
X2075166D01*
X1884613Y191809D02*
Y184088D01*
X1888474Y180227D01*
X1892335Y184088D01*
Y191809D01*
X1896196Y180227D02*
X1900056D01*
X1898126D01*
Y187948D01*
X1896196D01*
X1907778D02*
X1911639D01*
X1913569Y186018D01*
Y180227D01*
X1907778D01*
X1905847Y182157D01*
X1907778Y184088D01*
X1913569D01*
X1917430Y180227D02*
X1925151Y187948D01*
X1929012Y180227D02*
Y191809D01*
X1934803D01*
X1936733Y189879D01*
Y186018D01*
X1934803Y184088D01*
X1929012D01*
X1942525Y187948D02*
X1946385D01*
X1948315Y186018D01*
Y180227D01*
X1942525D01*
X1940594Y182157D01*
X1942525Y184088D01*
X1948315D01*
X1959898Y191809D02*
Y180227D01*
X1954107D01*
X1952176Y182157D01*
Y186018D01*
X1954107Y187948D01*
X1959898D01*
X1641451Y191809D02*
Y180227D01*
X1647242D01*
X1649172Y182157D01*
Y189879D01*
X1647242Y191809D01*
X1641451D01*
X1653033Y187948D02*
Y180227D01*
Y184088D01*
X1654963Y186018D01*
X1656893Y187948D01*
X1658824D01*
X1664615Y180227D02*
X1668476D01*
X1666545D01*
Y187948D01*
X1664615D01*
X1674267Y180227D02*
X1678127D01*
X1676197D01*
Y191809D01*
X1674267D01*
X1683918Y180227D02*
X1687779D01*
X1685849D01*
Y191809D01*
X1683918D01*
X1705152D02*
Y180227D01*
X1712874D01*
X1718665Y187948D02*
X1722526D01*
X1724456Y186018D01*
Y180227D01*
X1718665D01*
X1716735Y182157D01*
X1718665Y184088D01*
X1724456D01*
X1728317Y187948D02*
Y182157D01*
X1730247Y180227D01*
X1736038D01*
Y178296D01*
X1734108Y176366D01*
X1732178D01*
X1736038Y180227D02*
Y187948D01*
X1745690Y180227D02*
X1741830D01*
X1739899Y182157D01*
Y186018D01*
X1741830Y187948D01*
X1745690D01*
X1747621Y186018D01*
Y184088D01*
X1739899D01*
X1751481Y187948D02*
Y180227D01*
Y184088D01*
X1753412Y186018D01*
X1755342Y187948D01*
X1757272D01*
X1774646Y180227D02*
Y191809D01*
X1780437D01*
X1782367Y189879D01*
Y186018D01*
X1780437Y184088D01*
X1774646D01*
X1788158Y187948D02*
X1792019D01*
X1793949Y186018D01*
Y180227D01*
X1788158D01*
X1786228Y182157D01*
X1788158Y184088D01*
X1793949D01*
X1797810Y180227D02*
X1801671D01*
X1799740D01*
Y187948D01*
X1797810D01*
X1807462D02*
Y180227D01*
Y184088D01*
X1809392Y186018D01*
X1811323Y187948D01*
X1813253D01*
X1520391Y191809D02*
Y180227D01*
Y186018D01*
X1528113D01*
Y191809D01*
Y180227D01*
X1533904D02*
X1537765D01*
X1539695Y182157D01*
Y186018D01*
X1537765Y187948D01*
X1533904D01*
X1531974Y186018D01*
Y182157D01*
X1533904Y180227D01*
X1543556D02*
X1547417D01*
X1545486D01*
Y191809D01*
X1543556D01*
X1558999Y180227D02*
X1555138D01*
X1553208Y182157D01*
Y186018D01*
X1555138Y187948D01*
X1558999D01*
X1560929Y186018D01*
Y184088D01*
X1553208D01*
X1576372Y191809D02*
X1584093D01*
X1580233D01*
Y180227D01*
X1587954Y187948D02*
Y182157D01*
X1589885Y180227D01*
X1595676D01*
Y178296D01*
X1593745Y176366D01*
X1591815D01*
X1595676Y180227D02*
Y187948D01*
X1599536Y176366D02*
Y187948D01*
X1605327D01*
X1607258Y186018D01*
Y182157D01*
X1605327Y180227D01*
X1599536D01*
X1616910D02*
X1613049D01*
X1611119Y182157D01*
Y186018D01*
X1613049Y187948D01*
X1616910D01*
X1618840Y186018D01*
Y184088D01*
X1611119D01*
X1436009Y180227D02*
Y191809D01*
X1441800D01*
X1443731Y189879D01*
Y186018D01*
X1441800Y184088D01*
X1436009D01*
X1447592Y180227D02*
X1451452D01*
X1449522D01*
Y191809D01*
X1447592D01*
X1459174Y187948D02*
X1463034D01*
X1464965Y186018D01*
Y180227D01*
X1459174D01*
X1457243Y182157D01*
X1459174Y184088D01*
X1464965D01*
X1470756Y189879D02*
Y187948D01*
X1468826D01*
X1472686D01*
X1470756D01*
Y182157D01*
X1472686Y180227D01*
X1484268D02*
X1480408D01*
X1478477Y182157D01*
Y186018D01*
X1480408Y187948D01*
X1484268D01*
X1486199Y186018D01*
Y184088D01*
X1478477D01*
X1497781Y191809D02*
Y180227D01*
X1491990D01*
X1490060Y182157D01*
Y186018D01*
X1491990Y187948D01*
X1497781D01*
X1249149Y191809D02*
Y180227D01*
Y186018D01*
X1256870D01*
Y191809D01*
Y180227D01*
X1262661D02*
X1266522D01*
X1268452Y182157D01*
Y186018D01*
X1266522Y187948D01*
X1262661D01*
X1260731Y186018D01*
Y182157D01*
X1262661Y180227D01*
X1272313D02*
X1276174D01*
X1274243D01*
Y191809D01*
X1272313D01*
X1287756Y180227D02*
X1283895D01*
X1281965Y182157D01*
Y186018D01*
X1283895Y187948D01*
X1287756D01*
X1289686Y186018D01*
Y184088D01*
X1281965D01*
X1312851Y189879D02*
X1310920Y191809D01*
X1307060D01*
X1305129Y189879D01*
Y187948D01*
X1307060Y186018D01*
X1310920D01*
X1312851Y184088D01*
Y182157D01*
X1310920Y180227D01*
X1307060D01*
X1305129Y182157D01*
X1316711Y180227D02*
X1320572D01*
X1318642D01*
Y187948D01*
X1316711D01*
X1326363D02*
X1334085D01*
X1326363Y180227D01*
X1334085D01*
X1343737D02*
X1339876D01*
X1337946Y182157D01*
Y186018D01*
X1339876Y187948D01*
X1343737D01*
X1345667Y186018D01*
Y184088D01*
X1337946D01*
X1158484Y189879D02*
X1156554Y191809D01*
X1152693D01*
X1150763Y189879D01*
Y182157D01*
X1152693Y180227D01*
X1156554D01*
X1158484Y182157D01*
X1164276Y180227D02*
X1168136D01*
X1170067Y182157D01*
Y186018D01*
X1168136Y187948D01*
X1164276D01*
X1162345Y186018D01*
Y182157D01*
X1164276Y180227D01*
X1173927Y187948D02*
Y182157D01*
X1175858Y180227D01*
X1181649D01*
Y187948D01*
X1185510Y180227D02*
Y187948D01*
X1191301D01*
X1193231Y186018D01*
Y180227D01*
X1199022Y189879D02*
Y187948D01*
X1197092D01*
X1200953D01*
X1199022D01*
Y182157D01*
X1200953Y180227D01*
X1074102Y189879D02*
X1072172Y191809D01*
X1068311D01*
X1066381Y189879D01*
Y187948D01*
X1068311Y186018D01*
X1072172D01*
X1074102Y184088D01*
Y182157D01*
X1072172Y180227D01*
X1068311D01*
X1066381Y182157D01*
X1077963Y187948D02*
Y182157D01*
X1079893Y180227D01*
X1085685D01*
Y178296D01*
X1083754Y176366D01*
X1081824D01*
X1085685Y180227D02*
Y187948D01*
X1089545Y180227D02*
Y187948D01*
X1091476D01*
X1093406Y186018D01*
Y180227D01*
Y186018D01*
X1095336Y187948D01*
X1097267Y186018D01*
Y180227D01*
X1101127Y191809D02*
Y180227D01*
X1106919D01*
X1108849Y182157D01*
Y184088D01*
Y186018D01*
X1106919Y187948D01*
X1101127D01*
X1114640Y180227D02*
X1118501D01*
X1120431Y182157D01*
Y186018D01*
X1118501Y187948D01*
X1114640D01*
X1112710Y186018D01*
Y182157D01*
X1114640Y180227D01*
X1124292D02*
X1128153D01*
X1126222D01*
Y191809D01*
X1124292D01*
D106*
X1235163Y-70497D02*
Y-80149D01*
Y-75323D01*
X1241598D01*
Y-70497D01*
Y-80149D01*
X1246424D02*
X1249641D01*
X1251250Y-78540D01*
Y-75323D01*
X1249641Y-73714D01*
X1246424D01*
X1244815Y-75323D01*
Y-78540D01*
X1246424Y-80149D01*
X1254467D02*
X1257684D01*
X1256076D01*
Y-70497D01*
X1254467D01*
X1267336Y-80149D02*
X1264119D01*
X1262510Y-78540D01*
Y-75323D01*
X1264119Y-73714D01*
X1267336D01*
X1268945Y-75323D01*
Y-76932D01*
X1262510D01*
X1281814Y-70497D02*
Y-80149D01*
X1288248D01*
X1296292D02*
X1293074D01*
X1291466Y-78540D01*
Y-75323D01*
X1293074Y-73714D01*
X1296292D01*
X1297900Y-75323D01*
Y-76932D01*
X1291466D01*
X1301117Y-80149D02*
Y-73714D01*
X1305943D01*
X1307552Y-75323D01*
Y-80149D01*
X1313987Y-83366D02*
X1315595D01*
X1317204Y-81757D01*
Y-73714D01*
X1312378D01*
X1310769Y-75323D01*
Y-78540D01*
X1312378Y-80149D01*
X1317204D01*
X1322030Y-72106D02*
Y-73714D01*
X1320421D01*
X1323638D01*
X1322030D01*
Y-78540D01*
X1323638Y-80149D01*
X1328464Y-70497D02*
Y-80149D01*
Y-75323D01*
X1330073Y-73714D01*
X1333290D01*
X1334899Y-75323D01*
Y-80149D01*
X1235163Y-62200D02*
Y-52548D01*
X1239989D01*
X1241598Y-54157D01*
Y-57374D01*
X1239989Y-58983D01*
X1235163D01*
X1238381D02*
X1241598Y-62200D01*
X1246424D02*
X1249641D01*
X1251250Y-60591D01*
Y-57374D01*
X1249641Y-55765D01*
X1246424D01*
X1244815Y-57374D01*
Y-60591D01*
X1246424Y-62200D01*
X1254467Y-55765D02*
Y-60591D01*
X1256076Y-62200D01*
X1260901D01*
Y-55765D01*
X1265727Y-54157D02*
Y-55765D01*
X1264119D01*
X1267336D01*
X1265727D01*
Y-60591D01*
X1267336Y-62200D01*
X1276988D02*
X1273771D01*
X1272162Y-60591D01*
Y-57374D01*
X1273771Y-55765D01*
X1276988D01*
X1278596Y-57374D01*
Y-58983D01*
X1272162D01*
X1288248Y-52548D02*
Y-62200D01*
X1283422D01*
X1281814Y-60591D01*
Y-57374D01*
X1283422Y-55765D01*
X1288248D01*
X1301117Y-62200D02*
Y-52548D01*
X1305943D01*
X1307552Y-54157D01*
Y-57374D01*
X1305943Y-58983D01*
X1301117D01*
X1312378Y-55765D02*
X1315595D01*
X1317204Y-57374D01*
Y-62200D01*
X1312378D01*
X1310769Y-60591D01*
X1312378Y-58983D01*
X1317204D01*
X1322030Y-54157D02*
Y-55765D01*
X1320421D01*
X1323638D01*
X1322030D01*
Y-60591D01*
X1323638Y-62200D01*
X1328464Y-52548D02*
Y-62200D01*
Y-57374D01*
X1330073Y-55765D01*
X1333290D01*
X1334899Y-57374D01*
Y-62200D01*
X1347768Y-52548D02*
Y-62200D01*
X1354202D01*
X1362246D02*
X1359028D01*
X1357420Y-60591D01*
Y-57374D01*
X1359028Y-55765D01*
X1362246D01*
X1363854Y-57374D01*
Y-58983D01*
X1357420D01*
X1367072Y-62200D02*
Y-55765D01*
X1371897D01*
X1373506Y-57374D01*
Y-62200D01*
X1379941Y-65417D02*
X1381549D01*
X1383158Y-63808D01*
Y-55765D01*
X1378332D01*
X1376723Y-57374D01*
Y-60591D01*
X1378332Y-62200D01*
X1383158D01*
X1387984Y-54157D02*
Y-55765D01*
X1386375D01*
X1389592D01*
X1387984D01*
Y-60591D01*
X1389592Y-62200D01*
X1394418Y-52548D02*
Y-62200D01*
Y-57374D01*
X1396027Y-55765D01*
X1399244D01*
X1400853Y-57374D01*
Y-62200D01*
X1072815Y-54157D02*
X1071207Y-52548D01*
X1067990D01*
X1066381Y-54157D01*
Y-55765D01*
X1067990Y-57374D01*
X1071207D01*
X1072815Y-58983D01*
Y-60591D01*
X1071207Y-62200D01*
X1067990D01*
X1066381Y-60591D01*
X1076033Y-62200D02*
X1079250D01*
X1077641D01*
Y-52548D01*
X1076033D01*
X1085685Y-62200D02*
X1088902D01*
X1090510Y-60591D01*
Y-57374D01*
X1088902Y-55765D01*
X1085685D01*
X1084076Y-57374D01*
Y-60591D01*
X1085685Y-62200D01*
X1095336Y-54157D02*
Y-55765D01*
X1093728D01*
X1096945D01*
X1095336D01*
Y-60591D01*
X1096945Y-62200D01*
X1117857Y-52548D02*
Y-62200D01*
X1113031D01*
X1111423Y-60591D01*
Y-57374D01*
X1113031Y-55765D01*
X1117857D01*
X1125900Y-62200D02*
X1122683D01*
X1121075Y-60591D01*
Y-57374D01*
X1122683Y-55765D01*
X1125900D01*
X1127509Y-57374D01*
Y-58983D01*
X1121075D01*
X1132335Y-62200D02*
Y-54157D01*
Y-57374D01*
X1130726D01*
X1133944D01*
X1132335D01*
Y-54157D01*
X1133944Y-52548D01*
X1138770Y-62200D02*
X1141987D01*
X1140378D01*
Y-55765D01*
X1138770D01*
X1146813Y-62200D02*
Y-55765D01*
X1151639D01*
X1153247Y-57374D01*
Y-62200D01*
X1156465D02*
X1159682D01*
X1158073D01*
Y-55765D01*
X1156465D01*
X1166116Y-54157D02*
Y-55765D01*
X1164508D01*
X1167725D01*
X1166116D01*
Y-60591D01*
X1167725Y-62200D01*
X1172551D02*
X1175768D01*
X1174160D01*
Y-55765D01*
X1172551D01*
X1182203Y-62200D02*
X1185420D01*
X1187029Y-60591D01*
Y-57374D01*
X1185420Y-55765D01*
X1182203D01*
X1180594Y-57374D01*
Y-60591D01*
X1182203Y-62200D01*
X1190246D02*
Y-55765D01*
X1195072D01*
X1196681Y-57374D01*
Y-62200D01*
X1199898D02*
X1204724D01*
X1206332Y-60591D01*
X1204724Y-58983D01*
X1201506D01*
X1199898Y-57374D01*
X1201506Y-55765D01*
X1206332D01*
X1219201D02*
X1220810D01*
Y-57374D01*
X1219201D01*
Y-55765D01*
Y-60591D02*
X1220810D01*
Y-62200D01*
X1219201D01*
Y-60591D01*
M02*
