G04*
G04 #@! TF.GenerationSoftware,Altium Limited,Altium Designer,24.3.1 (35)*
G04*
G04 Layer_Color=16711935*
%FSLAX44Y44*%
%MOMM*%
G71*
G04*
G04 #@! TF.SameCoordinates,254911FF-814D-4673-B187-D90DD251410E*
G04*
G04*
G04 #@! TF.FilePolarity,Positive*
G04*
G01*
G75*
%ADD15C,0.1500*%
%ADD45C,0.0500*%
D15*
X398750Y298000D02*
Y309996D01*
X402748Y305998D01*
X406747Y309996D01*
Y298000D01*
X416744D02*
X412745D01*
X410746Y300000D01*
Y303998D01*
X412745Y305998D01*
X416744D01*
X418743Y303998D01*
Y301999D01*
X410746D01*
X430740Y305998D02*
X424741D01*
X422742Y303998D01*
Y300000D01*
X424741Y298000D01*
X430740D01*
X434738Y309996D02*
Y298000D01*
Y303998D01*
X436738Y305998D01*
X440736D01*
X442736Y303998D01*
Y298000D01*
X448734Y305998D02*
X452732D01*
X454732Y303998D01*
Y298000D01*
X448734D01*
X446734Y300000D01*
X448734Y301999D01*
X454732D01*
X458730Y298000D02*
Y305998D01*
X464729D01*
X466728Y303998D01*
Y298000D01*
X470727D02*
X474725D01*
X472726D01*
Y305998D01*
X470727D01*
X488721D02*
X482723D01*
X480723Y303998D01*
Y300000D01*
X482723Y298000D01*
X488721D01*
X494719Y305998D02*
X498717D01*
X500717Y303998D01*
Y298000D01*
X494719D01*
X492719Y300000D01*
X494719Y301999D01*
X500717D01*
X504715Y298000D02*
X508714D01*
X506715D01*
Y309996D01*
X504715D01*
X526708Y298000D02*
X530707D01*
X528708D01*
Y309996D01*
X526708Y307997D01*
X743750Y298250D02*
Y310246D01*
X739751Y306248D01*
X735752Y310246D01*
Y298250D01*
X725756D02*
X729754D01*
X731754Y300250D01*
Y304248D01*
X729754Y306248D01*
X725756D01*
X723756Y304248D01*
Y302249D01*
X731754D01*
X711760Y306248D02*
X717758D01*
X719758Y304248D01*
Y300250D01*
X717758Y298250D01*
X711760D01*
X707762Y310246D02*
Y298250D01*
Y304248D01*
X705762Y306248D01*
X701763D01*
X699764Y304248D01*
Y298250D01*
X693766Y306248D02*
X689767D01*
X687768Y304248D01*
Y298250D01*
X693766D01*
X695765Y300250D01*
X693766Y302249D01*
X687768D01*
X683769Y298250D02*
Y306248D01*
X677771D01*
X675772Y304248D01*
Y298250D01*
X671773D02*
X667774D01*
X669774D01*
Y306248D01*
X671773D01*
X653779D02*
X659777D01*
X661776Y304248D01*
Y300250D01*
X659777Y298250D01*
X653779D01*
X647781Y306248D02*
X643782D01*
X641783Y304248D01*
Y298250D01*
X647781D01*
X649780Y300250D01*
X647781Y302249D01*
X641783D01*
X637784Y298250D02*
X633785D01*
X635785D01*
Y310246D01*
X637784D01*
X615791Y298250D02*
X611792D01*
X613792D01*
Y310246D01*
X615791Y308247D01*
D45*
X0Y0D02*
Y240000D01*
Y0D02*
X370000D01*
Y240000D01*
X0D02*
X370000D01*
X370000Y5000D02*
Y235000D01*
X0Y5000D02*
X0Y5000D01*
X0Y235000D02*
X0Y235000D01*
X0Y5000D02*
Y235000D01*
M02*
