G04*
G04 #@! TF.GenerationSoftware,Altium Limited,Altium Designer,24.3.1 (35)*
G04*
G04 Layer_Color=8421504*
%FSLAX44Y44*%
%MOMM*%
G71*
G04*
G04 #@! TF.SameCoordinates,254911FF-814D-4673-B187-D90DD251410E*
G04*
G04*
G04 #@! TF.FilePolarity,Positive*
G04*
G01*
G75*
%ADD15C,0.1500*%
G04:AMPARAMS|DCode=16|XSize=0.7mm|YSize=0.6mm|CornerRadius=0.075mm|HoleSize=0mm|Usage=FLASHONLY|Rotation=270.000|XOffset=0mm|YOffset=0mm|HoleType=Round|Shape=RoundedRectangle|*
%AMROUNDEDRECTD16*
21,1,0.7000,0.4500,0,0,270.0*
21,1,0.5500,0.6000,0,0,270.0*
1,1,0.1500,-0.2250,-0.2750*
1,1,0.1500,-0.2250,0.2750*
1,1,0.1500,0.2250,0.2750*
1,1,0.1500,0.2250,-0.2750*
%
%ADD16ROUNDEDRECTD16*%
%ADD17R,1.2000X1.1000*%
G04:AMPARAMS|DCode=18|XSize=1.4mm|YSize=0.95mm|CornerRadius=0.1188mm|HoleSize=0mm|Usage=FLASHONLY|Rotation=0.000|XOffset=0mm|YOffset=0mm|HoleType=Round|Shape=RoundedRectangle|*
%AMROUNDEDRECTD18*
21,1,1.4000,0.7125,0,0,0.0*
21,1,1.1625,0.9500,0,0,0.0*
1,1,0.2375,0.5813,-0.3563*
1,1,0.2375,-0.5813,-0.3563*
1,1,0.2375,-0.5813,0.3563*
1,1,0.2375,0.5813,0.3563*
%
%ADD18ROUNDEDRECTD18*%
G04:AMPARAMS|DCode=19|XSize=1mm|YSize=0.6mm|CornerRadius=0.075mm|HoleSize=0mm|Usage=FLASHONLY|Rotation=0.000|XOffset=0mm|YOffset=0mm|HoleType=Round|Shape=RoundedRectangle|*
%AMROUNDEDRECTD19*
21,1,1.0000,0.4500,0,0,0.0*
21,1,0.8500,0.6000,0,0,0.0*
1,1,0.1500,0.4250,-0.2250*
1,1,0.1500,-0.4250,-0.2250*
1,1,0.1500,-0.4250,0.2250*
1,1,0.1500,0.4250,0.2250*
%
%ADD19ROUNDEDRECTD19*%
G04:AMPARAMS|DCode=20|XSize=2.4mm|YSize=1.9mm|CornerRadius=0.2375mm|HoleSize=0mm|Usage=FLASHONLY|Rotation=180.000|XOffset=0mm|YOffset=0mm|HoleType=Round|Shape=RoundedRectangle|*
%AMROUNDEDRECTD20*
21,1,2.4000,1.4250,0,0,180.0*
21,1,1.9250,1.9000,0,0,180.0*
1,1,0.4750,-0.9625,0.7125*
1,1,0.4750,0.9625,0.7125*
1,1,0.4750,0.9625,-0.7125*
1,1,0.4750,-0.9625,-0.7125*
%
%ADD20ROUNDEDRECTD20*%
%ADD21C,1.0000*%
G04:AMPARAMS|DCode=22|XSize=1mm|YSize=1.8mm|CornerRadius=0.125mm|HoleSize=0mm|Usage=FLASHONLY|Rotation=180.000|XOffset=0mm|YOffset=0mm|HoleType=Round|Shape=RoundedRectangle|*
%AMROUNDEDRECTD22*
21,1,1.0000,1.5500,0,0,180.0*
21,1,0.7500,1.8000,0,0,180.0*
1,1,0.2500,-0.3750,0.7750*
1,1,0.2500,0.3750,0.7750*
1,1,0.2500,0.3750,-0.7750*
1,1,0.2500,-0.3750,-0.7750*
%
%ADD22ROUNDEDRECTD22*%
G04:AMPARAMS|DCode=23|XSize=0.28mm|YSize=1.8mm|CornerRadius=0.035mm|HoleSize=0mm|Usage=FLASHONLY|Rotation=270.000|XOffset=0mm|YOffset=0mm|HoleType=Round|Shape=RoundedRectangle|*
%AMROUNDEDRECTD23*
21,1,0.2800,1.7300,0,0,270.0*
21,1,0.2100,1.8000,0,0,270.0*
1,1,0.0700,-0.8650,-0.1050*
1,1,0.0700,-0.8650,0.1050*
1,1,0.0700,0.8650,0.1050*
1,1,0.0700,0.8650,-0.1050*
%
%ADD23ROUNDEDRECTD23*%
G04:AMPARAMS|DCode=24|XSize=0.28mm|YSize=1.8mm|CornerRadius=0.035mm|HoleSize=0mm|Usage=FLASHONLY|Rotation=180.000|XOffset=0mm|YOffset=0mm|HoleType=Round|Shape=RoundedRectangle|*
%AMROUNDEDRECTD24*
21,1,0.2800,1.7300,0,0,180.0*
21,1,0.2100,1.8000,0,0,180.0*
1,1,0.0700,-0.1050,0.8650*
1,1,0.0700,0.1050,0.8650*
1,1,0.0700,0.1050,-0.8650*
1,1,0.0700,-0.1050,-0.8650*
%
%ADD24ROUNDEDRECTD24*%
D15*
X398750Y346996D02*
X406747D01*
X402748D01*
Y335000D01*
X412745D02*
X416744D01*
X418743Y337000D01*
Y340998D01*
X416744Y342998D01*
X412745D01*
X410746Y340998D01*
Y337000D01*
X412745Y335000D01*
X422742Y331001D02*
Y342998D01*
X428740D01*
X430740Y340998D01*
Y337000D01*
X428740Y335000D01*
X422742D01*
X446734D02*
Y346996D01*
X452732D01*
X454732Y344997D01*
Y340998D01*
X452732Y338999D01*
X446734D01*
X460730Y342998D02*
X464729D01*
X466728Y340998D01*
Y335000D01*
X460730D01*
X458730Y337000D01*
X460730Y338999D01*
X466728D01*
X470727Y335000D02*
X476725D01*
X478724Y337000D01*
X476725Y338999D01*
X472726D01*
X470727Y340998D01*
X472726Y342998D01*
X478724D01*
X484722Y344997D02*
Y342998D01*
X482723D01*
X486721D01*
X484722D01*
Y337000D01*
X486721Y335000D01*
X498717D02*
X494719D01*
X492719Y337000D01*
Y340998D01*
X494719Y342998D01*
X498717D01*
X500717Y340998D01*
Y338999D01*
X492719D01*
X743750Y347246D02*
X735752D01*
X739751D01*
Y335250D01*
X729754D02*
X725756D01*
X723756Y337249D01*
Y341248D01*
X725756Y343247D01*
X729754D01*
X731754Y341248D01*
Y337249D01*
X729754Y335250D01*
X719758Y331251D02*
Y343247D01*
X713760D01*
X711760Y341248D01*
Y337249D01*
X713760Y335250D01*
X719758D01*
X695765D02*
Y347246D01*
X689767D01*
X687768Y345247D01*
Y341248D01*
X689767Y339249D01*
X695765D01*
X681770Y343247D02*
X677771D01*
X675772Y341248D01*
Y335250D01*
X681770D01*
X683769Y337249D01*
X681770Y339249D01*
X675772D01*
X671773Y335250D02*
X665775D01*
X663776Y337249D01*
X665775Y339249D01*
X669774D01*
X671773Y341248D01*
X669774Y343247D01*
X663776D01*
X657778Y345247D02*
Y343247D01*
X659777D01*
X655778D01*
X657778D01*
Y337249D01*
X655778Y335250D01*
X643782D02*
X647781D01*
X649780Y337249D01*
Y341248D01*
X647781Y343247D01*
X643782D01*
X641783Y341248D01*
Y339249D01*
X649780D01*
D16*
X269000Y185000D02*
D03*
X279000D02*
D03*
X211000Y99000D02*
D03*
X201000D02*
D03*
X211000Y134000D02*
D03*
X201000D02*
D03*
X211000Y112000D02*
D03*
X201000D02*
D03*
X211000Y121000D02*
D03*
X201000D02*
D03*
X200000Y158000D02*
D03*
X210000D02*
D03*
D17*
X297000Y58500D02*
D03*
Y79500D02*
D03*
D18*
X275000Y78500D02*
D03*
Y59500D02*
D03*
D19*
Y170500D02*
D03*
Y155500D02*
D03*
Y131500D02*
D03*
Y116500D02*
D03*
X248000Y55500D02*
D03*
Y70500D02*
D03*
X186000D02*
D03*
Y55500D02*
D03*
X297000Y124800D02*
D03*
Y139800D02*
D03*
Y110800D02*
D03*
Y95800D02*
D03*
D20*
X249000Y164500D02*
D03*
Y123500D02*
D03*
D21*
X95000Y176000D02*
D03*
X350000Y216000D02*
D03*
Y26000D02*
D03*
D22*
X229500Y77000D02*
D03*
X204500D02*
D03*
D23*
X180500Y98500D02*
D03*
Y103500D02*
D03*
Y108500D02*
D03*
Y113500D02*
D03*
Y118500D02*
D03*
Y123500D02*
D03*
Y128500D02*
D03*
Y133500D02*
D03*
Y138500D02*
D03*
Y143500D02*
D03*
Y148500D02*
D03*
Y153500D02*
D03*
X99500D02*
D03*
Y148500D02*
D03*
Y143500D02*
D03*
Y138500D02*
D03*
Y133500D02*
D03*
Y128500D02*
D03*
Y123500D02*
D03*
Y118500D02*
D03*
Y113500D02*
D03*
Y108500D02*
D03*
Y103500D02*
D03*
Y98500D02*
D03*
D24*
X167500Y166500D02*
D03*
X162500D02*
D03*
X157500D02*
D03*
X152500D02*
D03*
X147500D02*
D03*
X142500D02*
D03*
X137500D02*
D03*
X132500D02*
D03*
X127500D02*
D03*
X122500D02*
D03*
X117500D02*
D03*
X112500D02*
D03*
Y85500D02*
D03*
X117500D02*
D03*
X122500D02*
D03*
X127500D02*
D03*
X132500D02*
D03*
X137500Y85500D02*
D03*
X142500D02*
D03*
X147500D02*
D03*
X152500Y85500D02*
D03*
X157500D02*
D03*
X162500D02*
D03*
X167500D02*
D03*
M02*
